<?xml version="1.0" encoding="utf-8" ?>
<svg baseProfile="full" height="200mm" version="1.1" viewBox="0,0,200,200" width="200mm" xmlns="http://www.w3.org/2000/svg" xmlns:ev="http://www.w3.org/2001/xml-events" xmlns:xlink="http://www.w3.org/1999/xlink"><defs /><rect fill="#1a1a1a" height="200" width="200" x="0" y="0" /><text alignment-baseline="middle" fill="#e1ed5e" style="dominant-baseline: central; font-size:9.0px; font-family:Arial;" text-anchor="middle" x="100.0" y="100.0">2020</text><line stroke="#e1ed5e" stroke-width="0.3" x1="100.0" x2="100.0" y1="15.0" y2="10.0" /><path d="M 100.0 14.0 a86.0,86.0 0 0,1 42.35913384403234,11.155469271406648" fill="none" id="id49" stroke="none" /><text fill="#e1ed5e" style="font-size:6.75px; font-family:Arial;" text-anchor="middle"><textPath startOffset="22.145653131862478" xlink:href="#id49">January</textPath></text><line stroke="#e1ed5e" stroke-width="0.3" x1="143.13028292997686" x2="145.6673583964461" y1="26.7553504044142" y2="22.446841604673864" /><path d="M 143.63769802327073 25.89364864446614 a86.0,86.0 0 0,1 29.32050498858742,28.57503671076993" fill="none" id="id50" stroke="none" /><text fill="#e1ed5e" style="font-size:6.75px; font-family:Arial;" text-anchor="middle"><textPath startOffset="20.669276256404974" xlink:href="#id50">February</textPath></text><line stroke="#e1ed5e" stroke-width="0.3" x1="172.87174338648825" x2="177.1583165268699" y1="56.24261187166439" y2="53.66864786411523" /><path d="M 173.72905801456457 55.72781907015455 a86.0,86.0 0 0,1 12.242430191666344,42.057860355516425" fill="none" id="id51" stroke="none" /><text fill="#e1ed5e" style="font-size:6.75px; font-family:Arial;" text-anchor="middle"><textPath startOffset="22.145653131862474" xlink:href="#id51">March</textPath></text><line stroke="#e1ed5e" stroke-width="0.3" x1="184.99686870605535" x2="189.99668451229388" y1="99.2704041080226" y2="99.22748670261217" /><path d="M 185.99683186730306 99.26182062694052 a86.0,86.0 0 0,1 -10.086455211305974,41.156179273409016" fill="none" id="id52" stroke="none" /><text fill="#e1ed5e" style="font-size:6.75px; font-family:Arial;" text-anchor="middle"><textPath startOffset="21.40746469413373" xlink:href="#id52">April</textPath></text><path d="M 120.16314734710363 105.8691983318838 l 23.27518780715488 6.775067954441079 a45.241202801132324,45.241202801132324 0 0,0 -0.2234563829521687,0.7438136235979533 l -23.15545510419908 -7.173619181629756" fill="#edff1a" stroke="none" /><path d="M 119.4528033332814 107.91128576633889 l 27.639178516460937 11.24061328561697 a50.83748608883772,50.83748608883772 0 0,0 -0.3357069261551303,0.8055744129569751 l -27.44214574576932 -11.713420208015222" fill="#a8ff21" stroke="none" /><path d="M 119.16976305983485 108.57439118712176 l 27.26456615220358 12.195093648599679 a50.86765602731492,50.86765602731492 0 0,0 -0.36337803050031336,0.7940465759365344 l -27.05120365684821 -12.661329206750903" fill="#a7ff21" stroke="none" /><line stroke="#e1ed5e" stroke-width="0.3" x1="174.33088141563837" x2="178.70328620479359" y1="141.23008692659167" y2="143.65538615756765" /><path d="M 175.20536237346943 141.71514677278685 a86.0,86.0 0 0,1 -30.301960400862466,31.631185727798858" fill="none" id="id53" stroke="none" /><text fill="#e1ed5e" style="font-size:6.75px; font-family:Arial;" text-anchor="middle"><textPath startOffset="22.145653131862474" xlink:href="#id53">May</textPath></text><path d="M 118.00360718960297 110.81064883170644 l 23.95496469138283 14.384268015135351 a48.941859274154325,48.941859274154325 0 0,0 -0.4386869425957714,0.7165621521265515 l -23.704509784331655 -14.79336728338646" fill="#beff1e" stroke="none" /><path d="M 117.81537515405839 111.11811171558189 l 20.273485446145752 12.652154338895564 a44.89751496600258,44.89751496600258 0 0,0 -0.4136607064706349,0.650343337788936 l -20.053307048049227 -12.99831135136317" fill="#f1ff19" stroke="none" /><path d="M 116.57777611688842 112.89097897827486 l 23.563515261438805 18.32313198994271 a50.84922808712013,50.84922808712013 0 0,0 -0.5417466332882259,0.6844791736934381 l -23.24550219750902 -18.72493110755083" fill="#a7ff21" stroke="none" /><path d="M 116.35404254752997 113.17365903436017 l 23.26171061433558 18.737987460812686 a50.870041091144586,50.870041091144586 0 0,0 -0.5536433188972768,0.675354827910239 l -22.93662047619968 -19.13454457042142" fill="#a7ff21" stroke="none" /><path d="M 115.89218393027572 113.72728997021213 l 22.5661394279795 19.492093773592323 a50.8189934163031,50.8189934163031 0 0,0 -0.5759218178019819,0.6552933081487431 l -22.228206546218935 -19.876599359552362" fill="#a8ff21" stroke="none" /><path d="M 115.41159269507618 114.26474011684316 l 21.879537522726068 20.251373288506368 a50.813290363172044,50.813290363172044 0 0,0 -0.5980099181868329,0.6350658097206898 l -21.528671770802973 -20.623980558171553" fill="#a8ff21" stroke="none" /><path d="M 115.16444852881244 114.52719865689866 l 21.578873073753115 20.672072270798374 a50.88281002687428,50.88281002687428 0 0,0 -0.6096565046332202,0.6255612815603402 l -21.220829767969086 -21.03945624442645" fill="#a7ff21" stroke="none" /><path d="M 114.65682725009322 115.03919595460226 l 20.849134073666246 21.393048268045007 a50.872209590531035,50.872209590531035 0 0,0 -0.630639802916275,0.6041386655443128 l -20.47882178488466 -21.747799063894902" fill="#a7ff21" stroke="none" /><path d="M 114.13192950727249 115.5334660781643 l 8.665213692567876 9.524587770147058 a33.876478576423786,33.876478576423786 0 0,0 -0.4335140267406504,0.38765091589163386 l -8.500434639003847 -9.671934215922079" fill="#ff770a" stroke="none" /><path d="M 113.59037401385872 116.0094264158162 l 19.303891854066705 22.73993606514493 a50.82859254072143,50.82859254072143 0 0,0 -0.6700313796999497,0.5589640074375053 l -18.91068614020486 -23.067962256494308" fill="#a8ff21" stroke="none" /><path d="M 113.31354834802062 116.24036423190432 l 18.945465166192033 23.110387013208136 a50.88345090955285,50.88345090955285 0 0,0 -0.680261411643966,0.5479704400416651 l -18.545952984192812 -23.432205747043206" fill="#a7ff21" stroke="none" /><path d="M 113.03279911837588 116.46651593811092 l 18.521421403594335 23.401210896340537 a50.84392270169137,50.84392270169137 0 0,0 -0.6890321322207809,0.5357955535884753 l -18.116979326738324 -23.715707501549804" fill="#a8ff21" stroke="none" /><path d="M 112.45986205192187 116.90419585922612 l 17.72223352445767 24.043613429425317 a50.8692635972006,50.8692635972006 0 0,0 -0.7073709980321341,0.5120820516794199 l -17.306881516051572 -24.344296252477815" fill="#a7ff21" stroke="none" /><path d="M 111.27062007382361 117.71928675628689 l 33.81186022147083 53.157860268860695 a84.0,84.0 0 0,0 -1.2233434848411404,0.7634568126338093 l -32.89435260783998 -53.73045287833605" fill="#4dd2ff" stroke="none" /><line stroke="#e1ed5e" stroke-width="0.3" x1="143.1302829299769" x2="145.66735839644613" y1="173.24464959558577" y2="177.55315839532614" /><path d="M 143.63769802327073 174.10635135553383 a86.0,86.0 0 0,1 -40.68552437913181,11.842963189579606" fill="none" id="id54" stroke="none" /><text fill="#e1ed5e" style="font-size:6.75px; font-family:Arial;" text-anchor="middle"><textPath startOffset="21.407464694133747" xlink:href="#id54">June</textPath></text><path d="M 110.02825361518725 118.45085714620011 l 14.276074772946751 26.26636963440949 a50.89529201553642,50.89529201553642 0 0,0 -0.771211959197762,0.4106269295864586 l -13.823073997962435 -26.507567031718516" fill="#a7ff21" stroke="none" /><path d="M 109.06512990194946 118.94263497670748 l 5.582999869689705 11.666322463155712 a33.933405095305986,33.933405095305986 0 0,0 -0.5276018923994067,0.24694432582420564 l -5.381909263418792 -11.76044302055045" fill="#ff780b" stroke="none" /><path d="M 108.73861861582097 119.09545874513695 l 12.425409444148194 27.151762064841662 a50.85982222118045,50.85982222118045 0 0,0 -0.7970136107683831,0.35649405049283855 l -11.957482430524184 -27.36105986624435" fill="#a7ff21" stroke="none" /><path d="M 107.06938296918513 119.77432235084164 l 4.394688039539955 12.292724599027974 a34.054668170138335,34.054668170138335 0 0,0 -0.5521627593740106,0.19207087030608172 l -4.183019508120922 -12.366353901902645" fill="#ff790b" stroke="none" /><path d="M 106.38641147887787 120.00534299687104 l 7.2684348009311215 22.768268490675123 a44.900296954616614,44.900296954616614 0 0,0 -0.7362779925318053,0.22810080417206835 l -6.876516175527692 -22.889685882653833" fill="#f1ff19" stroke="none" /><path d="M 105.69591212413111 120.21278271476187 l 3.2618108521581175 11.575016007007253 a33.02582244995038,33.02582244995038 0 0,0 -0.5469997760724399,0.14908722136850458 l -3.0626296751509825 -11.6293037225199" fill="#ff6a09" stroke="none" /><path d="M 104.9986988182912 120.39639698878246 l 7.119243233782275 29.048941841542167 a50.90860488780869,50.90860488780869 0 0,0 -0.8505805977663284,0.20073470506196148 l -6.619530482276067 -29.166872690250354" fill="#a7ff21" stroke="none" /><path d="M 104.64783097203109 120.47920084513623 l 6.611360898440353 29.130875996480817 a50.87169277513024,50.87169277513024 0 0,0 -0.8532820059812211,0.18596884174362774 l -6.110316475839996 -29.240076296358165" fill="#a7ff21" stroke="none" /><line stroke="#e1ed5e" stroke-width="0.3" x1="101.45913802915013" x2="101.54496967792366" y1="184.9874750549273" y2="189.98673829345242" /><path d="M 101.47630435890484 185.9873277026323 a86.0,86.0 0 0,1 -42.54439059252881,-10.42667462771756" fill="none" id="id55" stroke="none" /><text fill="#e1ed5e" style="font-size:6.75px; font-family:Arial;" text-anchor="middle"><textPath startOffset="22.145653131862474" xlink:href="#id55">July</textPath></text><path d="M 98.55909050195518 120.95050786540614 l -0.8891315772840311 12.92777799615186 a33.95831774882495,33.95831774882495 0 0,0 -0.5812224897239092,-0.04499029661256253 l 1.1109230617831765 -12.910609932544245" fill="#ff780b" stroke="none" /><path d="M 97.48249496171623 120.84855314841334 l -3.581924242410347 29.663471097714922 a50.87895076543578,50.87895076543578 0 0,0 -0.8662072998842693,-0.11214787704431477 l 4.09060936418541 -29.59761162447021" fill="#a7ff21" stroke="none" /><path d="M 95.70440661134978 120.55596938700252 l -2.6529424089158993 12.695289802625357 a33.96952144829052,33.96952144829052 0 0,0 -0.5697781973119174,-0.12418050616574425 l 2.8704830228469533 -12.647877838325893" fill="#ff780b" stroke="none" /><path d="M 95.35216902796893 120.47920084513623 l -5.289526093054888 23.306627949062936 a44.899330380685356,44.899330380685356 0 0,0 -0.750177683294871,-0.17703989062965927 l 5.688835930089646 -23.212391914787048" fill="#f1ff19" stroke="none" /><path d="M 90.6110303473126 118.78422872680471 l -5.568553292676695 11.140836811321536 a33.45500022600873,33.45500022600873 0 0,0 -0.5114995176255882,-0.2611752982779808 l 5.758980032015866 -11.043603561370718" fill="#ff710a" stroke="none" /><line stroke="#e1ed5e" stroke-width="0.3" x1="58.13341422392154" x2="55.67067388415222" y1="173.97424548756322" y2="178.32567169271397" /><path d="M 57.64086615596768 174.84453072859336 a86.0,86.0 0 0,1 -31.369924170532247,-30.572349798747897" fill="none" id="id56" stroke="none" /><text fill="#e1ed5e" style="font-size:6.75px; font-family:Arial;" text-anchor="middle"><textPath startOffset="22.145653131862474" xlink:href="#id56">August</textPath></text><path d="M 89.65649057296885 118.27599006163327 l -12.72514046522835 22.484103902649274 a46.83532713485394,46.83532713485394 0 0,0 -0.6963019953201717,-0.4020101444353777 l 13.109234928408922 -22.262346860937726" fill="#d9ff1c" stroke="none" /><line stroke="#e1ed5e" stroke-width="0.3" x1="26.387840678322732" x2="22.057713659400548" y1="142.50000000000003" y2="145.00000000000006" /><path d="M 25.521815274538298 143.00000000000003 a86.0,86.0 0 0,1 -11.493303480769221,-40.785679425670985" fill="none" id="id57" stroke="none" /><text fill="#e1ed5e" style="font-size:6.75px; font-family:Arial;" text-anchor="middle"><textPath startOffset="21.40746469413373" xlink:href="#id57">September</textPath></text><path d="M 79.94057633289273 106.21446072829308 l -11.982406925800554 3.7121802952354184 a33.54425598749512,33.54425598749512 0 0,0 -0.1656825558934892,-0.5515033432385137 l 12.044365801697673 -3.5059393484061814" fill="#ff720a" stroke="none" /><line stroke="#e1ed5e" stroke-width="0.3" x1="15.003131293944662" x2="10.003315487706104" y1="100.72959589197737" y2="100.7725132973878" /><path d="M 14.003168132696942 100.73817937305945 a86.0,86.0 0 0,1 10.791469493833604,-42.45332614584628" fill="none" id="id58" stroke="none" /><text fill="#e1ed5e" style="font-size:6.75px; font-family:Arial;" text-anchor="middle"><textPath startOffset="22.145653131862435" xlink:href="#id58">October</textPath></text><path d="M 80.16572619554312 93.10060997987247 l -24.464025721722674 -8.50985806592369 a46.9018578255552,46.9018578255552 0 0,0 0.27104769001583473,-0.7581686291699007 l 24.314337861662896 8.928561651474512" fill="#d8ff1c" stroke="none" /><path d="M 80.83023694016515 91.42560881287825 l -12.346809241699319 -5.522570728738676 a34.525623309290886,34.525623309290886 0 0,0 0.2466371360455402,-0.5389466531757863 l 12.250187640798732 5.733706364129134" fill="#ff800b" stroke="none" /><path d="M 81.1358732173502 90.77261029715801 l -11.52118509958359 -5.635588966154144 a33.82566057146006,33.82566057146006 0 0,0 0.25962013840847725,-0.5194141894530032 l 11.42274504796337 5.832535011770918" fill="#ff760a" stroke="none" /><path d="M 81.29705330413844 90.45014215332179 l -26.652389340426627 -13.608899903014521 a50.92577507975283,50.92577507975283 0 0,0 0.40423408509485154,-0.7751721584313767 l 26.414847186356834 14.064418304550383" fill="#a7ff21" stroke="none" /><line stroke="#e1ed5e" stroke-width="0.3" x1="26.387840678322718" x2="22.05771365940052" y1="57.49999999999999" y2="54.99999999999999" /><path d="M 25.521815274538284 56.99999999999999 a86.0,86.0 0 0,1 29.574782752854787,-30.34633250058573" fill="none" id="id59" stroke="none" /><text fill="#e1ed5e" style="font-size:6.75px; font-family:Arial;" text-anchor="middle"><textPath startOffset="21.40746469413373" xlink:href="#id59">November</textPath></text><path d="M 82.18462484594161 88.88188828441811 l -25.373818069821294 -15.83513911503898 a50.909568272260756,50.909568272260756 0 0,0 0.46905241845935075,-0.7374283093540129 l 25.098247959736053 16.268381099071664" fill="#a7ff21" stroke="none" /><path d="M 82.576782715395 88.27688183743585 l -24.94241184748048 -16.782367835458164 a51.06279725730717,51.06279725730717 0 0,0 0.49557724514086043,-0.7230620111659167 l 24.650644865524306 17.208064581694117" fill="#a5ff21" stroke="none" /><path d="M 83.42222388311158 87.10902102172516 l -23.601385865346206 -18.3525804005994 a50.8972009078681,50.8972009078681 0 0,0 0.5422577347367085,-0.6851249336772288 l 23.282861699967935 18.75502527819131" fill="#a7ff21" stroke="none" /><path d="M 84.10781606972428 86.27271002978789 l -22.644731882729808 -19.559980064146316 a50.92284582305836,50.92284582305836 0 0,0 0.5770987570300138,-0.6566324489424915 l 22.305622061741204 19.945824790900105" fill="#a7ff21" stroke="none" /><path d="M 85.34317274990677 84.96080404539775 l -20.893075405372706 -21.43813594539584 a50.93516782494902,50.93516782494902 0 0,0 0.6314202677096529,-0.6048863331615422 l 20.521982651797753 21.79363440886295" fill="#a6ff21" stroke="none" /><line stroke="#e1ed5e" stroke-width="0.3" x1="56.869717070023135" x2="54.33264160355391" y1="26.7553504044142" y2="22.446841604673864" /><path d="M 56.362301976729285 25.89364864446614 a86.0,86.0 0 0,1 42.16139366436587,-11.88097634709845" fill="none" id="id60" stroke="none" /><text fill="#e1ed5e" style="font-size:6.75px; font-family:Arial;" text-anchor="middle"><textPath startOffset="22.145653131862474" xlink:href="#id60">December</textPath></text><path d="M 91.26138138417902 80.90454125486306 l -5.404095241691687 -11.808923387008305 a33.98672079246745,33.98672079246745 0 0,0 0.5325987758899667,-0.23822465807264612 l 5.200583062946102 11.899951795990797" fill="#ff780b" stroke="none" /><path d="M 91.5904679813234 80.7573450057729 l -1.993382831536834 -4.5612500212247475 a25.97780844038705,25.97780844038705 0 0,0 0.4101585763225653,-0.1750723066955558 l 1.9147891800438375 4.5947969775797075" fill="#ff0000" stroke="none" /><path d="M 92.592206182469 80.34994680014964 l -4.587428793546856 -12.16869989421029 a34.004682235687895,34.004682235687895 0 0,0 0.5479787315767132,-0.20122538053129196 l 4.3778609103160155 12.245656123750305" fill="#ff790b" stroke="none" /></svg>