<?xml version="1.0" encoding="utf-8" ?>
<svg baseProfile="full" height="200mm" version="1.1" viewBox="0,0,200,200" width="200mm" xmlns="http://www.w3.org/2000/svg" xmlns:ev="http://www.w3.org/2001/xml-events" xmlns:xlink="http://www.w3.org/1999/xlink"><defs /><rect fill="#1a1a1a" height="200" width="200" x="0" y="0" /><text alignment-baseline="middle" fill="#e1ed5e" style="dominant-baseline: central; font-size:9.0px; font-family:Arial;" text-anchor="middle" x="100.0" y="100.0">2023</text><line stroke="#e1ed5e" stroke-width="0.3" x1="100.0" x2="100.0" y1="15.0" y2="10.0" /><path d="M 100.0 14.0 a86.0,86.0 0 0,1 42.46469731375804,11.215312516191453" fill="none" id="id97" stroke="none" /><text fill="#e1ed5e" style="font-size:6.75px; font-family:Arial;" text-anchor="middle"><textPath startOffset="22.20632615414155" xlink:href="#id97">January</textPath></text><line stroke="#e1ed5e" stroke-width="0.3" x1="143.23703022742887" x2="145.7803849466894" y1="26.81831364943548" y2="22.513508569990506" /><path d="M 143.74570117128098 25.957352633546492 a86.0,86.0 0 0,1 28.547481713284135,27.462654790039103" fill="none" id="id98" stroke="none" /><text fill="#e1ed5e" style="font-size:6.75px; font-family:Arial;" text-anchor="middle"><textPath startOffset="19.985693538727396" xlink:href="#id98">February</textPath></text><line stroke="#e1ed5e" stroke-width="0.3" x1="172.23445277983987" x2="176.4835382374775" y1="55.19839476539836" y2="52.563006222186495" /><path d="M 173.08426987136738 54.67131705675599 a86.0,86.0 0 0,1 12.851231095245387,41.99856678651699" fill="none" id="id99" stroke="none" /><text fill="#e1ed5e" style="font-size:6.75px; font-family:Arial;" text-anchor="middle"><textPath startOffset="22.20632615414155" xlink:href="#id99">March</textPath></text><path d="M 118.73160827565052 90.50648371742162 l 10.06578466758091 -5.10152087489608 a32.28474794628163,32.28474794628163 0 0,0 0.24696292818538879,0.49786219333959647 l -10.152107608719707 4.927499093057534" fill="#ff1b02" stroke="none" /><path d="M 119.196687751892 91.48605970444005 l 9.981080026512327 -4.426717803052062 a31.91868989409908,31.91868989409908 0 0,0 0.21842915559202755,0.504164606740363 l -10.055799891947036 4.254254051725097" fill="#ff1502" stroke="none" /><path d="M 119.85752413597 93.16781622104841 l 9.176846659812593 -3.157387721741523 a30.704824153127024,30.704824153127024 0 0,0 0.1676522967456887,0.5012590280825012 l -9.22983625033005 2.998955590736708" fill="#ff0000" stroke="none" /><path d="M 120.53481517161879 95.60439243477599 l 9.486223617962157 -2.0305863944736986 a30.701119504232732,30.701119504232732 0 0,0 0.10616842450453344,0.5177149428326236 l -9.519771338381688 1.8669957954776633" fill="#ff0000" stroke="none" /><path d="M 120.87857604477298 97.74499172005257 l 12.05612091466812 -1.3021315451936792 a33.12623593989852,33.12623593989852 0 0,0 0.0563506839572302,0.5674436972971271 l -12.07674872430758 1.0944123171921172" fill="#ff2904" stroke="none" /><path d="M 120.91429891909075 98.10471618934814 l 14.484830335805325 -1.3126361319447157 a35.544185211690376,35.544185211690376 0 0,0 0.049974305504316176,0.6098131074267371 l -14.505279125129137 1.06310910731021" fill="#ff5007" stroke="none" /><path d="M 120.96714384426684 98.82574320788733 l 14.527521915140504 -0.813608253376099 a35.5502869863398,35.5502869863398 0 0,0 0.02895891126666479,0.6112768470062957 l -14.539374434640665 0.5634202997468035" fill="#ff5007" stroke="none" /><line stroke="#e1ed5e" stroke-width="0.3" x1="184.98032266829074" x2="189.97916517819016" y1="98.17113171792111" y2="98.06355123074" /><path d="M 185.9800911702706 98.14961562048488 a86.0,86.0 0 0,1 -9.607161424134198,41.387399972396054" fill="none" id="id100" stroke="none" /><text fill="#e1ed5e" style="font-size:6.75px; font-family:Arial;" text-anchor="middle"><textPath startOffset="21.466115282336823" xlink:href="#id100">April</textPath></text><path d="M 120.99513854157772 99.54816195383933 l 24.237174366128595 -0.521610156958936 a45.24278652321065,45.24278652321065 0 0,0 0.010054655365644708,0.7787441386881614 l -24.242562028611957 0.10432976021031196" fill="#ffe515" stroke="none" /><path d="M 120.9764740272857 100.99374915477107 l 19.37489176887406 0.9178750582225867 a40.396621501645356,40.396621501645356 0 0,0 -0.038883958683978495,0.6942992030683997 l -19.356221459302553 -1.2512459776264098" fill="#ff9d0e" stroke="none" /><path d="M 120.95626037817324 101.35467743843564 l 19.352089593336355 1.250978881040376 a40.392481011704675,40.392481011704675 0 0,0 -0.050824207257839656,0.6934559280125547 l -19.32768882741418 -1.583907945549701" fill="#ff9d0e" stroke="none" /><path d="M 120.8583938346157 102.4346265915055 l 19.28949247420374 2.251501802425674 a40.420447478847876,40.420447478847876 0 0,0 -0.0866123396245332,0.6903855654486458 l -19.24787862533236 -2.583205122161715" fill="#ff9d0e" stroke="none" /><path d="M 120.81339534386255 102.79330883721812 l 19.233863657366115 2.5813242116602484 a40.406306858231744,40.406306858231744 0 0,0 -0.09844890644361128,0.68855142236987 l -19.186580699905903 -2.912021106010528" fill="#ff9d0e" stroke="none" /><path d="M 120.49622156327973 104.57218783832717 l 35.46488205596006 7.911316821168328 a57.33657651854477,57.33657651854477 0 0,0 -0.2231742531478763,0.9614288415481864 l -35.323447236881634 -8.52061432006508" fill="#78ff26" stroke="none" /><path d="M 120.32669344350535 105.2749913415812 l 23.462345038980743 6.088726003459178 a45.239517715362744,45.239517715362744 0 0,0 -0.2020955324880203,0.7520726577713591 l -23.354061430150946 -6.491689594406085" fill="#ffe515" stroke="none" /><line stroke="#e1ed5e" stroke-width="0.3" x1="174.80103733775053" x2="179.2010983576182" y1="140.37084112569926" y2="142.7455964860345" /><path d="M 175.68104954172406 140.8457921977663 a86.0,86.0 0 0,1 -30.038265399797805,32.042727171017184" fill="none" id="id101" stroke="none" /><text fill="#e1ed5e" style="font-size:6.75px; font-family:Arial;" text-anchor="middle"><textPath startOffset="22.206326154141568" xlink:href="#id101">May</textPath></text><path d="M 117.94076556474637 110.91462005526583 l 20.719300281922063 12.604996680437836 a45.25232659944824,45.25232659944824 0 0,0 -0.41057944545185227,0.6619847974098721 l -20.499256196802246 -12.959777809212982" fill="#ffe515" stroke="none" /><path d="M 117.75023020441432 111.22182372390056 l 8.203975851830833 5.186612781026753 a30.705986395917392,30.705986395917392 0 0,0 -0.2862896572157657,0.44432790565833374 l -8.113481331238017 -5.327062286606539" fill="#ff0000" stroke="none" /><path d="M 117.35343817320211 111.8261652097733 l 26.027075898796856 17.73714790316299 a52.496271137714245,52.496271137714245 0 0,0 -0.5153111290332831,0.7423441150925532 l -25.717903862601435 -18.182533280442566" fill="#b5ff1f" stroke="none" /><path d="M 116.93607887273984 112.41649034213515 l 19.54817722795044 14.331520039616269 a45.238888167184626,45.238888167184626 0 0,0 -0.465828565399733,0.6240534879691351 l -19.298587395855616 -14.66588640709472" fill="#ffe515" stroke="none" /><path d="M 116.498646956653 112.99209946851258 l 19.064128455073607 15.012325181547098 a45.26542604423133,45.26542604423133 0 0,0 -0.48731914437173396,0.6080055613476106 l -18.80289139864702 -15.338258576472958" fill="#ffe515" stroke="none" /><path d="M 116.0416608686014 113.55231037782055 l 39.047259314831635 32.98789208750926 a72.11643066937344,72.11643066937344 0 0,0 -0.809275098583689,0.9413697701526285 l -38.473641706677164 -33.655138956823414" fill="#3cffa3" stroke="none" /><path d="M 115.32070863581623 114.36230785411682 l 14.224350075609347 13.33453299497117 a40.49722814318647,40.49722814318647 0 0,0 -0.48113300519221175,0.5044660323996281 l -13.992710519038171 -13.577406143953306" fill="#ff9e0e" stroke="none" /><path d="M 114.81725581225074 114.88116024355365 l 12.872883433752568 12.928402101006899 a39.2443062017798,39.2443062017798 0 0,0 -0.4827984941051774,0.47251994209500436 l -12.648434987271596 -13.148072146024475" fill="#ff8b0c" stroke="none" /><path d="M 114.29624159901734 115.38237550388516 l 42.88872479705202 46.14712651165547 a84.0,84.0 0 0,0 -1.0676018021325442,0.9752289336536681 l -42.088023445452606 -46.878548211895726" fill="#4dd2ff" stroke="none" /><line stroke="#e1ed5e" stroke-width="0.3" x1="143.8653032363475" x2="146.44561519142675" y1="172.8068346515853" y2="177.08958963109032" /><path d="M 144.38136562736335 173.6633856474863 a86.0,86.0 0 0,1 -40.68145358897372,12.25698825130547" fill="none" id="id102" stroke="none" /><text fill="#e1ed5e" style="font-size:6.75px; font-family:Arial;" text-anchor="middle"><textPath startOffset="21.466115282336833" xlink:href="#id102">June</textPath></text><line stroke="#e1ed5e" stroke-width="0.3" x1="102.19456741930631" x2="102.32365962044197" y1="184.97166512339345" y2="189.96999836594603" /><path d="M 102.22038585953345 185.97133177190398 a86.0,86.0 0 0,1 -42.740103519485714,-10.115201625700543" fill="none" id="id103" stroke="none" /><text fill="#e1ed5e" style="font-size:6.75px; font-family:Arial;" text-anchor="middle"><textPath startOffset="22.20632615414155" xlink:href="#id103">July</textPath></text><line stroke="#e1ed5e" stroke-width="0.3" x1="58.666819895761336" x2="56.23545636021788" y1="174.27360380694188" y2="178.64263932499728" /><path d="M 58.180547188652646 175.14741091055294 a86.0,86.0 0 0,1 -31.652253787137756,-30.449443065178592" fill="none" id="id104" stroke="none" /><text fill="#e1ed5e" style="font-size:6.75px; font-family:Arial;" text-anchor="middle"><textPath startOffset="22.20632615414155" xlink:href="#id104">August</textPath></text><line stroke="#e1ed5e" stroke-width="0.3" x1="26.63291911575756" x2="22.317208475507996" y1="142.92168965132927" y2="145.44649492493687" /><path d="M 25.769776987707644 143.4266507060508 a86.0,86.0 0 0,1 -11.730757126820373,-40.83630448921669" fill="none" id="id105" stroke="none" /><text fill="#e1ed5e" style="font-size:6.75px; font-family:Arial;" text-anchor="middle"><textPath startOffset="21.46611528233685" xlink:href="#id105">September</textPath></text><line stroke="#e1ed5e" stroke-width="0.3" x1="15.007084014347285" x2="10.007500721073583" y1="101.09737516637583" y2="101.16192664675087" /><path d="M 14.007167355692545 101.11028546245083 a86.0,86.0 0 0,1 10.666146001902534,-42.60595125391555" fill="none" id="id106" stroke="none" /><text fill="#e1ed5e" style="font-size:6.75px; font-family:Arial;" text-anchor="middle"><textPath startOffset="22.20632615414155" xlink:href="#id106">October</textPath></text><line stroke="#e1ed5e" stroke-width="0.3" x1="26.266209847984243" x2="21.928928074336255" y1="57.711370442889674" y2="55.22380399835377" /><path d="M 25.398753493254645 57.213857153982495 a86.0,86.0 0 0,1 29.58750427330803,-30.492523968695096" fill="none" id="id107" stroke="none" /><text fill="#e1ed5e" style="font-size:6.75px; font-family:Arial;" text-anchor="middle"><textPath startOffset="21.46611528233685" xlink:href="#id107">November</textPath></text><line stroke="#e1ed5e" stroke-width="0.3" x1="56.762969772571076" x2="54.21961505331055" y1="26.818313649435495" y2="22.513508569990535" /><path d="M 56.25429882871897 25.957352633546506 a86.0,86.0 0 0,1 42.265352541879196,-11.944610805530505" fill="none" id="id108" stroke="none" /><text fill="#e1ed5e" style="font-size:6.75px; font-family:Arial;" text-anchor="middle"><textPath startOffset="22.20632615414155" xlink:href="#id108">December</textPath></text></svg>