<?xml version="1.0" encoding="utf-8" ?>
<svg baseProfile="full" height="200mm" version="1.1" viewBox="0,0,200,200" width="200mm" xmlns="http://www.w3.org/2000/svg" xmlns:ev="http://www.w3.org/2001/xml-events" xmlns:xlink="http://www.w3.org/1999/xlink"><defs /><rect fill="#1a1a1a" height="200" width="200" x="0" y="0" /><text alignment-baseline="middle" fill="#e1ed5e" style="dominant-baseline: central; font-size:9.0px; font-family:Arial;" text-anchor="middle" x="100.0" y="100.0">2020</text><line stroke="#e1ed5e" stroke-width="0.3" x1="100.0" x2="100.0" y1="15.0" y2="10.0" /><path d="M 100.0 14.0 a86.0,86.0 0 0,1 42.35913384403234,11.155469271406648" fill="none" id="id61" stroke="none" /><text fill="#e1ed5e" style="font-size:6.75px; font-family:Arial;" text-anchor="middle"><textPath startOffset="22.145653131862478" xlink:href="#id61">January</textPath></text><path d="M 100.36049292484886 79.00309439819443 l 0.14165105686573273 -8.250463918682456 a29.251679822641705,29.251679822641705 0 0,0 0.5019959975783623,0.01292963619522585 l -0.2832603685148364 8.246816565137184" fill="#ff3404" stroke="none" /><path d="M 102.51750503828377 79.15144685158666 l 1.2566281664971832 -10.40668388686522 a31.482279516878677,31.482279516878677 0 0,0 0.5359815783198751,0.0693935460385357 l -1.4350875667078502 10.383578744626288" fill="#ff5507" stroke="none" /><line stroke="#e1ed5e" stroke-width="0.3" x1="143.13028292997686" x2="145.6673583964461" y1="26.7553504044142" y2="22.446841604673864" /><path d="M 143.63769802327073 25.89364864446614 a86.0,86.0 0 0,1 29.32050498858742,28.57503671076993" fill="none" id="id62" stroke="none" /><text fill="#e1ed5e" style="font-size:6.75px; font-family:Arial;" text-anchor="middle"><textPath startOffset="20.669276256404974" xlink:href="#id62">February</textPath></text><path d="M 113.31354834802062 83.75963576809568 l 5.867598161940083 -7.157515699451134 a30.255200655733624,30.255200655733624 0 0,0 0.39882933650423813,0.3327176173687274 l -5.989601832606214 7.055735898170537" fill="#ff4306" stroke="none" /><path d="M 117.01052211995028 87.68569379921539 l 6.761179774364292 -4.894572749323525 a29.346879317427156,29.346879317427156 0 0,0 0.2919104759368527,0.4106086413556164 l -6.844205348831106 4.777786881258405" fill="#ff3505" stroke="none" /><line stroke="#e1ed5e" stroke-width="0.3" x1="172.87174338648825" x2="177.1583165268699" y1="56.24261187166439" y2="53.66864786411523" /><path d="M 173.72905801456457 55.72781907015455 a86.0,86.0 0 0,1 12.242430191666344,42.057860355516425" fill="none" id="id63" stroke="none" /><text fill="#e1ed5e" style="font-size:6.75px; font-family:Arial;" text-anchor="middle"><textPath startOffset="22.145653131862474" xlink:href="#id63">March</textPath></text><path d="M 118.36410011445183 89.81374322990088 l 7.8600431844658285 -4.359833457781517 a29.988238239013185,29.988238239013185 0 0,0 0.24583879379472232,0.452315691181881 l -7.933727327875892 4.224262933125033" fill="#ff3f05" stroke="none" /><path d="M 119.31412917781788 91.75594674310238 l 13.763659097397385 -5.874887630918654 a35.96504648924589,35.96504648924589 0 0,0 0.2374963070524902,0.5699046794311494 l -13.86248124898636 5.637750442046227" fill="#ff960d" stroke="none" /><path d="M 119.94978838288452 93.4421083053983 l 11.37509646417138 -3.7392201458979417 a32.97391276353278,32.97391276353278 0 0,0 0.17214782370313542,0.5392506058740938 l -11.437609003651772 3.543400506332461" fill="#ff6b09" stroke="none" /><path d="M 120.16314734710363 94.1308016681162 l 13.994519754859073 -4.073600742323216 a35.57534926432287,35.57534926432287 0 0,0 0.16564815695423324,0.5878268713858479 l -14.06238640388789 3.8327659470343547" fill="#ff900d" stroke="none" /><path d="M 120.35273937422433 94.82641323984039 l 13.789735604504257 -3.5052968663233712 a35.22827867885602,35.22827867885602 0 0,0 0.14395360619076364,0.5873798375468701 l -13.847876737211312 3.268061204168406" fill="#ff8b0c" stroke="none" /><path d="M 120.43855184770803 95.1765574152323 l 13.861400040121836 -3.2712526668332447 a35.24217346764718,35.24217346764718 0 0,0 0.1339020313247065,0.5899970565995122 l -13.915512933004209 3.0328212762947064" fill="#ff8c0c" stroke="none" /><path d="M 120.65975698304385 96.23510406497455 l 13.696959936624797 -2.4960423701947922 a34.922533498588265,34.922533498588265 0 0,0 0.10241479043543424,0.5907012955601211 l -13.737789544552466 2.2605480417140784" fill="#ff870c" stroke="none" /><path d="M 120.77682067341334 96.94652285012252 l 14.07990757988241 -2.0692615459964228 a35.231150368250965,35.231150368250965 0 0,0 0.08280240279719182,0.59911693866968 l -14.113354499234813 1.8272562991266572" fill="#ff8c0c" stroke="none" /><path d="M 120.86939407059847 97.66154086499901 l 13.66290153328851 -1.5309566148904117 a34.748407415588694,34.748407415588694 0 0,0 0.061335253712771716,0.5933629408143027 l -13.687169179482947 1.2961891517931776" fill="#ff850c" stroke="none" /><path d="M 120.93736805541906 98.37931529534042 l 13.429113402252854 -1.0394983089833505 a34.469285189086555,34.469285189086555 0 0,0 0.04060159890712654,0.5903383372835521 l -13.444978962325047 0.8088165475454642" fill="#ff810b" stroke="none" /><path d="M 120.98066250479742 99.09900007780936 l 13.852885156762806 -0.5949024939276911 a34.86565310916657,34.86565310916657 0 0,0 0.02054635096596435,0.5981845903387252 l -13.861056194725618 0.35701163902484595" fill="#ff860c" stroke="none" /><line stroke="#e1ed5e" stroke-width="0.3" x1="184.99686870605535" x2="189.99668451229388" y1="99.2704041080226" y2="99.22748670261217" /><path d="M 185.99683186730306 99.26182062694052 a86.0,86.0 0 0,1 -10.086455211305974,41.156179273409016" fill="none" id="id64" stroke="none" /><text fill="#e1ed5e" style="font-size:6.75px; font-family:Arial;" text-anchor="middle"><textPath startOffset="21.40746469413373" xlink:href="#id64">April</textPath></text><path d="M 120.99922638620191 99.81974689727618 l 13.428586826949113 -0.11526826732742812 a34.42908153755736,34.42908153755736 0 0,0 0.0,0.5910427401025083 l -13.428586826949113 -0.1152682673274265" fill="#ff800b" stroke="none" /><path d="M 120.99303781780057 100.54070618675476 l 13.446593491751251 0.34633654999664365 a34.45105295277179,34.45105295277179 0 0,0 -0.020302026837085263,0.5910713599073225 l -13.438666777917321 -0.5771141744680768" fill="#ff800b" stroke="none" /><path d="M 120.9064616781168 101.97986365728391 l 13.54094844354632 1.2823418960748514 a34.601532468409886,34.601532468409886 0 0,0 -0.06107600119390028,0.5908549078691477 l -13.516940049870753 -1.5146013262269304" fill="#ff830c" stroke="none" /><path d="M 120.82617615685814 102.69636545807757 l 14.874371984395172 1.9257852486815064 a35.99851961875569,35.99851961875569 0 0,0 -0.08460592090859223,0.6121662973022034 l -14.839121546931368 -2.180839854183795" fill="#ff960d" stroke="none" /><path d="M 120.16314734710363 105.8691983318838 l 23.215407944901052 6.757666907780038 a45.178941831368064,45.178941831368064 0 0,0 -0.22314886214721194,0.7427899868539737 l -23.095982762750214 -7.155194498224735" fill="#ecff1a" stroke="none" /><path d="M 119.4528033332814 107.91128576633889 l 27.636323934157033 11.239452351844967 a50.834404464695695,50.834404464695695 0 0,0 -0.3356865765539231,0.80552558132209 l -27.439311513066627 -11.712210442608336" fill="#a7ff21" stroke="none" /><path d="M 119.16976305983485 108.57439118712176 l 27.22510552812804 12.177443413369565 a50.824427892308776,50.824427892308776 0 0,0 -0.36306922612858644,0.793371782653995 l -27.012051837144398 -12.643004178238249" fill="#a7ff21" stroke="none" /><line stroke="#e1ed5e" stroke-width="0.3" x1="174.33088141563837" x2="178.70328620479359" y1="141.23008692659167" y2="143.65538615756765" /><path d="M 175.20536237346943 141.71514677278685 a86.0,86.0 0 0,1 -30.301960400862466,31.631185727798858" fill="none" id="id65" stroke="none" /><text fill="#e1ed5e" style="font-size:6.75px; font-family:Arial;" text-anchor="middle"><textPath startOffset="22.145653131862474" xlink:href="#id65">May</textPath></text><path d="M 118.00360718960297 110.81064883170644 l 24.763003991659243 14.869472398096493 a49.88438290995127,49.88438290995127 0 0,0 -0.4471351874774358,0.730361725230499 l -24.5041008397264 -15.292371239451548" fill="#b2ff20" stroke="none" /><path d="M 117.81537515405839 111.11811171558189 l 20.286399302260474 12.66021354021582 a44.912737265620976,44.912737265620976 0 0,0 -0.41380095626439345,0.650563833759596 l -20.06608065437019 -13.006591048654087" fill="#f0ff19" stroke="none" /><path d="M 116.57777611688842 112.89097897827486 l 23.560445011168113 18.32074454476198 a50.8453388286798,50.8453388286798 0 0,0 -0.5417051972085586,0.6844268205603884 l -23.242473383317993 -18.72249130923705" fill="#a7ff21" stroke="none" /><path d="M 116.35404254752997 113.17365903436017 l 23.247309261256028 18.72638675019009 a50.85154851270157,50.85154851270157 0 0,0 -0.5534420552009134,0.675109318925695 l -22.922420386816487 -19.12269835081428" fill="#a7ff21" stroke="none" /><path d="M 115.89218393027572 113.72728997021213 l 22.575991897378746 19.500604102000267 a50.832012511620135,50.832012511620135 0 0,0 -0.5760693606897307,0.6554611848709269 l -22.237911472730428 -19.885277564682486" fill="#a7ff21" stroke="none" /><path d="M 115.41159269507618 114.26474011684316 l 21.904135446420252 20.274140759452028 a50.84680775542333,50.84680775542333 0 0,0 -0.5984043766612747,0.6354847109510108 l -21.552875236022718 -20.647166930347534" fill="#a7ff21" stroke="none" /><path d="M 115.16444852881244 114.52719865689866 l 21.559714480100457 20.65371877146405 a50.85627886315004,50.85627886315004 0 0,0 -0.6093386193487512,0.62523510325431 l -21.201989059600898 -21.020776566786097" fill="#a7ff21" stroke="none" /><path d="M 114.65682725009322 115.03919595460226 l 20.85520674396723 21.399279362746874 a50.88091038737777,50.88091038737777 0 0,0 -0.6307476627645655,0.6042419928390866 l -20.484786595337354 -21.75413348589154" fill="#a6ff21" stroke="none" /><path d="M 114.13192950727249 115.5334660781643 l 8.674336504297214 9.534615338318993 a33.890035044152945,33.890035044152945 0 0,0 -0.4336875075497726,0.38780604350088665 l -8.509383969924064 -9.682116911703266" fill="#ff780b" stroke="none" /><path d="M 113.59037401385872 116.0094264158162 l 19.309304740468345 22.746312431715555 a50.836956594155026,50.836956594155026 0 0,0 -0.6701416361123718,0.5590559872581529 l -18.91598877019408 -23.07443060288558" fill="#a7ff21" stroke="none" /><path d="M 113.31354834802062 116.24036423190432 l 18.931295220685413 23.09310198369097 a50.8611000795667,50.8611000795667 0 0,0 -0.6799626031534645,0.5477297410732602 l -18.532081847176695 -23.414680018557632" fill="#a7ff21" stroke="none" /><path d="M 113.03279911837588 116.46651593811092 l 18.529236892056165 23.411085510700193 a50.85651594863761,50.85651594863761 0 0,0 -0.6892027947372406,0.5359282617935173 l -18.124624152683694 -23.725714824114505" fill="#a7ff21" stroke="none" /><path d="M 112.45986205192187 116.90419585922612 l 17.70154325638361 24.01554310710181 a50.834391972800205,50.834391972800205 0 0,0 -0.7068860848643235,0.5117310119413623 l -17.286676161145316 -24.31587489041625" fill="#a7ff21" stroke="none" /><path d="M 111.27062007382361 117.71928675628689 l 33.81186022147083 53.157860268860695 a84.0,84.0 0 0,0 -1.2233434848411404,0.7634568126338093 l -32.89435260783998 -53.73045287833605" fill="#4dd2ff" stroke="none" /><line stroke="#e1ed5e" stroke-width="0.3" x1="143.1302829299769" x2="145.66735839644613" y1="173.24464959558577" y2="177.55315839532614" /><path d="M 143.63769802327073 174.10635135553383 a86.0,86.0 0 0,1 -40.68552437913181,11.842963189579606" fill="none" id="id66" stroke="none" /><text fill="#e1ed5e" style="font-size:6.75px; font-family:Arial;" text-anchor="middle"><textPath startOffset="21.407464694133747" xlink:href="#id66">June</textPath></text><path d="M 110.02825361518725 118.45085714620011 l 14.26492774177331 26.245860352566645 a50.87194920195941,50.87194920195941 0 0,0 -0.77085824756199,0.4104385980632971 l -13.812280678424766 -26.48686941835251" fill="#a6ff21" stroke="none" /><path d="M 109.06512990194946 118.94263497670748 l 5.586826653893785 11.674318970331734 a33.94227010542221,33.94227010542221 0 0,0 -0.527739726963911,0.24700883936006882 l -5.385598213058367 -11.768504041262336" fill="#ff790b" stroke="none" /><path d="M 108.73861861582097 119.09545874513695 l 12.420794351866173 27.141677255313894 a50.84873157377,50.84873157377 0 0,0 -0.7968398115580767,0.35641631231670523 l -11.953041137452468 -27.35089731854045" fill="#a7ff21" stroke="none" /><path d="M 107.06938296918513 119.77432235084164 l 4.41266383598955 12.343006100971893 a34.10806628523366,34.10806628523366 0 0,0 -0.5530285569918026,0.19237203966083283 l -4.200129506952725 -12.416936573201317" fill="#ff7b0b" stroke="none" /><path d="M 106.38641147887787 120.00534299687104 l 7.264286493830293 22.7552739777655 a44.886656360144194,44.886656360144194 0 0,0 -0.7360543131756254,0.22803150773575104 l -6.872591547783044 -22.8766220733079" fill="#f0ff19" stroke="none" /><path d="M 105.69591212413111 120.21278271476187 l 3.2612172194228486 11.572909413852575 a33.023633812350475,33.023633812350475 0 0,0 -0.5469635261265416,0.1490773412845537 l -3.062072292361612 -11.627187249281269" fill="#ff6c09" stroke="none" /><path d="M 104.9986988182912 120.39639698878246 l 7.10910593409055 29.007578199437926 a50.866017146225374,50.866017146225374 0 0,0 -0.849869042091737,0.20056677986022356 l -6.610104738258934 -29.125341122944377" fill="#a6ff21" stroke="none" /><path d="M 104.64783097203109 120.47920084513623 l 6.607518636966555 29.11394628348244 a50.85433252871954,50.85433252871954 0 0,0 -0.8529908187791924,0.18590537884822828 l -6.106765401568227 -29.22308312046439" fill="#a7ff21" stroke="none" /><line stroke="#e1ed5e" stroke-width="0.3" x1="101.45913802915013" x2="101.54496967792366" y1="184.9874750549273" y2="189.98673829345242" /><path d="M 101.47630435890484 185.9873277026323 a86.0,86.0 0 0,1 -42.54439059252881,-10.42667462771756" fill="none" id="id67" stroke="none" /><text fill="#e1ed5e" style="font-size:6.75px; font-family:Arial;" text-anchor="middle"><textPath startOffset="22.145653131862474" xlink:href="#id67">July</textPath></text><path d="M 98.55909050195518 120.95050786540614 l -0.8869803258610909 12.896499272597099 a33.926965134422005,33.926965134422005 0 0,0 -0.580685865832896,-0.04494875852955143 l 1.108235186469223 -12.879372747072493" fill="#ff790b" stroke="none" /><path d="M 97.48249496171623 120.84855314841334 l -3.579739675233421 29.645379747667235 a50.86072799725149,50.86072799725149 0 0,0 -0.8658970597046297,-0.11210771024183568 l 4.088114556828845 -29.579560441225002" fill="#a7ff21" stroke="none" /><path d="M 95.70440661134978 120.55596938700252 l -2.648699773339467 12.674987255540758 a33.948780344781866,33.948780344781866 0 0,0 -0.5694303022558916,-0.12410468405750344 l 2.8658924922144946 -12.627651113349536" fill="#ff790b" stroke="none" /><path d="M 95.35216902796893 120.47920084513623 l -5.2909671387636825 23.312977462346666 a44.90584136614649,44.90584136614649 0 0,0 -0.750286468792289,-0.17706556371084237 l 5.69038576129586 -23.218715754989596" fill="#f0ff19" stroke="none" /><path d="M 90.6110303473126 118.78422872680471 l -5.566823252480012 11.137375572020186 a33.45113070193162,33.45113070193162 0 0,0 -0.5114403557757747,-0.26114508981592116 l 5.757190829969369 -11.040172530531429" fill="#ff720a" stroke="none" /><line stroke="#e1ed5e" stroke-width="0.3" x1="58.13341422392154" x2="55.67067388415222" y1="173.97424548756322" y2="178.32567169271397" /><path d="M 57.64086615596768 174.84453072859336 a86.0,86.0 0 0,1 -31.369924170532247,-30.572349798747897" fill="none" id="id68" stroke="none" /><text fill="#e1ed5e" style="font-size:6.75px; font-family:Arial;" text-anchor="middle"><textPath startOffset="22.145653131862474" xlink:href="#id68">August</textPath></text><path d="M 89.65649057296885 118.27599006163327 l -12.851076343978136 22.70662053345731 a47.09100954829421,47.09100954829421 0 0,0 -0.7001032322397757,-0.4042047895941646 l 13.238972044078311 -22.482668846586975" fill="#d4ff1c" stroke="none" /><line stroke="#e1ed5e" stroke-width="0.3" x1="26.387840678322732" x2="22.057713659400548" y1="142.50000000000003" y2="145.00000000000006" /><path d="M 25.521815274538298 143.00000000000003 a86.0,86.0 0 0,1 -11.493303480769221,-40.785679425670985" fill="none" id="id69" stroke="none" /><text fill="#e1ed5e" style="font-size:6.75px; font-family:Arial;" text-anchor="middle"><textPath startOffset="21.40746469413373" xlink:href="#id69">September</textPath></text><path d="M 79.94057633289273 106.21446072829308 l -11.954779012335143 3.7036210970209154 a33.51533261499938,33.51533261499938 0 0,0 -0.1655396969109576,-0.551027812148032 l 12.01659502924973 -3.49785568128216" fill="#ff730a" stroke="none" /><line stroke="#e1ed5e" stroke-width="0.3" x1="15.003131293944662" x2="10.003315487706104" y1="100.72959589197737" y2="100.7725132973878" /><path d="M 14.003168132696942 100.73817937305945 a86.0,86.0 0 0,1 10.791469493833604,-42.45332614584628" fill="none" id="id70" stroke="none" /><text fill="#e1ed5e" style="font-size:6.75px; font-family:Arial;" text-anchor="middle"><textPath startOffset="22.145653131862435" xlink:href="#id70">October</textPath></text><path d="M 79.34024301695615 96.23510406497455 l -6.332424373813432 -1.1539786650633546 a27.43671229817582,27.43671229817582 0 0,0 0.08841638327643987,-0.4626318785096653 l 6.311681698254834 1.2625131086063344" fill="#ff1802" stroke="none" /><path d="M 79.48165901384962 95.52812308129327 l -6.37809078209468 -1.3900752001888135 a27.527813652887243,27.527813652887243 0 0,0 0.10459145402690997,-0.46084924486096035 l 6.353288466510108 1.499358778988782" fill="#ff1a02" stroke="none" /><path d="M 80.05021161711548 93.44210830539832 l -12.21358198580992 -4.014846991299198 a33.85653846444076,33.85653846444076 0 0,0 0.18623446513042305,-0.5505691044622695 l 12.142862099107132 4.223917770235628" fill="#ff780b" stroke="none" /><path d="M 80.16572619554312 93.10060997987247 l -24.425028401933854 -8.496292773762491 a46.86056850366527,46.86056850366527 0 0,0 0.2708090773928079,-0.7575011871957881 l 24.275579154497105 8.9143289173392" fill="#d7ff1c" stroke="none" /><path d="M 80.83023694016515 91.42560881287825 l -12.323710029871833 -5.5122387450983545 a34.50031869562075,34.50031869562075 0 0,0 0.24645637008547533,-0.5385516469299828 l 12.227269194931312 5.722979374243009" fill="#ff810b" stroke="none" /><path d="M 81.1358732173502 90.77261029715801 l -11.489201758867518 -5.619944311504271 a33.79005594672571,33.79005594672571 0 0,0 0.2593468642892036,-0.5188674581553807 l 11.39103498136657 5.816343625823421" fill="#ff770a" stroke="none" /><path d="M 81.29705330413844 90.45014215332179 l -26.613697815770294 -13.589143734836968 a50.88233155018523,50.88233155018523 0 0,0 0.40388924291227213,-0.7745108780771345 l 26.376500503883083 14.04400085601859" fill="#a6ff21" stroke="none" /><line stroke="#e1ed5e" stroke-width="0.3" x1="26.387840678322718" x2="22.05771365940052" y1="57.49999999999999" y2="54.99999999999999" /><path d="M 25.521815274538284 56.99999999999999 a86.0,86.0 0 0,1 29.574782752854787,-30.34633250058573" fill="none" id="id71" stroke="none" /><text fill="#e1ed5e" style="font-size:6.75px; font-family:Arial;" text-anchor="middle"><textPath startOffset="21.40746469413373" xlink:href="#id71">November</textPath></text><path d="M 82.18462484594161 88.88188828441811 l -25.32889185066339 -15.807101831555645 a50.8566111723312,50.8566111723312 0 0,0 0.4685645012241522,-0.7366612224193821 l 25.053809657813346 16.2395767286537" fill="#a7ff21" stroke="none" /><path d="M 82.576782715395 88.27688183743585 l -24.930123430251165 -16.774099639931645 a51.04798617175389,51.04798617175389 0 0,0 0.4954334998434955,-0.7228522824811809 l 24.638500193592357 17.19958665748286" fill="#a4ff21" stroke="none" /><path d="M 83.42222388311158 87.10902102172516 l -23.583300420642484 -18.338517049408953 a50.874291059399866,50.874291059399866 0 0,0 0.5420136536809343,-0.6848165452367572 l 23.26502033631999 18.74065353856039" fill="#a6ff21" stroke="none" /><path d="M 84.10781606972428 86.27271002978789 l -22.612108280908746 -19.53180057389908 a50.87973685570384,50.87973685570384 0 0,0 0.5766102114455116,-0.656076573748404 l 22.273487005504645 19.917089425458784" fill="#a6ff21" stroke="none" /><path d="M 85.34317274990677 84.96080404539775 l -20.847985312667298 -21.39186953805973 a50.87056366944821,50.87056366944821 0 0,0 0.6306193991761149,-0.6041191192227919 l 20.477693427625884 21.74660078758809" fill="#a6ff21" stroke="none" /><line stroke="#e1ed5e" stroke-width="0.3" x1="56.869717070023135" x2="54.33264160355391" y1="26.7553504044142" y2="22.446841604673864" /><path d="M 56.362301976729285 25.89364864446614 a86.0,86.0 0 0,1 42.16139366436587,-11.88097634709845" fill="none" id="id72" stroke="none" /><text fill="#e1ed5e" style="font-size:6.75px; font-family:Arial;" text-anchor="middle"><textPath startOffset="22.145653131862474" xlink:href="#id72">December</textPath></text><path d="M 91.26138138417902 80.90454125486306 l -5.394969346390555 -11.78898165881345 a33.964790117866684,33.964790117866684 0 0,0 0.5322551048862787,-0.23807093840401516 l 5.191800838648657 11.87985634812731" fill="#ff790b" stroke="none" /><path d="M 91.5904679813234 80.7573450057729 l -1.9482613988766913 -4.4580033530872 a25.865132719103322,25.865132719103322 0 0,0 0.4083795612245864,-0.17431295093700536 l 1.8714467624816735 4.49079095368361" fill="#ff0000" stroke="none" /><path d="M 92.592206182469 80.34994680014964 l -4.577404553054596 -12.142109405353157 a33.97626499628805,33.97626499628805 0 0,0 0.5475207933818109,-0.2010572192830189 l 4.368294608018658 12.218897473644898" fill="#ff7a0b" stroke="none" /></svg>