<?xml version="1.0" encoding="utf-8" ?>
<svg baseProfile="full" height="200mm" version="1.1" viewBox="0,0,200,200" width="200mm" xmlns="http://www.w3.org/2000/svg" xmlns:ev="http://www.w3.org/2001/xml-events" xmlns:xlink="http://www.w3.org/1999/xlink"><defs /><rect fill="#1a1a1a" height="200" width="200" x="0" y="0" /><text alignment-baseline="middle" fill="#e1ed5e" style="dominant-baseline: central; font-size:9.0px; font-family:Arial;" text-anchor="middle" x="100.0" y="100.0">2020</text><line stroke="#e1ed5e" stroke-width="0.3" x1="100.0" x2="100.0" y1="15.0" y2="10.0" /><path d="M 100.0 14.0 a86.0,86.0 0 0,1 42.35913384403234,11.155469271406648" fill="none" id="id49" stroke="none" /><text fill="#e1ed5e" style="font-size:6.75px; font-family:Arial;" text-anchor="middle"><textPath startOffset="22.145653131862478" xlink:href="#id49">January</textPath></text><line stroke="#e1ed5e" stroke-width="0.3" x1="143.13028292997686" x2="145.6673583964461" y1="26.7553504044142" y2="22.446841604673864" /><path d="M 143.63769802327073 25.89364864446614 a86.0,86.0 0 0,1 29.32050498858742,28.57503671076993" fill="none" id="id50" stroke="none" /><text fill="#e1ed5e" style="font-size:6.75px; font-family:Arial;" text-anchor="middle"><textPath startOffset="20.669276256404974" xlink:href="#id50">February</textPath></text><line stroke="#e1ed5e" stroke-width="0.3" x1="172.87174338648825" x2="177.1583165268699" y1="56.24261187166439" y2="53.66864786411523" /><path d="M 173.72905801456457 55.72781907015455 a86.0,86.0 0 0,1 12.242430191666344,42.057860355516425" fill="none" id="id51" stroke="none" /><text fill="#e1ed5e" style="font-size:6.75px; font-family:Arial;" text-anchor="middle"><textPath startOffset="22.145653131862474" xlink:href="#id51">March</textPath></text><line stroke="#e1ed5e" stroke-width="0.3" x1="184.99686870605535" x2="189.99668451229388" y1="99.2704041080226" y2="99.22748670261217" /><path d="M 185.99683186730306 99.26182062694052 a86.0,86.0 0 0,1 -10.086455211305974,41.156179273409016" fill="none" id="id52" stroke="none" /><text fill="#e1ed5e" style="font-size:6.75px; font-family:Arial;" text-anchor="middle"><textPath startOffset="21.40746469413373" xlink:href="#id52">April</textPath></text><path d="M 120.16314734710363 105.8691983318838 l 23.24711170497827 6.766895410282966 a45.21196142648188,45.21196142648188 0 0,0 -0.22331195328612596,0.7433328642129002 l -23.127523431688513 -7.164965878086589" fill="#ecff1a" stroke="none" /><path d="M 119.4528033332814 107.91128576633889 l 27.6058382742023 11.227054099338877 a50.80149409964028,50.80149409964028 0 0,0 -0.3354692519310633,0.8050040813414775 l -27.40904317773475 -11.699290690121632" fill="#a7ff21" stroke="none" /><path d="M 119.16976305983485 108.57439118712176 l 27.195026243822568 12.163989332092779 a50.79147678235279,50.79147678235279 0 0,0 -0.36283383668126895,0.7928574142305747 l -26.982207942286244 -12.629035728538042" fill="#a7ff21" stroke="none" /><line stroke="#e1ed5e" stroke-width="0.3" x1="174.33088141563837" x2="178.70328620479359" y1="141.23008692659167" y2="143.65538615756765" /><path d="M 175.20536237346943 141.71514677278685 a86.0,86.0 0 0,1 -30.301960400862466,31.631185727798858" fill="none" id="id53" stroke="none" /><text fill="#e1ed5e" style="font-size:6.75px; font-family:Arial;" text-anchor="middle"><textPath startOffset="22.145653131862474" xlink:href="#id53">May</textPath></text><path d="M 118.00360718960297 110.81064883170644 l 23.92606859645612 14.366916740384104 a48.90815391794041,48.90815391794041 0 0,0 -0.43838482698582376,0.7160686689825716 l -23.675915805014892 -14.775522525491231" fill="#beff1f" stroke="none" /><path d="M 117.81537515405839 111.11811171558189 l 20.280664448288622 12.65663456718942 a44.90597726576875,44.90597726576875 0 0,0 -0.413738673389345,0.6504659147351093 l -20.060408083273387 -13.0029141566032" fill="#f0ff19" stroke="none" /><path d="M 116.57777611688842 112.89097897827486 l 23.561056841945202 18.321220308074867 a50.846113869084995,50.846113869084995 0 0,0 -0.541713454473142,0.684437253344446 l -23.2430769568305 -18.722977505333997" fill="#a7ff21" stroke="none" /><path d="M 116.35404254752997 113.17365903436017 l 23.28434094447943 18.75621685285955 a50.899100385300116,50.899100385300116 0 0,0 -0.5539595852834638,0.6757406214771922 l -22.958934539957337 -19.153159756035233" fill="#a6ff21" stroke="none" /><path d="M 115.89218393027572 113.72728997021213 l 22.555417308286707 19.482832261973527 a50.80482516135862,50.80482516135862 0 0,0 -0.5757612517105629,0.6551106134114191 l -22.217644992617558 -19.86715515319624" fill="#a7ff21" stroke="none" /><path d="M 115.41159269507618 114.26474011684316 l 21.85314494810305 20.226944715453566 a50.77732756049167,50.77732756049167 0 0,0 -0.5975866802399306,0.6346163456879377 l -21.502702434126864 -20.599102521086" fill="#a8ff21" stroke="none" /><path d="M 115.16444852881244 114.52719865689866 l 21.531771694062567 20.626950214531142 a50.81758319243832,50.81758319243832 0 0,0 -0.6088749840397326,0.6247593725832155 l -21.174509908872025 -20.993532279182094" fill="#a7ff21" stroke="none" /><path d="M 114.65682725009322 115.03919595460226 l 20.85301348109999 21.397028881829172 a50.87776792554574,50.87776792554574 0 0,0 -0.6307087070847086,0.6042046741789968 l -20.48263228814997 -21.75184568631375" fill="#a6ff21" stroke="none" /><path d="M 114.13192950727249 115.5334660781643 l 8.672733000225968 9.532852806452125 a33.88765224246413,33.88765224246413 0 0,0 -0.43365701506653787,0.3877787769343522 l -8.507810958336051 -9.680327113269863" fill="#ff780b" stroke="none" /><path d="M 113.59037401385872 116.0094264158162 l 19.280606197057548 22.7125056197391 a50.79261127952188,50.79261127952188 0 0,0 -0.6695570684337945,0.5585683201098138 l -18.887874794461858 -23.040136123760785" fill="#a7ff21" stroke="none" /><path d="M 113.31354834802062 116.24036423190432 l 18.895345805398552 23.049249542334163 a50.80439560820491,50.80439560820491 0 0,0 -0.6792045204557391,0.5471190833138312 l -18.496890514587562 -23.370216919441397" fill="#a7ff21" stroke="none" /><path d="M 113.03279911837588 116.46651593811092 l 18.517170018573875 23.395839410248975 a50.83707236320163,50.83707236320163 0 0,0 -0.6889392970679208,0.5357233644121028 l -18.112820776870723 -23.71026382628187" fill="#a7ff21" stroke="none" /><path d="M 112.45986205192187 116.90419585922612 l 17.700855770458308 24.014610400408642 a50.833233275828185,50.833233275828185 0 0,0 -0.7068699724110353,0.5117193477677385 l -17.286004787673303 -24.31493051954946" fill="#a7ff21" stroke="none" /><path d="M 111.27062007382361 117.71928675628689 l 33.81186022147083 53.157860268860695 a84.0,84.0 0 0,0 -1.2233434848411404,0.7634568126338093 l -32.89435260783998 -53.73045287833605" fill="#4dd2ff" stroke="none" /><line stroke="#e1ed5e" stroke-width="0.3" x1="143.1302829299769" x2="145.66735839644613" y1="173.24464959558577" y2="177.55315839532614" /><path d="M 143.63769802327073 174.10635135553383 a86.0,86.0 0 0,1 -40.68552437913181,11.842963189579606" fill="none" id="id54" stroke="none" /><text fill="#e1ed5e" style="font-size:6.75px; font-family:Arial;" text-anchor="middle"><textPath startOffset="21.407464694133747" xlink:href="#id54">June</textPath></text><path d="M 110.02825361518725 118.45085714620011 l 14.249037564740568 26.21662421657434 a50.838673845103436,50.838673845103436 0 0,0 -0.7703540289567392,0.41017013005622693 l -13.796894719997276 -26.457364814353134" fill="#a7ff21" stroke="none" /><path d="M 109.06512990194946 118.94263497670748 l 5.585202569397633 11.67092525837011 a33.93850780143009,33.93850780143009 0 0,0 -0.5276812300727076,0.2469814598613044 l -5.384032625453419 -11.765082949801947" fill="#ff790b" stroke="none" /><path d="M 108.73861861582097 119.09545874513695 l 12.410421076791907 27.11900977719854 a50.8238032886329,50.8238032886329 0 0,0 -0.7964491656281523,0.3562415813610657 l -11.943058508308129 -27.328055109469453" fill="#a7ff21" stroke="none" /><path d="M 107.06938296918513 119.77432235084164 l 4.389386870266703 12.277896285085642 a34.038920748443466,34.038920748443466 0 0,0 -0.5519074305077117,0.19198205367234153 l -4.17797366771397 -12.351436771326574" fill="#ff7a0b" stroke="none" /><path d="M 106.38641147887787 120.00534299687104 l 7.259667124389655 22.7408038687857 a44.871466803603056,44.871466803603056 0 0,0 -0.7358052338386032,0.2279543423204409 l -6.868221257679428 -22.862074798912786" fill="#f0ff19" stroke="none" /><path d="M 105.69591212413111 120.21278271476187 l 3.2624574427833797 11.577310529030946 a33.02820633559233,33.02820633559233 0 0,0 -0.5470392598707405,0.14909798285330808 l -3.063236781977944 -11.631609006028397" fill="#ff6c09" stroke="none" /><path d="M 104.9986988182912 120.39639698878246 l 7.099527688313953 28.96849568808502 a50.82577804228646,50.82577804228646 0 0,0 -0.8491967274377139,0.20040811543249198 l -6.601198807136359 -29.08609994716374" fill="#a7ff21" stroke="none" /><path d="M 104.64783097203109 120.47920084513623 l 6.608809387828701 29.119633569940575 a50.86016444650402,50.86016444650402 0 0,0 -0.853088638809044,0.18592669826844727 l -6.107958332400521 -29.22879172634274" fill="#a7ff21" stroke="none" /><line stroke="#e1ed5e" stroke-width="0.3" x1="101.45913802915013" x2="101.54496967792366" y1="184.9874750549273" y2="189.98673829345242" /><path d="M 101.47630435890484 185.9873277026323 a86.0,86.0 0 0,1 -42.54439059252881,-10.42667462771756" fill="none" id="id55" stroke="none" /><text fill="#e1ed5e" style="font-size:6.75px; font-family:Arial;" text-anchor="middle"><textPath startOffset="22.145653131862474" xlink:href="#id55">July</textPath></text><path d="M 98.55909050195518 120.95050786540614 l -0.8873133871000808 12.901341909915118 a33.93181921167549,33.93181921167549 0 0,0 -0.5807689470646418,-0.04495518954233097 l 1.1086513289399587 -12.884208953377733" fill="#ff790b" stroke="none" /><path d="M 97.48249496171623 120.84855314841334 l -3.5776034836756785 29.627689017142554 a50.84290875874733,50.84290875874733 0 0,0 -0.86559368956357,-0.11206843290339367 l 4.085674995130042 -29.561908988038766" fill="#a7ff21" stroke="none" /><path d="M 95.70440661134978 120.55596938700252 l -2.646996609193571 12.666836998550286 a33.94045403364676,33.94045403364676 0 0,0 -0.5692906432219532,-0.12407424602107643 l 2.8640496690346606 -12.619531294395491" fill="#ff790b" stroke="none" /><path d="M 95.35216902796893 120.47920084513623 l -5.2926429112351405 23.32036122505668 a44.91341290265726,44.91341290265726 0 0,0 -0.7504129739688801,-0.17709541858806213 l 5.692188038943908 -23.22606966282239" fill="#f0ff19" stroke="none" /><path d="M 90.6110303473126 118.78422872680471 l -5.5618361279209685 11.127397982159799 a33.43997616425453,33.43997616425453 0 0,0 -0.5112698120423231,-0.26105800897044856 l 5.752033161676874 -11.030282021516514" fill="#ff720a" stroke="none" /><line stroke="#e1ed5e" stroke-width="0.3" x1="58.13341422392154" x2="55.67067388415222" y1="173.97424548756322" y2="178.32567169271397" /><path d="M 57.64086615596768 174.84453072859336 a86.0,86.0 0 0,1 -31.369924170532247,-30.572349798747897" fill="none" id="id56" stroke="none" /><text fill="#e1ed5e" style="font-size:6.75px; font-family:Arial;" text-anchor="middle"><textPath startOffset="22.145653131862474" xlink:href="#id56">August</textPath></text><path d="M 89.65649057296885 118.27599006163327 l -12.709790542088152 22.456982059261772 a46.80416281985832,46.80416281985832 0 0,0 -0.6958386746594286,-0.4017426461271766 l 13.09342168460798 -22.23549251585842" fill="#d8ff1c" stroke="none" /><line stroke="#e1ed5e" stroke-width="0.3" x1="26.387840678322732" x2="22.057713659400548" y1="142.50000000000003" y2="145.00000000000006" /><path d="M 25.521815274538298 143.00000000000003 a86.0,86.0 0 0,1 -11.493303480769221,-40.785679425670985" fill="none" id="id57" stroke="none" /><text fill="#e1ed5e" style="font-size:6.75px; font-family:Arial;" text-anchor="middle"><textPath startOffset="21.40746469413373" xlink:href="#id57">September</textPath></text><path d="M 79.94057633289273 106.21446072829308 l -11.967952937976353 3.707702412859964 a33.52912425941831,33.52912425941831 0 0,0 -0.16560781691630677,-0.5512545614910084 l 12.02983707489629 -3.5017102477782323" fill="#ff730a" stroke="none" /><line stroke="#e1ed5e" stroke-width="0.3" x1="15.003131293944662" x2="10.003315487706104" y1="100.72959589197737" y2="100.7725132973878" /><path d="M 14.003168132696942 100.73817937305945 a86.0,86.0 0 0,1 10.791469493833604,-42.45332614584628" fill="none" id="id58" stroke="none" /><text fill="#e1ed5e" style="font-size:6.75px; font-family:Arial;" text-anchor="middle"><textPath startOffset="22.145653131862435" xlink:href="#id58">October</textPath></text><path d="M 80.16572619554312 93.10060997987247 l -24.434515563028985 -8.499592900866936 a46.87061325675086,46.87061325675086 0 0,0 0.2708671264178754,-0.7576635606502805 l 24.285008266567164 8.917791417898137" fill="#d7ff1c" stroke="none" /><path d="M 80.83023694016515 91.42560881287825 l -12.32983734265146 -5.514979414168409 a34.507031014806465,34.507031014806465 0 0,0 0.24650432018808052,-0.5386564265577909 l 12.233348557608334 5.725824822940872" fill="#ff810b" stroke="none" /><path d="M 81.1358732173502 90.77261029715801 l -11.507287468650096 -5.6287909384454045 a33.81018939418448,33.81018939418448 0 0,0 0.2595013933753347,-0.5191766198425739 l 11.408966162063019 5.825499414451749" fill="#ff770b" stroke="none" /><path d="M 81.29705330413844 90.45014215332179 l -26.629381488171987 -13.597151929715864 a50.89994145550076,50.89994145550076 0 0,0 0.4040290252514252,-0.7747789291434527 l 26.39204439394562 14.052277101963803" fill="#a6ff21" stroke="none" /><line stroke="#e1ed5e" stroke-width="0.3" x1="26.387840678322718" x2="22.05771365940052" y1="57.49999999999999" y2="54.99999999999999" /><path d="M 25.521815274538284 56.99999999999999 a86.0,86.0 0 0,1 29.574782752854787,-30.34633250058573" fill="none" id="id59" stroke="none" /><text fill="#e1ed5e" style="font-size:6.75px; font-family:Arial;" text-anchor="middle"><textPath startOffset="21.40746469413373" xlink:href="#id59">November</textPath></text><path d="M 82.18462484594161 88.88188828441811 l -25.320186818630898 -15.801669247745986 a50.846350053993724,50.846350053993724 0 0,0 0.4684699609926077,-0.7365125894726791 l 25.045199166012402 16.233995511897337" fill="#a7ff21" stroke="none" /><path d="M 82.576782715395 88.27688183743585 l -24.912324627159716 -16.762123810876375 a51.026533482573996,51.026533482573996 0 0,0 0.4952252961183634,-0.7225485070239696 l 24.620909594226042 17.18730705297038" fill="#a5ff21" stroke="none" /><path d="M 83.42222388311158 87.10902102172516 l -23.58738473577037 -18.34169303755616 a50.87946489074376,50.87946489074376 0 0,0 0.5420687755739737,-0.6848861899479223 l 23.269049529554835 18.74389917141876" fill="#a6ff21" stroke="none" /><path d="M 84.10781606972428 86.27271002978789 l -22.637590159191223 -19.553811213450185 a50.91340871894678,50.91340871894678 0 0,0 0.5769918081554031,-0.6565107607555186 l 22.298587287077225 19.939534252017005" fill="#a6ff21" stroke="none" /><path d="M 85.34317274990677 84.96080404539775 l -20.853269310516506 -21.397291385347817 a50.87813447266093,50.87813447266093 0 0,0 0.6307132510037516,-0.6042090271506537 l 20.482883573647452 21.752112542804042" fill="#a6ff21" stroke="none" /><line stroke="#e1ed5e" stroke-width="0.3" x1="56.869717070023135" x2="54.33264160355391" y1="26.7553504044142" y2="22.446841604673864" /><path d="M 56.362301976729285 25.89364864446614 a86.0,86.0 0 0,1 42.16139366436587,-11.88097634709845" fill="none" id="id60" stroke="none" /><text fill="#e1ed5e" style="font-size:6.75px; font-family:Arial;" text-anchor="middle"><textPath startOffset="22.145653131862474" xlink:href="#id60">December</textPath></text><path d="M 91.26138138417902 80.90454125486306 l -5.399572397495398 -11.799040156195995 a33.97585182881339,33.97585182881339 0 0,0 0.5324284506393285,-0.2381484737544854 l 5.196230544000451 11.889992380860326" fill="#ff7a0b" stroke="none" /><path d="M 91.5904679813234 80.7573450057729 l -1.9497382977291893 -4.461382786689079 a25.86882078115405,25.86882078115405 0 0,0 0.40843779132061575,-0.17433780590242476 l 1.8728654312381423 4.494195242250908" fill="#ff0000" stroke="none" /><path d="M 92.592206182469 80.34994680014964 l -4.578000698122354 -12.14369075097168 a33.97795497939656,33.97795497939656 0 0,0 0.5475480271254984,-0.20106721989092766 l 4.368863519342729 12.22048881987133" fill="#ff7a0b" stroke="none" /></svg>