<?xml version="1.0" encoding="utf-8" ?>
<svg baseProfile="full" height="300mm" version="1.1" viewBox="0,0,200,300" width="200mm" xmlns="http://www.w3.org/2000/svg" xmlns:ev="http://www.w3.org/2001/xml-events" xmlns:xlink="http://www.w3.org/1999/xlink"><defs /><rect fill="#222222" height="300" width="200" x="0" y="0" /><text fill="#FFFFFF" style="font-size:12px; font-family:Arial; font-weight:bold;" x="10" y="20"> Over 10km Runs </text><text fill="#FFFFFF" style="font-size:4px; font-family:Arial" x="10" y="280">ATHLETE</text><text fill="#FFFFFF" style="font-size:9px; font-family:Arial" x="10" y="290"> Wanglei </text><text fill="#FFFFFF" style="font-size:4px; font-family:Arial" x="120" y="280">STATISTICS</text><text fill="#FFFFFF" style="font-size:3px; font-family:Arial" x="120" y="285">Number: 4</text><text fill="#FFFFFF" style="font-size:3px; font-family:Arial" x="120" y="290">Weekly: 1.0</text><text fill="#FFFFFF" style="font-size:3px; font-family:Arial" x="141" y="285">Total: 128.5 km</text><text fill="#FFFFFF" style="font-size:3px; font-family:Arial" x="141" y="290">Avg: 32.1 km</text><text fill="#FFFFFF" style="font-size:3px; font-family:Arial" x="167" y="285">Min: 25.0 km</text><text fill="#FFFFFF" style="font-size:3px; font-family:Arial" x="167" y="290">Max: 43.5 km</text><polyline fill="none" points="73.74026188743301,67.70175447728252 72.30441619432531,62.62860152736539 71.95783275132999,53.83503368293168 69.92784401332028,47.57799260481261 69.58126057009213,40.08073037449503 67.40273607079871,35.007341293792706 42.89433545200154,35.007341293792706 33.14048712467775,35.51468215382192 32.59585599997081,36.13476483809063 52.89574338123202,83.14641982316971 58.24303078907542,88.33212974207709 58.886685754870996,113.97818122000899 59.62936456128955,114.8236365794437 73.39367844420485,112.00544736540178 70.86857050168328,97.9706658613868 74.78001221665181,96.11060967482626 77.40414399979636,91.15043134824373 76.06732214801013,83.42825304833241 76.41390559123829,78.35523452231428 73.6412380465772,74.80409575480735 74.73050029622391,71.19656794931507 72.2053923534695,62.96681307326071 71.85880891070701,53.384077973430976 69.63077249052003,47.690732667339034 69.03662944538519,39.1224268709193 67.3532241503708,35.12008374463767 66.51152150286362,34.78185632789973 33.73463017004542,35.34556858189171 32.79390368168242,36.19113595923409 52.54915993800387,82.47001953708241 58.3915665501263,88.67032664152794 58.93619767506607,91.31952901900513 58.193518868414685,96.11060967482626 59.48082879977301,115.04909113846952 73.34416652377695,111.72362770832842 70.42296321759932,97.57610897539416 74.73050029622391,96.16697509936057 77.30512015917338,91.8831875739852 75.91878638672642,82.86458646447863 76.41390559123829,78.97527244582307 73.6907499670051,74.80409575480735 74.87903605727479,71.70387787214713 71.95783275132999,62.290389788977336 71.85880891070701,54.22961964755086 69.68028441094793,47.80347270844504 68.83858176344074,38.445976407441776 67.30371222971007,34.78185632789973 66.16493805963546,34.5 34.229749374324456,35.40193977794843 32.694879840826616,36.41662038950017 53.044279142515734,83.76645274175098 57.99547118670307,88.05029884557007 58.738149993354455,91.71409006364411 57.896447345847264,96.22334051853977 58.63912615249865,111.32907996344147 59.3818049589172,114.99272750673117 71.71027314919047,113.0199970236863 73.24514268292114,112.00544736540178 70.1258916950319,97.3506477799383 74.73050029622391,95.99787880934309 77.10707247746177,91.82682174252113 77.35463207960129,88.61396050499752 76.11683406843804,84.27375192038016 76.4634175116662,78.46796873846324 75.81976254587062,76.7205859827809 73.59172612591647,74.91683064540848 74.87903605727479,72.77486406237585 74.87903605727479,71.02746454544831 72.1063685126137,62.74133873078972 71.75978506961837,54.060511409072205 69.58126057009213,47.690732667339034 68.88809368386865,38.84057260496775 67.55127183184959,35.12008374463767 66.36298574134707,34.66911381290993 36.012178510427475,35.51468215382192 32.79390368168242,36.52936257253168 33.932677851989865,40.475325484992936 56.4110897325445,91.43226077285362 58.98570959549397,100.90165166009683 58.83717383421026,114.20363610005006 60.02545992494561,115.10545476496918 71.90832083066925,113.41454364469973 73.19563076226041,112.51272241142578 70.2744274563156,97.46337838837644 74.5819645349402,96.39243674423778 76.90902479551733,92.61594289523782 77.35463207960129,89.0085233480786 76.06732214801013,84.21738536650082 76.4634175116662,77.96066459739814 73.9878214893397,74.97319808258908 74.82952413707972,73.2258050381206 74.73050029622391,70.57652189955115 72.00734467199072,62.51586430257885 71.75978506961837,53.27133899240289 69.48223672946915,47.521622565516736 69.38321288838051,40.70080828748178 67.74931951379403,37.43129926593974 67.40273607079871,34.66911381290993 35.81413082871586,35.5710533336387 33.388046727050096,35.85290915291989 32.694879840826616,36.642104734200984 52.54915993800387,83.14641982316971 56.70816125511192,86.19021157204406 58.3915665501263,89.0085233480786 58.98570959549397,114.2599998068763 60.22350760642439,115.33090921700932 76.01781022781506,112.00544736540178 74.87903605727479,112.68181399686728 73.74026188743301,111.32907996344147 70.57149897888303,97.3506477799383 74.82952413707972,95.8287824713043 76.90902479551733,91.82682174252113 77.40414399979636,88.27576357370708 76.21585790952668,84.04828567238292 76.41390559123829,77.84793028491549 73.9878214893397,74.4095234691049 74.78001221665181,70.52015404467238 72.05685659241863,62.459495682269335 71.71027314919047,52.876752390526235 69.63077249052003,47.3525124155567 68.78906984301284,38.38960550050251 67.00664070714265,34.612742547062226 33.932677851989865,35.627424508275 32.64536792063154,36.75484687444987 50.46965927933343,78.6934371064417 53.53939834679477,84.44285155046964 56.70816125511192,86.35931065591285 58.83717383421026,90.30494227143936 58.78766191378236,114.71090926771285 60.71862681116909,115.5 72.55197579669766,112.68181399686728 73.39367844420485,111.27271597838262 72.70051155798137,108.11632427963195" stroke="#ffff00" stroke-linecap="round" stroke-linejoin="round" stroke-width="0.5"><title>2022-10-23 25.0km</title></polyline><polyline fill="none" points="105.28698991393321,58.31219466419134 104.88225224390044,56.863334908477555 104.97968909036717,56.30962301122781 104.88974738592515,56.06967989551049 104.5,55.81127874228696 105.11460164704476,55.94047943229816 105.78166928837891,55.61747728208138 106.07397982786642,55.294473714457126 106.08147496989113,55.05452728946693 106.60613491252298,54.75920753876562 106.88345516790287,54.869952584122075 106.99588229844812,55.174500599743624 106.8384843156673,55.70976375536702 107.55801795129082,55.63593458599644 108.35250300724874,55.885107735783095 108.64481354673626,55.60824862839945 108.86966780785588,54.94378252181923 109.39432775048772,54.4454290053327 109.83654113073135,54.36236975786596 110.42116220961907,54.56540330842836 111.87521976494463,54.519259368818894 113.08943277498474,54.83303758751572 114.01883038767846,55.23910153195902 117.39913944664295,56.30039444431168 118.5009253261378,56.42959427575988 119.3403812343604,56.37422294721182 121.09424447113997,56.72490732465667 122.39839918568032,56.512651190540055 123.32030165629112,56.73413583835645 123.97237901354674,56.71567880981456 124.06981586004258,56.55879388045287 125.4938928472111,56.06967989551049 127.98977514568833,55.57133400206658 130.20833718881477,55.857421871914994 131.7223558804253,56.660307696452946 133.21388914590352,56.80796390620526 134.31567502539838,56.743364350899355 136.6616544831486,56.15273721637641 137.63602294807788,55.50673336143518 139.01512908295263,54.08550492268114 141.66091422221507,49.84011369296786 142.28301101134275,49.17559550840815 144.04436939017614,46.37901571949624 144.5165633385477,46.277487721366924 145.58087350786082,47.21892378587654 146.6976496714924,47.911148502542346 147.28227075040923,48.92639964223781 148.42902748216875,50.28312248255679 148.87124086235417,50.17237053515419 150.26533728136565,50.62460660446959 151.41958915512078,50.62460660446959 151.66692884240183,50.85533822229627 152.423938188178,52.31354531503166 156.41135375219164,52.23048366171133 157.33325622277334,53.03340905076766 157.61807162020705,53.47639861931384 158.1502267048636,53.72557907994633 158.74234292583424,53.707121296996775 159.7841676690732,53.43025399700127 160.09146849261015,53.17184357734368 160.9758952530392,52.93189023240848 161.84533172941883,52.378148758391035 162.28754510960425,52.267399963639036 163.53173868785962,52.488897386501776 163.82404922728892,53.86401230467891 164.31123345976812,55.10067089347285 164.31123345976812,55.59901997356792 164.62602942535887,55.977393873508845 165.11321365775075,57.601610958932724 165.77278615708929,59.07814084635902 166.04261127044447,60.01018508949346 166.02012584434124,60.55464111782203 166.65721291751834,61.64354109433043 166.60474692325806,62.00342822321545 166.8520866104809,62.49250278348336 166.96451374108437,63.17535616829264 166.61224206528277,63.98738978698384 166.53729064491927,64.5594990038735 166.3499120939814,64.70713937041 166.96451374108437,65.42688191756315 167.72152308683144,65.4084270683743 169.06315351158264,66.24811802442127 169.55783288605744,66.37730039843882 170.29235680573038,67.02320886870439 170.69709447576315,67.21698030486004 171.02688072540332,66.94016381140682 171.53655038398574,66.04511669301428 171.68645322474185,65.43610934045137 172.41348200239008,64.48567870957777 176.49083927081665,62.15107371586055 176.8131303784321,61.625085296727775 176.91056722492795,61.65276899142191 175.6738687886973,59.99172888237081 174.15985009711585,57.28784454225388 174.3322383640043,57.04790461528319 174.57957805119804,56.07890849134128 174.51212177288835,55.285245020262664 174.81942259642528,54.18702214983932 174.7519663181156,52.74731020397303 176.55080040710163,49.110989253757 178.0123531044519,46.64667977037607 181.03289534556097,43.72078195329959 182.02225409453968,42.24394392092654 182.8916905708902,40.61015731326188 183.1765059683239,38.717873244451766 184.09091329691,38.791719388987985 183.64869991669548,39.917863909307925 183.13903025814216,40.3978546952203 181.6175164245069,43.10235963458399 180.5532062551938,44.38534939754027 178.7843527343357,46.037511896262004 177.9448968261131,47.10816722692107 178.0798093827616,47.255842601800396 180.08101230682223,47.28353170160699 182.08971037287847,48.308021070035466 183.61871934856754,48.36339846744522 183.82858332557953,48.69566197672975 184.87790321087232,61.92960536583996 184.84792264271528,63.01848500514461 185.3575923012686,67.48456859260477 183.28893309886917,70.52947027017944 183.05658369572484,72.4024836013632 182.79425372442347,72.67005304534541 182.21712778753135,74.03556472138007 182.58438974738237,74.37693868406495 185.5,76.02842821181548 183.91102988799685,75.2718845334457 182.05972980472143,74.04479106549843 182.8167391505267,72.56856130174128 183.06407883774955,70.75091275330487 185.16271860827692,67.46611425915762 185.05029147770256,65.47301902037725 184.75798093827325,63.885886074465816 184.77297122232267,62.40022481326014 184.2258258535876,56.00507969225873 184.12838900709176,53.10724083066452 183.68617562687723,48.60336670794641 182.4644674747542,48.474153137227404 180.00606088640052,47.42197704429418 177.81747941146023,47.311220790972584 175.90621819187072,50.57846019408316 175.13421856201603,52.221254583317204 174.44466549454955,56.6510791735127 174.4671509206819,57.45395634122542 175.07425742570194,58.55213047009602 175.15670398814837,59.02277151008457 176.84311094658915,61.40361536433193 177.03798463958083,61.99420037007803 176.41588785045315,62.5570972938076 175.63639307854464,62.79701926456619 174.4671509206819,63.62751235657197 172.4359674284642,64.76250443153549 171.11682242987445,67.2446618969625 170.86198760059779,67.22620750337228 169.76769686309854,66.67257354510366 168.50101785876905,65.83288742990408 167.94637734798016,65.7775231736814 166.8445914684562,65.18696851698769 166.58226149712573,64.83632444828254 166.25247524748556,64.80864195067261 165.95266956597334,65.27924299436563 165.80276672521723,65.90670637340372 165.3605533450318,66.5433916891343 165.12070879980456,67.28157067026041 164.00393263623118,69.25616306855954 163.3893309891282,70.00354170383798 163.2394281483721,70.79704652011424 162.7372536319017,71.82120870045765 159.8366336633335,75.21652737377735 159.0046728971356,74.75521609170391 157.89539187558694,73.72186833339947 157.8054501711449,73.50966119555233 157.40071250108304,73.2051890165967 157.13838252983987,73.18673611682607 156.61372258714982,72.7438651346456 156.20898491714615,72.31944461075182 156.07407236046856,71.92270147409727 155.63185898028314,71.85811517977709 155.35453872484504,72.09800684457878 154.27523827148252,73.57424604136031 153.79554918102804,74.81979984517966 153.36832608489203,75.34569401491171 153.25589895434678,75.87158442931104 153.00106412509922,76.15759342895763 152.7087535856117,76.25908022635849 152.59632645506645,76.84954609187844 152.04918108630227,77.59684766564169 152.15411307482282,77.96588268293999 151.59197742200922,79.20213651796803 150.68506523547694,81.96056840365054 150.3028129915765,82.56021383963525 148.93869714069297,86.5085265107482 148.20417322102003,92.02473984627431 148.09924123249948,93.71272928818507 147.92685296564014,94.09090741240652 148.1067363745533,94.88415278179309 147.7544646987808,95.6220477840543 147.6120570000494,97.18082668303396 146.555241972761,97.74345475454174 146.03807717218297,97.78957161911967 145.5658832238114,98.31530183506402 144.32918478758074,99.20995691337885 143.11497177751153,100.60264578150236 142.950078652706,101.2113624511403 141.91574905149173,103.11126396151667 141.69089479040122,103.92285744329274 140.71652632550104,105.92413499692339 139.53978902555536,109.815864793316 139.29994448041543,111.28212675554096 139.43485703709302,110.7472672805452 139.3449153326219,110.46139252138528 139.43485703709302,109.5299864218905 139.88456555930316,108.08213377129869 140.17687609881978,107.63025036909676 140.21435180897242,107.21525296746404 140.5516332006664,106.68958623765502 140.44670121214585,106.39447344791552 140.58910891087726,105.7489101007377 140.85143888217863,105.49990558425634 141.20371055795113,104.73444198775542 141.42106967701693,103.81218613115198 141.63093365408713,103.68306939026661 141.8932636253885,102.96370055001171 142.05815675022313,102.96370055001171 142.41792356802034,102.53945409617882 142.62778754509054,101.37737521567033 142.98005922083394,100.89778176441905 143.21990376603208,100.12304728827439 143.82701027108124,99.3944205273292 144.77889330984908,98.73957260779571 145.12366984356777,98.34297174254607 146.25543629124877,97.5774338031988 146.92250393261202,97.29150795454916 147.58957157394616,96.72887643217109 147.64953271026025,96.24925272595283 147.469649301318,95.77884952005115 147.65702785225585,95.04095608809439 147.9793189599004,95.05940351395111 147.8968723974831,95.02250865761016 148.21916350509855,94.44141223336192 148.00180438600364,93.49135582696908 148.1891829369415,93.00248707718856 148.09924123249948,91.94172297430487 148.49648376047844,88.34423533202789 148.8862311464327,86.11185980042501 149.5982696400024,84.28532040890423 149.79314333302318,84.14694436701393 149.9505413157749,83.64878846386273 150.3103081335721,83.2059803882803 150.33279355970444,82.49563687339105 150.91741463862127,81.60077879881283 150.9399000647536,80.67823331982072 151.2322106041829,80.07857256193529 151.5694919958769,79.72799939586548 151.66692884240183,78.87923639908695 152.15411307482282,77.99356023471773 152.25154992131866,77.04329167245305 152.43892847222742,77.09864745900268 152.43892847222742,76.91412800869875 152.6412973072438,76.73883410268172 152.61881188114057,76.17604558433959 153.51822892564815,74.40461758468155 154.31271398163517,73.17750966517633 155.5269269917335,71.74739568628866 156.69616914959624,72.37480394822342 156.8011011381168,71.91347486407903 156.99597483107937,71.69203587711672 157.010965115187,70.8708604869098 157.25080966035603,70.11426381943602 157.07092625147197,69.15466661942628 157.98533358005807,68.09355900164519 158.04529471637215,66.98629996591626 158.24766355138854,66.77407341575599 158.2176829832024,66.50648254582484 158.49500323858229,66.17429942321905 158.4275469602726,65.24233321726933 158.19519755709916,65.06701152351889 157.91038215969456,65.16851360764122 157.27329508645926,65.08546645831666" stroke="red" stroke-linecap="round" stroke-linejoin="round" stroke-width="0.5"><title>2017-02-26 43.5km</title></polyline><polyline fill="none" points="19.162228594883345,214.8257557760371 23.957189676351845,215.51949136792973 29.06739041378023,217.02257631688553 31.041786153276917,218.23659764362674 36.53359278984135,223.20822176300862 36.68291683739517,224.98101698516984 45.9907824662514,228.6421712948213 48.74498156493064,229.00828278210247 51.38303973781876,229.00828278210247 55.24887341255089,229.75977253587916 62.31687832856551,230.18368850018305 67.5764031134895,231.64811807152 69.8826300696237,231.82153660322365 72.32158951251768,232.70789547501772 72.81933633756125,232.45740317642048 73.49959033186315,233.054730411357 74.59463334700558,233.34375903346518 84.59934453095775,234.88523747140425 90.95391233102418,235.03938461611688 93.16058992216131,234.78889544133563 95.5,234.13376832065114 93.26013928721659,234.9045058714255 89.89205243752804,235.34767852434015 85.69438754610019,235.2320683683065 78.39410077838693,234.364989919457 74.64440802950412,233.20887906543794 73.53277345350944,233.0932675867807 72.85251945926575,232.49594047493883 72.50409668165958,232.7271640995168 69.98217943467898,231.89861145452596 67.49344530934468,231.7829991656472 61.918680868519004,230.18368850018305 55.16591560834786,229.83684823718795 52.677181483013555,229.18170376258786 46.007374027045444,228.73851649255084 42.12494879151927,226.9850261216052 40.28328553872416,226.5803721616976 36.915198689035606,224.96174756229448 36.53359278984135,223.30456976147252 30.776321179873776,218.12097690459632 29.08398197463248,217.15746796481835 25.05223269155249,215.73146561853355 18.76403113483684,214.7294034068036 14.782056534197181,214.74867388459097 14.5,215.07627170345222 14.865014338400215,215.19189432598068 21.46845555107575,215.40386894813855 22.762597296212334,215.88562855882628 23.824457189708482,215.61584332979692 29.100573535484727,217.0611167976749 30.809504301520064,217.96681580800214 33.580294961167965,220.5104576425074 34.078041786153335,221.49321908062848 34.85784514551051,221.8208050783869 36.58336747233989,223.28530016576406 36.69950839824742,224.94247813744005 41.14604670222616,226.85014156562102 42.90475215076003,227.17771817556059 45.74190905370051,228.44948075040884 47.00286767719081,228.73851649255084 47.71630479313899,228.52655699197203 49.309094633325,228.66144033832825 50.304588283470366,229.02755178786174 55.71343711600639,229.79831039052806 61.85231462516822,230.1451507249585 67.52662843099097,231.6095805981604 70.23105284722988,231.82153660322365 72.33818107331172,232.63082095733262 72.88570258091204,232.49594047493883 73.46640721010044,233.0739990000293 78.22818516998086,234.1723052736197 83.33838590746745,234.82743225932063 90.29024989757454,235.19353163374763 95.20135190500878,234.2301106882369 91.65075788612012,235.1549948912725 85.19664072105661,235.1164581408375 78.54342482588254,234.01815741398605 76.13764850475127,233.2474162090948 74.03052027861122,233.18961049060454 72.81933633756125,232.5730150482268 71.98975829576375,232.66935822015512 70.01536255632527,231.80226788546133 67.49344530934468,231.72519299435953 62.051413355220575,230.20295738479763 55.34842277754797,229.74050360558613 52.677181483013555,229.20097275053558 48.59565751737682,229.0468207916274 46.09033183119027,228.56509510087199 36.81564932403853,225.05809465695347 36.56677591154585,224.8075921075506 36.51700122910552,223.40091771032894 36.301310938142706,223.1311433285009 34.973986071301624,222.14839050202863 33.97849242109805,220.8765850566997 29.150348217983264,217.13819773538853 24.17287996725645,215.50022096955217 19.195411716529634,214.76794436045748 16.590536665346008,214.65232147565985 14.964563703397289,214.8064853061369 14.533183121704496,215.19189432598068 19.06267922988627,215.40386894813855 19.56042605492985,214.88356717364513 24.853133961558342,215.86635819826915 29.0176157313399,217.13819773538853 30.958828349015675,218.23659764362674 36.317902498994954,223.32383935523103 36.633142154838424,225.07736406988988 46.22306431789184,228.8348616406729 48.479516591643915,229.18170376258786 51.648504711221904,229.08535879327974 55.215690290846396,229.81757931486936 61.66980745602632,230.18368850018305 66.29885292914696,231.43616186991858 69.96558787382673,231.95641757220437 72.25522326916689,232.784969960936 72.81933633756125,232.49594047493883 73.38344940595562,233.11253617156763 77.84657927084481,234.05669439076155 84.84821794350864,235.02011622997816 92.7292093404103,234.86596906931663 95.25112658750731,234.13376832065114 92.61306841456098,234.96231105960032 85.42892257269705,235.1549948912725 78.925030725135,234.2301106882369 73.78164686611854,233.1510733350151 72.83592789847171,232.4766718266619 72.38795575581025,232.7271640995168 69.83285538712516,231.840805319036 67.54321999178501,231.72519299435953 61.66980745602632,230.18368850018305 55.26546497334493,229.79831039052806 52.42830807046266,229.18170376258786 46.18988119624555,228.73851649255084 42.158131913107354,227.04283375864907 39.85190495697316,226.4454873137438 36.69950839824742,224.96174756229448 36.284719377348665,223.15041294010007 31.15792707912624,218.44856881265878 29.316263826331124,217.33089994052716 25.997951659199316,216.13614306569798 22.314625153667293,215.24970561033115 16.8394100778969,214.6715919614362 15.014338385895826,214.8450262438855 14.649324047553819,214.9413785534707 14.715690290904604,215.21116475612507 18.465383039729204,215.268976034582" stroke="#ffb900" stroke-linecap="round" stroke-linejoin="round" stroke-width="0.5"><title>2016-11-12 30.0km</title></polyline><polyline fill="none" points="109.2226442208048,214.8896841550013 115.54167522065109,216.04851977035287 119.51601313892752,217.4584267688042 121.37846438103588,218.5786192849191 126.03459248610307,222.90481714819907 125.8017860808759,223.09794865184813 125.88493122556247,223.54215035463858 126.74964073084993,224.62368053145474 126.86604393343441,225.16444327852514 136.41110654891236,228.91111372754676 139.13826729619177,229.31667665325222 141.81554095662432,229.25873914615659 145.4074112091912,229.89605073846178 152.05902278790018,230.22436192487658 157.76277971663512,231.82728475033946 159.74163416132797,231.8465969899553 162.5020529665053,232.8508307060256 163.03418189281365,232.56114845571574 163.566310819122,233.15982461275416 164.2647300348617,233.35294554573193 170.9163416136289,234.6275387112546 176.10459864500444,235.16827258627745 182.93912954215193,235.07171308016405 185.5,234.27992325319792 183.5377745842561,234.859281991623 181.59217819746118,234.99446543950762 173.99271196877817,234.83997006253048 164.33124615071574,233.15982461275416 163.03418189281365,232.54183628971805 162.63508519809693,232.75427000568016 160.19061794289155,231.82728475033946 157.7794087456423,231.67278676193382 151.826216382673,230.06986261461861 145.05820160126314,229.76086361217313 141.69913775403984,229.10423903976334 138.92208991985535,229.10423903976334 136.2448162594228,228.71798821633274 126.74964073084993,224.95200095692417 126.4669472387177,223.21382745845767 121.49486758356215,218.67518729165022 119.13354547315976,217.16872071751277 114.19472387596034,215.54635855056404 109.72151508933166,214.7931141967565 105.09864504210418,214.77380019916745 104.51662902889075,215.10213788780675 104.81595154991373,215.25664954216336 108.47433791827643,215.39184713514987 109.2226442208048,215.52704463058035 109.13949907611823,215.7781254346628 109.50533771293703,215.39184713514987 111.35115992609644,215.5849863844487 118.16906179423677,217.8640144878882 123.64001231774455,220.89623770752223 126.01796345715411,223.58077653989312 126.84941490448546,225.12581741983013 136.31133237527683,228.81455099681625 142.39755696983775,229.29736415286607 145.15797577495687,229.89605073846178 152.19205501949182,230.3209239289572 157.23065079032676,231.67278676193382 159.8081502771238,231.9624703856971 162.5353110244032,232.8315185699612 162.95103674812708,232.5804606196325 163.48316567437723,233.15982461275416 166.97526175325038,234.0288672435563 171.96397043729667,234.83997006253048 179.71309792646207,235.3034558112122 183.1386778895394,235.03308926377213 185.5,234.33785920764785 182.82272633956745,235.05240117300127 179.09782385546714,235.3034558112122 171.19903510576114,234.64685066216043 163.81574625329813,233.1984488152666 162.98429480596678,232.54183628971805 162.63508519809693,232.79289429179335 160.14073085604468,231.94315815807204 157.38031205086736,231.6920990174258 152.22531307738973,230.26298673245765 145.20786286180373,229.8574258551962 142.63036337506492,229.3359891516011 140.13600903301267,229.27805165047175 136.0286388832028,228.69867565421737 126.84941490448546,225.10650448744127 126.55009238352068,223.25245371137862 120.49712584685767,217.96058286298648 116.33986861008452,216.20303064405743 111.75025662081316,215.17939373089757 107.010983370943,214.69654418877326 104.9822418394615,214.90899814064323 104.56651611573761,215.2759634899994 111.11835352075286,215.50773070866126 118.13580373633886,218.03783752722666 123.32406076783082,220.99280451955565 124.87056045979261,222.5764931350568 126.83278587559471,225.16444327852514 136.31133237527683,228.8338635469263 141.28341203037417,229.08492651747656 145.2577499486506,229.9346756137238 151.7929583247169,230.2050495180447 157.6297474851017,231.73072352250165 159.6584890165832,231.92384592843882 162.55194005335215,232.8508307060256 163.06743995065335,232.59977278158476 163.4997947033262,233.04395195742836 167.7401970847859,234.04817925626412 175.67224389244802,235.18758448153676 182.1741942106164,235.0910249853914 185.45011291315313,234.35717118847242 181.54229111061431,235.206896374817 175.10685690818354,235.1489606890391 163.94877848494798,233.21776091356878 163.03418189281365,232.59977278158476 162.6517142270459,232.81220643184497 159.87466639297782,231.885221463177 157.72952165879542,231.78866026519972 151.32734551426256,230.0891750354058 149.88061999587808,230.2822991333087 142.69687949086074,229.31667665325222 136.8767193594831,228.89180118535296 132.10418805171503,226.94122417240578 129.6430917675607,226.45840494459844 126.94918907817919,225.12581741983013 126.61660849920008,223.29107995635422 124.65438308357261,221.6880840969534 123.44046397035709,220.25889549960266 122.4427222335944,219.7567455661483 122.02699650992872,219.1000859298947 119.01714227057528,217.11077945346187 111.81677273655077,215.10213788780675 105.91346746042836,214.71585819433676 104.5,215.1214518515626 107.892321905063,215.37253319929005 108.09187025245046,215.25664954216336 107.3768220077618,214.98625406336214 106.5287415314815,214.9669400856801 106.12964483676478,215.2759634899994 106.42896735778777,215.3339053215459" stroke="#ffba00" stroke-linecap="round" stroke-linejoin="round" stroke-width="0.5"><title>2016-10-23 30.0km</title></polyline></svg>