<?xml version="1.0" encoding="utf-8" ?>
<svg baseProfile="full" height="200mm" version="1.1" viewBox="0,0,200,200" width="200mm" xmlns="http://www.w3.org/2000/svg" xmlns:ev="http://www.w3.org/2001/xml-events" xmlns:xlink="http://www.w3.org/1999/xlink"><defs /><rect fill="#1a1a1a" height="200" width="200" x="0" y="0" /><text alignment-baseline="middle" fill="#e1ed5e" style="dominant-baseline: central; font-size:9.0px; font-family:Arial;" text-anchor="middle" x="100.0" y="100.0">2025</text><line stroke="#e1ed5e" stroke-width="0.3" x1="100.0" x2="100.0" y1="15.0" y2="10.0" /><path d="M 100.0 14.0 a86.0,86.0 0 0,1 42.46469731375804,11.215312516191453" fill="none" id="id121" stroke="none" /><text fill="#e1ed5e" style="font-size:6.75px; font-family:Arial;" text-anchor="middle"><textPath startOffset="22.20632615414155" xlink:href="#id121">January</textPath></text><path d="M 100.0 79.0 l 0.0 -17.440390285840948 a38.44039028584095,38.44039028584095 0 0,0 0.6616881287594681,0.0056953586266304335 l -0.30020764948693973 17.437806303822878" fill="#ff930d" stroke="none" /><path d="M 101.44485096284872 79.0497635885617 l 1.361059164697539 -19.735261285460197 a40.78213891507163,40.78213891507163 0 0,0 0.6999182363704601,0.05432712588298794 l -1.7005675904303401 19.708908897388746" fill="#ffb610" stroke="none" /><path d="M 102.52436894288641 79.15227682838746 l 2.4249970093413507 -20.027051309279138 a41.17333375126218,41.17333375126218 0 0,0 0.7028587489551564,0.09125123779554226 l -2.769370486804353 19.98234174831946" fill="#ffbb11" stroke="none" /><path d="M 103.95276090670814 79.375362276772 l 3.795544508013991 -19.804317105880692 a41.16474979122215,41.16474979122215 0 0,0 0.6947700034233462,0.13936432662987902 l -4.135880920904462 19.736048823173604" fill="#ffbb11" stroke="none" /><path d="M 109.41281617654863 81.2277094730956 l 6.031600790998538 -12.029020886759483 a34.45650592078308,34.45650592078308 0 0,0 0.5279056863975193,0.2704137965409111 l -6.237766964984813 11.923414564906071" fill="#ff5608" stroke="none" /><line stroke="#e1ed5e" stroke-width="0.3" x1="143.23703022742887" x2="145.7803849466894" y1="26.81831364943548" y2="22.513508569990506" /><path d="M 143.74570117128098 25.957352633546492 a86.0,86.0 0 0,1 28.547481713284135,27.462654790039103" fill="none" id="id122" stroke="none" /><text fill="#e1ed5e" style="font-size:6.75px; font-family:Arial;" text-anchor="middle"><textPath startOffset="19.985693538727396" xlink:href="#id122">February</textPath></text><path d="M 111.2981086023043 82.29822771554956 l 10.852317160864063 -17.003310368345083 a41.171399337732026,41.171399337732026 0 0,0 0.5941091235207645,0.386425100158318 l -11.143393310169108 16.813986344027235" fill="#ffbb11" stroke="none" /><path d="M 111.90073688211348 82.69761687909136 l 11.437230984400118 -16.628495722129944 a41.18209906257067,41.18209906257067 0 0,0 0.5806065304289759,0.40675197868448937 l -11.721768654412745 16.429158900681518" fill="#ffbc11" stroke="none" /><path d="M 113.06298171725822 83.55741782278167 l 12.609874056567008 -15.87224838151229 a41.271585838480945,41.271585838480945 0 0,0 0.5524429769071842,0.4467038008250863 l -12.881220432038683 15.652838483423073" fill="#ffbd11" stroke="none" /><path d="M 113.34407831869373 83.78471172551755 l 12.819799402173194 -15.578201653392686 a41.174925612396365,41.174925612396365 0 0,0 0.5433962047497453,0.4550786942396562 l -13.086053143882056 15.35522180175921" fill="#ffbb11" stroke="none" /><path d="M 114.42810811169701 84.74124197986012 l 13.868188263994801 -14.66660266611705 a41.185040983147765,41.185040983147765 0 0,0 0.5109234899342513,0.4915079925125992 l -14.11859499754147 14.42571158684215" fill="#ffbc11" stroke="none" /><path d="M 114.94478906791727 85.2469230424477 l 14.35429254045657 -14.170155333620063 a41.170250779698506,41.170250779698506 0 0,0 0.4935249235026215,0.5086208157349816 l -14.5960817276623 13.920970322334966" fill="#ffbb11" stroke="none" /><path d="M 116.60985879189232 87.15038557335679 l 15.95051221793745 -12.339534879610344 a41.16638195263821,41.16638195263821 0 0,0 0.42876562795075307,0.5642053070412163 l -16.160553786112317 12.063144796688094" fill="#ffbb11" stroke="none" /><path d="M 117.04232023915458 87.72973835380427 l 16.366346270098784 -11.783568675406714 a41.1670469072892,41.1670469072892 0 0,0 0.4090972937853737,0.5786391098395135 l -16.566756183688042 11.500103065235407" fill="#ffbb11" stroke="none" /><path d="M 117.45458315368197 88.32363383020206 l 16.78925511676844 -11.231290299831006 a41.199528934482935,41.199528934482935 0 0,0 0.38924405534618767,0.5928454007918996 l -16.98009580747255 10.940626835061432" fill="#ffbc11" stroke="none" /><line stroke="#e1ed5e" stroke-width="0.3" x1="172.23445277983987" x2="176.4835382374775" y1="55.19839476539836" y2="52.563006222186495" /><path d="M 173.08426987136738 54.67131705675599 a86.0,86.0 0 0,1 12.851231095245387,41.99856678651699" fill="none" id="id123" stroke="none" /><text fill="#e1ed5e" style="font-size:6.75px; font-family:Arial;" text-anchor="middle"><textPath startOffset="22.20632615414155" xlink:href="#id123">March</textPath></text><path d="M 117.84615892207809 88.93136811851018 l 36.14314536694056 -22.416878211866507 a63.530499477215784,63.530499477215784 0 0,0 0.5683989132740074,0.9342983629911856 l -36.52366007850079 21.791412075668237" fill="#30ff39" stroke="none" /><path d="M 118.03404312379186 89.2402003453031 l 6.93822874639233 -4.139612551505503 a29.07931991035426,29.07931991035426 0 0,0 0.25276897726750286,0.4320641184179909 l -7.008457398130161 4.019569020733616" fill="#ff0000" stroke="none" /><path d="M 118.3937258080291 89.86733742301442 l 17.66905562023253 -9.73345914375086 a41.17264864647025,41.17264864647025 0 0,0 0.3366195383963228,0.6237048810006329 l -17.83398325784732 9.427873279417769" fill="#ffbb11" stroke="none" /><path d="M 118.73160827565052 90.50648371742162 l 17.992601808992696 -9.118974501600265 a41.17150008843673,41.17150008843673 0 0,0 0.31494234480453487,0.6349045490835654 l -18.14690416675064 8.807910364017749" fill="#ffbb11" stroke="none" /><path d="M 119.196687751892 91.48605970444005 l 57.59006325567602 -25.541820886679833 a84.0,84.0 0 0,0 0.574837160629277,1.3268034216535889 l -58.02119112614798 24.54671832043964" fill="#4dd2ff" stroke="none" /><line stroke="#e1ed5e" stroke-width="0.3" x1="184.98032266829074" x2="189.97916517819016" y1="98.17113171792111" y2="98.06355123074" /><path d="M 185.9800911702706 98.14961562048488 a86.0,86.0 0 0,1 -9.607161424134198,41.387399972396054" fill="none" id="id124" stroke="none" /><text fill="#e1ed5e" style="font-size:6.75px; font-family:Arial;" text-anchor="middle"><textPath startOffset="21.466115282336823" xlink:href="#id124">April</textPath></text><line stroke="#e1ed5e" stroke-width="0.3" x1="174.80103733775053" x2="179.2010983576182" y1="140.37084112569926" y2="142.7455964860345" /><path d="M 175.68104954172406 140.8457921977663 a86.0,86.0 0 0,1 -30.038265399797805,32.042727171017184" fill="none" id="id125" stroke="none" /><text fill="#e1ed5e" style="font-size:6.75px; font-family:Arial;" text-anchor="middle"><textPath startOffset="22.206326154141568" xlink:href="#id125">May</textPath></text><line stroke="#e1ed5e" stroke-width="0.3" x1="143.8653032363475" x2="146.44561519142675" y1="172.8068346515853" y2="177.08958963109032" /><path d="M 144.38136562736335 173.6633856474863 a86.0,86.0 0 0,1 -40.68145358897372,12.25698825130547" fill="none" id="id126" stroke="none" /><text fill="#e1ed5e" style="font-size:6.75px; font-family:Arial;" text-anchor="middle"><textPath startOffset="21.466115282336833" xlink:href="#id126">June</textPath></text><line stroke="#e1ed5e" stroke-width="0.3" x1="102.19456741930631" x2="102.32365962044197" y1="184.97166512339345" y2="189.96999836594603" /><path d="M 102.22038585953345 185.97133177190398 a86.0,86.0 0 0,1 -42.740103519485714,-10.115201625700543" fill="none" id="id127" stroke="none" /><text fill="#e1ed5e" style="font-size:6.75px; font-family:Arial;" text-anchor="middle"><textPath startOffset="22.20632615414155" xlink:href="#id127">July</textPath></text><line stroke="#e1ed5e" stroke-width="0.3" x1="58.666819895761336" x2="56.23545636021788" y1="174.27360380694188" y2="178.64263932499728" /><path d="M 58.180547188652646 175.14741091055294 a86.0,86.0 0 0,1 -31.652253787137756,-30.449443065178592" fill="none" id="id128" stroke="none" /><text fill="#e1ed5e" style="font-size:6.75px; font-family:Arial;" text-anchor="middle"><textPath startOffset="22.20632615414155" xlink:href="#id128">August</textPath></text><line stroke="#e1ed5e" stroke-width="0.3" x1="26.63291911575756" x2="22.317208475507996" y1="142.92168965132927" y2="145.44649492493687" /><path d="M 25.769776987707644 143.4266507060508 a86.0,86.0 0 0,1 -11.730757126820373,-40.83630448921669" fill="none" id="id129" stroke="none" /><text fill="#e1ed5e" style="font-size:6.75px; font-family:Arial;" text-anchor="middle"><textPath startOffset="21.46611528233685" xlink:href="#id129">September</textPath></text><line stroke="#e1ed5e" stroke-width="0.3" x1="15.007084014347285" x2="10.007500721073583" y1="101.09737516637583" y2="101.16192664675087" /><path d="M 14.007167355692545 101.11028546245083 a86.0,86.0 0 0,1 10.666146001902534,-42.60595125391555" fill="none" id="id130" stroke="none" /><text fill="#e1ed5e" style="font-size:6.75px; font-family:Arial;" text-anchor="middle"><textPath startOffset="22.20632615414155" xlink:href="#id130">October</textPath></text><line stroke="#e1ed5e" stroke-width="0.3" x1="26.266209847984243" x2="21.928928074336255" y1="57.711370442889674" y2="55.22380399835377" /><path d="M 25.398753493254645 57.213857153982495 a86.0,86.0 0 0,1 29.58750427330803,-30.492523968695096" fill="none" id="id131" stroke="none" /><text fill="#e1ed5e" style="font-size:6.75px; font-family:Arial;" text-anchor="middle"><textPath startOffset="21.46611528233685" xlink:href="#id131">November</textPath></text><line stroke="#e1ed5e" stroke-width="0.3" x1="56.762969772571076" x2="54.21961505331055" y1="26.818313649435495" y2="22.513508569990535" /><path d="M 56.25429882871897 25.957352633546506 a86.0,86.0 0 0,1 42.265352541879196,-11.944610805530505" fill="none" id="id132" stroke="none" /><text fill="#e1ed5e" style="font-size:6.75px; font-family:Arial;" text-anchor="middle"><textPath startOffset="22.20632615414155" xlink:href="#id132">December</textPath></text></svg>