<?xml version="1.0" encoding="utf-8" ?>
<svg baseProfile="full" height="200mm" version="1.1" viewBox="0,0,200,200" width="200mm" xmlns="http://www.w3.org/2000/svg" xmlns:ev="http://www.w3.org/2001/xml-events" xmlns:xlink="http://www.w3.org/1999/xlink"><defs /><rect fill="#1a1a1a" height="200" width="200" x="0" y="0" /><text alignment-baseline="middle" fill="#e1ed5e" style="dominant-baseline: central; font-size:9.0px; font-family:Arial;" text-anchor="middle" x="100.0" y="100.0">2015</text><line stroke="#e1ed5e" stroke-width="0.3" x1="100.0" x2="100.0" y1="15.0" y2="10.0" /><path d="M 100.0 14.0 a86.0,86.0 0 0,1 42.46469731375804,11.215312516191453" fill="none" id="id1" stroke="none" /><text fill="#e1ed5e" style="font-size:6.75px; font-family:Arial;" text-anchor="middle"><textPath startOffset="22.20632615414155" xlink:href="#id1">January</textPath></text><line stroke="#e1ed5e" stroke-width="0.3" x1="143.23703022742887" x2="145.7803849466894" y1="26.81831364943548" y2="22.513508569990506" /><path d="M 143.74570117128098 25.957352633546492 a86.0,86.0 0 0,1 28.547481713284135,27.462654790039103" fill="none" id="id2" stroke="none" /><text fill="#e1ed5e" style="font-size:6.75px; font-family:Arial;" text-anchor="middle"><textPath startOffset="19.985693538727396" xlink:href="#id2">February</textPath></text><line stroke="#e1ed5e" stroke-width="0.3" x1="172.23445277983987" x2="176.4835382374775" y1="55.19839476539836" y2="52.563006222186495" /><path d="M 173.08426987136738 54.67131705675599 a86.0,86.0 0 0,1 12.851231095245387,41.99856678651699" fill="none" id="id3" stroke="none" /><text fill="#e1ed5e" style="font-size:6.75px; font-family:Arial;" text-anchor="middle"><textPath startOffset="22.20632615414155" xlink:href="#id3">March</textPath></text><line stroke="#e1ed5e" stroke-width="0.3" x1="184.98032266829074" x2="189.97916517819016" y1="98.17113171792111" y2="98.06355123074" /><path d="M 185.9800911702706 98.14961562048488 a86.0,86.0 0 0,1 -9.607161424134198,41.387399972396054" fill="none" id="id4" stroke="none" /><text fill="#e1ed5e" style="font-size:6.75px; font-family:Arial;" text-anchor="middle"><textPath startOffset="21.466115282336823" xlink:href="#id4">April</textPath></text><line stroke="#e1ed5e" stroke-width="0.3" x1="174.80103733775053" x2="179.2010983576182" y1="140.37084112569926" y2="142.7455964860345" /><path d="M 175.68104954172406 140.8457921977663 a86.0,86.0 0 0,1 -30.038265399797805,32.042727171017184" fill="none" id="id5" stroke="none" /><text fill="#e1ed5e" style="font-size:6.75px; font-family:Arial;" text-anchor="middle"><textPath startOffset="22.206326154141568" xlink:href="#id5">May</textPath></text><line stroke="#e1ed5e" stroke-width="0.3" x1="143.8653032363475" x2="146.44561519142675" y1="172.8068346515853" y2="177.08958963109032" /><path d="M 144.38136562736335 173.6633856474863 a86.0,86.0 0 0,1 -40.68145358897372,12.25698825130547" fill="none" id="id6" stroke="none" /><text fill="#e1ed5e" style="font-size:6.75px; font-family:Arial;" text-anchor="middle"><textPath startOffset="21.466115282336833" xlink:href="#id6">June</textPath></text><line stroke="#e1ed5e" stroke-width="0.3" x1="102.19456741930631" x2="102.32365962044197" y1="184.97166512339345" y2="189.96999836594603" /><path d="M 102.22038585953345 185.97133177190398 a86.0,86.0 0 0,1 -42.740103519485714,-10.115201625700543" fill="none" id="id7" stroke="none" /><text fill="#e1ed5e" style="font-size:6.75px; font-family:Arial;" text-anchor="middle"><textPath startOffset="22.20632615414155" xlink:href="#id7">July</textPath></text><line stroke="#e1ed5e" stroke-width="0.3" x1="58.666819895761336" x2="56.23545636021788" y1="174.27360380694188" y2="178.64263932499728" /><path d="M 58.180547188652646 175.14741091055294 a86.0,86.0 0 0,1 -31.652253787137756,-30.449443065178592" fill="none" id="id8" stroke="none" /><text fill="#e1ed5e" style="font-size:6.75px; font-family:Arial;" text-anchor="middle"><textPath startOffset="22.20632615414155" xlink:href="#id8">August</textPath></text><path d="M 89.4739219176387 118.17145234162733 l -3.835480234454782 6.62129292052657 a28.651955865548924,28.651955865548924 0 0,0 -0.4246385344397917,-0.2508839310063626 l 3.948886639922956 -6.554290417226458" fill="#ff1502" stroke="none" /><path d="M 88.8546689885994 117.79835938074946 l -4.438581443834136 7.088122156020035 a29.3631621371471,29.3631621371471 0 0,0 -0.4260709453635939,-0.27193863618010955 l 4.559934191244653 -7.010669091016122" fill="#ff2003" stroke="none" /><path d="M 88.54995079064634 117.60387380957326 l -4.607977695644101 7.084533558613925 a29.45127648267884,29.45127648267884 0 0,0 -0.4225911789826609,-0.28007039023703234 l 4.729243573366724 -7.004165147285574" fill="#ff2203" stroke="none" /><path d="M 88.24862548938628 117.40417183066458 l -4.688566847082319 6.943921578916336 a29.37858615601101,29.37858615601101 0 0,0 -0.41667664886100697,-0.2865939985471325 l 4.807400380566216 -6.862186791004102" fill="#ff2103" stroke="none" /><path d="M 87.95078237400918 117.19931262002967 l -4.703160990652029 6.713393241903618 a29.19691235310151,29.19691235310151 0 0,0 -0.409135876986144,-0.2919075849983362 l 4.81802419548706 -6.631441395061063" fill="#ff1e03" stroke="none" /><path d="M 87.65650970185807 116.9893568818739 l -4.940197186313421 6.7995980908043565 a29.40476545991197,29.40476545991197 0 0,0 -0.40692698971273794,-0.3010348587391244 l 5.056509146444723 -6.713553283325465" fill="#ff2103" stroke="none" /><path d="M 87.07902340077011 116.55440617244103 l -5.157808207100241 6.608204214608387 a29.38280075172962,29.38280075172962 0 0,0 -0.3960276950359927,-0.31462835240993065 l 5.270793394853592 -6.518441948193326" fill="#ff2103" stroke="none" /><path d="M 86.79598089348748 116.32954008644616 l -5.257747697931487 6.502308206706987 a29.362052551264725,29.362052551264725 0 0,0 -0.39027742639517216,-0.32117175197130843 l 5.368895252871348 -6.410841335878498" fill="#ff2003" stroke="none" /><path d="M 86.51685102203217 116.09983520530335 l -5.398534924989706 6.446233204456421 a29.40821633062388,29.40821633062388 0 0,0 -0.3852959802307154,-0.32835759317039953 l 5.508696381797479 -6.35235122106307" fill="#ff2103" stroke="none" /><line stroke="#e1ed5e" stroke-width="0.3" x1="26.63291911575756" x2="22.317208475507996" y1="142.92168965132927" y2="145.44649492493687" /><path d="M 25.769776987707644 143.4266507060508 a86.0,86.0 0 0,1 -11.730757126820373,-40.83630448921669" fill="none" id="id9" stroke="none" /><text fill="#e1ed5e" style="font-size:6.75px; font-family:Arial;" text-anchor="middle"><textPath startOffset="21.46611528233685" xlink:href="#id9">September</textPath></text><line stroke="#e1ed5e" stroke-width="0.3" x1="15.007084014347285" x2="10.007500721073583" y1="101.09737516637583" y2="101.16192664675087" /><path d="M 14.007167355692545 101.11028546245083 a86.0,86.0 0 0,1 10.666146001902534,-42.60595125391555" fill="none" id="id10" stroke="none" /><text fill="#e1ed5e" style="font-size:6.75px; font-family:Arial;" text-anchor="middle"><textPath startOffset="22.20632615414155" xlink:href="#id10">October</textPath></text><path d="M 79.12142395522702 97.74499172005258 l -6.274492255345885 -0.6776818475517256 a27.31098294633226,27.31098294633226 0 0,0 0.05450445973360896,-0.46696092568492925 l 6.261897442608688 0.7855865115615166" fill="#ff0000" stroke="none" /><path d="M 79.21141760316559 97.0276538004421 l -10.371445461368982 -1.4829066221329466 a31.476921924311405,31.476921924311405 0 0,0 0.08130654795548153,-0.5357085635673197 l 10.344383019974197 1.6612142980923583" fill="#ff4106" stroke="none" /><path d="M 79.32604984820605 96.31383870115002 l -10.296614841348331 -1.835884427439674 a31.459003242278406,31.459003242278406 0 0,0 0.09964156319892688,-0.532289214912263 l 10.263487554239543 2.0128517198145097" fill="#ff4106" stroke="none" /><path d="M 79.3925641242962 95.95851677861259 l -10.237336708491462 -2.007723075719561 a31.4323542324733,31.4323542324733 0 0,0 0.10869712835292912,-0.5300458008482908 l 10.201260284223538 2.1836445327312544" fill="#ff4106" stroke="none" /><path d="M 79.54389044137918 95.25157060432595 l -13.47867401281997 -3.1287734216406564 a34.837047238043,34.837047238043 0 0,0 0.14062090197860105,-0.5829644230870252 l 13.422820310580555 3.360323076387078" fill="#ff740a" stroke="none" /><path d="M 79.71946130924805 94.55025226153421 l -16.152289976624058 -4.3404126050799094 a37.725299790176756,37.725299790176756 0 0,0 0.1739194335256764,-0.625680737716681 l 16.07518377253202 4.617804646215533" fill="#ff9e0e" stroke="none" /><line stroke="#e1ed5e" stroke-width="0.3" x1="26.266209847984243" x2="21.928928074336255" y1="57.711370442889674" y2="55.22380399835377" /><path d="M 25.398753493254645 57.213857153982495 a86.0,86.0 0 0,1 29.58750427330803,-30.492523968695096" fill="none" id="id11" stroke="none" /><text fill="#e1ed5e" style="font-size:6.75px; font-family:Arial;" text-anchor="middle"><textPath startOffset="21.46611528233685" xlink:href="#id11">November</textPath></text><path d="M 83.17141714833178 87.43820079747576 l -12.149184078763342 -9.068833199867491 a36.160686309883715,36.160686309883715 0 0,0 0.376629148284774,-0.4955998111702417 l 11.99127899025446 9.27661778691876" fill="#ff870c" stroke="none" /><path d="M 84.5562425177563 85.77008943001954 l -15.3970436873154 -14.186868381252854 a41.93647985636771,41.93647985636771 0 0,0 0.4937175343819914,-0.5266634422191314 l 15.150558830962952 14.449801240350036" fill="#ffd914" stroke="none" /><path d="M 86.37877921826538 84.01681056812374 l -13.518892447311941 -15.863116996407099 a41.84223917537863,41.84223917537863 0 0,0 0.5522029154385922,-0.4624540611741268 l 13.24383199491424 16.093472214975037" fill="#ffd814" stroke="none" /><path d="M 86.65592168130627 83.78471172551755 l -5.957428118399299 -7.239272133094662 a30.37539390121266,30.37539390121266 0 0,0 0.406591428233118,-0.3287686584259923 l 5.831933291601681 7.340746888784788" fill="#ff3004" stroke="none" /><path d="M 87.51073957382395 83.11751280151077 l -12.415666146101284 -16.78300536779251 a41.87625529224046,41.87625529224046 0 0,0 0.5831860473228789,-0.42370946511941976 l 12.124934782424624 16.9942340677286" fill="#ffd814" stroke="none" /><path d="M 87.80319425747018 82.90503203632743 l -12.133637088235119 -17.006431166065727 a41.89123859408835,41.89123859408835 0 0,0 0.5906043462847965,-0.41375608760981103 l 11.839101602366663 17.212772096439483" fill="#ffd914" stroke="none" /><line stroke="#e1ed5e" stroke-width="0.3" x1="56.762969772571076" x2="54.21961505331055" y1="26.818313649435495" y2="22.513508569990535" /><path d="M 56.25429882871897 25.957352633546506 a86.0,86.0 0 0,1 42.265352541879196,-11.944610805530505" fill="none" id="id12" stroke="none" /><text fill="#e1ed5e" style="font-size:6.75px; font-family:Arial;" text-anchor="middle"><textPath startOffset="22.20632615414155" xlink:href="#id12">December</textPath></text><path d="M 90.91171255644093 81.06846463323043 l -19.404633605757894 -40.421202527761274 a65.83763396036863,65.83763396036863 0 0,0 1.0258813499196888,-0.48166504935438387 l 18.705974044538596 40.74923255975566" fill="#34ff5f" stroke="none" /><path d="M 92.23578459929587 80.48803036053334 l -3.0170133217370756 -7.58194734399841 a29.160165127661543,29.160165127661543 0 0,0 0.4679745980672048,-0.18156687362847881 l 2.8860555586701944 7.63275692151744" fill="#ff1d03" stroke="none" /><path d="M 93.25333710446033 80.11325718540243 l -14.194022295015614 -41.83888764803335 a65.181022945787,65.181022945787 0 0,0 1.0656078495762074,-0.3513141541050977 l 13.471731623196996 42.07701552639769" fill="#33ff57" stroke="none" /><path d="M 96.04723909329186 79.375362276772 l -2.5471455027330516 -13.290445453724379 a34.53232761096613,34.53232761096613 0 0,0 0.5847554370539441,-0.10686031845891979 l 2.3179949445762142 13.332321253534035" fill="#ff6f0a" stroke="none" /><path d="M 96.75951476605007 79.25152402106235 l -3.2309098841779855 -20.68716605144548 a41.93794684107679,41.93794684107679 0 0,0 0.7142052708334962,-0.10525529149946737 l 2.8743356329158405 20.73971582710592" fill="#ffd914" stroke="none" /><path d="M 98.19473922651362 79.07773832637324 l -5.415782320459142 -62.766785020880285 a84.0,84.0 0 0,0 1.4416392425506632,-0.11189895124615123 l 4.334552888546145 62.8507092343149" fill="#4dd2ff" stroke="none" /><path d="M 99.27714615592234 79.0124445844662 l -0.7262078511910788 -21.084936664500873 a42.097438991241205,42.097438991241205 0 0,0 0.7244234846639587,-0.018709721351408953 l 0.3631577313322411 21.094313177994643" fill="#ffdb14" stroke="none" /></svg>