<?xml version="1.0" encoding="utf-8" ?>
<svg baseProfile="full" height="200mm" version="1.1" viewBox="0,0,200,200" width="200mm" xmlns="http://www.w3.org/2000/svg" xmlns:ev="http://www.w3.org/2001/xml-events" xmlns:xlink="http://www.w3.org/1999/xlink"><defs /><rect fill="#1a1a1a" height="200" width="200" x="0" y="0" /><text alignment-baseline="middle" fill="#e1ed5e" style="dominant-baseline: central; font-size:9.0px; font-family:Arial;" text-anchor="middle" x="100.0" y="100.0">2021</text><line stroke="#e1ed5e" stroke-width="0.3" x1="100.0" x2="100.0" y1="15.0" y2="10.0" /><path d="M 100.0 14.0 a86.0,86.0 0 0,1 42.46469731375804,11.215312516191453" fill="none" id="id73" stroke="none" /><text fill="#e1ed5e" style="font-size:6.75px; font-family:Arial;" text-anchor="middle"><textPath startOffset="22.20632615414155" xlink:href="#id73">January</textPath></text><line stroke="#e1ed5e" stroke-width="0.3" x1="143.23703022742887" x2="145.7803849466894" y1="26.81831364943548" y2="22.513508569990506" /><path d="M 143.74570117128098 25.957352633546492 a86.0,86.0 0 0,1 28.547481713284135,27.462654790039103" fill="none" id="id74" stroke="none" /><text fill="#e1ed5e" style="font-size:6.75px; font-family:Arial;" text-anchor="middle"><textPath startOffset="19.985693538727396" xlink:href="#id74">February</textPath></text><line stroke="#e1ed5e" stroke-width="0.3" x1="172.23445277983987" x2="176.4835382374775" y1="55.19839476539836" y2="52.563006222186495" /><path d="M 173.08426987136738 54.67131705675599 a86.0,86.0 0 0,1 12.851231095245387,41.99856678651699" fill="none" id="id75" stroke="none" /><text fill="#e1ed5e" style="font-size:6.75px; font-family:Arial;" text-anchor="middle"><textPath startOffset="22.20632615414155" xlink:href="#id75">March</textPath></text><path d="M 120.53481517161879 95.60439243477599 l 6.580764776414274 -1.4086544823712677 a27.729841936717346,27.729841936717346 0 0,0 0.09589336407667902,0.4676100990729684 l -6.6040374364059495 1.2951687271348875" fill="#ff2103" stroke="none" /><line stroke="#e1ed5e" stroke-width="0.3" x1="184.98032266829074" x2="189.97916517819016" y1="98.17113171792111" y2="98.06355123074" /><path d="M 185.9800911702706 98.14961562048488 a86.0,86.0 0 0,1 -9.607161424134198,41.387399972396054" fill="none" id="id76" stroke="none" /><text fill="#e1ed5e" style="font-size:6.75px; font-family:Arial;" text-anchor="middle"><textPath startOffset="21.466115282336823" xlink:href="#id76">April</textPath></text><line stroke="#e1ed5e" stroke-width="0.3" x1="174.80103733775053" x2="179.2010983576182" y1="140.37084112569926" y2="142.7455964860345" /><path d="M 175.68104954172406 140.8457921977663 a86.0,86.0 0 0,1 -30.038265399797805,32.042727171017184" fill="none" id="id77" stroke="none" /><text fill="#e1ed5e" style="font-size:6.75px; font-family:Arial;" text-anchor="middle"><textPath startOffset="22.206326154141568" xlink:href="#id77">May</textPath></text><path d="M 117.55443506779139 111.5257021239791 l 19.309899393030044 12.678286005137196 a44.100024904683536,44.100024904683536 0 0,0 -0.4220937170072025,0.6309728364981897 l -19.08880257061212 -13.008795755841192" fill="#f8ff18" stroke="none" /><path d="M 117.35343817320211 111.8261652097733 l 20.89942874448873 14.242716322571937 a46.29112670663802,46.29112670663802 0 0,0 -0.45440051741661763,0.6545978361306655 l -20.651167319909977 -14.600355420889622" fill="#dcff1b" stroke="none" /><path d="M 117.14729908036423 112.12312394758627 l 17.361621814807584 12.274649914577637 a42.26247733839694,42.26247733839694 0 0,0 -0.4250804399113135,0.5903995524508945 l -17.14776158252067 -12.571683072479662" fill="#ffef16" stroke="none" /><path d="M 116.27256486870786 113.27417163493432 l 20.91846652425802 17.064016473309543 a47.99560890085428,47.99560890085428 0 0,0 -0.5277322896548717,0.6356875392258446 l -20.621638234709604 -17.421565269649157" fill="#c7ff1e" stroke="none" /><path d="M 115.56566222782051 114.09645910891815 l 32.316170831584465 29.2659299692403 a64.59850403604037,64.59850403604037 0 0,0 -0.7535064572252829,0.8177824399853448 l -31.807617966363463 -29.81786366402698" fill="#33ff57" stroke="none" /><path d="M 114.81725581225074 114.88116024355365 l 19.52421144506961 19.60841621583448 a48.67101044496185,48.67101044496185 0 0,0 -0.598769422208291,0.5860219038887156 l -19.183792070485527 -19.94158822264577" fill="#bfff1e" stroke="none" /><path d="M 113.20401910651253 116.32954008644616 l 12.458887758886334 15.408028831988172 a40.814924594252346,40.814924594252346 0 0,0 -0.5501123138909255,0.43704249255644984 l -12.191817952278058 -15.620205238549747" fill="#ffdb14" stroke="none" /><path d="M 112.92097659922987 116.55440617244103 l 14.491610084598488 18.566707987644257 a44.552694290515674,44.552694290515674 0 0,0 -0.6086137171505187,0.46665904569074945 l -14.169867638954475 -18.813406375162376" fill="#f2ff19" stroke="none" /><path d="M 111.1453310114006 117.79835938074945 l 15.889220965162766 25.37403911367247 a50.9384235360172,50.9384235360172 0 0,0 -0.7471473319881397,0.45895891498072583 l -15.450094433242318 -25.643786495481574" fill="#a4ff21" stroke="none" /><line stroke="#e1ed5e" stroke-width="0.3" x1="143.8653032363475" x2="146.44561519142675" y1="172.8068346515853" y2="177.08958963109032" /><path d="M 144.38136562736335 173.6633856474863 a86.0,86.0 0 0,1 -40.68145358897372,12.25698825130547" fill="none" id="id78" stroke="none" /><text fill="#e1ed5e" style="font-size:6.75px; font-family:Arial;" text-anchor="middle"><textPath startOffset="21.466115282336833" xlink:href="#id78">June</textPath></text><path d="M 110.8373102113329 117.98757091392108 l 10.410375751962713 17.278952842299645 a41.17270766712957,41.17270766712957 0 0,0 -0.6102033077507996,0.36051886992208915 l -10.111404573183531 -17.455590284515484" fill="#ffe015" stroke="none" /><path d="M 110.5260780823613 118.17145234162733 l 9.591831985232837 16.558638119987737 a40.13613694614581,40.13613694614581 0 0,0 -0.600802101906693,0.3411511134342989 l -9.305381116404943 -16.721292399216665" fill="#ffd213" stroke="none" /><line stroke="#e1ed5e" stroke-width="0.3" x1="102.19456741930631" x2="102.32365962044197" y1="184.97166512339345" y2="189.96999836594603" /><path d="M 102.22038585953345 185.97133177190398 a86.0,86.0 0 0,1 -42.740103519485714,-10.115201625700543" fill="none" id="id79" stroke="none" /><text fill="#e1ed5e" style="font-size:6.75px; font-family:Arial;" text-anchor="middle"><textPath startOffset="22.20632615414155" xlink:href="#id79">July</textPath></text><path d="M 93.76903079525671 120.05430185196036 l -4.323868587824141 13.91632071659506 a35.57257087311313,35.57257087311313 0 0,0 -0.58318461199298,-0.18671729639709983 l 4.562774544908062 -13.839830573538253" fill="#ff940d" stroke="none" /><path d="M 93.08242187328487 119.8279376855182 l -3.7407805224989614 10.722244365967256 a32.35605403126562,32.35605403126562 0 0,0 -0.5242920134308271,-0.18799246259993832 l 3.924792096559515 -10.656264362327361" fill="#ff6609" stroke="none" /><path d="M 92.40401165467489 119.57807347666478 l -3.286100577205239 8.469670519153633 a30.08481016348326,30.08481016348326 0 0,0 -0.4811835078664633,-0.19147284827590372 l 3.43140516111356 -8.411850826471662" fill="#ff4506" stroke="none" /><path d="M 91.7346041902142 119.30500536409082 l -5.700924461547137 13.315318448530084 a35.48441386808704,35.48441386808704 0 0,0 -0.559435990648175,-0.2452402979918737 l 5.929281126853056 -13.215213597243759" fill="#ff930d" stroke="none" /><path d="M 91.40352486487194 119.15986991738527 l -5.912597524470835 13.178029094715447 a35.44365813454284,35.44365813454284 0 0,0 -0.554494097346465,-0.25454104387371057 l 6.138559617584719 -13.074300980507662" fill="#ff920d" stroke="none" /><path d="M 91.07499286063937 119.00905698771935 l -12.440995343084033 26.49763588621366 a50.27290680279286,50.27290680279286 0 0,0 -0.7801573080873642,-0.37452291796347625 l 12.89526531917164 -26.279558691750623" fill="#acff21" stroke="none" /><path d="M 90.10565033884886 118.52300852407294 l -15.41687570863151 28.861615967221717 a53.72113892967022,53.72113892967022 0 0,0 -0.8118982865101354,-0.44271168047103804 l 15.911396807010286 -28.59196363499091" fill="#83ff25" stroke="none" /><line stroke="#e1ed5e" stroke-width="0.3" x1="58.666819895761336" x2="56.23545636021788" y1="174.27360380694188" y2="178.64263932499728" /><path d="M 58.180547188652646 175.14741091055294 a86.0,86.0 0 0,1 -31.652253787137756,-30.449443065178592" fill="none" id="id80" stroke="none" /><text fill="#e1ed5e" style="font-size:6.75px; font-family:Arial;" text-anchor="middle"><textPath startOffset="22.20632615414155" xlink:href="#id80">August</textPath></text><path d="M 88.24862548938628 117.40417183066458 l -7.514746195976833 11.129586070164608 a34.42903929859282,34.42903929859282 0 0,0 -0.4883072535301822,-0.33586218160131603 l 7.705210334129905 -10.998583099198191" fill="#ff840c" stroke="none" /><path d="M 87.07902340077011 116.55440617244103 l -12.387400438386106 15.870786291025405 a41.132797796539066,41.132797796539066 0 0,0 -0.5543966771372546,-0.4404462498345774 l 12.658754608240718 -15.655206127185698" fill="#ffe015" stroke="none" /><path d="M 86.51685102203217 116.09983520530335 l -9.606427291328112 11.47075483292788 a35.96200727645565,35.96200727645565 0 0,0 -0.47116141587333565,-0.40153398023588543 l 9.802454183778503 -11.303696462469043" fill="#ff990e" stroke="none" /><path d="M 85.70375840098266 115.38237550388516 l -18.273152726960596 19.661426042581116 a47.8417544994867,47.8417544994867 0 0,0 -0.5983959298517644,-0.5658207016655721 l 18.608884491203177 -19.343970704169614" fill="#c9ff1d" stroke="none" /><path d="M 85.18274418774928 114.88116024355367 l -6.586105821040431 6.614510631777825 a30.33426701909928,30.33426701909928 0 0,0 -0.3668414995985241,-0.3716085023234332 l 6.698987945694488 -6.500161635473727" fill="#ff4806" stroke="none" /><path d="M 84.9287848128048 114.62390073753433 l -19.256042252433506 18.684521918087015 a47.831073823739864,47.831073823739864 0 0,0 -0.5682637885491683,-0.5958223104051148 l 19.57481259236163 -18.3502924910994" fill="#c9ff1d" stroke="none" /><path d="M 83.95833913139862 113.55231037782056 l -25.594253062002796 21.62252800541767 a54.50521611849282,54.50521611849282 0 0,0 -0.5993082108774899,-0.721905347235255 l 25.962657272773825 -21.178761401068652" fill="#7bff26" stroke="none" /><path d="M 83.72743513129214 113.27417163493432 l -25.96298471663978 21.17902850991797 a54.505638689933804,54.505638689933804 0 0,0 -0.5867975523715995,-0.732120170831917 l 26.32370018106624 -20.728980505507792" fill="#7bff26" stroke="none" /><path d="M 83.28015986056508 112.70617746262583 l -26.684045307946278 20.278436413027368 a54.51497064527618,54.51497064527618 0 0,0 -0.5613451523090068,-0.7520135652316504 l 27.02915172695037 -19.81610996828641" fill="#7aff26" stroke="none" /><path d="M 83.06392112726016 112.41649034213515 l -11.569060712147735 8.481723052859103 a35.34513128928285,35.34513128928285 0 0,0 -0.35550504616351125,-0.4937654157710987 l 11.713345550686853 -8.281324031636865" fill="#ff910d" stroke="none" /><path d="M 82.6465618267979 111.8261652097733 l -52.06031451960629 35.47849562931989 a84.0,84.0 0 0,0 -0.8039875783570785,-1.2018523431767165 l 52.6633052033741 -34.57710637193735" fill="#4dd2ff" stroke="none" /><line stroke="#e1ed5e" stroke-width="0.3" x1="26.63291911575756" x2="22.317208475507996" y1="142.92168965132927" y2="145.44649492493687" /><path d="M 25.769776987707644 143.4266507060508 a86.0,86.0 0 0,1 -11.730757126820373,-40.83630448921669" fill="none" id="id81" stroke="none" /><text fill="#e1ed5e" style="font-size:6.75px; font-family:Arial;" text-anchor="middle"><textPath startOffset="21.46611528233685" xlink:href="#id81">September</textPath></text><path d="M 81.02952815118164 109.00673069616217 l -12.80397469782399 6.079023909516421 a35.17378918126657,35.17378918126657 0 0,0 -0.25496873977683154,-0.5491799823953525 l 12.906718054440649 -5.857723859842241" fill="#ff8e0d" stroke="none" /><path d="M 80.87730276802145 108.67885076344099 l -30.521090973895642 13.85202048050412 a54.51739049551918,54.51739049551918 0 0,0 -0.3804766483002154,-0.8578743990153146 l 30.755008706927136 -13.32459774499611" fill="#7aff26" stroke="none" /><path d="M 80.58989483394504 108.01547362559985 l -30.99332010229801 12.798804422976506 a54.53200390106611,54.53200390106611 0 0,0 -0.3508157698257125,-0.8706959705155272 l 31.20903848638111 -12.263409084618173" fill="#7aff26" stroke="none" /><path d="M 80.0844068197444 106.66101706037122 l -31.77838104878875 10.628673542438907 a54.50871831857728,54.50871831857728 0 0,0 -0.2899545820646478,-0.8923884437489014 l 31.956627881869647 -10.080086198712202" fill="#7aff26" stroke="none" /><path d="M 79.97269907076064 106.31721596034903 l -31.9683720115048 10.083790652119765 a54.52103284479375,54.52103284479375 0 0,0 -0.2746126481091956,-0.8974500230023378 l 32.137211432120125 -9.53201365656538" fill="#7aff26" stroke="none" /><path d="M 79.29508885075956 103.50808413554451 l -33.11567558302088 5.61087054724676 a54.587644121281365,54.587644121281365 0 0,0 -0.14899371402771655,-0.9277839994762124 l 33.20735105140989 -5.0400073180773335" fill="#7aff26" stroke="none" /><path d="M 79.18660465613746 102.79330883721812 l -33.19157840376882 4.454550915154037 a54.48916094483755,54.48916094483755 0 0,0 -0.11675857166301318,-0.9306806959375791 l 33.263338484678684 -3.8825524649290495" fill="#7bff26" stroke="none" /><path d="M 79.1416061653843 102.43462659150553 l -33.2802251052797 3.884523499510229 a54.506162207515445,54.506162207515445 0 0,0 -0.10075256051933786,-0.9328435798726541 l 33.34215996730009 -3.3110835977527926" fill="#7bff26" stroke="none" /><path d="M 79.0235259727143 100.99374915477108 l -33.50337137489211 1.5872041670336305 a54.54094677482717,54.54094677482717 0 0,0 -0.03635509176779788,-0.9381633783079116 l 33.52572859951111 -1.010263541711722" fill="#7aff26" stroke="none" /><line stroke="#e1ed5e" stroke-width="0.3" x1="15.007084014347285" x2="10.007500721073583" y1="101.09737516637583" y2="101.16192664675087" /><path d="M 14.007167355692545 101.11028546245083 a86.0,86.0 0 0,1 10.666146001902534,-42.60595125391555" fill="none" id="id82" stroke="none" /><text fill="#e1ed5e" style="font-size:6.75px; font-family:Arial;" text-anchor="middle"><textPath startOffset="22.20632615414155" xlink:href="#id82">October</textPath></text><path d="M 79.08570108090925 98.10471618934814 l -33.39357010559321 -3.026173291576444 a54.530407829130546,54.530407829130546 0 0,0 0.09276109073223067,-0.9340915246097602 l 33.33653188917875 3.6005403468906345" fill="#7aff26" stroke="none" /><path d="M 79.21141760316559 97.0276538004421 l -16.651778849594862 -2.380867085338575 a37.82112561435362,37.82112561435362 0 0,0 0.09769396038431115,-0.6436811364238174 l 16.60832899577125 2.6671473341544845" fill="#ffb310" stroke="none" /><path d="M 79.3925641242962 95.95851677861259 l -32.875422320636325 -6.447452681947951 a54.50168710447507,54.50168710447507 0 0,0 0.18847385196893524,-0.9190654373266562 l 32.7595691727524 7.012393775438009" fill="#7bff26" stroke="none" /><path d="M 79.81627453868168 94.20196356495316 l -32.24518255595053 -9.26284613177288 a54.549249120173705,54.549249120173705 0 0,0 0.2670162441208698,-0.9002460342902099 l 32.08096041471795 9.816521552809629" fill="#7aff26" stroke="none" /><path d="M 80.14247586403 93.16781622104843 l -31.720616327412465 -10.913801682754817 a54.54561919776423,54.54561919776423 0 0,0 0.3131098261719898,-0.8852036424108696 l 31.528053420430666 11.458202951592298" fill="#7aff26" stroke="none" /><path d="M 80.803312248108 91.48605970444005 l -24.53456162389871 -10.881345549990636 a47.839306903405394,47.839306903405394 0 0,0 0.34033721949751916,-0.7498879497547921 l 24.34362208743784 11.302055508587499" fill="#c9ff1d" stroke="none" /><path d="M 80.95270993114464 91.15688171328213 l -30.43961556942712 -14.132252940422582 a54.560255797395115,54.560255797395115 0 0,0 0.40281526682305646,-0.8484316826300952 l 30.19184210876231 14.65412703869321" fill="#7aff26" stroke="none" /><line stroke="#e1ed5e" stroke-width="0.3" x1="26.266209847984243" x2="21.928928074336255" y1="57.711370442889674" y2="55.22380399835377" /><path d="M 25.398753493254645 57.213857153982495 a86.0,86.0 0 0,1 29.58750427330803,-30.492523968695096" fill="none" id="id83" stroke="none" /><text fill="#e1ed5e" style="font-size:6.75px; font-family:Arial;" text-anchor="middle"><textPath startOffset="21.46611528233685" xlink:href="#id83">November</textPath></text><path d="M 81.78341655067845 89.55222093294921 l -29.072759158967795 -16.67413460968091 a54.5149532313131,54.5149532313131 0 0,0 0.47386558614661445,-0.8099898925111627 l 28.781433898350855 17.172103914545964" fill="#7aff26" stroke="none" /><path d="M 82.15384107792192 88.93136811851018 l -28.49699571364118 -17.674545915450043 a54.533093177048784,54.533093177048784 0 0,0 0.5016327949120669,-0.7934626141746247 l 28.18853532248315 18.162456177338882" fill="#7aff26" stroke="none" /><path d="M 84.31358615837235 86.03803664274999 l -21.204762209488855 -18.87366455820622 a49.387623257621556,49.387623257621556 0 0,0 0.5706771837295616,-0.6301559997743307 l 20.876741385143248 19.235873345250106" fill="#b6ff1f" stroke="none" /><path d="M 84.80347519578584 85.50635884689758 l -3.307934918846969 -3.1549332685779277 a25.571218366749385,25.571218366749385 0 0,0 0.3065328325505714,-0.3159090289400514 l 3.2531378225932794 3.2114064930681026" fill="#ff0000" stroke="none" /><path d="M 85.05521093208273 85.24692304244772 l -23.8680894666364 -23.56190904607414 a54.538772378887536,54.538772378887536 0 0,0 0.6652800469664174,-0.662423123019441 l 23.458973619502668 23.969268019743687" fill="#7aff26" stroke="none" /><path d="M 85.57189188830299 84.74124197986013 l -23.046997013813986 -24.373850528578476 a54.54472627618589,54.54472627618589 0 0,0 0.6877625475476942,-0.6392003328753818 l 22.624026582471437 24.766955447528503" fill="#7aff26" stroke="none" /><path d="M 87.22198572758235 83.33499621200491 l -9.457242812461914 -12.334075070949785 a36.54248530543579,36.54248530543579 0 0,0 0.5024658658653381,-0.37844687295992274 l 9.243530792838186 12.495038533415562" fill="#ffa10e" stroke="none" /><line stroke="#e1ed5e" stroke-width="0.3" x1="56.762969772571076" x2="54.21961505331055" y1="26.818313649435495" y2="22.513508569990535" /><path d="M 56.25429882871897 25.957352633546506 a86.0,86.0 0 0,1 42.265352541879196,-11.944610805530505" fill="none" id="id84" stroke="none" /><text fill="#e1ed5e" style="font-size:6.75px; font-family:Arial;" text-anchor="middle"><textPath startOffset="22.20632615414155" xlink:href="#id84">December</textPath></text><path d="M 93.25333710446033 80.11325718540243 l -4.323744725350741 -12.744848924624538 a34.4583038515818,34.4583038515818 0 0,0 0.5633394108875515,-0.18572414672877338 l 4.10372249222078 12.817386795612546" fill="#ff840c" stroke="none" /><path d="M 93.94186890950719 79.89281104454417 l -8.748163954859704 -29.03551987009955 a51.32477183274513,51.32477183274513 0 0,0 0.8481046618607603,-0.2475850073582656 l 8.247069075275522 29.18180320637651" fill="#9fff22" stroke="none" /><path d="M 96.75951476605007 79.25152402106235 l -2.527339678728101 -16.18228222900657 a37.37845242966793,37.37845242966793 0 0,0 0.6365568596391139,-0.09381193412239675 l 2.2484138386603383 16.223388647289937" fill="#ffad10" stroke="none" /></svg>