<?xml version="1.0" encoding="utf-8" ?>
<svg baseProfile="full" height="200mm" version="1.1" viewBox="0,0,200,200" width="200mm" xmlns="http://www.w3.org/2000/svg" xmlns:ev="http://www.w3.org/2001/xml-events" xmlns:xlink="http://www.w3.org/1999/xlink"><defs /><rect fill="#1a1a1a" height="200" width="200" x="0" y="0" /><text alignment-baseline="middle" fill="#e1ed5e" style="dominant-baseline: central; font-size:9.0px; font-family:Arial;" text-anchor="middle" x="100.0" y="100.0">2021</text><line stroke="#e1ed5e" stroke-width="0.3" x1="100.0" x2="100.0" y1="15.0" y2="10.0" /><path d="M 100.0 14.0 a86.0,86.0 0 0,1 42.46469731375804,11.215312516191453" fill="none" id="id61" stroke="none" /><text fill="#e1ed5e" style="font-size:6.75px; font-family:Arial;" text-anchor="middle"><textPath startOffset="22.20632615414155" xlink:href="#id61">January</textPath></text><line stroke="#e1ed5e" stroke-width="0.3" x1="143.23703022742887" x2="145.7803849466894" y1="26.81831364943548" y2="22.513508569990506" /><path d="M 143.74570117128098 25.957352633546492 a86.0,86.0 0 0,1 28.547481713284135,27.462654790039103" fill="none" id="id62" stroke="none" /><text fill="#e1ed5e" style="font-size:6.75px; font-family:Arial;" text-anchor="middle"><textPath startOffset="19.985693538727396" xlink:href="#id62">February</textPath></text><line stroke="#e1ed5e" stroke-width="0.3" x1="172.23445277983987" x2="176.4835382374775" y1="55.19839476539836" y2="52.563006222186495" /><path d="M 173.08426987136738 54.67131705675599 a86.0,86.0 0 0,1 12.851231095245387,41.99856678651699" fill="none" id="id63" stroke="none" /><text fill="#e1ed5e" style="font-size:6.75px; font-family:Arial;" text-anchor="middle"><textPath startOffset="22.20632615414155" xlink:href="#id63">March</textPath></text><line stroke="#e1ed5e" stroke-width="0.3" x1="184.98032266829074" x2="189.97916517819016" y1="98.17113171792111" y2="98.06355123074" /><path d="M 185.9800911702706 98.14961562048488 a86.0,86.0 0 0,1 -9.607161424134198,41.387399972396054" fill="none" id="id64" stroke="none" /><text fill="#e1ed5e" style="font-size:6.75px; font-family:Arial;" text-anchor="middle"><textPath startOffset="21.466115282336823" xlink:href="#id64">April</textPath></text><line stroke="#e1ed5e" stroke-width="0.3" x1="174.80103733775053" x2="179.2010983576182" y1="140.37084112569926" y2="142.7455964860345" /><path d="M 175.68104954172406 140.8457921977663 a86.0,86.0 0 0,1 -30.038265399797805,32.042727171017184" fill="none" id="id65" stroke="none" /><text fill="#e1ed5e" style="font-size:6.75px; font-family:Arial;" text-anchor="middle"><textPath startOffset="22.206326154141568" xlink:href="#id65">May</textPath></text><path d="M 117.55443506779139 111.5257021239791 l 19.841051125301973 13.027023895314825 a44.73543050643805,44.73543050643805 0 0,0 -0.42817536237659726,0.6400640711569552 l -19.613872657514655 -13.366624880677586" fill="#f2ff19" stroke="none" /><path d="M 117.35343817320211 111.8261652097733 l 21.378191132665137 14.568987292179745 a46.87049374914319,46.87049374914319 0 0,0 -0.460087669633864,0.6627906030674644 l -21.124242555869134 -14.934819157434228" fill="#d7ff1c" stroke="none" /><path d="M 117.14729908036423 112.12312394758627 l 17.864911579136308 12.630475293601643 a42.87884759014149,42.87884759014149 0 0,0 -0.43127995669926517,0.5990101390442981 l -17.64485183006144 -12.936119038097072" fill="#fff417" stroke="none" /><path d="M 116.27256486870786 113.27417163493432 l 21.351669941820358 17.4173975514591 a48.554664700736396,48.554664700736396 0 0,0 -0.5338793477727525,0.6430920667202479 l -21.04869459415406 -17.78235087529312" fill="#c2ff1e" stroke="none" /><path d="M 115.56566222782051 114.09645910891815 l 32.966905915374106 29.855243829782907 a65.47642600039845,65.47642600039845 0 0,0 -0.7637469400190358,0.8288964615380564 l -32.448112567359345 -30.4182915461223" fill="#34ff60" stroke="none" /><path d="M 114.81725581225074 114.88116024355365 l 19.64266553296387 19.727381177079266 a48.83889145324699,48.83889145324699 0 0,0 -0.6008347587076084,0.5880432703490085 l -19.300180821880467 -20.062574550350845" fill="#bfff1e" stroke="none" /><path d="M 113.20401910651253 116.32954008644616 l 12.717448615874966 15.727793582775247 a41.22614620435159,41.22614620435159 0 0,0 -0.5556548470133683,0.4414458160773797 l -12.444836276144247 -15.944373312857753" fill="#ffde14" stroke="none" /><path d="M 112.92097659922987 116.55440617244103 l 14.835758768270876 19.007632638305974 a45.112026807033885,45.112026807033885 0 0,0 -0.6162544995414003,0.4725176718084017 l -14.506375540235982 -19.260189651941747" fill="#edff1a" stroke="none" /><path d="M 111.1453310114006 117.79835938074945 l 16.364793414260816 26.133496984593666 a51.834495749650266,51.834495749650266 0 0,0 -0.7602906119958389,0.46703259104615447 l -15.912523602332667 -26.411318042468196" fill="#9bff22" stroke="none" /><line stroke="#e1ed5e" stroke-width="0.3" x1="143.8653032363475" x2="146.44561519142675" y1="172.8068346515853" y2="177.08958963109032" /><path d="M 144.38136562736335 173.6633856474863 a86.0,86.0 0 0,1 -40.68145358897372,12.25698825130547" fill="none" id="id66" stroke="none" /><text fill="#e1ed5e" style="font-size:6.75px; font-family:Arial;" text-anchor="middle"><textPath startOffset="21.466115282336833" xlink:href="#id66">June</textPath></text><path d="M 110.8373102113329 117.98757091392108 l 10.6133259980549 17.615805979507385 a41.56597454653283,41.56597454653283 0 0,0 -0.6160317500427377,0.3639624163627678 l -10.308526376983782 -17.795886968163902" fill="#ffe315" stroke="none" /><path d="M 110.5260780823613 118.17145234162733 l 9.8008519660785 16.919474947404925 a40.55314122479679,40.55314122479679 0 0,0 -0.6070442832968416,0.34469558693855096 l -9.508158915860461 -17.085673700138106" fill="#ffd513" stroke="none" /><line stroke="#e1ed5e" stroke-width="0.3" x1="102.19456741930631" x2="102.32365962044197" y1="184.97166512339345" y2="189.96999836594603" /><path d="M 102.22038585953345 185.97133177190398 a86.0,86.0 0 0,1 -42.740103519485714,-10.115201625700543" fill="none" id="id67" stroke="none" /><text fill="#e1ed5e" style="font-size:6.75px; font-family:Arial;" text-anchor="middle"><textPath startOffset="22.20632615414155" xlink:href="#id67">July</textPath></text><path d="M 93.76903079525671 120.05430185196036 l -4.514394127926898 14.529524949544863 a36.2146918996642,36.2146918996642 0 0,0 -0.5937116864363052,-0.1900877331997985 l 4.763827159454143 -14.449664369685358" fill="#ff9a0e" stroke="none" /><path d="M 93.08242187328487 119.8279376855182 l -3.8844654825440483 11.13409030134132 a32.792244863616894,32.792244863616894 0 0,0 -0.5313599757204356,-0.19052678241093862 l 4.075545018894211 -11.065575977890424" fill="#ff6909" stroke="none" /><path d="M 92.40401165467489 119.57807347666478 l -3.044514008212866 7.846999790384158 a29.416915780527532,29.416915780527532 0 0,0 -0.47050104850147006,-0.18722207723373724 l 3.179136132756194 -7.7934308687443545" fill="#ff3705" stroke="none" /><path d="M 91.7346041902142 119.30500536409082 l -5.932432035559111 13.856037255104047 a36.072608210636915,36.072608210636915 0 0,0 -0.5687092757006295,-0.24930543364214283 l 6.170061985917484 -13.751867268167452" fill="#ff980e" stroke="none" /><path d="M 91.40352486487194 119.15986991738527 l -6.153669715974227 13.71533208894265 a36.03256416195448,36.03256416195448 0 0,0 -0.563707167703141,-0.2587703126018949 l 6.388844879444788 -13.60737470600668" fill="#ff970d" stroke="none" /><path d="M 91.07499286063937 119.00905698771935 l -12.786811082562101 27.234176596640452 a51.08659024479397,51.08659024479397 0 0,0 -0.7927844093257508,-0.38058469390558053 l 13.253708159888093 -27.01003762623531" fill="#a4ff21" stroke="none" /><path d="M 90.10565033884886 118.52300852407294 l -15.575139214001597 29.157897820947785 a54.05704110885247,54.05704110885247 0 0,0 -0.8169748431347096,-0.4454798239092168 l 16.074736869004948 -28.8854773452788" fill="#81ff25" stroke="none" /><line stroke="#e1ed5e" stroke-width="0.3" x1="58.666819895761336" x2="56.23545636021788" y1="174.27360380694188" y2="178.64263932499728" /><path d="M 58.180547188652646 175.14741091055294 a86.0,86.0 0 0,1 -31.652253787137756,-30.449443065178592" fill="none" id="id68" stroke="none" /><text fill="#e1ed5e" style="font-size:6.75px; font-family:Arial;" text-anchor="middle"><textPath startOffset="22.20632615414155" xlink:href="#id68">August</textPath></text><path d="M 88.24862548938628 117.40417183066458 l -7.811245705607663 11.568711587665732 a34.95889133391207,34.95889133391207 0 0,0 -0.4958221478581968,-0.34103099444459595 l 8.009224738088752 -11.432539803856036" fill="#ff880c" stroke="none" /><path d="M 87.07902340077011 116.55440617244103 l -12.893609092218547 16.519342814535115 a41.95552057208491,41.95552057208491 0 0,0 -0.5654855112891131,-0.4492558903296169 l 13.176052096225018 -16.294953010200366" fill="#ffe815" stroke="none" /><path d="M 86.51685102203217 116.09983520530335 l -9.990748848784461 11.929662002981662 a36.56058797298073,36.56058797298073 0 0,0 -0.4790038070480309,-0.4082174361320039 l 10.194618132409548 -11.755920176626706" fill="#ff9f0e" stroke="none" /><path d="M 85.70375840098266 115.38237550388516 l -18.99843646827073 20.441812046722383 a48.90713650650033,48.90713650650033 0 0,0 -0.6117215334673543,-0.5784208916263532 l 19.347493836128898 -20.1117565183501" fill="#beff1f" stroke="none" /><path d="M 84.9287848128048 114.62390073753433 l -20.028307413056115 19.433866208625464 a48.9071362494727,48.9071362494727 0 0,0 -0.5810480992885783,-0.6092266091043854 l 20.35986206372365 -19.086232482938577" fill="#beff1f" stroke="none" /><path d="M 83.95833913139862 113.55231037782056 l -26.60642751506629 22.477632876214827 a55.83024497232786,55.83024497232786 0 0,0 -0.6138774710016325,-0.7394549596016204 l 26.98940098596146 -22.016316659499445" fill="#6dff28" stroke="none" /><path d="M 83.72743513129214 113.27417163493432 l -26.98368002329044 22.01164984507745 a55.82286198033731,55.82286198033731 0 0,0 -0.6009785329327609,-0.7498131245074071 l 27.358576468278063 -21.543908886991783" fill="#6dff28" stroke="none" /><path d="M 83.28015986056508 112.70617746262583 l -27.732661720089304 21.075328375617723 a55.832025382125344,55.832025382125344 0 0,0 -0.5749069736418402,-0.7701818411481547 l 28.09132996042623 -20.59483365496026" fill="#6dff28" stroke="none" /><path d="M 83.06392112726016 112.41649034213515 l -12.029577211452185 8.819345397970592 a35.91615168651066,35.91615168651066 0 0,0 -0.3612484293473313,-0.5017424726829319 l 12.179605433175123 -8.610969319836519" fill="#ff950d" stroke="none" /><path d="M 82.6465618267979 111.8261652097733 l -52.06031451960629 35.47849562931988 a84.0,84.0 0 0,0 -0.8039875783570785,-1.2018523431767072 l 52.6633052033741 -34.57710637193735" fill="#4dd2ff" stroke="none" /><line stroke="#e1ed5e" stroke-width="0.3" x1="26.63291911575756" x2="22.317208475507996" y1="142.92168965132927" y2="145.44649492493687" /><path d="M 25.769776987707644 143.4266507060508 a86.0,86.0 0 0,1 -11.730757126820373,-40.83630448921669" fill="none" id="id69" stroke="none" /><text fill="#e1ed5e" style="font-size:6.75px; font-family:Arial;" text-anchor="middle"><textPath startOffset="21.46611528233685" xlink:href="#id69">September</textPath></text><path d="M 81.02952815118164 109.00673069616217 l -13.311849878944516 6.320151015898968 a35.73599864492814,35.73599864492814 0 0,0 -0.2590440993493152,-0.5579579443534745 l 13.418668595133658 -6.090073004266667" fill="#ff930d" stroke="none" /><path d="M 80.87730276802145 108.67885076344099 l -31.723627569611992 14.39779263414914 a55.83798184326132,55.83798184326132 0 0,0 -0.3896930499877556,-0.8786549517617308 l 31.966761704331027 -13.849589345894714" fill="#6dff28" stroke="none" /><path d="M 80.58989483394504 108.01547362559985 l -32.232504457861474 13.310530116078132 a55.872690684790626,55.872690684790626 0 0,0 -0.3594406879009912,-0.8921023098539855 l 32.456847760019855 -12.75372843838134" fill="#6dff28" stroke="none" /><path d="M 80.0844068197444 106.66101706037122 l -33.0440794507028 11.052002065577875 a55.843334174586346,55.843334174586346 0 0,0 -0.29705395982811417,-0.91423808181571 l 33.22942566154717 -10.481565083784362" fill="#6dff28" stroke="none" /><path d="M 79.97269907076064 106.31721596034903 l -33.2409799711127 10.485209662205392 a55.855449661427706,55.855449661427706 0 0,0 -0.2813338658957417,-0.9194153516158291 l 33.41654060951457 -9.911467338037514" fill="#6dff28" stroke="none" /><path d="M 79.29508885075956 103.50808413554451 l -34.48611267867929 5.843067082618868 a55.97761284905745,55.97761284905745 0 0,0 -0.1527875506452782,-0.9514082237152688 l 34.581581983685865 -5.2485796292103855" fill="#6cff28" stroke="none" /><path d="M 79.18660465613746 102.79330883721812 l -34.47607636840436 4.62693987220439 a55.785175209290585,55.785175209290585 0 0,0 -0.11953565194372474,-0.9528167581685109 l 34.55061352959493 -4.032805359748471" fill="#6eff28" stroke="none" /><path d="M 79.1416061653843 102.43462659150553 l -34.622676837436956 4.04121670948782 a55.85772774984963,55.85772774984963 0 0,0 -0.10325087783952336,-0.9559748954502111 l 34.68711001677753 -3.4446454921528264" fill="#6dff28" stroke="none" /><path d="M 79.0235259727143 100.99374915477108 l -34.844695441261365 1.650748671963043 a55.88377519094297,55.88377519094297 0 0,0 -0.037250174328389375,-0.9612614819868252 l 34.867947748440955 -1.050709942962221" fill="#6dff28" stroke="none" /><line stroke="#e1ed5e" stroke-width="0.3" x1="15.007084014347285" x2="10.007500721073583" y1="101.09737516637583" y2="101.16192664675087" /><path d="M 14.007167355692545 101.11028546245083 a86.0,86.0 0 0,1 10.666146001902534,-42.60595125391555" fill="none" id="id70" stroke="none" /><text fill="#e1ed5e" style="font-size:6.75px; font-family:Arial;" text-anchor="middle"><textPath startOffset="22.20632615414155" xlink:href="#id70">October</textPath></text><path d="M 79.08570108090925 98.10471618934814 l -34.750717709667796 -3.1491599569491764 a55.893116653166295,55.893116653166295 0 0,0 0.09507918006807577,-0.9574343678731245 l 34.69136140391749 3.746869855526731" fill="#6dff28" stroke="none" /><path d="M 79.21141760316559 97.0276538004421 l -17.345784948259347 -2.480095900005106 a38.52218967893233,38.52218967893233 0 0,0 0.09950484580454369,-0.6556126087547907 l 17.3005242090155 2.7783076211519884" fill="#ffba11" stroke="none" /><path d="M 79.3925641242962 95.95851677861259 l -34.1777416680347 -6.7028605756395745 a55.828815159625776,55.828815159625776 0 0,0 0.19306323167255468,-0.9414448826465317 l 34.05729914044715 7.290181114449508" fill="#6dff28" stroke="none" /><path d="M 79.81627453868168 94.20196356495316 l -33.533075611088584 -9.632810084782697 a55.88922742149037,55.88922742149037 0 0,0 0.27357538066247095,-0.9223601819870502 l 33.36229433331441 10.208599653516288" fill="#6dff28" stroke="none" /><path d="M 80.14247586403 93.16781622104843 l -32.99610166637088 -11.352645426992652 a55.894487865112744,55.894487865112744 0 0,0 0.3208527767548965,-0.907094006385686 l 32.795795808806176 11.918937059804948" fill="#6cff28" stroke="none" /><path d="M 80.803312248108 91.48605970444005 l -25.524644594046652 -11.32045814089369 a48.922396999042206,48.922396999042206 0 0,0 0.3480425123931421,-0.7668655412750196 l 25.325999764690156 11.75814569101078" fill="#beff1f" stroke="none" /><path d="M 80.95270993114464 91.15688171328213 l -31.655462930115867 -14.696736496366583 a55.90075066475753,55.90075066475753 0 0,0 0.4127120642221865,-0.869276861950673 l 31.397792672051928 15.23945577395779" fill="#6cff28" stroke="none" /><line stroke="#e1ed5e" stroke-width="0.3" x1="26.266209847984243" x2="21.928928074336255" y1="57.711370442889674" y2="55.22380399835377" /><path d="M 25.398753493254645 57.213857153982495 a86.0,86.0 0 0,1 29.58750427330803,-30.492523968695096" fill="none" id="id71" stroke="none" /><text fill="#e1ed5e" style="font-size:6.75px; font-family:Arial;" text-anchor="middle"><textPath startOffset="21.46611528233685" xlink:href="#id71">November</textPath></text><path d="M 81.78341655067845 89.55222093294921 l -30.26088619856892 -17.355562543073322 a55.88462103433644,55.88462103433644 0 0,0 0.4857712817004966,-0.830340585500653 l 29.957655242398097 17.87388254092787" fill="#6dff28" stroke="none" /><path d="M 82.15384107792192 88.93136811851018 l -29.655429819007132 -18.393035576292178 a55.89625016331708,55.89625016331708 0 0,0 0.5141720478516648,-0.8132967010169618 l 29.334430174909507 18.900779925023354" fill="#6cff28" stroke="none" /><path d="M 84.31358615837235 86.03803664274999 l -22.031800181406293 -19.609783978205368 a50.49481050804182,50.49481050804182 0 0,0 0.5834708040792431,-0.6442830349038924 l 21.690985736711003 19.986119800378816" fill="#abff21" stroke="none" /><path d="M 84.80347519578584 85.50635884689758 l -3.5069490883251193 -3.3447424515300144 a25.846235030946332,25.846235030946332 0 0,0 0.3098295717151262,-0.31930660844067316 l 3.4488552529068794 3.404613255520811" fill="#ff0000" stroke="none" /><path d="M 85.05521093208273 85.24692304244772 l -24.836530092503015 -24.51792649250983 a55.89959808547834,55.89959808547834 0 0,0 0.6818798006921533,-0.6789515921272942 l 24.410814491643546 24.941813935287236" fill="#6cff28" stroke="none" /><path d="M 85.57189188830299 84.74124197986013 l -23.96942551771605 -25.349384758219465 a55.887313844284236,55.887313844284236 0 0,0 0.7046914334213836,-0.6549338873183372 l 23.52952620049981 25.75822323161245" fill="#6dff28" stroke="none" /><path d="M 87.22198572758235 83.33499621200491 l -9.837656858006401 -12.830208615243121 a37.16767594821653,37.16767594821653 0 0,0 0.5110623517099668,-0.3849215678742552 l 9.615348352538044 12.99764677262323" fill="#ffa70f" stroke="none" /><line stroke="#e1ed5e" stroke-width="0.3" x1="56.76296977257108" x2="54.21961505331056" y1="26.818313649435495" y2="22.513508569990535" /><path d="M 56.25429882871898 25.957352633546506 a86.0,86.0 0 0,1 42.26535254187918,-11.944610805530505" fill="none" id="id72" stroke="none" /><text fill="#e1ed5e" style="font-size:6.75px; font-family:Arial;" text-anchor="middle"><textPath startOffset="22.20632615414155" xlink:href="#id72">December</textPath></text><path d="M 93.25333710446033 80.11325718540243 l -4.499549134065994 -13.263057276801733 a35.005521437547316,35.005521437547316 0 0,0 0.5722855631367421,-0.1886735524704538 l 4.270580748686842 13.33854455353142" fill="#ff890c" stroke="none" /><path d="M 93.94186890950719 79.89281104454417 l -9.12339975888168 -30.280943104034307 a52.625495070119065,52.625495070119065 0 0,0 0.869598170784723,-0.2538595520039923 l 8.600811370373536 30.433500984957" fill="#92ff23" stroke="none" /><path d="M 96.75951476605007 79.25152402106235 l -2.6352549137200545 -16.873251790457925 a38.07779829030889,38.07779829030889 0 0,0 0.648466753599782,-0.0955671429002526 l 2.3444191796916236 16.916113417519146" fill="#ffb410" stroke="none" /></svg>