<?xml version="1.0" encoding="utf-8" ?>
<svg baseProfile="full" height="200mm" version="1.1" viewBox="0,0,200,200" width="200mm" xmlns="http://www.w3.org/2000/svg" xmlns:ev="http://www.w3.org/2001/xml-events" xmlns:xlink="http://www.w3.org/1999/xlink"><defs /><rect fill="#1a1a1a" height="200" width="200" x="0" y="0" /><text alignment-baseline="middle" fill="#e1ed5e" style="dominant-baseline: central; font-size:9.0px; font-family:Arial;" text-anchor="middle" x="100.0" y="100.0">2020</text><line stroke="#e1ed5e" stroke-width="0.3" x1="100.0" x2="100.0" y1="15.0" y2="10.0" /><path d="M 100.0 14.0 a86.0,86.0 0 0,1 42.35913384403234,11.155469271406648" fill="none" id="id49" stroke="none" /><text fill="#e1ed5e" style="font-size:6.75px; font-family:Arial;" text-anchor="middle"><textPath startOffset="22.145653131862478" xlink:href="#id49">January</textPath></text><line stroke="#e1ed5e" stroke-width="0.3" x1="143.13028292997686" x2="145.6673583964461" y1="26.7553504044142" y2="22.446841604673864" /><path d="M 143.63769802327073 25.89364864446614 a86.0,86.0 0 0,1 29.32050498858742,28.57503671076993" fill="none" id="id50" stroke="none" /><text fill="#e1ed5e" style="font-size:6.75px; font-family:Arial;" text-anchor="middle"><textPath startOffset="20.669276256404974" xlink:href="#id50">February</textPath></text><line stroke="#e1ed5e" stroke-width="0.3" x1="172.87174338648825" x2="177.1583165268699" y1="56.24261187166439" y2="53.66864786411523" /><path d="M 173.72905801456457 55.72781907015455 a86.0,86.0 0 0,1 12.242430191666344,42.057860355516425" fill="none" id="id51" stroke="none" /><text fill="#e1ed5e" style="font-size:6.75px; font-family:Arial;" text-anchor="middle"><textPath startOffset="22.145653131862474" xlink:href="#id51">March</textPath></text><line stroke="#e1ed5e" stroke-width="0.3" x1="184.99686870605535" x2="189.99668451229388" y1="99.2704041080226" y2="99.22748670261217" /><path d="M 185.99683186730306 99.26182062694052 a86.0,86.0 0 0,1 -10.086455211305974,41.156179273409016" fill="none" id="id52" stroke="none" /><text fill="#e1ed5e" style="font-size:6.75px; font-family:Arial;" text-anchor="middle"><textPath startOffset="21.40746469413373" xlink:href="#id52">April</textPath></text><path d="M 120.16314734710363 105.8691983318838 l 23.24711170497827 6.766895410282966 a45.21196142648188,45.21196142648188 0 0,0 -0.22331195328612596,0.7433328642129002 l -23.127523431688513 -7.164965878086589" fill="#edff1a" stroke="none" /><path d="M 119.4528033332814 107.91128576633889 l 27.6058382742023 11.227054099338877 a50.80149409964028,50.80149409964028 0 0,0 -0.3354692519310633,0.8050040813414775 l -27.40904317773475 -11.699290690121632" fill="#a8ff21" stroke="none" /><path d="M 119.16976305983485 108.57439118712176 l 27.2316777926581 12.180383103698032 a50.83162764510178,50.83162764510178 0 0,0 -0.3631206582604033,0.7934841711440368 l -27.018572669542642 -12.646056257056758" fill="#a8ff21" stroke="none" /><line stroke="#e1ed5e" stroke-width="0.3" x1="174.33088141563837" x2="178.70328620479359" y1="141.23008692659167" y2="143.65538615756765" /><path d="M 175.20536237346943 141.71514677278685 a86.0,86.0 0 0,1 -30.301960400862466,31.631185727798858" fill="none" id="id53" stroke="none" /><text fill="#e1ed5e" style="font-size:6.75px; font-family:Arial;" text-anchor="middle"><textPath startOffset="22.145653131862474" xlink:href="#id53">May</textPath></text><path d="M 118.00360718960297 110.81064883170644 l 23.961818210578176 14.388383356494556 a48.94985344452177,48.94985344452177 0 0,0 -0.43875859778437876,0.7166791954920452 l -23.711291648338396 -14.797599668111157" fill="#beff1e" stroke="none" /><path d="M 117.81537515405839 111.11811171558189 l 20.280664448288622 12.65663456718942 a44.90597726576875,44.90597726576875 0 0,0 -0.413738673389345,0.6504659147351093 l -20.060408083273387 -13.0029141566032" fill="#f1ff19" stroke="none" /><path d="M 116.57777611688842 112.89097897827486 l 23.561056841945202 18.321220308074867 a50.846113869084995,50.846113869084995 0 0,0 -0.541713454473142,0.684437253344446 l -23.2430769568305 -18.722977505333997" fill="#a7ff21" stroke="none" /><path d="M 116.35404254752997 113.17365903436017 l 23.28434094447943 18.75621685285955 a50.899100385300116,50.899100385300116 0 0,0 -0.5539595852834638,0.6757406214771922 l -22.958934539957337 -19.153159756035233" fill="#a7ff21" stroke="none" /><path d="M 115.89218393027572 113.72728997021213 l 22.555417308286707 19.482832261973527 a50.80482516135862,50.80482516135862 0 0,0 -0.5757612517105629,0.6551106134114191 l -22.217644992617558 -19.86715515319624" fill="#a8ff21" stroke="none" /><path d="M 115.41159269507618 114.26474011684316 l 21.88367362182154 20.255201600080763 a50.8189262557578,50.8189262557578 0 0,0 -0.5980762457094166,0.6351362472511645 l -21.532741542375863 -20.627879307276423" fill="#a8ff21" stroke="none" /><path d="M 115.16444852881244 114.52719865689866 l 21.55284318087772 20.647136222243745 a50.846763364884254,50.846763364884254 0 0,0 -0.6092246086364932,0.6251181182197436 l -21.195231771090416 -21.014077032531226" fill="#a7ff21" stroke="none" /><path d="M 114.65682725009322 115.03919595460226 l 20.85301348109999 21.397028881829172 a50.87776792554574,50.87776792554574 0 0,0 -0.6307087070847086,0.6042046741789968 l -20.48263228814997 -21.75184568631375" fill="#a7ff21" stroke="none" /><path d="M 114.13192950727249 115.5334660781643 l 8.672733000225968 9.532852806452125 a33.88765224246413,33.88765224246413 0 0,0 -0.43365701506653787,0.3877787769343522 l -8.507810958336051 -9.680327113269863" fill="#ff770b" stroke="none" /><path d="M 113.59037401385872 116.0094264158162 l 19.29451843851908 22.72889420519895 a50.81410863275103,50.81410863275103 0 0,0 -0.6698404502967191,0.5588047273386908 l -18.90150365406047 -23.056761116449515" fill="#a8ff21" stroke="none" /><path d="M 113.31354834802062 116.24036423190432 l 18.922611867640953 23.082509704870183 a50.847403474486896,50.847403474486896 0 0,0 -0.6797794930903739,0.5475822405681158 l -18.523581604195325 -23.4039402392317" fill="#a7ff21" stroke="none" /><path d="M 113.03279911837588 116.46651593811092 l 18.517170018573875 23.395839410248975 a50.83707236320163,50.83707236320163 0 0,0 -0.6889392970679208,0.5357233644121028 l -18.112820776870723 -23.71026382628187" fill="#a8ff21" stroke="none" /><path d="M 112.45986205192187 116.90419585922612 l 17.700855770458308 24.014610400408642 a50.833233275828185,50.833233275828185 0 0,0 -0.7068699724110353,0.5117193477677385 l -17.286004787673303 -24.31493051954946" fill="#a8ff21" stroke="none" /><path d="M 111.27062007382361 117.71928675628689 l 33.81186022147083 53.157860268860695 a84.0,84.0 0 0,0 -1.2233434848411404,0.7634568126338093 l -32.89435260783998 -53.73045287833605" fill="#4dd2ff" stroke="none" /><line stroke="#e1ed5e" stroke-width="0.3" x1="143.1302829299769" x2="145.66735839644613" y1="173.24464959558577" y2="177.55315839532614" /><path d="M 143.63769802327073 174.10635135553383 a86.0,86.0 0 0,1 -40.68552437913181,11.842963189579606" fill="none" id="id54" stroke="none" /><text fill="#e1ed5e" style="font-size:6.75px; font-family:Arial;" text-anchor="middle"><textPath startOffset="21.407464694133747" xlink:href="#id54">June</textPath></text><path d="M 110.02825361518725 118.45085714620011 l 14.258854008185274 26.23468536686353 a50.85923029692937,50.85923029692937 0 0,0 -0.7706655190938229,0.4103359810094723 l -13.806399673304897 -26.47559181559557" fill="#a7ff21" stroke="none" /><path d="M 109.06512990194946 118.94263497670748 l 5.585202569397633 11.67092525837011 a33.93850780143009,33.93850780143009 0 0,0 -0.5276812300727076,0.2469814598613044 l -5.384032625453419 -11.765082949801947" fill="#ff780b" stroke="none" /><path d="M 108.73861861582097 119.09545874513695 l 12.410421076791907 27.11900977719854 a50.8238032886329,50.8238032886329 0 0,0 -0.7964491656281523,0.3562415813610657 l -11.943058508308129 -27.328055109469453" fill="#a8ff21" stroke="none" /><path d="M 107.06938296918513 119.77432235084164 l 4.389386870266703 12.277896285085642 a34.038920748443466,34.038920748443466 0 0,0 -0.5519074305077117,0.19198205367234153 l -4.17797366771397 -12.351436771326574" fill="#ff790b" stroke="none" /><path d="M 106.38641147887787 120.00534299687104 l 7.2653442499074306 22.758587383611673 a44.890134507096256,44.890134507096256 0 0,0 -0.7361113480557774,0.2280491772874156 l -6.873592268980029 -22.87995314870573" fill="#f1ff19" stroke="none" /><path d="M 105.69591212413111 120.21278271476187 l 3.2624574427833797 11.577310529030946 a33.02820633559233,33.02820633559233 0 0,0 -0.5470392598707405,0.14909798285330808 l -3.063236781977944 -11.631609006028397" fill="#ff6b09" stroke="none" /><path d="M 104.9986988182912 120.39639698878246 l 7.110655522176769 29.01390104762793 a50.87252711031673,50.87252711031673 0 0,0 -0.8499778105241163,0.20059244891410397 l -6.611545557912773 -29.13168964018826" fill="#a7ff21" stroke="none" /><path d="M 104.64783097203109 120.47920084513623 l 6.608809387828701 29.119633569940575 a50.86016444650402,50.86016444650402 0 0,0 -0.853088638809044,0.18592669826844727 l -6.107958332400521 -29.22879172634274" fill="#a7ff21" stroke="none" /><line stroke="#e1ed5e" stroke-width="0.3" x1="101.45913802915013" x2="101.54496967792366" y1="184.9874750549273" y2="189.98673829345242" /><path d="M 101.47630435890484 185.9873277026323 a86.0,86.0 0 0,1 -42.54439059252881,-10.42667462771756" fill="none" id="id55" stroke="none" /><text fill="#e1ed5e" style="font-size:6.75px; font-family:Arial;" text-anchor="middle"><textPath startOffset="22.145653131862474" xlink:href="#id55">July</textPath></text><path d="M 98.55909050195518 120.95050786540614 l -0.8880590467756152 12.912183637947585 a33.942686551510135,33.942686551510135 0 0,0 -0.5809549498684935,-0.044969587335713046 l 1.1095829914193447 -12.895036283616818" fill="#ff780b" stroke="none" /><path d="M 97.48249496171623 120.84855314841334 l -3.5797578408425688 29.64553018497005 a50.86087952735224,50.86087952735224 0 0,0 -0.8658996394842331,-0.1121080442459543 l 4.088135302217596 -29.579710544523696" fill="#a7ff21" stroke="none" /><path d="M 95.70440661134978 120.55596938700252 l -2.649742250757842 12.679975887368757 a33.95387673631737,33.95387673631737 0 0,0 -0.5695157851434358,-0.12412331465497774 l 2.867020452520414 -12.632621114580061" fill="#ff780b" stroke="none" /><path d="M 95.35216902796893 120.47920084513623 l -5.2926429112351405 23.32036122505668 a44.91341290265726,44.91341290265726 0 0,0 -0.7504129739688801,-0.17709541858806213 l 5.692188038943908 -23.22606966282239" fill="#f1ff19" stroke="none" /><path d="M 90.6110303473126 118.78422872680471 l -5.564410725473365 11.132548901919117 a33.44573468202595,33.44573468202595 0 0,0 -0.5113578550565937,-0.26110296436086644 l 5.75469580224354 -11.035387985885414" fill="#ff710a" stroke="none" /><line stroke="#e1ed5e" stroke-width="0.3" x1="58.13341422392154" x2="55.67067388415222" y1="173.97424548756322" y2="178.32567169271397" /><path d="M 57.64086615596768 174.84453072859336 a86.0,86.0 0 0,1 -31.369924170532247,-30.572349798747897" fill="none" id="id56" stroke="none" /><text fill="#e1ed5e" style="font-size:6.75px; font-family:Arial;" text-anchor="middle"><textPath startOffset="22.145653131862474" xlink:href="#id56">August</textPath></text><path d="M 89.65649057296885 118.27599006163327 l -12.715430048086299 22.466946525993468 a46.81561247597325,46.81561247597325 0 0,0 -0.6960088969870234,-0.40184092403383553 l 13.09923141293372 -22.24535870468346" fill="#d9ff1c" stroke="none" /><line stroke="#e1ed5e" stroke-width="0.3" x1="26.387840678322732" x2="22.057713659400534" y1="142.50000000000003" y2="145.00000000000006" /><path d="M 25.521815274538284 143.00000000000003 a86.0,86.0 0 0,1 -11.493303480769212,-40.785679425670985" fill="none" id="id57" stroke="none" /><text fill="#e1ed5e" style="font-size:6.75px; font-family:Arial;" text-anchor="middle"><textPath startOffset="21.40746469413373" xlink:href="#id57">September</textPath></text><path d="M 79.94057633289273 106.21446072829308 l -11.967952937976353 3.707702412859964 a33.52912425941831,33.52912425941831 0 0,0 -0.16560781691630677,-0.5512545614910084 l 12.02983707489629 -3.5017102477782323" fill="#ff720a" stroke="none" /><line stroke="#e1ed5e" stroke-width="0.3" x1="15.003131293944662" x2="10.003315487706104" y1="100.72959589197737" y2="100.7725132973878" /><path d="M 14.003168132696942 100.73817937305945 a86.0,86.0 0 0,1 10.791469493833604,-42.45332614584628" fill="none" id="id58" stroke="none" /><text fill="#e1ed5e" style="font-size:6.75px; font-family:Arial;" text-anchor="middle"><textPath startOffset="22.145653131862435" xlink:href="#id58">October</textPath></text><path d="M 80.16572619554312 93.10060997987247 l -24.434515563028985 -8.499592900866936 a46.87061325675086,46.87061325675086 0 0,0 0.2708671264178754,-0.7576635606502805 l 24.285008266567164 8.917791417898137" fill="#d8ff1c" stroke="none" /><path d="M 80.83023694016515 91.42560881287825 l -12.331915687211282 -5.515909031254543 a34.50930778972643,34.50930778972643 0 0,0 0.24652058455036732,-0.5386919671246376 l 12.235410637805868 5.726789980593852" fill="#ff800b" stroke="none" /><path d="M 81.1358732173502 90.77261029715801 l -11.507287468650096 -5.6287909384454045 a33.81018939418448,33.81018939418448 0 0,0 0.2595013933753309,-0.5191766198425739 l 11.408966162063019 5.825499414451749" fill="#ff760a" stroke="none" /><path d="M 81.29705330413844 90.45014215332179 l -26.62938148817199 -13.597151929715864 a50.89994145550076,50.89994145550076 0 0,0 0.4040290252514308,-0.7747789291434527 l 26.39204439394562 14.052277101963803" fill="#a7ff21" stroke="none" /><line stroke="#e1ed5e" stroke-width="0.3" x1="26.387840678322718" x2="22.05771365940052" y1="57.49999999999999" y2="54.99999999999999" /><path d="M 25.521815274538284 56.99999999999999 a86.0,86.0 0 0,1 29.574782752854787,-30.34633250058573" fill="none" id="id59" stroke="none" /><text fill="#e1ed5e" style="font-size:6.75px; font-family:Arial;" text-anchor="middle"><textPath startOffset="21.40746469413373" xlink:href="#id59">November</textPath></text><path d="M 82.18462484594161 88.88188828441811 l -25.343210458203224 -15.816037701660138 a50.873489332669465,50.873489332669465 0 0,0 0.468720007196693,-0.7369057036370718 l 25.06797275938064 16.24875707997588" fill="#a7ff21" stroke="none" /><path d="M 82.576782715395 88.27688183743585 l -24.912324627159716 -16.762123810876375 a51.026533482573996,51.026533482573996 0 0,0 0.4952252961183634,-0.7225485070239696 l 24.620909594226042 17.18730705297038" fill="#a5ff21" stroke="none" /><path d="M 83.42222388311158 87.10902102172516 l -23.58738473577037 -18.34169303755616 a50.87946489074376,50.87946489074376 0 0,0 0.5420687755739737,-0.6848861899479223 l 23.269049529554835 18.74389917141876" fill="#a7ff21" stroke="none" /><path d="M 84.10781606972428 86.27271002978789 l -22.637590159191223 -19.553811213450185 a50.91340871894678,50.91340871894678 0 0,0 0.5769918081554031,-0.6565107607555186 l 22.298587287077225 19.939534252017005" fill="#a7ff21" stroke="none" /><path d="M 85.34317274990677 84.96080404539775 l -20.86787276792354 -21.412275819141815 a50.899058005449774,50.899058005449774 0 0,0 0.6309726305884105,-0.6044575069253533 l 20.497227651469828 21.767345456372738" fill="#a7ff21" stroke="none" /><line stroke="#e1ed5e" stroke-width="0.3" x1="56.869717070023135" x2="54.33264160355391" y1="26.7553504044142" y2="22.446841604673864" /><path d="M 56.362301976729285 25.89364864446614 a86.0,86.0 0 0,1 42.16139366436587,-11.88097634709845" fill="none" id="id60" stroke="none" /><text fill="#e1ed5e" style="font-size:6.75px; font-family:Arial;" text-anchor="middle"><textPath startOffset="22.145653131862474" xlink:href="#id60">December</textPath></text><path d="M 91.26138138417902 80.90454125486306 l -5.399572397495398 -11.799040156195995 a33.97585182881339,33.97585182881339 0 0,0 0.5324284506393285,-0.2381484737544854 l 5.196230544000451 11.889992380860326" fill="#ff780b" stroke="none" /><path d="M 91.5904679813234 80.7573450057729 l -1.9909782786490524 -4.55574793364934 a25.97180387193648,25.97180387193648 0 0,0 0.41006377135652017,-0.17503184009300288 l 1.9124794321221013 4.589254423401747" fill="#ff0000" stroke="none" /><path d="M 92.592206182469 80.34994680014964 l -4.581895127369691 -12.15402118723627 a33.988995110400275,33.988995110400275 0 0,0 0.5477259366540136,-0.20113255073410216 l 4.372580039061551 12.230884586979093" fill="#ff780b" stroke="none" /></svg>