<?xml version="1.0" encoding="utf-8" ?>
<svg baseProfile="full" height="200mm" version="1.1" viewBox="0,0,200,200" width="200mm" xmlns="http://www.w3.org/2000/svg" xmlns:ev="http://www.w3.org/2001/xml-events" xmlns:xlink="http://www.w3.org/1999/xlink"><defs /><rect fill="#1a1a1a" height="200" width="200" x="0" y="0" /><text alignment-baseline="middle" fill="#e1ed5e" style="dominant-baseline: central; font-size:9.0px; font-family:Arial;" text-anchor="middle" x="100.0" y="100.0">2025</text><line stroke="#e1ed5e" stroke-width="0.3" x1="100.0" x2="100.0" y1="15.0" y2="10.0" /><path d="M 100.0 14.0 a86.0,86.0 0 0,1 42.46469731375804,11.215312516191453" fill="none" id="id121" stroke="none" /><text fill="#e1ed5e" style="font-size:6.75px; font-family:Arial;" text-anchor="middle"><textPath startOffset="22.20632615414155" xlink:href="#id121">January</textPath></text><path d="M 100.0 79.0 l 0.0 -4.681389275227939 a25.68138927522794,25.68138927522794 0 0,0 0.4420629001711317,0.003804974946011372 l -0.08058242089860332 4.680695676890487" fill="#ff2503" stroke="none" /><path d="M 101.44485096284872 79.0497635885617 l 0.3653386003487898 -5.297383774753054 a26.3099667748416,26.3099667748416 0 0,0 0.4515414353906551,0.0350483058264954 l -0.45647022510178603 5.290310206738093" fill="#ff2e04" stroke="none" /><path d="M 102.52436894288641 79.15227682838746 l 0.6509232193735305 -5.375706717401503 a26.41497218358832,26.41497218358832 0 0,0 0.450922784509112,0.05854271899985171 l -0.7433607323904885 5.363705675237514" fill="#ff3004" stroke="none" /><path d="M 103.95276090670814 79.375362276772 l 1.0188086999344494 -5.3159198953220415 a26.412668057487252,26.412668057487252 0 0,0 0.4457874654841988,0.08942077182539192 l -1.1101625748857735 5.297595167419441" fill="#ff3004" stroke="none" /><path d="M 109.41281617654863 81.2277094730956 l 1.619016019289468 -3.2288571785280684 a24.612025961984237,24.612025961984237 0 0,0 0.37707910630769986,0.19315456408275222 l -1.6743556131859236 3.2005100891328158" fill="#ff1502" stroke="none" /><line stroke="#e1ed5e" stroke-width="0.3" x1="143.23703022742887" x2="145.7803849466894" y1="26.81831364943548" y2="22.513508569990506" /><path d="M 143.74570117128098 25.957352633546492 a86.0,86.0 0 0,1 28.547481713284135,27.462654790039103" fill="none" id="id122" stroke="none" /><text fill="#e1ed5e" style="font-size:6.75px; font-family:Arial;" text-anchor="middle"><textPath startOffset="19.985693538727396" xlink:href="#id122">February</textPath></text><path d="M 111.2981086023043 82.29822771554956 l 2.9130036848708913 -4.564067288469205 a26.41445294390357,26.41445294390357 0 0,0 0.3811642970415369,0.24791986157051982 l -2.9911350076967085 4.513248502739157" fill="#ff3004" stroke="none" /><path d="M 111.90073688211348 82.69761687909136 l 3.07000758533161 -4.463458687616136 a26.41732498840983,26.41732498840983 0 0,0 0.3724451097412781,0.26092160077272564 l -3.1463838346565387 4.4099522440794745" fill="#ff3004" stroke="none" /><path d="M 113.06298171725822 83.55741782278167 l 3.3847711090681836 -4.260465054345133 a26.441345232576108,26.441345232576108 0 0,0 0.353932013440959,0.2861884072142249 l -3.4576065210736338 4.201570549866778" fill="#ff3004" stroke="none" /><path d="M 113.34407831869373 83.78471172551755 l 3.4411197483711224 -4.181536361989405 a26.41539947457889,26.41539947457889 0 0,0 0.3486108986949348,0.29195160214427013 l -3.5125881840251747 4.1216836024513155" fill="#ff3004" stroke="none" /><path d="M 114.42810811169701 84.74124197986012 l 3.7225306740190756 -3.9368428859606337 a26.41811466543038,26.41811466543038 0 0,0 0.32773150202443463,0.31527744528617735 l -3.7897454196559286 3.8721823539121543" fill="#ff3004" stroke="none" /><path d="M 114.94478906791727 85.2469230424477 l 3.853011890848156 -3.803585362477705 a26.414144645340752,26.414144645340752 0 0,0 0.3166373405213064,0.3263226126152199 l -3.9179134950725714 3.7366985543123707" fill="#ff3004" stroke="none" /><path d="M 116.60985879189232 87.15038557335679 l 4.281472811538296 -3.3122060515816942 a26.413106165971257,26.413106165971257 0 0,0 0.27510389580536826,0.36200447956367005 l -4.337852647567778 3.2380167961369906" fill="#ff3004" stroke="none" /><path d="M 117.04232023915458 87.72973835380427 l 4.39309193474353 -3.1629723370207836 a26.413284654612887,26.413284654612887 0 0,0 0.2624818655688317,0.3712619842492681 l -4.446886420116244 3.086883852439722" fill="#ff3004" stroke="none" /><path d="M 117.45458315368197 88.32363383020206 l 4.506610090401185 -3.014728517817986 a26.42200355431927,26.42200355431927 0 0,0 0.24962925741722908,0.38020248512537985 l -4.557835983176339 2.9367079687149324" fill="#ff3004" stroke="none" /><line stroke="#e1ed5e" stroke-width="0.3" x1="172.23445277983987" x2="176.4835382374775" y1="55.19839476539836" y2="52.563006222186495" /><path d="M 173.08426987136738 54.67131705675599 a86.0,86.0 0 0,1 12.851231095245387,41.99856678651699" fill="none" id="id123" stroke="none" /><text fill="#e1ed5e" style="font-size:6.75px; font-family:Arial;" text-anchor="middle"><textPath startOffset="22.20632615414155" xlink:href="#id123">March</textPath></text><path d="M 117.84615892207809 88.93136811851018 l 9.701625383416209 -6.017189496631878 a32.41613351877608,32.41613351877608 0 0,0 0.290022827086782,0.47672127136286585 l -9.803764008789216 5.8493004520619305" fill="#ff840c" stroke="none" /><path d="M 118.03404312379186 89.2402003453031 l 1.862375159620638 -1.111164227669255 a23.168669448307835,23.168669448307835 0 0,0 0.20139126015159498,0.34424294553520773 l -1.8812260942425603 1.0789418697801518" fill="#ff0000" stroke="none" /><path d="M 118.3937258080291 89.86733742301442 l 4.742768144994763 -2.612677268089445 a26.41478828619997,26.41478828619997 0 0,0 0.21596215283807155,0.40014507024224866 l -4.787038397051299 2.5306512145147377" fill="#ff3004" stroke="none" /><path d="M 118.73160827565052 90.50648371742162 l 4.8296151497508655 -2.4477359011584827 a26.41447998763715,26.41447998763715 0 0,0 0.2020581772884044,0.40733695565631756 l -4.871033339992678 2.3642393570032154" fill="#ff3004" stroke="none" /><path d="M 119.196687751892 91.48605970444005 l 15.45845592135043 -6.855993725425422 a37.9106034615979,37.9106034615979 0 0,0 0.2594336149000878,0.5988085522595296 l -15.574180246093198 6.58888602857929" fill="#ffcd13" stroke="none" /><path d="M 120.08093135843002 93.85539295169968 l 16.553745194183737 -5.065315825266649 a38.31138077576881,38.31138077576881 0 0,0 0.18753257225033954,0.6322666061926382 l -16.638483663545777 4.77961983232748" fill="#ffd213" stroke="none" /><path d="M 120.37134235888165 94.90015583598534 l 3.15488742913032 -0.78980726749009 a24.252246947921495,24.252246947921495 0 0,0 0.09789500291230446,0.4058379877591765 l -3.168015232303444 0.7353840480715073" fill="#ff1001" stroke="none" /><path d="M 120.67395015179393 96.31383870115 l 22.646393876830953 -4.037847632134493 a44.00355122855818,44.00355122855818 0 0,0 0.12653774024724437,0.7468329058300098 l -22.71254347859842 3.6474289379886455" fill="#e5ff1a" stroke="none" /><path d="M 120.94382443527127 98.46500227214037 l 62.831473305813795 -4.6049931835789 a84.0,84.0 0 0,0 0.09327763598233796,1.442963742987859 l -62.90143153280055 3.5227703763380056" fill="#4dd2ff" stroke="none" /><line stroke="#e1ed5e" stroke-width="0.3" x1="184.98032266829074" x2="189.97916517819016" y1="98.17113171792111" y2="98.06355123074" /><path d="M 185.9800911702706 98.14961562048488 a86.0,86.0 0 0,1 -9.607161424134198,41.387399972396054" fill="none" id="id124" stroke="none" /><text fill="#e1ed5e" style="font-size:6.75px; font-family:Arial;" text-anchor="middle"><textPath startOffset="21.466115282336823" xlink:href="#id124">April</textPath></text><line stroke="#e1ed5e" stroke-width="0.3" x1="174.80103733775053" x2="179.2010983576182" y1="140.37084112569926" y2="142.7455964860345" /><path d="M 175.68104954172406 140.8457921977663 a86.0,86.0 0 0,1 -30.038265399797805,32.042727171017184" fill="none" id="id125" stroke="none" /><text fill="#e1ed5e" style="font-size:6.75px; font-family:Arial;" text-anchor="middle"><textPath startOffset="22.206326154141568" xlink:href="#id125">May</textPath></text><line stroke="#e1ed5e" stroke-width="0.3" x1="143.8653032363475" x2="146.44561519142675" y1="172.8068346515853" y2="177.08958963109032" /><path d="M 144.38136562736335 173.6633856474863 a86.0,86.0 0 0,1 -40.68145358897372,12.25698825130547" fill="none" id="id126" stroke="none" /><text fill="#e1ed5e" style="font-size:6.75px; font-family:Arial;" text-anchor="middle"><textPath startOffset="21.466115282336833" xlink:href="#id126">June</textPath></text><line stroke="#e1ed5e" stroke-width="0.3" x1="102.19456741930631" x2="102.32365962044197" y1="184.97166512339345" y2="189.96999836594603" /><path d="M 102.22038585953345 185.97133177190398 a86.0,86.0 0 0,1 -42.740103519485714,-10.115201625700543" fill="none" id="id127" stroke="none" /><text fill="#e1ed5e" style="font-size:6.75px; font-family:Arial;" text-anchor="middle"><textPath startOffset="22.20632615414155" xlink:href="#id127">July</textPath></text><line stroke="#e1ed5e" stroke-width="0.3" x1="58.666819895761336" x2="56.23545636021788" y1="174.27360380694188" y2="178.64263932499728" /><path d="M 58.180547188652646 175.14741091055294 a86.0,86.0 0 0,1 -31.652253787137756,-30.449443065178592" fill="none" id="id128" stroke="none" /><text fill="#e1ed5e" style="font-size:6.75px; font-family:Arial;" text-anchor="middle"><textPath startOffset="22.20632615414155" xlink:href="#id128">August</textPath></text><line stroke="#e1ed5e" stroke-width="0.3" x1="26.63291911575756" x2="22.317208475507996" y1="142.92168965132927" y2="145.44649492493687" /><path d="M 25.769776987707644 143.4266507060508 a86.0,86.0 0 0,1 -11.730757126820373,-40.83630448921669" fill="none" id="id129" stroke="none" /><text fill="#e1ed5e" style="font-size:6.75px; font-family:Arial;" text-anchor="middle"><textPath startOffset="21.46611528233685" xlink:href="#id129">September</textPath></text><line stroke="#e1ed5e" stroke-width="0.3" x1="15.007084014347285" x2="10.007500721073583" y1="101.09737516637583" y2="101.16192664675087" /><path d="M 14.007167355692545 101.11028546245083 a86.0,86.0 0 0,1 10.666146001902534,-42.60595125391555" fill="none" id="id130" stroke="none" /><text fill="#e1ed5e" style="font-size:6.75px; font-family:Arial;" text-anchor="middle"><textPath startOffset="22.20632615414155" xlink:href="#id130">October</textPath></text><line stroke="#e1ed5e" stroke-width="0.3" x1="26.266209847984243" x2="21.928928074336255" y1="57.711370442889674" y2="55.22380399835377" /><path d="M 25.398753493254645 57.213857153982495 a86.0,86.0 0 0,1 29.58750427330803,-30.492523968695096" fill="none" id="id131" stroke="none" /><text fill="#e1ed5e" style="font-size:6.75px; font-family:Arial;" text-anchor="middle"><textPath startOffset="21.46611528233685" xlink:href="#id131">November</textPath></text><line stroke="#e1ed5e" stroke-width="0.3" x1="56.762969772571076" x2="54.21961505331055" y1="26.818313649435495" y2="22.513508569990535" /><path d="M 56.25429882871897 25.957352633546506 a86.0,86.0 0 0,1 42.265352541879196,-11.944610805530505" fill="none" id="id132" stroke="none" /><text fill="#e1ed5e" style="font-size:6.75px; font-family:Arial;" text-anchor="middle"><textPath startOffset="22.20632615414155" xlink:href="#id132">December</textPath></text></svg>