<?xml version="1.0" encoding="utf-8" ?>
<svg baseProfile="full" height="200mm" version="1.1" viewBox="0,0,200,200" width="200mm" xmlns="http://www.w3.org/2000/svg" xmlns:ev="http://www.w3.org/2001/xml-events" xmlns:xlink="http://www.w3.org/1999/xlink"><defs /><rect fill="#1a1a1a" height="200" width="200" x="0" y="0" /><text alignment-baseline="middle" fill="#e1ed5e" style="dominant-baseline: central; font-size:9.0px; font-family:Arial;" text-anchor="middle" x="100.0" y="100.0">2017</text><line stroke="#e1ed5e" stroke-width="0.3" x1="100.0" x2="100.0" y1="15.0" y2="10.0" /><path d="M 100.0 14.0 a86.0,86.0 0 0,1 42.46469731375804,11.215312516191453" fill="none" id="id25" stroke="none" /><text fill="#e1ed5e" style="font-size:6.75px; font-family:Arial;" text-anchor="middle"><textPath startOffset="22.20632615414155" xlink:href="#id25">January</textPath></text><line stroke="#e1ed5e" stroke-width="0.3" x1="143.23703022742887" x2="145.7803849466894" y1="26.81831364943548" y2="22.513508569990506" /><path d="M 143.74570117128098 25.957352633546492 a86.0,86.0 0 0,1 28.547481713284135,27.462654790039103" fill="none" id="id26" stroke="none" /><text fill="#e1ed5e" style="font-size:6.75px; font-family:Arial;" text-anchor="middle"><textPath startOffset="19.985693538727396" xlink:href="#id26">February</textPath></text><path d="M 111.90073688211348 82.69761687909136 l 1.6545056489205159 -2.4054721062151936 a23.91953506505561,23.91953506505561 0 0,0 0.3372299756380912,0.2362511488824793 l -1.695666764142258 2.376636114568779" fill="#ff0801" stroke="none" /><path d="M 112.77801427241765 83.33499621200491 l 2.356006348997224 -3.072688282664639 a24.871973553491785,24.871973553491785 0 0,0 0.3375096548419418,0.2634316390935721 l -2.408548558998596 3.0316782543478427" fill="#ff1602" stroke="none" /><path d="M 114.16331599549186 84.49514656593476 l 3.2473379759890144 -3.55492311155169 a25.814839795813022,25.814839795813022 0 0,0 0.32550314566811117,0.3025196992841642 l -3.3080490054519727 3.4984988261928858" fill="#ff2403" stroke="none" /><path d="M 115.19652480421416 85.50635884689758 l 3.4669128665045634 -3.3065580218877697 a25.79090918052568,25.79090918052568 0 0,0 0.30363597835799705,0.32389769130596036 l -3.5233161668330233 3.2463909137037543" fill="#ff2303" stroke="none" /><path d="M 115.68641384162765 86.03803664274999 l 15.06111292698474 -13.40540348667392 a41.16288583610779,41.16288583610779 0 0,0 0.46652865464808585,0.5333228998951879 l -15.289633445210674 13.144165030575785" fill="#fff417" stroke="none" /><path d="M 116.38621287248628 86.86637796730983 l 3.820487579639122 -3.062137678915322 a25.89620388778998,25.89620388778998 0 0,0 0.27578953941004536,0.3502247081845358 l -3.8726311996431315 2.9959205767777477" fill="#ff2503" stroke="none" /><path d="M 117.2510076193507 88.02491185347247 l 17.09079242484883 -11.863871971860675 a41.80496680780749,41.80496680780749 0 0,0 0.40526040264763213,0.5946696343782524 l -17.29247729316519 11.567924314212016" fill="#fffc17" stroke="none" /><line stroke="#e1ed5e" stroke-width="0.3" x1="172.23445277983987" x2="176.4835382374775" y1="55.19839476539836" y2="52.563006222186495" /><path d="M 173.08426987136738 54.67131705675599 a86.0,86.0 0 0,1 12.851231095245387,41.99856678651699" fill="none" id="id27" stroke="none" /><text fill="#e1ed5e" style="font-size:6.75px; font-family:Arial;" text-anchor="middle"><textPath startOffset="22.20632615414155" xlink:href="#id27">March</textPath></text><path d="M 118.56541770881063 90.18545643968196 l 4.25241217316693 -2.2480229189870076 a25.81005367275555,25.81005367275555 0 0,0 0.204256545240146,0.39455863185138584 l -4.290478151567193 2.174491564875277" fill="#ff2403" stroke="none" /><path d="M 119.196687751892 91.48605970444005 l 4.4451311063985495 -1.9714641054201416 a25.862701026387704,25.862701026387704 0 0,0 0.17698620981205473,0.4085085739882737 l -4.478408026053285 1.894656386845265" fill="#ff2403" stroke="none" /><path d="M 119.7369772167798 92.82701384747503 l 4.727678353847347 -1.718174520509069 a26.03021533339909,26.03021533339909 0 0,0 0.14942201258564364,0.4224361509642259 l -4.7565534472428 1.6365407431182286" fill="#ff2703" stroke="none" /><path d="M 120.45610955862082 95.25157060432595 l 2.340406653693084 -0.5432731830253578 a23.402633774849043,23.402633774849043 0 0,0 0.0877104112864911,0.3931885755140037 l -2.349411451981613 0.5029064379613902" fill="#ff0000" stroke="none" /><path d="M 120.6074358757038 95.95851677861258 l 4.710743484381122 -0.9238602447785733 a25.800481426640616,25.800481426640616 0 0,0 0.08171906404143435,0.4365465077573993 l -4.725948272332416 0.8426356595586113" fill="#ff2403" stroke="none" /><path d="M 120.87857604477298 97.74499172005257 l 4.782241494574589 -0.5165100409073957 a25.81005367275555,25.81005367275555 0 0,0 0.043905204927941845,0.4421194219010495 l -4.79042382518476 0.43411508830191126" fill="#ff2403" stroke="none" /><path d="M 120.98425023603335 99.18683210126433 l 5.753387823320452 -0.222951510503205 a26.75770603813426,26.75770603813426 0 0,0 0.013873622809963659,0.460397998952584 l -5.756373140586061 0.12388336412562193" fill="#ff3104" stroke="none" /><line stroke="#e1ed5e" stroke-width="0.3" x1="184.98032266829074" x2="189.97916517819016" y1="98.17113171792111" y2="98.06355123074" /><path d="M 185.9800911702706 98.14961562048488 a86.0,86.0 0 0,1 -9.607161424134198,41.387399972396054" fill="none" id="id28" stroke="none" /><text fill="#e1ed5e" style="font-size:6.75px; font-family:Arial;" text-anchor="middle"><textPath startOffset="21.466115282336823" xlink:href="#id28">April</textPath></text><path d="M 120.99980553446 99.90962569577887 l 30.2752905970867 -0.1302920790535116 a51.275570956860754,51.275570956860754 0 0,0 -0.003798549748565183,0.8826491857428373 l -30.27304775004863 -0.3908665848930104" fill="#92ff23" stroke="none" /><path d="M 120.8583938346157 102.4346265915055 l 62.575181503847105 7.303879774516526 a84.0,84.0 0 0,0 -0.1799939630126075,1.4347289828504204 l -62.44018603158764 -8.379926511654341" fill="#4dd2ff" stroke="none" /><path d="M 120.02730092923936 106.31721596034902 l 4.568999042049683 1.441200378085689 a25.79090918052568,25.79090918052568 0 0,0 -0.13719259089528257,0.42223537842083375 l -4.543514200138153 -1.519634656484318" fill="#ff2303" stroke="none" /><line stroke="#e1ed5e" stroke-width="0.3" x1="174.80103733775053" x2="179.2010983576182" y1="140.37084112569926" y2="142.7455964860345" /><path d="M 175.68104954172406 140.8457921977663 a86.0,86.0 0 0,1 -30.038265399797805,32.042727171017184" fill="none" id="id29" stroke="none" /><text fill="#e1ed5e" style="font-size:6.75px; font-family:Arial;" text-anchor="middle"><textPath startOffset="22.206326154141568" xlink:href="#id29">May</textPath></text><path d="M 118.30583269289576 110.29060199501025 l 2.0902189493690235 1.1750140871074755 a23.397847651791572,23.397847651791572 0 0,0 -0.20038362830978323,0.3493857463444029 l -2.069683324906861 -1.2108196793101933" fill="#ff0000" stroke="none" /><path d="M 116.93607887273984 112.41649034213515 l 3.97570963446657 2.914745535281146 a25.929706749192256,25.929706749192256 0 0,0 -0.2670003305910979,0.35769057539720883 l -3.9249480371803798 -2.98274899018767" fill="#ff2503" stroke="none" /><path d="M 113.20401910651253 116.32954008644616 l 3.0334108942526603 3.7514490396283877 a25.824412041927957,25.824412041927957 0 0,0 -0.3480669682594057,0.27652545042796345 l -2.9683864332759033 -3.803108404061477" fill="#ff2403" stroke="none" /><path d="M 111.7513745106137 117.40417183066458 l 5.358847911056469 7.936629861824902 a30.5763951723728,30.5763951723728 0 0,0 -0.43873530889338763,0.29076983922936694 l -5.2214379034231175 -8.027697722145588" fill="#ff6809" stroke="none" /><line stroke="#e1ed5e" stroke-width="0.3" x1="143.8653032363475" x2="146.44561519142675" y1="172.8068346515853" y2="177.08958963109032" /><path d="M 144.38136562736335 173.6633856474863 a86.0,86.0 0 0,1 -40.68145358897372,12.25698825130547" fill="none" id="id30" stroke="none" /><text fill="#e1ed5e" style="font-size:6.75px; font-family:Arial;" text-anchor="middle"><textPath startOffset="21.466115282336833" xlink:href="#id30">June</textPath></text><path d="M 109.57404056367764 118.69057910512821 l 2.3216751722776428 4.532407521699376 a26.092434933146176,26.092434933146176 0 0,0 -0.40150801846133427,0.2013244556262488 l -2.243313246133548 -4.571699818234927" fill="#ff2803" stroke="none" /><path d="M 106.91757812671514 119.82793768551818 l 1.5939320169535376 4.568706580277486 a25.838770411100363,25.838770411100363 0 0,0 -0.42120919882884117,0.14289702941763588 l -1.5150530851874693 -4.595466596593245" fill="#ff2403" stroke="none" /><path d="M 106.2309692047433 120.05430185196036 l 0.7157324491487111 2.3035765558822776 a23.41220602096398,23.41220602096398 0 0,0 -0.38588335273411367,0.11626348872937799 l -0.6759741219743516 -2.3155554137173815" fill="#ff0000" stroke="none" /><line stroke="#e1ed5e" stroke-width="0.3" x1="102.19456741930631" x2="102.32365962044197" y1="184.97166512339345" y2="189.96999836594603" /><path d="M 102.22038585953345 185.97133177190398 a86.0,86.0 0 0,1 -42.740103519485714,-10.115201625700543" fill="none" id="id31" stroke="none" /><text fill="#e1ed5e" style="font-size:6.75px; font-family:Arial;" text-anchor="middle"><textPath startOffset="22.20632615414155" xlink:href="#id31">July</textPath></text><path d="M 99.09653310690486 120.98055641714683 l -0.12539900813235233 2.912050219971954 a23.91474894199814,23.91474894199814 0 0,0 -0.41111950995034385,-0.021250182690053007 l 0.1755065864961851 -2.909460230519699" fill="#ff0801" stroke="none" /><path d="M 97.2962882734958 120.8252237178851 l -0.622366666919933 4.793752583201653 a25.833984288042892,25.833984288042892 0 0,0 -0.4404957690131805,-0.06104869977863554 l 0.7047910271199446 -4.782329317930412" fill="#ff2403" stroke="none" /><path d="M 94.11515582081647 120.15858648285463 l -1.3465833699647765 4.612733403516371 a25.805267549698083,25.805267549698083 0 0,0 -0.4253261376293116,-0.12814727626420294 l 1.425784482034334 -4.5888707581464425" fill="#ff2403" stroke="none" /><path d="M 93.08242187328487 119.8279376855182 l -3.113617403460878 8.92459914748855 a30.452147019512964,30.452147019512964 0 0,0 -0.49344142702704913,-0.1769305399268332 l 3.2667783911176542 -8.869681066521759" fill="#ff6609" stroke="none" /><path d="M 92.7421414339146 119.70592522655815 l -4.226797716484473 11.476244541060915 a33.229881753406644,33.229881753406644 0 0,0 -0.5350482181638709,-0.20230945385346186 l 4.423716155408627 -11.401786837100818" fill="#ff8c0c" stroke="none" /><path d="M 92.40401165467489 119.57807347666478 l -1.7502496975439228 4.511133459296874 a25.838770411100363,25.838770411100363 0 0,0 -0.41327135248008884,-0.16444920010051048 l 1.8276421260658697 -4.480337414790297" fill="#ff2403" stroke="none" /><path d="M 91.40352486487194 119.15986991738527 l -1.9690241331654503 4.388571555506553 a25.81005367275555,25.81005367275555 0 0,0 -0.4037823172600408,-0.18535665758204992 l 2.0442744461929108 -4.354027827590429" fill="#ff2403" stroke="none" /><path d="M 90.10565033884886 118.52300852407294 l -2.3046379858585606 4.31446537861629 a25.891417764732513,25.891417764732513 0 0,0 -0.3913021603288159,-0.21336913730382043 l 2.3785629580560173 -4.274155589552703" fill="#ff2503" stroke="none" /><line stroke="#e1ed5e" stroke-width="0.3" x1="58.666819895761336" x2="56.23545636021788" y1="174.27360380694188" y2="178.64263932499728" /><path d="M 58.180547188652646 175.14741091055294 a86.0,86.0 0 0,1 -31.652253787137756,-30.449443065178592" fill="none" id="id32" stroke="none" /><text fill="#e1ed5e" style="font-size:6.75px; font-family:Arial;" text-anchor="middle"><textPath startOffset="22.20632615414155" xlink:href="#id32">August</textPath></text><path d="M 89.7882731507175 118.34994917583269 l -1.6152433309813194 2.902509386274123 a24.32168206721971,24.32168206721971 0 0,0 -0.36407384516099417,-0.20673063102610295 l 1.6649659430635209 -2.8742755894533873" fill="#ff0e01" stroke="none" /><path d="M 87.07902340077011 116.55440617244103 l -2.9624967776543256 3.7955625540534195 a25.814839795813022,25.814839795813022 0 0,0 -0.34793795147174483,-0.27642295168900316 l 3.027392221843429 -3.7440056883592856" fill="#ff2403" stroke="none" /><path d="M 86.51685102203217 116.09983520530335 l -3.2388923220052503 3.867466918686094 a26.044573702571494,26.044573702571494 0 0,0 -0.34122673206717774,-0.2908008238235111 l 3.304984530649485 -3.8111417046396316" fill="#ff2703" stroke="none" /><path d="M 86.24171649860922 115.8653595955263 l -3.1764225138025886 3.6628904618595324 a25.848342657215298,25.848342657215298 0 0,0 -0.3336376639013838,-0.29439644700695633 l 3.23900253061056 -3.6076708730802873" fill="#ff2403" stroke="none" /><path d="M 85.18274418774928 114.88116024355367 l -3.630285734203543 3.645942570277037 a26.145082286778326,26.145082286778326 0 0,0 -0.3161804169248511,-0.32028909304435554 l 3.692506776183927 -3.5829129832520166" fill="#ff2903" stroke="none" /><path d="M 84.67929136418377 114.36230785411682 l -17.47106229889419 16.37814419945099 a44.94747638624688,44.94747638624688 0 0,0 -0.5242878948732536,-0.5690109617680928 l 17.75039660176317 -16.074981982881553" fill="#dbff1b" stroke="none" /><path d="M 84.43433777217949 114.09645910891817 l -10.503530128248174 9.512128734716352 a35.170558853511515,35.170558853511515 0 0,0 -0.40252059873160845,-0.45223615976653564 l 10.665709576628121 -9.329918405208954" fill="#ffa70f" stroke="none" /><path d="M 83.95833913139862 113.55231037782056 l -3.6962816169473784 3.1226913551545965 a25.838770411100363,25.838770411100363 0 0,0 -0.28410835455979083,-0.3422268152318857 l 3.7494859714007056 -3.0586032828089493" fill="#ff2403" stroke="none" /><path d="M 83.72743513129214 113.27417163493432 l -3.756903352155206 3.0646539322309247 a25.848342657215298,25.848342657215298 0 0,0 -0.27827844180307804,-0.34719514341581925 l 3.8090997060131455 -2.999530955236846" fill="#ff2403" stroke="none" /><path d="M 83.06392112726016 112.41649034213515 l -8.8662184760871 6.500165528680386 a31.993724663004482,31.993724663004482 0 0,0 -0.32179624599987877,-0.44694684059879164 l 8.976794514462586 -6.346585082630456" fill="#ff7c0b" stroke="none" /><path d="M 82.6465618267979 111.8261652097733 l -4.12905433105069 2.813902247598525 a25.996712471996812,25.996712471996812 0 0,0 -0.24882183220959495,-0.3719548785638183 l 4.176879268671016 -2.7424104548288857" fill="#ff2603" stroke="none" /><path d="M 82.05923443525364 110.91462005526583 l -4.223824439305733 2.5696472521639606 a25.944065118364662,25.944065118364662 0 0,0 -0.22882557247864527,-0.38352482149654804 l 4.26743088748261 -2.496560336781301" fill="#ff2603" stroke="none" /><line stroke="#e1ed5e" stroke-width="0.3" x1="26.63291911575756" x2="22.317208475507996" y1="142.92168965132927" y2="145.44649492493687" /><path d="M 25.769776987707644 143.4266507060508 a86.0,86.0 0 0,1 -11.730757126820373,-40.83630448921669" fill="none" id="id33" stroke="none" /><text fill="#e1ed5e" style="font-size:6.75px; font-family:Arial;" text-anchor="middle"><textPath startOffset="21.46611528233685" xlink:href="#id33">September</textPath></text><path d="M 81.69416730710424 110.29060199501025 l -8.77808516860764 4.934590098351559 a31.070002912913118,31.070002912913118 0 0,0 -0.2580638793534355,-0.468460900747325 l 8.861725457412593 -4.782758679206411" fill="#ff6f0a" stroke="none" /><path d="M 81.18737489456691 109.33194174019688 l -4.69920640534886 2.331026114330578 a26.24559087098516,26.24559087098516 0 0,0 -0.19727528796226046,-0.4064455242124322 l 4.73863494992584 -2.249791634152861" fill="#ff2a04" stroke="none" /><path d="M 80.73074385275274 108.34839909993369 l -4.439976499486373 1.9236184068960016 a25.838770411100363,25.838770411100363 0 0,0 -0.17330311712384508,-0.40963737596756233 l 4.472430597802524 -1.8469065052622806" fill="#ff2403" stroke="none" /><path d="M 80.45479744820244 107.68017299344265 l -13.390405155033854 5.261681365051295 a35.38708591074945,35.38708591074945 0 0,0 -0.21789298270361152,-0.5688498210437816 l 13.478992417330975 -5.030407977174356" fill="#ffaa0f" stroke="none" /><path d="M 80.0844068197444 106.66101706037122 l -2.773313862421988 0.9275692059060119 a23.924321188113076,23.924321188113076 0 0,0 -0.1272634317089697,-0.39167656865512485 l 2.788869545147207 -0.8796937372730838" fill="#ff0801" stroke="none" /><path d="M 79.67330655649465 105.27499134158121 l -23.87658131266264 6.196224685579518 a45.66747525658789,45.66747525658789 0 0,0 -0.1909089348685136,-0.7625862960711344 l 23.97970156182621 -5.784310550110992" fill="#d3ff1c" stroke="none" /><line stroke="#e1ed5e" stroke-width="0.3" x1="15.007084014347285" x2="10.007500721073583" y1="101.09737516637583" y2="101.16192664675087" /><path d="M 14.007167355692545 101.11028546245083 a86.0,86.0 0 0,1 10.666146001902534,-42.60595125391555" fill="none" id="id34" stroke="none" /><text fill="#e1ed5e" style="font-size:6.75px; font-family:Arial;" text-anchor="middle"><textPath startOffset="22.20632615414155" xlink:href="#id34">October</textPath></text><path d="M 79.08570108090925 98.10471618934814 l -14.154205447943696 -1.2826744296764705 a35.21220551340097,35.21220551340097 0 0,0 0.05989910438127415,-0.603175806715938 l 14.130029217880193 1.526125767096839" fill="#ffa70f" stroke="none" /><path d="M 80.52162464483688 92.15188598940014 l -2.7301871127028847 -1.1000311545533017 a23.94346568034295,23.94346568034295 0 0,0 0.1573180478415186,-0.3809581312038566 l 2.7108473779751665 1.1468638562104694" fill="#ff0801" stroke="none" /><path d="M 81.26839172434947 90.50648371742162 l -2.8261657077984927 -1.432351657659137 a24.168413464043958,24.168413464043958 0 0,0 0.1912648730100094,-0.36946285626898506 l 2.8010914016283692 1.4807872361884578" fill="#ff0b01" stroke="none" /><path d="M 81.6062741919709 89.86733742301443 l -2.5152752915016063 -1.3856048569501684 a23.871673834480927,23.871673834480927 0 0,0 0.20136593377798653,-0.3582075271763463 l 2.491051716431189 1.4286958940612993" fill="#ff0701" stroke="none" /><line stroke="#e1ed5e" stroke-width="0.3" x1="26.266209847984243" x2="21.928928074336255" y1="57.711370442889674" y2="55.22380399835377" /><path d="M 25.398753493254645 57.213857153982495 a86.0,86.0 0 0,1 29.58750427330803,-30.492523968695096" fill="none" id="id35" stroke="none" /><text fill="#e1ed5e" style="font-size:6.75px; font-family:Arial;" text-anchor="middle"><textPath startOffset="21.46611528233685" xlink:href="#id35">November</textPath></text><path d="M 81.96595687620814 89.24020034530311 l -4.323877780671069 -2.579790806313316 a26.03500145645656,26.03500145645656 0 0,0 0.23293168882207238,-0.38287845115973995 l 4.278830293562779 2.6538370306801307" fill="#ff2703" stroke="none" /><path d="M 82.54541684631803 88.32363383020206 l -6.201834358382373 -4.148760715470358 a28.46156584659294,28.46156584659294 0 0,0 0.2759084988154518,-0.4048616766911174 l 6.129501393898181 4.254900415431891" fill="#ff4a06" stroke="none" /><path d="M 83.39014120810768 87.1503855733568 l -3.8082766244779984 -2.9461349953454685 a25.814839795813022,25.814839795813022 0 0,0 0.2749230276406642,-0.3491243262330691 l 3.756999516243363 3.0112517155315857" fill="#ff2403" stroke="none" /><path d="M 84.07557802195018 86.31012108654704 l -22.575996661062742 -19.408092869334823 a50.77162565371668,50.77162565371668 0 0,0 0.5754314288078314,-0.6578175965078041 l 22.238573368677066 19.793826022045568" fill="#98ff23" stroke="none" /><path d="M 84.5562425177563 85.77008943001954 l -6.838193512403626 -6.300725859856434 a30.29838893971115,30.29838893971115 0 0,0 0.3567024684545479,-0.38050532298693607 l 6.728723721978622 6.41750059972142" fill="#ff6409" stroke="none" /><path d="M 85.83668400450813 84.49514656593479 l -13.628175884708956 -14.919025299819005 a41.206545816670456,41.206545816670456 0 0,0 0.527814669705121,-0.4738772219009545 l 13.369350227407862 15.151401530489238" fill="#fff517" stroke="none" /><path d="M 86.65592168130627 83.78471172551755 l -3.1446599311000756 -3.82128807177096 a25.94885124142213,25.94885124142213 0 0,0 0.34733970929138586,-0.28085788905596426 l 3.078416823244189 3.874852058091059" fill="#ff2603" stroke="none" /><path d="M 87.22198572758235 83.33499621200491 l -2.918069668350085 -3.805727638108735 a25.795695303583148,25.795695303583148 0 0,0 0.35469553501839385,-0.26714932336624186 l 2.852127979573301 3.855393550980831" fill="#ff2303" stroke="none" /><path d="M 88.70189139769569 82.29822771554957 l -2.6161582998411874 -4.098972678879928 a25.862701026387704,25.862701026387704 0 0,0 0.37732553630514026,-0.23628121621836864 l 2.545213611163805 4.143398236421227" fill="#ff2403" stroke="none" /><line stroke="#e1ed5e" stroke-width="0.3" x1="56.762969772571076" x2="54.21961505331055" y1="26.818313649435495" y2="22.513508569990535" /><path d="M 56.25429882871897 25.957352633546506 a86.0,86.0 0 0,1 42.265352541879196,-11.944610805530505" fill="none" id="id36" stroke="none" /><text fill="#e1ed5e" style="font-size:6.75px; font-family:Arial;" text-anchor="middle"><textPath startOffset="22.20632615414155" xlink:href="#id36">December</textPath></text><path d="M 92.23578459929587 80.48803036053334 l -22.66467504736369 -56.95777726264934 a82.30151617785782,82.30151617785782 0 0,0 1.3208093570471227,-0.5124535105297487 l 21.680882525316893 57.33947347706964" fill="#4be2ff" stroke="none" /></svg>