<?xml version="1.0" encoding="utf-8" ?>
<svg baseProfile="full" height="200mm" version="1.1" viewBox="0,0,200,200" width="200mm" xmlns="http://www.w3.org/2000/svg" xmlns:ev="http://www.w3.org/2001/xml-events" xmlns:xlink="http://www.w3.org/1999/xlink"><defs /><rect fill="#1a1a1a" height="200" width="200" x="0" y="0" /><text alignment-baseline="middle" fill="#e1ed5e" style="dominant-baseline: central; font-size:9.0px; font-family:Arial;" text-anchor="middle" x="100.0" y="100.0">2020</text><line stroke="#e1ed5e" stroke-width="0.3" x1="100.0" x2="100.0" y1="15.0" y2="10.0" /><path d="M 100.0 14.0 a86.0,86.0 0 0,1 42.35913384403234,11.155469271406648" fill="none" id="id49" stroke="none" /><text fill="#e1ed5e" style="font-size:6.75px; font-family:Arial;" text-anchor="middle"><textPath startOffset="22.145653131862478" xlink:href="#id49">January</textPath></text><line stroke="#e1ed5e" stroke-width="0.3" x1="143.13028292997686" x2="145.6673583964461" y1="26.7553504044142" y2="22.446841604673864" /><path d="M 143.63769802327073 25.89364864446614 a86.0,86.0 0 0,1 29.32050498858742,28.57503671076993" fill="none" id="id50" stroke="none" /><text fill="#e1ed5e" style="font-size:6.75px; font-family:Arial;" text-anchor="middle"><textPath startOffset="20.669276256404974" xlink:href="#id50">February</textPath></text><line stroke="#e1ed5e" stroke-width="0.3" x1="172.87174338648825" x2="177.1583165268699" y1="56.24261187166439" y2="53.66864786411523" /><path d="M 173.72905801456457 55.72781907015455 a86.0,86.0 0 0,1 12.242430191666344,42.057860355516425" fill="none" id="id51" stroke="none" /><text fill="#e1ed5e" style="font-size:6.75px; font-family:Arial;" text-anchor="middle"><textPath startOffset="22.145653131862474" xlink:href="#id51">March</textPath></text><line stroke="#e1ed5e" stroke-width="0.3" x1="184.99686870605535" x2="189.99668451229388" y1="99.2704041080226" y2="99.22748670261217" /><path d="M 185.99683186730306 99.26182062694052 a86.0,86.0 0 0,1 -10.086455211305974,41.156179273409016" fill="none" id="id52" stroke="none" /><text fill="#e1ed5e" style="font-size:6.75px; font-family:Arial;" text-anchor="middle"><textPath startOffset="21.40746469413373" xlink:href="#id52">April</textPath></text><path d="M 120.16314734710363 105.8691983318838 l 23.144927373379208 6.737151040604884 a45.10553602936308,45.10553602936308 0 0,0 -0.2227862945321147,0.741583117182041 l -23.02586475884346 -7.133471761377648" fill="#edff19" stroke="none" /><path d="M 119.4528033332814 107.91128576633889 l 27.6058382742023 11.227054099338877 a50.80149409964028,50.80149409964028 0 0,0 -0.3354692519310633,0.8050040813414775 l -27.40904317773475 -11.699290690121632" fill="#a7ff21" stroke="none" /><path d="M 119.16976305983485 108.57439118712176 l 27.195026243822568 12.163989332092779 a50.79147678235279,50.79147678235279 0 0,0 -0.36283383668126895,0.7928574142305747 l -26.982207942286244 -12.629035728538042" fill="#a7ff21" stroke="none" /><line stroke="#e1ed5e" stroke-width="0.3" x1="174.33088141563837" x2="178.70328620479359" y1="141.23008692659167" y2="143.65538615756765" /><path d="M 175.20536237346943 141.71514677278685 a86.0,86.0 0 0,1 -30.301960400862466,31.631185727798858" fill="none" id="id53" stroke="none" /><text fill="#e1ed5e" style="font-size:6.75px; font-family:Arial;" text-anchor="middle"><textPath startOffset="22.145653131862474" xlink:href="#id53">May</textPath></text><path d="M 118.00360718960297 110.81064883170644 l 23.92606859645612 14.366916740384104 a48.90815391794041,48.90815391794041 0 0,0 -0.43838482698582376,0.7160686689825716 l -23.675915805014892 -14.775522525491231" fill="#beff1f" stroke="none" /><path d="M 117.81537515405839 111.11811171558189 l 20.280664448288622 12.65663456718942 a44.90597726576875,44.90597726576875 0 0,0 -0.413738673389345,0.6504659147351093 l -20.060408083273387 -13.0029141566032" fill="#f0ff19" stroke="none" /><path d="M 116.57777611688842 112.89097897827486 l 23.561056841945202 18.321220308074867 a50.846113869084995,50.846113869084995 0 0,0 -0.541713454473142,0.684437253344446 l -23.2430769568305 -18.722977505333997" fill="#a7ff21" stroke="none" /><path d="M 116.35404254752997 113.17365903436017 l 23.28434094447943 18.75621685285955 a50.899100385300116,50.899100385300116 0 0,0 -0.5539595852834638,0.6757406214771922 l -22.958934539957337 -19.153159756035233" fill="#a6ff21" stroke="none" /><path d="M 115.89218393027572 113.72728997021213 l 22.555417308286707 19.482832261973527 a50.80482516135862,50.80482516135862 0 0,0 -0.5757612517105629,0.6551106134114191 l -22.217644992617558 -19.86715515319624" fill="#a7ff21" stroke="none" /><path d="M 115.41159269507618 114.26474011684316 l 21.88367362182154 20.255201600080763 a50.8189262557578,50.8189262557578 0 0,0 -0.5980762457094166,0.6351362472511645 l -21.532741542375863 -20.627879307276423" fill="#a7ff21" stroke="none" /><path d="M 115.16444852881244 114.52719865689866 l 21.531771694062567 20.626950214531142 a50.81758319243832,50.81758319243832 0 0,0 -0.6088749840397326,0.6247593725832155 l -21.174509908872025 -20.993532279182094" fill="#a7ff21" stroke="none" /><path d="M 114.65682725009322 115.03919595460226 l 20.82398444121661 21.36724252958999 a50.83617571550266,50.83617571550266 0 0,0 -0.6301931072443332,0.6037107411952576 l -20.454118848106965 -21.721565401090828" fill="#a7ff21" stroke="none" /><path d="M 114.13192950727249 115.5334660781643 l 8.672733000225968 9.532852806452125 a33.88765224246413,33.88765224246413 0 0,0 -0.43365701506653787,0.3877787769343522 l -8.507810958336051 -9.680327113269863" fill="#ff780b" stroke="none" /><path d="M 113.59037401385872 116.0094264158162 l 19.29451843851908 22.72889420519895 a50.81410863275103,50.81410863275103 0 0,0 -0.6698404502967191,0.5588047273386908 l -18.90150365406047 -23.056761116449515" fill="#a7ff21" stroke="none" /><path d="M 113.31354834802062 116.24036423190432 l 18.922611867640953 23.082509704870183 a50.847403474486896,50.847403474486896 0 0,0 -0.6797794930903739,0.5475822405681158 l -18.523581604195325 -23.4039402392317" fill="#a7ff21" stroke="none" /><path d="M 113.03279911837588 116.46651593811092 l 18.49907961524479 23.372982776609526 a50.807922948217154,50.807922948217154 0 0,0 -0.6885442668953359,0.5354161865605822 l -18.09512540371422 -23.6871000147909" fill="#a7ff21" stroke="none" /><path d="M 112.45986205192187 116.90419585922612 l 17.700855770458308 24.014610400408642 a50.833233275828185,50.833233275828185 0 0,0 -0.7068699724110353,0.5117193477677385 l -17.286004787673303 -24.31493051954946" fill="#a7ff21" stroke="none" /><path d="M 111.27062007382361 117.71928675628689 l 33.81186022147083 53.157860268860695 a84.0,84.0 0 0,0 -1.2233434848411404,0.7634568126338093 l -32.89435260783998 -53.73045287833605" fill="#4dd2ff" stroke="none" /><line stroke="#e1ed5e" stroke-width="0.3" x1="143.1302829299769" x2="145.66735839644613" y1="173.24464959558577" y2="177.55315839532614" /><path d="M 143.63769802327073 174.10635135553383 a86.0,86.0 0 0,1 -40.68552437913181,11.842963189579606" fill="none" id="id54" stroke="none" /><text fill="#e1ed5e" style="font-size:6.75px; font-family:Arial;" text-anchor="middle"><textPath startOffset="21.407464694133747" xlink:href="#id54">June</textPath></text><path d="M 110.02825361518725 118.45085714620011 l 14.258854008185274 26.23468536686353 a50.85923029692937,50.85923029692937 0 0,0 -0.7706655190938229,0.4103359810094723 l -13.806399673304897 -26.47559181559557" fill="#a7ff21" stroke="none" /><path d="M 109.06512990194946 118.94263497670748 l 5.585202569397633 11.67092525837011 a33.93850780143009,33.93850780143009 0 0,0 -0.5276812300727076,0.2469814598613044 l -5.384032625453419 -11.765082949801947" fill="#ff790b" stroke="none" /><path d="M 108.73861861582097 119.09545874513695 l 12.410421076791907 27.11900977719854 a50.8238032886329,50.8238032886329 0 0,0 -0.7964491656281523,0.3562415813610657 l -11.943058508308129 -27.328055109469453" fill="#a7ff21" stroke="none" /><path d="M 107.06938296918513 119.77432235084164 l 4.389386870266703 12.277896285085642 a34.038920748443466,34.038920748443466 0 0,0 -0.5519074305077117,0.19198205367234153 l -4.17797366771397 -12.351436771326574" fill="#ff7a0b" stroke="none" /><path d="M 106.38641147887787 120.00534299687104 l 7.2653442499074306 22.758587383611673 a44.890134507096256,44.890134507096256 0 0,0 -0.7361113480557774,0.2280491772874156 l -6.873592268980029 -22.87995314870573" fill="#f0ff19" stroke="none" /><path d="M 105.69591212413111 120.21278271476187 l 3.2624574427833797 11.577310529030946 a33.02820633559233,33.02820633559233 0 0,0 -0.5470392598707405,0.14909798285330808 l -3.063236781977944 -11.631609006028397" fill="#ff6c09" stroke="none" /><path d="M 104.9986988182912 120.39639698878246 l 7.110655522176769 29.01390104762793 a50.87252711031673,50.87252711031673 0 0,0 -0.8499778105241163,0.20059244891410397 l -6.611545557912773 -29.13168964018826" fill="#a6ff21" stroke="none" /><path d="M 104.64783097203109 120.47920084513623 l 6.608809387828701 29.119633569940575 a50.86016444650402,50.86016444650402 0 0,0 -0.853088638809044,0.18592669826844727 l -6.107958332400521 -29.22879172634274" fill="#a7ff21" stroke="none" /><line stroke="#e1ed5e" stroke-width="0.3" x1="101.45913802915013" x2="101.54496967792366" y1="184.9874750549273" y2="189.98673829345242" /><path d="M 101.47630435890484 185.9873277026323 a86.0,86.0 0 0,1 -42.54439059252881,-10.42667462771756" fill="none" id="id55" stroke="none" /><text fill="#e1ed5e" style="font-size:6.75px; font-family:Arial;" text-anchor="middle"><textPath startOffset="22.145653131862474" xlink:href="#id55">July</textPath></text><path d="M 98.55909050195518 120.95050786540614 l -0.8873133871000808 12.901341909915118 a33.93181921167549,33.93181921167549 0 0,0 -0.5807689470646418,-0.04495518954233097 l 1.1086513289399587 -12.884208953377733" fill="#ff790b" stroke="none" /><path d="M 97.48249496171623 120.84855314841334 l -3.5776034836756785 29.627689017142554 a50.84290875874733,50.84290875874733 0 0,0 -0.86559368956357,-0.11206843290339367 l 4.085674995130042 -29.561908988038766" fill="#a7ff21" stroke="none" /><path d="M 95.70440661134978 120.55596938700252 l -2.646996609193571 12.666836998550286 a33.94045403364676,33.94045403364676 0 0,0 -0.5692906432219532,-0.12407424602107643 l 2.8640496690346606 -12.619531294395491" fill="#ff790b" stroke="none" /><path d="M 95.35216902796893 120.47920084513623 l -5.2926429112351405 23.32036122505668 a44.91341290265726,44.91341290265726 0 0,0 -0.7504129739688801,-0.17709541858806213 l 5.692188038943908 -23.22606966282239" fill="#f0ff19" stroke="none" /><path d="M 90.6110303473126 118.78422872680471 l -5.564410725473365 11.132548901919117 a33.44573468202595,33.44573468202595 0 0,0 -0.5113578550565937,-0.26110296436086644 l 5.75469580224354 -11.035387985885414" fill="#ff720a" stroke="none" /><line stroke="#e1ed5e" stroke-width="0.3" x1="58.13341422392154" x2="55.67067388415222" y1="173.97424548756322" y2="178.32567169271397" /><path d="M 57.64086615596768 174.84453072859336 a86.0,86.0 0 0,1 -31.369924170532247,-30.572349798747897" fill="none" id="id56" stroke="none" /><text fill="#e1ed5e" style="font-size:6.75px; font-family:Arial;" text-anchor="middle"><textPath startOffset="22.145653131862474" xlink:href="#id56">August</textPath></text><path d="M 89.65649057296885 118.27599006163327 l -12.709790542088152 22.456982059261772 a46.80416281985832,46.80416281985832 0 0,0 -0.6958386746594286,-0.4017426461271766 l 13.09342168460798 -22.23549251585842" fill="#d8ff1c" stroke="none" /><line stroke="#e1ed5e" stroke-width="0.3" x1="26.387840678322732" x2="22.057713659400548" y1="142.50000000000003" y2="145.00000000000006" /><path d="M 25.521815274538298 143.00000000000003 a86.0,86.0 0 0,1 -11.493303480769221,-40.785679425670985" fill="none" id="id57" stroke="none" /><text fill="#e1ed5e" style="font-size:6.75px; font-family:Arial;" text-anchor="middle"><textPath startOffset="21.40746469413373" xlink:href="#id57">September</textPath></text><path d="M 79.94057633289273 106.21446072829308 l -11.953937533097939 3.7033604046022264 a33.514451679222034,33.514451679222034 0 0,0 -0.1655353457728306,-0.5510133286243382 l 12.0157491988744 -3.4976094723871647" fill="#ff730a" stroke="none" /><line stroke="#e1ed5e" stroke-width="0.3" x1="15.003131293944662" x2="10.003315487706104" y1="100.72959589197737" y2="100.7725132973878" /><path d="M 14.003168132696942 100.73817937305945 a86.0,86.0 0 0,1 10.791469493833604,-42.45332614584628" fill="none" id="id58" stroke="none" /><text fill="#e1ed5e" style="font-size:6.75px; font-family:Arial;" text-anchor="middle"><textPath startOffset="22.145653131862435" xlink:href="#id58">October</textPath></text><path d="M 80.16572619554312 93.10060997987247 l -24.421296642662856 -8.494994674173583 a46.8566174164985,46.8566174164985 0 0,0 0.2707862439039174,-0.7574373178635304 l 24.271870228714995 8.912966948418035" fill="#d7ff1c" stroke="none" /><path d="M 80.83023694016515 91.42560881287825 l -12.331915687211282 -5.515909031254543 a34.50930778972643,34.50930778972643 0 0,0 0.24652058455036732,-0.5386919671246376 l 12.235410637805868 5.726789980593852" fill="#ff810b" stroke="none" /><path d="M 81.1358732173502 90.77261029715801 l -11.490776305653403 -5.620714501238793 a33.7918087701076,33.7918087701076 0 0,0 0.2593603176332426,-0.5188943738554965 l 11.392596074808417 5.81714073125806" fill="#ff770a" stroke="none" /><path d="M 81.29705330413844 90.45014215332179 l -26.6202394298621 -13.59248392960309 a50.889676590416684,50.889676590416684 0 0,0 0.40394754571892155,-0.7746226813963979 l 26.382983815168238 14.047452854103975" fill="#a6ff21" stroke="none" /><line stroke="#e1ed5e" stroke-width="0.3" x1="26.387840678322718" x2="22.05771365940052" y1="57.49999999999999" y2="54.99999999999999" /><path d="M 25.521815274538284 56.99999999999999 a86.0,86.0 0 0,1 29.574782752854787,-30.34633250058573" fill="none" id="id59" stroke="none" /><text fill="#e1ed5e" style="font-size:6.75px; font-family:Arial;" text-anchor="middle"><textPath startOffset="21.40746469413373" xlink:href="#id59">November</textPath></text><path d="M 82.18462484594161 88.88188828441811 l -25.343210458203224 -15.816037701660138 a50.873489332669465,50.873489332669465 0 0,0 0.468720007196693,-0.7369057036370718 l 25.06797275938064 16.24875707997588" fill="#a6ff21" stroke="none" /><path d="M 82.576782715395 88.27688183743585 l -24.897538283717687 -16.752174899115037 a51.00871167577388,51.00871167577388 0 0,0 0.4950523310167273,-0.7222961457715578 l 24.606296215885646 17.17710577995663" fill="#a5ff21" stroke="none" /><path d="M 83.42222388311158 87.10902102172516 l -23.57291628105948 -18.330442279661302 a50.8611368866263,50.8611368866263 0 0,0 0.541873509393954,-0.6846394775083101 l 23.254776341023963 18.732401701084296" fill="#a7ff21" stroke="none" /><path d="M 84.10781606972428 86.27271002978789 l -22.617416279033325 -19.53638549625696 a50.886750867189306,50.886750867189306 0 0,0 0.576689699880312,-0.6561670169957161 l 22.27871551519442 19.921764791063975" fill="#a6ff21" stroke="none" /><path d="M 85.34317274990677 84.96080404539775 l -20.853269310516506 -21.397291385347817 a50.87813447266093,50.87813447266093 0 0,0 0.6307132510037516,-0.6042090271506537 l 20.482883573647452 21.752112542804042" fill="#a6ff21" stroke="none" /><line stroke="#e1ed5e" stroke-width="0.3" x1="56.869717070023135" x2="54.33264160355391" y1="26.7553504044142" y2="22.446841604673864" /><path d="M 56.362301976729285 25.89364864446614 a86.0,86.0 0 0,1 42.16139366436587,-11.88097634709845" fill="none" id="id60" stroke="none" /><text fill="#e1ed5e" style="font-size:6.75px; font-family:Arial;" text-anchor="middle"><textPath startOffset="22.145653131862474" xlink:href="#id60">December</textPath></text><path d="M 91.26138138417902 80.90454125486306 l -5.397576457334928 -11.794678666735518 a33.97105533348471,33.97105533348471 0 0,0 0.5323532857666651,-0.2381148534630016 l 5.194309768712644 11.885597271108367" fill="#ff790b" stroke="none" /><path d="M 91.5904679813234 80.7573450057729 l -1.9497382977291893 -4.461382786689079 a25.86882078115405,25.86882078115405 0 0,0 0.40843779132061575,-0.17433780590242476 l 1.8728654312381423 4.494195242250908" fill="#ff0000" stroke="none" /><path d="M 92.592206182469 80.34994680014964 l -4.581895127369691 -12.15402118723627 a33.988995110400275,33.988995110400275 0 0,0 0.5477259366540136,-0.20113255073410216 l 4.372580039061551 12.230884586979093" fill="#ff7a0b" stroke="none" /></svg>