<?xml version="1.0" encoding="utf-8" ?>
<svg baseProfile="full" height="200mm" version="1.1" viewBox="0,0,200,200" width="200mm" xmlns="http://www.w3.org/2000/svg" xmlns:ev="http://www.w3.org/2001/xml-events" xmlns:xlink="http://www.w3.org/1999/xlink"><defs /><rect fill="#1a1a1a" height="200" width="200" x="0" y="0" /><text alignment-baseline="middle" fill="#e1ed5e" style="dominant-baseline: central; font-size:9.0px; font-family:Arial;" text-anchor="middle" x="100.0" y="100.0">2024</text><line stroke="#e1ed5e" stroke-width="0.3" x1="100.0" x2="100.0" y1="15.0" y2="10.0" /><path d="M 100.0 14.0 a86.0,86.0 0 0,1 42.35913384403234,11.155469271406648" fill="none" id="id109" stroke="none" /><text fill="#e1ed5e" style="font-size:6.75px; font-family:Arial;" text-anchor="middle"><textPath startOffset="22.145653131862478" xlink:href="#id109">January</textPath></text><path d="M 104.9986988182912 79.60360301121754 l 0.6666892643241856 -2.7203197067119764 a23.80082378629764,23.80082378629764 0 0,0 0.3959943737051201,0.10066022127188913 l -0.7132889312547002 2.7084742536048196" fill="#ff0e01" stroke="none" /><path d="M 107.06938296918511 80.22567764915836 l 1.2049144218837624 -3.370360084800156 a24.57926610707804,24.57926610707804 0 0,0 0.39609001404834765,0.14544973957691837 l -1.2625935875862349 3.3491794962145156" fill="#ff1902" stroke="none" /><path d="M 109.06512990194946 81.05736502329252 l 1.5462847129703248 -3.2311403371683394 a24.582075416855716,24.582075416855716 0 0,0 0.379078722648363,0.18542639912435252 l -1.6015236848807548 3.204120187946766" fill="#ff1902" stroke="none" /><line stroke="#e1ed5e" stroke-width="0.3" x1="143.13028292997686" x2="145.6673583964461" y1="26.7553504044142" y2="22.446841604673864" /><path d="M 143.63769802327073 25.89364864446614 a86.0,86.0 0 0,1 29.32050498858742,28.57503671076993" fill="none" id="id110" stroke="none" /><text fill="#e1ed5e" style="font-size:6.75px; font-family:Arial;" text-anchor="middle"><textPath startOffset="20.669276256404974" xlink:href="#id110">February</textPath></text><path d="M 114.39649973595853 84.71141617570332 l 1.839166721741451 -1.9531313241349475 a23.682770247277677,23.682770247277677 0 0,0 0.2935846050617498,0.28124741049671276 l -1.8724238126685127 1.9212717833326545" fill="#ff0c01" stroke="none" /><line stroke="#e1ed5e" stroke-width="0.3" x1="172.87174338648825" x2="177.1583165268699" y1="56.24261187166439" y2="53.66864786411523" /><path d="M 173.72905801456457 55.72781907015455 a86.0,86.0 0 0,1 12.242430191666344,42.057860355516425" fill="none" id="id111" stroke="none" /><text fill="#e1ed5e" style="font-size:6.75px; font-family:Arial;" text-anchor="middle"><textPath startOffset="22.145653131862474" xlink:href="#id111">March</textPath></text><path d="M 118.36410011445183 89.81374322990088 l 2.346383008852764 -1.3014991020639757 a23.68317221529038,23.68317221529038 0 0,0 0.19415086822490374,0.35721572986579997 l -2.3683792266930093 1.2610285387235725" fill="#ff0c01" stroke="none" /><path d="M 118.8641267826498 90.77261029715802 l 4.017105741491878 -1.964967717899462 a25.47193880444646,25.47193880444646 0 0,0 0.18876009609274622,0.3944360022556544 l -4.050245095544536 1.895719213578704" fill="#ff2603" stroke="none" /><path d="M 119.4528033332814 92.08871423366111 l 5.383631173404694 -2.1894759302123856 a26.811823247504538,26.811823247504538 0 0,0 0.1697333004332058,0.42783879508992634 l -5.420423148804025 2.096736117908894" fill="#ff3905" stroke="none" /><path d="M 119.94978838288452 93.4421083053983 l 5.096984524860339 -1.6754800522982787 a26.365303780058984,26.365303780058984 0 0,0 0.13764607493074868,0.43117436924789443 l -5.124995315568345 1.5877366493589973" fill="#ff3304" stroke="none" /><path d="M 120.16314734710363 94.1308016681162 l 9.052467823014652 -2.635041451199899 a30.428182069532667,30.428182069532667 0 0,0 0.14168159648514614,0.5027780032459167 l -9.09636791157438 2.479255524050969" fill="#ff6c0a" stroke="none" /><path d="M 120.43855184770803 95.1765574152323 l 5.220993989788288 -1.2321403655604446 a26.364414984119783,26.364414984119783 0 0,0 0.1001711408151937,0.44137252924761844 l -5.2413759921611485 1.1423335023738" fill="#ff3304" stroke="none" /><path d="M 120.592083275326 95.88100663000786 l 5.260279030295228 -1.0522031287653528 a26.364481978788568,26.364481978788568 0 0,0 0.08496105940785138,0.4445521639483065 l -5.2775663819852365 0.9617483997837318" fill="#ff3304" stroke="none" /><path d="M 120.77682067341334 96.94652285012252 l 14.144051631732166 -2.0786885126965986 a35.29598343920145,35.29598343920145 0 0,0 0.08295477744290475,0.6002194457007138 l -14.177650925730283 1.835580758795799" fill="#ffae10" stroke="none" /><path d="M 120.99303781780057 99.45929381324524 l 18.994719572834903 -0.48923659728726376 a40.00101902790381,40.00101902790381 0 0,0 0.01178804963701164,0.6865947939518089 l -19.00031905407058 0.1630948873663885" fill="#ffea16" stroke="none" /><line stroke="#e1ed5e" stroke-width="0.3" x1="184.99686870605535" x2="189.99668451229388" y1="99.2704041080226" y2="99.22748670261217" /><path d="M 185.99683186730306 99.26182062694052 a86.0,86.0 0 0,1 -10.086455211305974,41.156179273409016" fill="none" id="id112" stroke="none" /><text fill="#e1ed5e" style="font-size:6.75px; font-family:Arial;" text-anchor="middle"><textPath startOffset="21.40746469413373" xlink:href="#id112">April</textPath></text><path d="M 120.93736805541906 101.62068470465957 l 3.646732119577662 0.2822801296011318 a24.65764093693285,24.65764093693285 0 0,0 -0.036289445437165654,0.4217383640911741 l -3.6413490514427553 -0.3448395410679633" fill="#ff1a02" stroke="none" /><path d="M 120.7213421655516 103.40968896794604 l 3.5277212441765537 0.5804851882738775 a24.575161567037206,24.575161567037206 0 0,0 -0.0720698004887531,0.4156794574149436 l -3.517236626195566 -0.6409576786094091" fill="#ff1902" stroke="none" /><path d="M 120.592083275326 104.11899336999214 l 4.385191403379087 0.8771610951237767 a25.472059394850273,25.472059394850273 0 0,0 -0.08944609379971488,0.4280319386820762 l -4.369487598755008 -0.952309485091262" fill="#ff2603" stroke="none" /><path d="M 120.43855184770803 104.8234425847677 l 5.2176686100461644 1.2313555849958437 a26.360998256011797,26.360998256011797 0 0,0 -0.10771916494514205,0.43953095223136074 l -5.195761918584727 -1.320742361835304" fill="#ff3304" stroke="none" /><path d="M 119.83427380445688 106.89939002012753 l 5.078194758673925 1.7664597445652839 a26.37665714326225,26.37665714326225 0 0,0 -0.15243174408169127,0.42637871750776185 l -5.047122844548291 -1.8533734184539672" fill="#ff3304" stroke="none" /><path d="M 119.4528033332814 107.91128576633889 l 4.1417855899220175 1.6844281424835792 a25.471206329401088,25.471206329401088 0 0,0 -0.1681999060174581,0.4036185434161067 l -4.112259839368074 -1.7552791953409637" fill="#ff2603" stroke="none" /><path d="M 119.31412917781788 108.2440532568976 l 4.935688632031521 2.1067519828263435 a26.366509684097096,26.366509684097096 0 0,0 -0.18125860227881804,0.414755154108561 l -4.898796147735737 -2.1911692067107493" fill="#ff3304" stroke="none" /><path d="M 119.0197475246899 108.90220220490707 l 3.24231977924525 1.5175693710099063 a24.579895856964608,24.579895856964608 0 0,0 -0.18214960154899607,0.3806226111060309 l -3.2157909197363415 -1.5730044841810407" fill="#ff1902" stroke="none" /><path d="M 118.8641267826498 109.22738970284198 l 4.819588069959732 2.3575020376553835 a26.36528144850272,26.36528144850272 0 0,0 -0.20235992152698914,0.40485539859138575 l -4.77840823522101 -2.439889292410515" fill="#ff3304" stroke="none" /><line stroke="#e1ed5e" stroke-width="0.3" x1="174.33088141563837" x2="178.70328620479359" y1="141.23008692659167" y2="143.65538615756765" /><path d="M 175.20536237346943 141.71514677278685 a86.0,86.0 0 0,1 -30.301960400862466,31.631185727798858" fill="none" id="id113" stroke="none" /><text fill="#e1ed5e" style="font-size:6.75px; font-family:Arial;" text-anchor="middle"><textPath startOffset="22.145653131862474" xlink:href="#id113">May</textPath></text><path d="M 117.62189284568427 111.42229804090321 l 7.9183833583480645 5.132600425687564 a30.43633308756806,30.43633308756806 0 0,0 -0.28795026444610644,0.43599340106262313 l -7.829108654981232 -5.267773705089248" fill="#ff6c0a" stroke="none" /><path d="M 117.21940702142032 112.02048342749411 l 2.8483765045433755 1.9883880162386163 a24.473749503743193,24.473749503743193 0 0,0 -0.24343794065199148,0.3424259500955583 l -2.8138234653614234 -2.036991193043679" fill="#ff1802" stroke="none" /><path d="M 116.1254893667686 113.45245675266167 l 7.240268817352341 6.040089756519135 a30.428901145644282,30.428901145644282 0 0,0 -0.3380584792277811,0.3982320384943709 l -7.135515774617446 -6.163488577463063" fill="#ff6c0a" stroke="none" /><path d="M 115.41159269507618 114.26474011684316 l 3.2813201178417866 3.037140913809419 a25.471161666288566,25.471161666288566 0 0,0 -0.2997642387516106,0.3183392335453232 l -3.2287000453539156 -3.093021607299239" fill="#ff2603" stroke="none" /><path d="M 115.16444852881244 114.52719865689866 l 3.872201122333465 3.709481082462378 a26.362293486274954,26.362293486274954 0 0,0 -0.3158619520515658,0.32410218872412816 l -3.807952369131092 -3.775405963254243" fill="#ff3304" stroke="none" /><path d="M 114.39649973595853 115.28858382429668 l 9.800019968783623 10.40728159764413 a35.29517057055354,35.29517057055354 0 0,0 -0.4446691118744706,0.41157909142663124 l -9.619921085595186 -10.573978435203141" fill="#ffae10" stroke="none" /><path d="M 113.31354834802062 116.24036423190432 l 1.7025005756921179 2.076773879622972 a23.685423236161526,23.685423236161526 0 0,0 -0.3166506822553405,0.25507137509920447 l -1.666599123081525 -2.1056935485155797" fill="#ff0c01" stroke="none" /><path d="M 112.45986205192187 116.90419585922612 l 11.279375451922803 15.302639067311375 a40.01039381522232,40.01039381522232 0 0,0 -0.5563711798314699,0.40276982807606704 l -11.015023261717365 -15.49400966676052" fill="#ffea16" stroke="none" /><path d="M 110.96478420261333 117.91015095944535 l 2.367285218217685 3.866782495567684 a25.533877608892922,25.533877608892922 0 0,0 -0.375794531760968,0.2256538188685619 l -2.3005579298992807 -3.906850314972169" fill="#ff2703" stroke="none" /><line stroke="#e1ed5e" stroke-width="0.3" x1="143.1302829299769" x2="145.66735839644613" y1="173.24464959558577" y2="177.55315839532614" /><path d="M 143.63769802327073 174.10635135553383 a86.0,86.0 0 0,1 -40.68552437913181,11.842963189579606" fill="none" id="id114" stroke="none" /><text fill="#e1ed5e" style="font-size:6.75px; font-family:Arial;" text-anchor="middle"><textPath startOffset="21.407464694133747" xlink:href="#id114">June</textPath></text><path d="M 110.34350942703117 118.27599006163325 l 2.2012588981617633 3.889413552498033 a25.46912502835753,25.46912502835753 0 0,0 -0.3823471279889899,0.21208150667512535 l -2.134167582016679 -3.9266279746063018" fill="#ff2603" stroke="none" /><path d="M 108.73861861582097 119.09545874513695 l 2.2317433040211685 4.876761884826598 a26.363159950657895,26.363159950657895 0 0,0 -0.4131315522921345,0.18478848851907137 l -2.147698348873407 -4.91435412425552" fill="#ff3304" stroke="none" /><path d="M 108.07796709384702 119.3841803445677 l 1.7257394459497497 4.141146436893096 a25.486342658235028,25.486342658235028 0 0,0 -0.40528811577568324,0.16482714838929224 l -1.6543968689836257 -4.170160841861679" fill="#ff2603" stroke="none" /><path d="M 107.407793817531 119.65005319985036 l 1.5783900815404552 4.186867215308578 a25.474502467105264,25.474502467105264 0 0,0 -0.4105165710039108,0.15074737111963765 l -1.5062843588824175 -4.2133454354369375" fill="#ff2603" stroke="none" /><path d="M 106.72888874123015 119.89276391827305 l 0.717489896536102 2.1211313895092783 a23.239194078947367,23.239194078947367 0 0,0 -0.378995027020518,0.12458319317940691 l -0.6809721318678497 -2.1331355040907045" fill="#ff0500" stroke="none" /><path d="M 106.38641147887787 120.00534299687104 l 1.6321261969535297 5.112612065824957 a26.366808926951,26.366808926951 0 0,0 -0.43236464929903107,0.1339476735703506 l -1.5441209147828745 -5.139876327201952" fill="#ff3304" stroke="none" /><path d="M 105.69591212413111 120.21278271476187 l 0.5071686092185691 1.799762474293212 a22.86985693625227,22.86985693625227 0 0,0 -0.37878864763767667,0.10324053031194669 l -0.47619856064619726 -1.8082034987493008" fill="#ff0000" stroke="none" /><path d="M 105.3480935250658 120.30758222061773 l 1.1384687361641754 4.3229512268060555 a25.470348797640654,25.470348797640654 0 0,0 -0.42377166902850044,0.1077211011208221 l -1.0640917739102775 -4.341857559762148" fill="#ff2603" stroke="none" /><path d="M 103.58742460773223 120.69131181640829 l 0.7638272368199932 4.405552522788426 a25.471277790381126,25.471277790381126 0 0,0 -0.4314622160011047,0.0709969434523504 l -0.6880875177658162 -4.418015464736447" fill="#ff2603" stroke="none" /><path d="M 103.2317021107853 120.74984581791261 l 0.6881693092283235 4.41854062459898 a25.471809281420143,25.471809281420143 0 0,0 -0.4326264231157955,0.06358118588893376 l -0.6122177805048424 -4.429702883786796" fill="#ff2603" stroke="none" /><path d="M 102.51750503828377 120.84855314841334 l 0.5363792422329157 4.441989576720812 a25.474256819986387,25.474256819986387 0 0,0 -0.4345957929524816,0.04869736508040307 l -0.46004754767963485 -4.450542702308185" fill="#ff2603" stroke="none" /><path d="M 100.72087961077811 120.9876233191556 l 0.15353254660123872 4.469932575592476 a25.47256855433303,25.47256855433303 0 0,0 -0.43714164587627924,0.011259218149603439 l -0.07677758665421562 -4.471909511092124" fill="#ff2603" stroke="none" /><line stroke="#e1ed5e" stroke-width="0.3" x1="101.45913802915013" x2="101.54496967792366" y1="184.9874750549273" y2="189.98673829345242" /><path d="M 101.47630435890484 185.9873277026323 a86.0,86.0 0 0,1 -42.54439059252881,-10.42667462771756" fill="none" id="id115" stroke="none" /><text fill="#e1ed5e" style="font-size:6.75px; font-family:Arial;" text-anchor="middle"><textPath startOffset="22.145653131862474" xlink:href="#id115">July</textPath></text><path d="M 100.0 121.0 l 5.477338642646167e-16 4.47258641957804 a25.47258641957804,25.47258641957804 0 0,0 -0.4372708181837542,-0.003753444067825215 l 0.07677789333490151 -4.471927373704649" fill="#ff2603" stroke="none" /><path d="M 98.91894614982273 120.97215588758144 l -0.2301693751171576 4.465224387030028 a25.471152733666063,25.471152733666063 0 0,0 -0.4364732461384196,-0.026257146629003164 l 0.3067869733880235 -4.460615262576333" fill="#ff2603" stroke="none" /><path d="M 98.19965949673042 120.92268563240118 l -0.26827212628341546 3.117728758515434 a24.12924951792196,24.12924951792196 0 0,0 -0.41238086605590957,-0.03905289676626476 l 0.3217525557243403 -3.1126641062439857" fill="#ff1302" stroke="none" /><path d="M 97.84075906011543 120.88869738790638 l -0.9698366552511437 9.382289874664668 a30.43228214326225,30.43228214326225 0 0,0 -0.519180672585045,-0.05817527727040733 l 1.130753229436988 -9.36425883688729" fill="#ff6c0a" stroke="none" /><path d="M 96.05791012581884 120.62667999033965 l -11.826269622543512 61.88003997101897 a84.0,84.0 0 0,0 -1.4140140578761677,-0.2828424133485541 l 12.886780165950636 -61.667908161007546" fill="#4dd2ff" stroke="none" /><line stroke="#e1ed5e" stroke-width="0.3" x1="58.13341422392154" x2="55.67067388415222" y1="173.97424548756322" y2="178.32567169271397" /><path d="M 57.64086615596768 174.84453072859336 a86.0,86.0 0 0,1 -31.369924170532247,-30.572349798747897" fill="none" id="id116" stroke="none" /><text fill="#e1ed5e" style="font-size:6.75px; font-family:Arial;" text-anchor="middle"><textPath startOffset="22.145653131862474" xlink:href="#id116">August</textPath></text><line stroke="#e1ed5e" stroke-width="0.3" x1="26.387840678322732" x2="22.057713659400548" y1="142.50000000000003" y2="145.00000000000006" /><path d="M 25.521815274538298 143.00000000000003 a86.0,86.0 0 0,1 -11.493303480769221,-40.785679425670985" fill="none" id="id117" stroke="none" /><text fill="#e1ed5e" style="font-size:6.75px; font-family:Arial;" text-anchor="middle"><textPath startOffset="21.40746469413373" xlink:href="#id117">September</textPath></text><line stroke="#e1ed5e" stroke-width="0.3" x1="15.003131293944662" x2="10.003315487706104" y1="100.72959589197737" y2="100.7725132973878" /><path d="M 14.003168132696942 100.73817937305945 a86.0,86.0 0 0,1 10.791469493833604,-42.45332614584628" fill="none" id="id118" stroke="none" /><text fill="#e1ed5e" style="font-size:6.75px; font-family:Arial;" text-anchor="middle"><textPath startOffset="22.145653131862435" xlink:href="#id118">October</textPath></text><line stroke="#e1ed5e" stroke-width="0.3" x1="26.387840678322718" x2="22.05771365940052" y1="57.49999999999999" y2="54.99999999999999" /><path d="M 25.521815274538284 56.99999999999999 a86.0,86.0 0 0,1 29.574782752854787,-30.34633250058573" fill="none" id="id119" stroke="none" /><text fill="#e1ed5e" style="font-size:6.75px; font-family:Arial;" text-anchor="middle"><textPath startOffset="21.40746469413373" xlink:href="#id119">November</textPath></text><line stroke="#e1ed5e" stroke-width="0.3" x1="56.869717070023135" x2="54.33264160355391" y1="26.7553504044142" y2="22.446841604673864" /><path d="M 56.362301976729285 25.89364864446614 a86.0,86.0 0 0,1 42.16139366436587,-11.88097634709845" fill="none" id="id120" stroke="none" /><text fill="#e1ed5e" style="font-size:6.75px; font-family:Arial;" text-anchor="middle"><textPath startOffset="22.145653131862474" xlink:href="#id120">December</textPath></text></svg>