<?xml version="1.0" encoding="utf-8" ?>
<svg baseProfile="full" height="200mm" version="1.1" viewBox="0,0,200,200" width="200mm" xmlns="http://www.w3.org/2000/svg" xmlns:ev="http://www.w3.org/2001/xml-events" xmlns:xlink="http://www.w3.org/1999/xlink"><defs /><rect fill="#1a1a1a" height="200" width="200" x="0" y="0" /><text alignment-baseline="middle" fill="#e1ed5e" style="dominant-baseline: central; font-size:9.0px; font-family:Arial;" text-anchor="middle" x="100.0" y="100.0">2025</text><line stroke="#e1ed5e" stroke-width="0.3" x1="100.0" x2="100.0" y1="15.0" y2="10.0" /><path d="M 100.0 14.0 a86.0,86.0 0 0,1 42.46469731375804,11.215312516191453" fill="none" id="id121" stroke="none" /><text fill="#e1ed5e" style="font-size:6.75px; font-family:Arial;" text-anchor="middle"><textPath startOffset="22.20632615414155" xlink:href="#id121">January</textPath></text><path d="M 100.0 79.0 l 0.0 -17.036626261041974 a38.036626261041974,38.036626261041974 0 0,0 0.6547379947976901,0.005635536629385809 l -0.2932575155251617 17.034102101021148" fill="#ff900d" stroke="none" /><path d="M 101.44485096284872 79.0497635885617 l 1.3295491630679344 -19.27836849828756 a40.32416085973155,40.32416085973155 0 0,0 0.6920582466465877,0.05371703940577005 l -1.6611975990768633 19.252626196693324" fill="#ffb110" stroke="none" /><path d="M 102.52436894288641 79.15227682838746 l 2.368855688157041 -19.563403265344324 a40.70629910951823,40.70629910951823 0 0,0 0.6948861279864983,0.09021616277805654 l -2.705256544651385 19.51972877940213" fill="#ffb711" stroke="none" /><path d="M 103.95276090670814 79.375362276772 l 3.7076735199373365 -19.34582560127502 a40.69791387749963,40.69791387749963 0 0,0 0.6868908448952333,0.1377838415524146 l -4.040130774299695 19.279137803645398" fill="#ffb710" stroke="none" /><path d="M 109.41281617654863 81.2277094730956 l 5.891962665277729 -11.750535955629703 a34.14497315682208,34.14497315682208 0 0,0 0.5231327149890936,0.26796889520230016 l -6.093355867855578 11.647374535114903" fill="#ff5407" stroke="none" /><line stroke="#e1ed5e" stroke-width="0.3" x1="143.23703022742887" x2="145.7803849466894" y1="26.81831364943548" y2="22.513508569990506" /><path d="M 143.74570117128098 25.957352633546492 a86.0,86.0 0 0,1 28.547481713284135,27.462654790039103" fill="none" id="id122" stroke="none" /><text fill="#e1ed5e" style="font-size:6.75px; font-family:Arial;" text-anchor="middle"><textPath startOffset="19.985693538727396" xlink:href="#id122">February</textPath></text><path d="M 111.2981086023043 82.29822771554956 l 10.601074202223241 -16.60966521954342 a40.704409479767556,40.704409479767556 0 0,0 0.5873703937308812,0.3820420428530139 l -10.885411621738402 16.42472425253088" fill="#ffb711" stroke="none" /><path d="M 111.90073688211348 82.69761687909136 l 11.17244663387065 -16.24352794049891 a40.71486149432596,40.71486149432596 0 0,0 0.5740191735540275,0.402137114223343 l -11.450396947008327 16.04880598351163" fill="#ffb711" stroke="none" /><path d="M 113.06298171725822 83.55741782278167 l 12.317941742103779 -15.504788549244019 a40.80227655393771,40.80227655393771 0 0,0 0.5461610128639827,0.44162422278346675 l -12.583006153532253 15.290458229196421" fill="#ffb811" stroke="none" /><path d="M 113.34407831869373 83.78471172551755 l 12.523007087385425 -15.21754932304832 a40.70785411733388,40.70785411733388 0 0,0 0.5372321407231831,0.4499164678864018 l -12.783096765067725 14.9997316977681" fill="#ffb711" stroke="none" /><path d="M 114.42810811169701 84.74124197986012 l 13.547124605534918 -14.327054844907666 a40.71773530623844,40.71773530623844 0 0,0 0.5051263014013979,0.4859311017371007 l -13.791734150548734 14.091740656408264" fill="#ffb711" stroke="none" /><path d="M 114.94478906791727 85.2469230424477 l 14.021975038709959 -13.842100808706482 a40.703287512103095,40.703287512103095 0 0,0 0.48792724055063424,0.5028519114027358 l -14.258166542963703 13.598684701753632" fill="#ffb711" stroke="none" /><path d="M 116.60985879189232 87.15038557335679 l 15.581240492639646 -12.053861211448021 a40.69950825260175,40.69950825260175 0 0,0 0.42390293694720244,0.557806575678776 l -15.786419369810961 11.783869859888211" fill="#ffb710" stroke="none" /><path d="M 117.04232023915458 87.72973835380427 l 15.987447533719394 -11.510766230226356 a40.70015781282855,40.70015781282855 0 0,0 0.40445758607274845,0.5720765723171863 l -16.183217739596024 11.233863157577376" fill="#ffb710" stroke="none" /><path d="M 117.45458315368197 88.32363383020206 l 16.400565580111305 -10.971273700384433 a40.731887845725225,40.731887845725225 0 0,0 0.3848258855626442,0.586116225098357 l -16.586988101031874 10.687339411308402" fill="#ffb711" stroke="none" /><line stroke="#e1ed5e" stroke-width="0.3" x1="172.23445277983987" x2="176.4835382374775" y1="55.19839476539836" y2="52.563006222186495" /><path d="M 173.08426987136738 54.67131705675599 a86.0,86.0 0 0,1 12.851231095245387,41.99856678651699" fill="none" id="id123" stroke="none" /><text fill="#e1ed5e" style="font-size:6.75px; font-family:Arial;" text-anchor="middle"><textPath startOffset="22.20632615414155" xlink:href="#id123">March</textPath></text><path d="M 117.84615892207809 88.93136811851018 l 35.30639219782727 -21.897903073013126 a62.54587210568429,62.54587210568429 0 0,0 0.5595895833842108,0.9198181409096937 l -35.6780975794977 21.286917158896348" fill="#32ff2f" stroke="none" /><path d="M 118.03404312379186 89.2402003453031 l 6.77760119633724 -4.043776013589197 a28.89227485739513,28.89227485739513 0 0,0 0.25114310751246116,0.4292849799732002 l -6.846203978320028 3.926511621262101" fill="#ff0000" stroke="none" /><path d="M 118.3937258080291 89.86733742301442 l 17.25999774396392 -9.508118966456335 a40.7056298656482,40.7056298656482 0 0,0 0.33280128400679837,0.6166302355091859 l -17.42110712718918 9.20960774761469" fill="#ffb711" stroke="none" /><path d="M 118.73160827565052 90.50648371742162 l 17.576053486166344 -8.907860312843006 a40.70450789798374,40.70450789798374 0 0,0 0.31137007721285737,0.6277030756014667 l -17.726783576332608 8.60399764874259" fill="#ffb711" stroke="none" /><path d="M 119.196687751892 91.48605970444005 l 56.25679058531515 -24.950499922362148 a82.5414814034875,82.5414814034875 0 0,0 0.5648560810013693,1.3037657137440868 l -56.6779373761592 23.97843506403146" fill="#4be1ff" stroke="none" /><path d="M 120.08093135843002 93.85539295169968 l 60.24279407529006 -18.433821144900946 a84.0,84.0 0 0,0 0.41117641155319085,1.3862824530138804 l -60.551176383954946 17.394109305140535" fill="#4dd2ff" stroke="none" /><path d="M 120.37134235888165 94.90015583598534 l 11.481343435840586 -2.8742859103141574 a32.83565657603963,32.83565657603963 0 0,0 0.13254222188325188,0.5494730785228698 l -11.529118457984657 2.6762276001318814" fill="#ff4006" stroke="none" /><line stroke="#e1ed5e" stroke-width="0.3" x1="184.98032266829074" x2="189.97916517819016" y1="98.17113171792111" y2="98.06355123074" /><path d="M 185.9800911702706 98.14961562048488 a86.0,86.0 0 0,1 -9.607161424134198,41.387399972396054" fill="none" id="id124" stroke="none" /><text fill="#e1ed5e" style="font-size:6.75px; font-family:Arial;" text-anchor="middle"><textPath startOffset="21.466115282336823" xlink:href="#id124">April</textPath></text><line stroke="#e1ed5e" stroke-width="0.3" x1="174.80103733775053" x2="179.2010983576182" y1="140.37084112569926" y2="142.7455964860345" /><path d="M 175.68104954172406 140.8457921977663 a86.0,86.0 0 0,1 -30.038265399797805,32.042727171017184" fill="none" id="id125" stroke="none" /><text fill="#e1ed5e" style="font-size:6.75px; font-family:Arial;" text-anchor="middle"><textPath startOffset="22.206326154141568" xlink:href="#id125">May</textPath></text><line stroke="#e1ed5e" stroke-width="0.3" x1="143.8653032363475" x2="146.44561519142675" y1="172.8068346515853" y2="177.08958963109032" /><path d="M 144.38136562736335 173.6633856474863 a86.0,86.0 0 0,1 -40.68145358897372,12.25698825130547" fill="none" id="id126" stroke="none" /><text fill="#e1ed5e" style="font-size:6.75px; font-family:Arial;" text-anchor="middle"><textPath startOffset="21.466115282336833" xlink:href="#id126">June</textPath></text><line stroke="#e1ed5e" stroke-width="0.3" x1="102.19456741930631" x2="102.32365962044197" y1="184.97166512339345" y2="189.96999836594603" /><path d="M 102.22038585953345 185.97133177190398 a86.0,86.0 0 0,1 -42.740103519485714,-10.115201625700543" fill="none" id="id127" stroke="none" /><text fill="#e1ed5e" style="font-size:6.75px; font-family:Arial;" text-anchor="middle"><textPath startOffset="22.20632615414155" xlink:href="#id127">July</textPath></text><line stroke="#e1ed5e" stroke-width="0.3" x1="58.666819895761336" x2="56.23545636021788" y1="174.27360380694188" y2="178.64263932499728" /><path d="M 58.180547188652646 175.14741091055294 a86.0,86.0 0 0,1 -31.652253787137756,-30.449443065178592" fill="none" id="id128" stroke="none" /><text fill="#e1ed5e" style="font-size:6.75px; font-family:Arial;" text-anchor="middle"><textPath startOffset="22.20632615414155" xlink:href="#id128">August</textPath></text><line stroke="#e1ed5e" stroke-width="0.3" x1="26.63291911575756" x2="22.317208475507996" y1="142.92168965132927" y2="145.44649492493687" /><path d="M 25.769776987707644 143.4266507060508 a86.0,86.0 0 0,1 -11.730757126820373,-40.83630448921669" fill="none" id="id129" stroke="none" /><text fill="#e1ed5e" style="font-size:6.75px; font-family:Arial;" text-anchor="middle"><textPath startOffset="21.46611528233685" xlink:href="#id129">September</textPath></text><line stroke="#e1ed5e" stroke-width="0.3" x1="15.007084014347285" x2="10.007500721073583" y1="101.09737516637583" y2="101.16192664675087" /><path d="M 14.007167355692545 101.11028546245083 a86.0,86.0 0 0,1 10.666146001902534,-42.60595125391555" fill="none" id="id130" stroke="none" /><text fill="#e1ed5e" style="font-size:6.75px; font-family:Arial;" text-anchor="middle"><textPath startOffset="22.20632615414155" xlink:href="#id130">October</textPath></text><line stroke="#e1ed5e" stroke-width="0.3" x1="26.266209847984243" x2="21.928928074336255" y1="57.711370442889674" y2="55.22380399835377" /><path d="M 25.398753493254645 57.213857153982495 a86.0,86.0 0 0,1 29.58750427330803,-30.492523968695096" fill="none" id="id131" stroke="none" /><text fill="#e1ed5e" style="font-size:6.75px; font-family:Arial;" text-anchor="middle"><textPath startOffset="21.46611528233685" xlink:href="#id131">November</textPath></text><line stroke="#e1ed5e" stroke-width="0.3" x1="56.762969772571076" x2="54.21961505331055" y1="26.818313649435495" y2="22.513508569990535" /><path d="M 56.25429882871897 25.957352633546506 a86.0,86.0 0 0,1 42.265352541879196,-11.944610805530505" fill="none" id="id132" stroke="none" /><text fill="#e1ed5e" style="font-size:6.75px; font-family:Arial;" text-anchor="middle"><textPath startOffset="22.20632615414155" xlink:href="#id132">December</textPath></text></svg>