<?xml version="1.0" encoding="utf-8" ?>
<svg baseProfile="full" height="200mm" version="1.1" viewBox="0,0,200,200" width="200mm" xmlns="http://www.w3.org/2000/svg" xmlns:ev="http://www.w3.org/2001/xml-events" xmlns:xlink="http://www.w3.org/1999/xlink"><defs /><rect fill="#1a1a1a" height="200" width="200" x="0" y="0" /><text alignment-baseline="middle" fill="#e1ed5e" style="dominant-baseline: central; font-size:9.0px; font-family:Arial;" text-anchor="middle" x="100.0" y="100.0">2023</text><line stroke="#e1ed5e" stroke-width="0.3" x1="100.0" x2="100.0" y1="15.0" y2="10.0" /><path d="M 100.0 14.0 a86.0,86.0 0 0,1 42.46469731375804,11.215312516191453" fill="none" id="id97" stroke="none" /><text fill="#e1ed5e" style="font-size:6.75px; font-family:Arial;" text-anchor="middle"><textPath startOffset="22.20632615414155" xlink:href="#id97">January</textPath></text><line stroke="#e1ed5e" stroke-width="0.3" x1="143.23703022742887" x2="145.7803849466894" y1="26.81831364943548" y2="22.513508569990506" /><path d="M 143.74570117128098 25.957352633546492 a86.0,86.0 0 0,1 28.547481713284135,27.462654790039103" fill="none" id="id98" stroke="none" /><text fill="#e1ed5e" style="font-size:6.75px; font-family:Arial;" text-anchor="middle"><textPath startOffset="19.985693538727396" xlink:href="#id98">February</textPath></text><line stroke="#e1ed5e" stroke-width="0.3" x1="172.23445277983987" x2="176.4835382374775" y1="55.19839476539836" y2="52.563006222186495" /><path d="M 173.08426987136738 54.67131705675599 a86.0,86.0 0 0,1 12.851231095245387,41.99856678651699" fill="none" id="id99" stroke="none" /><text fill="#e1ed5e" style="font-size:6.75px; font-family:Arial;" text-anchor="middle"><textPath startOffset="22.20632615414155" xlink:href="#id99">March</textPath></text><path d="M 118.73160827565052 90.50648371742162 l 6.171772231998012 -3.127965272101202 a27.91917185992174,27.91917185992174 0 0,0 0.2135683526633048,0.430540766851695 l -6.224700597614725 3.021264916750557" fill="#ff0f01" stroke="none" /><path d="M 119.196687751892 91.48605970444005 l 6.119836116838288 -2.7142140347746855 a27.694725679482783,27.694725679482783 0 0,0 0.189523303261912,0.43744591420589607 l -6.16565012994288 2.6084689759821864" fill="#ff0c01" stroke="none" /><path d="M 119.85752413597 93.16781622104841 l 5.626725512492669 -1.9359323202548686 a26.950451574590225,26.950451574590225 0 0,0 0.14715293864835124,0.4399685565790097 l -5.659215744912791 1.838790660753545" fill="#ff0000" stroke="none" /><path d="M 120.53481517161879 95.60439243477599 l 5.816418038469023 -1.2450412101948525 a26.94818009254186,26.94818009254186 0 0,0 0.09319027676808828,0.45442888537436166 l -5.836987611152108 1.144736668657079" fill="#ff0000" stroke="none" /><path d="M 120.87857604477298 97.74499172005257 l 7.392134318788419 -0.7983937247255255 a28.435124903234016,28.435124903234016 0 0,0 0.048370685387064676,0.4870862007223315 l -7.404782129857713 0.6710319932987591" fill="#ff1702" stroke="none" /><path d="M 120.91429891909075 98.10471618934814 l 8.881282145807155 -0.8048345456808428 a29.917675212708424,29.917675212708424 0 0,0 0.04206356207504398,0.5132820004112834 l -8.893820191701694 0.6518386280617906" fill="#ff2f04" stroke="none" /><path d="M 120.96714384426684 98.82574320788733 l 8.907458217775948 -0.4988587568422317 a29.921416477258667,29.921416477258667 0 0,0 0.02437368916517622,0.5144900554307463 l -8.91472551517462 0.34545759478848564" fill="#ff2f04" stroke="none" /><line stroke="#e1ed5e" stroke-width="0.3" x1="184.98032266829074" x2="189.97916517819016" y1="98.17113171792111" y2="98.06355123074" /><path d="M 185.9800911702706 98.14961562048488 a86.0,86.0 0 0,1 -9.607161424134198,41.387399972396054" fill="none" id="id100" stroke="none" /><text fill="#e1ed5e" style="font-size:6.75px; font-family:Arial;" text-anchor="middle"><textPath startOffset="21.466115282336823" xlink:href="#id100">April</textPath></text><path d="M 120.99513854157772 99.54816195383933 l 14.860870232674685 -0.3198219700661411 a35.86431129130891,35.86431129130891 0 0,0 0.007970404072598688,0.617316579116234 l -14.864173643865 0.06396913288944428" fill="#ff880c" stroke="none" /><path d="M 120.9764740272857 100.99374915477107 l 11.879592398020323 0.5627892890483573 a32.89291584629143,32.89291584629143 0 0,0 -0.031661231390617245,0.565332555291682 l -11.868144815742177 -0.7671935606754627" fill="#ff5c08" stroke="none" /><path d="M 120.95626037817324 101.35467743843564 l 11.865611388247089 0.7670297920923485 a32.89037713106091,32.89037713106091 0 0,0 -0.0413846166966856,0.564660214595226 l -11.850650212886066 -0.9711631431843446" fill="#ff5c08" stroke="none" /><path d="M 120.8583938346157 102.4346265915055 l 11.82723036039637 1.3804940959306038 a32.90752459358287,32.90752459358287 0 0,0 -0.07051375910159317,0.562064039146147 l -11.801715092047928 -1.5838758893641458" fill="#ff5c08" stroke="none" /><path d="M 120.81339534386255 102.79330883721812 l 11.7931219030435 1.5827226209814822 a32.89885436145055,32.89885436145055 0 0,0 -0.08015719542239244,0.5606192380905781 l -11.764130656604507 -1.7854873310524695" fill="#ff5c08" stroke="none" /><path d="M 120.49622156327973 104.57218783832717 l 21.745068219968395 4.850773892738151 a43.279542168759875,43.279542168759875 0 0,0 -0.16845929922186698,0.7257182520583246 l -21.658348354815974 -5.224360802145041" fill="#ffef16" stroke="none" /><path d="M 120.32669344350535 105.2749913415812 l 14.385788529284932 3.7332638554669844 a35.86230704244271,35.86230704244271 0 0,0 -0.16020533383206573,0.5961836450361494 l -14.319395119111089 -3.980338433678682" fill="#ff880c" stroke="none" /><line stroke="#e1ed5e" stroke-width="0.3" x1="174.80103733775053" x2="179.2010983576182" y1="140.37084112569926" y2="142.7455964860345" /><path d="M 175.68104954172406 140.8457921977663 a86.0,86.0 0 0,1 -30.038265399797805,32.042727171017184" fill="none" id="id101" stroke="none" /><text fill="#e1ed5e" style="font-size:6.75px; font-family:Arial;" text-anchor="middle"><textPath startOffset="22.206326154141568" xlink:href="#id101">May</textPath></text><path d="M 117.94076556474637 110.91462005526583 l 12.703907978306376 7.7286740245209 a35.87016072874064,35.87016072874064 0 0,0 -0.32545399998184216,0.5247354747803057 l -12.56898933865657 -7.946205830666479" fill="#ff880c" stroke="none" /><path d="M 117.75023020441432 111.22182372390056 l 5.030215927168278 3.1801388363854124 a26.95116419640932,26.95116419640932 0 0,0 -0.25128127980873866,0.3899941264885278 l -4.974729783982489 -3.266254562795393" fill="#ff0000" stroke="none" /><path d="M 117.35343817320211 111.8261652097733 l 15.958337041488063 10.875420100745279 a40.311739525413664,40.311739525413664 0 0,0 -0.3957059722135729,0.5700439661196417 l -15.768770162112354 -11.14850532905194" fill="#ffc712" stroke="none" /><path d="M 116.93607887273984 112.41649034213515 l 11.98584128172446 8.787280906942344 a35.86192103895737,35.86192103895737 0 0,0 -0.3692731609211795,0.49470174481142265 l -11.832806854108188 -8.992295531263082" fill="#ff880c" stroke="none" /><path d="M 116.498646956653 112.99209946851258 l 11.689049836841308 9.204712275596878 a35.878192570493354,35.878192570493354 0 0,0 -0.38625793752548404,0.48191616693598976 l -11.52887398726097 -9.404556276111117" fill="#ff880c" stroke="none" /><path d="M 116.0416608686014 113.55231037782055 l 23.941580188086846 20.226317480598933 a52.34171630157759,52.34171630157759 0 0,0 -0.5873675003994302,0.6832411003548947 l -23.589870178116637 -20.635435680115354" fill="#9cff22" stroke="none" /><path d="M 115.32070863581623 114.36230785411682 l 8.721570321051068 8.175984603573161 a32.954602172506796,32.954602172506796 0 0,0 -0.3915217782834757,0.4105090192467823 l -8.579541991388627 -8.32490073940245" fill="#ff5d08" stroke="none" /><path d="M 114.81725581225074 114.88116024355365 l 7.892927093708133 7.926968013540384 a32.186381005235084,32.186381005235084 0 0,0 -0.39596919359777694,0.38753919640326545 l -7.755307947734562 -8.061657312866222" fill="#ff5107" stroke="none" /><path d="M 114.29624159901734 115.38237550388516 l 26.296950462369146 28.294818873726424 a59.62805170749985,59.62805170749985 0 0,0 -0.7578454221497544,0.6922738247922722 l -25.80600549075253 -28.74328546510528" fill="#49ff2c" stroke="none" /><path d="M 113.75828350139079 115.86535959552629 l 5.848677203386219 6.744399981327565 a29.92714714438722,29.92714714438722 0 0,0 -0.39209482699902665,0.3341517178841804 l -5.731716899810145 -6.844076089434692" fill="#ff2f04" stroke="none" /><path d="M 113.48314897796784 116.09983520530334 l 9.545588485165894 11.398108987739956 a35.86725085631268,35.86725085631268 0 0,0 -0.47674386290370835,0.3923277426128129 l -9.347974493717494 -11.560731849209947" fill="#ff880c" stroke="none" /><path d="M 112.04921762599082 117.19931262002967 l 27.267522724316112 38.922248918274555 a68.523249640331,68.523249640331 0 0,0 -0.971865626125718,0.6684580395931813 l -26.59350021356751 -39.38584774723283" fill="#38ff82" stroke="none" /><path d="M 111.1453310114006 117.79835938074945 l 7.890362813697827 12.600389603417195 a35.86699846941842,35.86699846941842 0 0,0 -0.5260848364084247,0.3231642747934702 l -7.672298777357094 -12.734342345039042" fill="#ff880c" stroke="none" /><line stroke="#e1ed5e" stroke-width="0.3" x1="143.8653032363475" x2="146.44561519142675" y1="172.8068346515853" y2="177.08958963109032" /><path d="M 144.38136562736335 173.6633856474863 a86.0,86.0 0 0,1 -40.68145358897372,12.25698825130547" fill="none" id="id102" stroke="none" /><text fill="#e1ed5e" style="font-size:6.75px; font-family:Arial;" text-anchor="middle"><textPath startOffset="21.466115282336833" xlink:href="#id102">June</textPath></text><path d="M 110.8373102113329 117.98757091392108 l 7.67406094784805 12.737267163656428 a35.87041311563491,35.87041311563491 0 0,0 -0.5316202400509761,0.3140906083864743 l -7.453672836768692 -12.867476344336652" fill="#ff880c" stroke="none" /><path d="M 109.89434966115114 118.52300852407294 l 14.772298774123195 27.654916743805607 a52.35307371181941,52.35307371181941 0 0,0 -0.7985317043141298,0.41775404675807865 l -14.29407616728257 -27.905100209508404" fill="#9cff22" stroke="none" /><path d="M 108.92500713936063 119.00905698771935 l 3.797195410024724 8.087512179607874 a29.93457028833612,29.93457028833612 0 0,0 -0.46830782726991055,0.2149771544511687 l -3.657419586987394 -8.151676404393118" fill="#ff2f04" stroke="none" /><path d="M 107.59598834532513 119.57807347666477 l 22.787965035975386 58.73422042999433 a84.0,84.0 0 0,0 -1.3525191169589008,0.5114069995734765 l -21.77357569825621 -59.11777567967444" fill="#4dd2ff" stroke="none" /><path d="M 106.2309692047433 120.05430185196036 l 3.532397164048521 11.368979152538778 a32.905104648655524,32.905104648655524 0 0,0 -0.5423466755982037,0.16340460442011975 l -3.3361755140100713 -11.428099126064621" fill="#ff5c08" stroke="none" /><path d="M 105.18746579009965 120.34920634021253 l 2.9390315689468287 11.529128529587593 a32.897844813873505,32.897844813873505 0 0,0 -0.549937160044661,0.13516117403434866 l -2.7401411241589564 -11.578010961935972" fill="#ff5c08" stroke="none" /><path d="M 104.83641907484287 120.43548508189849 l 2.7402129270289346 11.578314353030823 a32.89815658591935,32.89815658591935 0 0,0 -0.5521874913645278,0.12567607526644117 l -2.5405052862715447 -11.623767161874948" fill="#ff5c08" stroke="none" /><line stroke="#e1ed5e" stroke-width="0.3" x1="102.19456741930631" x2="102.32365962044197" y1="184.97166512339345" y2="189.96999836594603" /><path d="M 102.22038585953345 185.97133177190398 a86.0,86.0 0 0,1 -42.740103519485714,-10.115201625700543" fill="none" id="id103" stroke="none" /><text fill="#e1ed5e" style="font-size:6.75px; font-family:Arial;" text-anchor="middle"><textPath startOffset="22.20632615414155" xlink:href="#id103">July</textPath></text><line stroke="#e1ed5e" stroke-width="0.3" x1="58.666819895761336" x2="56.23545636021788" y1="174.27360380694188" y2="178.64263932499728" /><path d="M 58.180547188652646 175.14741091055294 a86.0,86.0 0 0,1 -31.652253787137756,-30.449443065178592" fill="none" id="id104" stroke="none" /><text fill="#e1ed5e" style="font-size:6.75px; font-family:Arial;" text-anchor="middle"><textPath startOffset="22.20632615414155" xlink:href="#id104">August</textPath></text><line stroke="#e1ed5e" stroke-width="0.3" x1="26.63291911575756" x2="22.317208475507996" y1="142.92168965132927" y2="145.44649492493687" /><path d="M 25.769776987707644 143.4266507060508 a86.0,86.0 0 0,1 -11.730757126820373,-40.83630448921669" fill="none" id="id105" stroke="none" /><text fill="#e1ed5e" style="font-size:6.75px; font-family:Arial;" text-anchor="middle"><textPath startOffset="21.46611528233685" xlink:href="#id105">September</textPath></text><line stroke="#e1ed5e" stroke-width="0.3" x1="15.007084014347285" x2="10.007500721073583" y1="101.09737516637583" y2="101.16192664675087" /><path d="M 14.007167355692545 101.11028546245083 a86.0,86.0 0 0,1 10.666146001902534,-42.60595125391555" fill="none" id="id106" stroke="none" /><text fill="#e1ed5e" style="font-size:6.75px; font-family:Arial;" text-anchor="middle"><textPath startOffset="22.20632615414155" xlink:href="#id106">October</textPath></text><line stroke="#e1ed5e" stroke-width="0.3" x1="26.266209847984243" x2="21.928928074336255" y1="57.711370442889674" y2="55.22380399835377" /><path d="M 25.398753493254645 57.213857153982495 a86.0,86.0 0 0,1 29.58750427330803,-30.492523968695096" fill="none" id="id107" stroke="none" /><text fill="#e1ed5e" style="font-size:6.75px; font-family:Arial;" text-anchor="middle"><textPath startOffset="21.46611528233685" xlink:href="#id107">November</textPath></text><line stroke="#e1ed5e" stroke-width="0.3" x1="56.762969772571076" x2="54.21961505331055" y1="26.818313649435495" y2="22.513508569990535" /><path d="M 56.25429882871897 25.957352633546506 a86.0,86.0 0 0,1 42.265352541879196,-11.944610805530505" fill="none" id="id108" stroke="none" /><text fill="#e1ed5e" style="font-size:6.75px; font-family:Arial;" text-anchor="middle"><textPath startOffset="22.20632615414155" xlink:href="#id108">December</textPath></text></svg>