<?xml version="1.0" encoding="utf-8" ?>
<svg baseProfile="full" height="200mm" version="1.1" viewBox="0,0,200,200" width="200mm" xmlns="http://www.w3.org/2000/svg" xmlns:ev="http://www.w3.org/2001/xml-events" xmlns:xlink="http://www.w3.org/1999/xlink"><defs /><rect fill="#1a1a1a" height="200" width="200" x="0" y="0" /><text alignment-baseline="middle" fill="#e1ed5e" style="dominant-baseline: central; font-size:9.0px; font-family:Arial;" text-anchor="middle" x="100.0" y="100.0">2020</text><line stroke="#e1ed5e" stroke-width="0.3" x1="100.0" x2="100.0" y1="15.0" y2="10.0" /><path d="M 100.0 14.0 a86.0,86.0 0 0,1 42.35913384403234,11.155469271406648" fill="none" id="id61" stroke="none" /><text fill="#e1ed5e" style="font-size:6.75px; font-family:Arial;" text-anchor="middle"><textPath startOffset="22.145653131862478" xlink:href="#id61">January</textPath></text><path d="M 100.36049292484886 79.00309439819443 l 0.14165105686573273 -8.250463918682456 a29.251679822641705,29.251679822641705 0 0,0 0.5019959975783623,0.01292963619522585 l -0.2832603685148364 8.246816565137184" fill="#ff3304" stroke="none" /><path d="M 102.51750503828377 79.15144685158666 l 1.2566281664971832 -10.40668388686522 a31.482279516878677,31.482279516878677 0 0,0 0.5359815783198751,0.0693935460385357 l -1.4350875667078502 10.383578744626288" fill="#ff5507" stroke="none" /><line stroke="#e1ed5e" stroke-width="0.3" x1="143.13028292997686" x2="145.6673583964461" y1="26.7553504044142" y2="22.446841604673864" /><path d="M 143.63769802327073 25.89364864446614 a86.0,86.0 0 0,1 29.32050498858742,28.57503671076993" fill="none" id="id62" stroke="none" /><text fill="#e1ed5e" style="font-size:6.75px; font-family:Arial;" text-anchor="middle"><textPath startOffset="20.669276256404974" xlink:href="#id62">February</textPath></text><path d="M 113.31354834802062 83.75963576809568 l 5.867598161940083 -7.157515699451134 a30.255200655733624,30.255200655733624 0 0,0 0.39882933650423813,0.3327176173687274 l -5.989601832606214 7.055735898170537" fill="#ff4206" stroke="none" /><path d="M 117.01052211995028 87.68569379921539 l 6.761179774364292 -4.894572749323525 a29.346879317427156,29.346879317427156 0 0,0 0.2919104759368527,0.4106086413556164 l -6.844205348831106 4.777786881258405" fill="#ff3505" stroke="none" /><line stroke="#e1ed5e" stroke-width="0.3" x1="172.87174338648825" x2="177.1583165268699" y1="56.24261187166439" y2="53.66864786411523" /><path d="M 173.72905801456457 55.72781907015455 a86.0,86.0 0 0,1 12.242430191666344,42.057860355516425" fill="none" id="id63" stroke="none" /><text fill="#e1ed5e" style="font-size:6.75px; font-family:Arial;" text-anchor="middle"><textPath startOffset="22.145653131862474" xlink:href="#id63">March</textPath></text><path d="M 118.36410011445183 89.81374322990088 l 7.8600431844658285 -4.359833457781517 a29.988238239013185,29.988238239013185 0 0,0 0.24583879379472232,0.452315691181881 l -7.933727327875892 4.224262933125033" fill="#ff3e05" stroke="none" /><path d="M 119.31412917781788 91.75594674310238 l 13.763659097397385 -5.874887630918654 a35.96504648924589,35.96504648924589 0 0,0 0.2374963070524902,0.5699046794311494 l -13.86248124898636 5.637750442046227" fill="#ff950d" stroke="none" /><path d="M 119.94978838288452 93.4421083053983 l 11.37509646417138 -3.7392201458979417 a32.97391276353278,32.97391276353278 0 0,0 0.17214782370313542,0.5392506058740938 l -11.437609003651772 3.543400506332461" fill="#ff6a09" stroke="none" /><path d="M 120.16314734710363 94.1308016681162 l 13.994519754859073 -4.073600742323216 a35.57534926432287,35.57534926432287 0 0,0 0.16564815695423324,0.5878268713858479 l -14.06238640388789 3.8327659470343547" fill="#ff900d" stroke="none" /><path d="M 120.35273937422433 94.82641323984039 l 13.789735604504257 -3.5052968663233712 a35.22827867885602,35.22827867885602 0 0,0 0.14395360619076364,0.5873798375468701 l -13.847876737211312 3.268061204168406" fill="#ff8b0c" stroke="none" /><path d="M 120.43855184770803 95.1765574152323 l 13.861400040121836 -3.2712526668332447 a35.24217346764718,35.24217346764718 0 0,0 0.1339020313247065,0.5899970565995122 l -13.915512933004209 3.0328212762947064" fill="#ff8b0c" stroke="none" /><path d="M 120.65975698304385 96.23510406497455 l 13.696959936624797 -2.4960423701947922 a34.922533498588265,34.922533498588265 0 0,0 0.10241479043543424,0.5907012955601211 l -13.737789544552466 2.2605480417140784" fill="#ff870c" stroke="none" /><path d="M 120.77682067341334 96.94652285012252 l 14.07990757988241 -2.0692615459964228 a35.231150368250965,35.231150368250965 0 0,0 0.08280240279719182,0.59911693866968 l -14.113354499234813 1.8272562991266572" fill="#ff8b0c" stroke="none" /><path d="M 120.86939407059847 97.66154086499901 l 13.66290153328851 -1.5309566148904117 a34.748407415588694,34.748407415588694 0 0,0 0.061335253712771716,0.5933629408143027 l -13.687169179482947 1.2961891517931776" fill="#ff840c" stroke="none" /><path d="M 120.93736805541906 98.37931529534042 l 13.429113402252854 -1.0394983089833505 a34.469285189086555,34.469285189086555 0 0,0 0.04060159890712654,0.5903383372835521 l -13.444978962325047 0.8088165475454642" fill="#ff800b" stroke="none" /><path d="M 120.98066250479742 99.09900007780936 l 13.852885156762806 -0.5949024939276911 a34.86565310916657,34.86565310916657 0 0,0 0.02054635096596435,0.5981845903387252 l -13.861056194725618 0.35701163902484595" fill="#ff860c" stroke="none" /><line stroke="#e1ed5e" stroke-width="0.3" x1="184.99686870605535" x2="189.99668451229388" y1="99.2704041080226" y2="99.22748670261217" /><path d="M 185.99683186730306 99.26182062694052 a86.0,86.0 0 0,1 -10.086455211305974,41.156179273409016" fill="none" id="id64" stroke="none" /><text fill="#e1ed5e" style="font-size:6.75px; font-family:Arial;" text-anchor="middle"><textPath startOffset="21.40746469413373" xlink:href="#id64">April</textPath></text><path d="M 120.99922638620191 99.81974689727618 l 13.428586826949113 -0.11526826732742812 a34.42908153755736,34.42908153755736 0 0,0 0.0,0.5910427401025083 l -13.428586826949113 -0.1152682673274265" fill="#ff7f0b" stroke="none" /><path d="M 120.99303781780057 100.54070618675476 l 13.446593491751251 0.34633654999664365 a34.45105295277179,34.45105295277179 0 0,0 -0.020302026837085263,0.5910713599073225 l -13.438666777917321 -0.5771141744680768" fill="#ff800b" stroke="none" /><path d="M 120.9064616781168 101.97986365728391 l 13.54094844354632 1.2823418960748514 a34.601532468409886,34.601532468409886 0 0,0 -0.06107600119390028,0.5908549078691477 l -13.516940049870753 -1.5146013262269304" fill="#ff820c" stroke="none" /><path d="M 120.82617615685814 102.69636545807757 l 14.874371984395172 1.9257852486815064 a35.99851961875569,35.99851961875569 0 0,0 -0.08460592090859223,0.6121662973022034 l -14.839121546931368 -2.180839854183795" fill="#ff960d" stroke="none" /><path d="M 120.16314734710363 105.8691983318838 l 23.266370840943527 6.772501464076797 a45.232019894949524,45.232019894949524 0 0,0 -0.2234110265320572,0.7436626468267783 l -23.14668349440784 -7.170901714494298" fill="#ecff1a" stroke="none" /><path d="M 119.4528033332814 107.91128576633889 l 27.630986897265256 11.237281825403459 a50.82864294164901,50.82864294164901 0 0,0 -0.33564853015665247,0.8054342838189451 l -27.434012522572118 -11.709948618663683" fill="#a7ff21" stroke="none" /><path d="M 119.16976305983485 108.57439118712176 l 27.226590182130984 12.178107480221044 a50.826054293947884,50.826054293947884 0 0,0 -0.3630808444863127,0.7933971708624066 l -27.013524872789613 -12.64369363329814" fill="#a7ff21" stroke="none" /><line stroke="#e1ed5e" stroke-width="0.3" x1="174.33088141563837" x2="178.70328620479359" y1="141.23008692659167" y2="143.65538615756765" /><path d="M 175.20536237346943 141.71514677278685 a86.0,86.0 0 0,1 -30.301960400862466,31.631185727798858" fill="none" id="id65" stroke="none" /><text fill="#e1ed5e" style="font-size:6.75px; font-family:Arial;" text-anchor="middle"><textPath startOffset="22.145653131862474" xlink:href="#id65">May</textPath></text><path d="M 118.00360718960297 110.81064883170644 l 24.764032614515934 14.8700900565672 a49.8855827295076,49.8855827295076 0 0,0 -0.4471459419763583,0.730379291896257 l -24.50511870808417 -15.293006464588014" fill="#b3ff20" stroke="none" /><path d="M 117.81537515405839 111.11811171558189 l 20.286399302260474 12.66021354021582 a44.912737265620976,44.912737265620976 0 0,0 -0.41380095626439345,0.650563833759596 l -20.06608065437019 -13.006591048654087" fill="#f0ff19" stroke="none" /><path d="M 116.57777611688842 112.89097897827486 l 23.573394904518644 18.33081446015808 a50.86174318584108,50.86174318584108 0 0,0 -0.541879968893355,0.6846476388747882 l -23.25524850498373 -18.73278204294755" fill="#a7ff21" stroke="none" /><path d="M 116.35404254752997 113.17365903436017 l 23.27259022253197 18.74675130304864 a50.88401144565847,50.88401144565847 0 0,0 -0.5537953650382536,0.675540299479874 l -22.94734803825509 -19.14349388422701" fill="#a7ff21" stroke="none" /><path d="M 115.89218393027572 113.72728997021213 l 22.575991897378746 19.500604102000267 a50.832012511620135,50.832012511620135 0 0,0 -0.5760693606897307,0.6554611848709269 l -22.237911472730428 -19.885277564682486" fill="#a7ff21" stroke="none" /><path d="M 115.41159269507618 114.26474011684316 l 21.904135446420252 20.274140759452028 a50.84680775542333,50.84680775542333 0 0,0 -0.5984043766612747,0.6354847109510108 l -21.552875236022718 -20.647166930347534" fill="#a7ff21" stroke="none" /><path d="M 115.16444852881244 114.52719865689866 l 21.549205393480065 20.64365130420687 a50.84172569172353,50.84172569172353 0 0,0 -0.6091642493479882,0.6250561842723684 l -21.19165434298127 -21.010530180546976" fill="#a7ff21" stroke="none" /><path d="M 114.65682725009322 115.03919595460226 l 20.841642794791994 21.385361555974377 a50.8614762405587,50.8614762405587 0 0,0 -0.6305067464250066,0.6040112004355374 l -20.471463562501675 -21.739984886715494" fill="#a7ff21" stroke="none" /><path d="M 114.13192950727249 115.5334660781643 l 8.665373303295942 9.524763210296886 a33.87671575743206,33.87671575743206 0 0,0 -0.43351706192312167,0.38765362997051556 l -8.500591214549443 -9.672112370150789" fill="#ff780b" stroke="none" /><path d="M 113.59037401385872 116.0094264158162 l 19.309304740468345 22.746312431715555 a50.836956594155026,50.836956594155026 0 0,0 -0.6701416361123718,0.5590559872581529 l -18.91598877019408 -23.07443060288558" fill="#a7ff21" stroke="none" /><path d="M 113.31354834802062 116.24036423190432 l 18.931295220685413 23.09310198369097 a50.8611000795667,50.8611000795667 0 0,0 -0.6799626031534645,0.5477297410732602 l -18.532081847176695 -23.414680018557632" fill="#a7ff21" stroke="none" /><path d="M 113.03279911837588 116.46651593811092 l 18.520214575916306 23.399686108993297 a50.841978117031665,50.841978117031665 0 0,0 -0.6890057793895444,0.5357750614675121 l -18.11579885189153 -23.714162222081605" fill="#a7ff21" stroke="none" /><path d="M 112.45986205192187 116.90419585922612 l 17.70154325638361 24.01554310710181 a50.834391972800205,50.834391972800205 0 0,0 -0.7068860848643235,0.5117310119413623 l -17.286676161145316 -24.31587489041625" fill="#a7ff21" stroke="none" /><path d="M 111.27062007382361 117.71928675628689 l 33.81186022147083 53.157860268860695 a84.0,84.0 0 0,0 -1.2233434848411404,0.7634568126338093 l -32.89435260783998 -53.73045287833605" fill="#4dd2ff" stroke="none" /><line stroke="#e1ed5e" stroke-width="0.3" x1="143.1302829299769" x2="145.66735839644613" y1="173.24464959558577" y2="177.55315839532614" /><path d="M 143.63769802327073 174.10635135553383 a86.0,86.0 0 0,1 -40.68552437913181,11.842963189579606" fill="none" id="id66" stroke="none" /><text fill="#e1ed5e" style="font-size:6.75px; font-family:Arial;" text-anchor="middle"><textPath startOffset="21.407464694133747" xlink:href="#id66">June</textPath></text><path d="M 110.02825361518725 118.45085714620011 l 14.26492774177331 26.245860352566645 a50.87194920195941,50.87194920195941 0 0,0 -0.77085824756199,0.4104385980632971 l -13.812280678424766 -26.48686941835251" fill="#a7ff21" stroke="none" /><path d="M 109.06512990194946 118.94263497670748 l 5.586826653893785 11.674318970331734 a33.94227010542221,33.94227010542221 0 0,0 -0.527739726963911,0.24700883936006882 l -5.385598213058367 -11.768504041262336" fill="#ff780b" stroke="none" /><path d="M 108.73861861582097 119.09545874513695 l 12.416175723878334 27.13158471963083 a50.83763242961363,50.83763242961363 0 0,0 -0.7966658791970465,0.3563385145839467 l -11.94859644182566 -27.340726985124626" fill="#a7ff21" stroke="none" /><path d="M 107.06938296918513 119.77432235084164 l 4.41266383598955 12.343006100971893 a34.10806628523366,34.10806628523366 0 0,0 -0.5530285569918026,0.19237203966083283 l -4.200129506952725 -12.416936573201317" fill="#ff7b0b" stroke="none" /><path d="M 106.38641147887787 120.00534299687104 l 7.267117874659966 22.764143237887513 a44.89596659604424,44.89596659604424 0 0,0 -0.7362069830300233,0.22807880524690063 l -6.875270258758317 -22.885538630941056" fill="#f1ff19" stroke="none" /><path d="M 105.69591212413111 120.21278271476187 l 3.2633868918257836 11.580608815789788 a33.0316330790998,33.0316330790998 0 0,0 -0.5470960163053178,0.14911345207193677 l -3.0641094745857704 -11.634922762005866" fill="#ff6b09" stroke="none" /><path d="M 104.9986988182912 120.39639698878246 l 7.10910593409055 29.007578199437926 a50.866017146225374,50.866017146225374 0 0,0 -0.849869042091737,0.20056677986022356 l -6.610104738258934 -29.125341122944377" fill="#a7ff21" stroke="none" /><path d="M 104.64783097203109 120.47920084513623 l 6.607518636966555 29.11394628348244 a50.85433252871954,50.85433252871954 0 0,0 -0.8529908187791924,0.18590537884822828 l -6.106765401568227 -29.22308312046439" fill="#a7ff21" stroke="none" /><line stroke="#e1ed5e" stroke-width="0.3" x1="101.45913802915013" x2="101.54496967792366" y1="184.9874750549273" y2="189.98673829345242" /><path d="M 101.47630435890484 185.9873277026323 a86.0,86.0 0 0,1 -42.54439059252881,-10.42667462771756" fill="none" id="id67" stroke="none" /><text fill="#e1ed5e" style="font-size:6.75px; font-family:Arial;" text-anchor="middle"><textPath startOffset="22.145653131862474" xlink:href="#id67">July</textPath></text><path d="M 98.55909050195518 120.95050786540614 l -0.8869803258610909 12.896499272597099 a33.926965134422005,33.926965134422005 0 0,0 -0.580685865832896,-0.04494875852955143 l 1.108235186469223 -12.879372747072493" fill="#ff780b" stroke="none" /><path d="M 97.48249496171623 120.84855314841334 l -3.5808141284163737 29.654277761355235 a50.869690647374874,50.869690647374874 0 0,0 -0.8660496476186176,-0.11212746580221786 l 4.089341597925785 -29.588438699352622" fill="#a7ff21" stroke="none" /><path d="M 95.70440661134978 120.55596938700252 l -2.648699773339467 12.674987255540758 a33.948780344781866,33.948780344781866 0 0,0 -0.5694303022558916,-0.12410468405750344 l 2.8658924922144946 -12.627651113349536" fill="#ff790b" stroke="none" /><path d="M 95.35216902796893 120.47920084513623 l -5.286015488675182 23.29115957841597 a44.88346863949523,44.88346863949523 0 0,0 -0.7499126654391892,-0.1769773471373246 l 5.6850603078542585 -23.19698608763242" fill="#f1ff19" stroke="none" /><path d="M 90.6110303473126 118.78422872680471 l -5.5683420893000415 11.140414263088696 a33.454527834354074,33.454527834354074 0 0,0 -0.5114922951445883,-0.26117161042772 l 5.758761606158211 -11.043184700988139" fill="#ff710a" stroke="none" /><line stroke="#e1ed5e" stroke-width="0.3" x1="58.13341422392154" x2="55.67067388415222" y1="173.97424548756322" y2="178.32567169271397" /><path d="M 57.64086615596768 174.84453072859336 a86.0,86.0 0 0,1 -31.369924170532247,-30.572349798747897" fill="none" id="id68" stroke="none" /><text fill="#e1ed5e" style="font-size:6.75px; font-family:Arial;" text-anchor="middle"><textPath startOffset="22.145653131862474" xlink:href="#id68">August</textPath></text><path d="M 89.65649057296885 118.27599006163327 l -12.853888962639108 22.711590161131333 a47.09671989179968,47.09671989179968 0 0,0 -0.7001881280613714,-0.40425380421961604 l 13.241869558560879 -22.487589459635547" fill="#d5ff1c" stroke="none" /><line stroke="#e1ed5e" stroke-width="0.3" x1="26.387840678322732" x2="22.057713659400548" y1="142.50000000000003" y2="145.00000000000006" /><path d="M 25.521815274538298 143.00000000000003 a86.0,86.0 0 0,1 -11.493303480769221,-40.785679425670985" fill="none" id="id69" stroke="none" /><text fill="#e1ed5e" style="font-size:6.75px; font-family:Arial;" text-anchor="middle"><textPath startOffset="21.40746469413373" xlink:href="#id69">September</textPath></text><path d="M 79.94057633289273 106.21446072829308 l -11.954779012335143 3.7036210970209154 a33.51533261499938,33.51533261499938 0 0,0 -0.1655396969109576,-0.551027812148032 l 12.01659502924973 -3.49785568128216" fill="#ff720a" stroke="none" /><line stroke="#e1ed5e" stroke-width="0.3" x1="15.003131293944662" x2="10.003315487706104" y1="100.72959589197737" y2="100.7725132973878" /><path d="M 14.003168132696942 100.73817937305945 a86.0,86.0 0 0,1 10.791469493833604,-42.45332614584628" fill="none" id="id70" stroke="none" /><text fill="#e1ed5e" style="font-size:6.75px; font-family:Arial;" text-anchor="middle"><textPath startOffset="22.145653131862435" xlink:href="#id70">October</textPath></text><path d="M 79.34024301695615 96.23510406497455 l -6.332424373813432 -1.1539786650633546 a27.43671229817582,27.43671229817582 0 0,0 0.08841638327643987,-0.4626318785096653 l 6.311681698254834 1.2625131086063344" fill="#ff1802" stroke="none" /><path d="M 79.48165901384962 95.52812308129327 l -6.37809078209468 -1.3900752001888135 a27.527813652887243,27.527813652887243 0 0,0 0.10459145402690997,-0.46084924486096035 l 6.353288466510108 1.499358778988782" fill="#ff1902" stroke="none" /><path d="M 80.05021161711548 93.44210830539832 l -12.21358198580992 -4.014846991299198 a33.85653846444076,33.85653846444076 0 0,0 0.18623446513042305,-0.5505691044622695 l 12.142862099107132 4.223917770235628" fill="#ff770b" stroke="none" /><path d="M 80.16572619554312 93.10060997987247 l -24.425028401933854 -8.496292773762491 a46.86056850366527,46.86056850366527 0 0,0 0.2708090773928079,-0.7575011871957881 l 24.275579154497105 8.9143289173392" fill="#d8ff1c" stroke="none" /><path d="M 80.83023694016515 91.42560881287825 l -12.323169918031724 -5.511997159942219 a34.4997270164953,34.4997270164953 0 0,0 0.24645214336830207,-0.5385424107901582 l 12.226733309808374 5.722728552947048" fill="#ff800b" stroke="none" /><path d="M 81.1358732173502 90.77261029715801 l -11.489201758867518 -5.619944311504271 a33.79005594672571,33.79005594672571 0 0,0 0.2593468642892036,-0.5188674581553807 l 11.39103498136657 5.816343625823421" fill="#ff760a" stroke="none" /><path d="M 81.29705330413844 90.45014215332179 l -26.613697815770294 -13.589143734836968 a50.88233155018523,50.88233155018523 0 0,0 0.40388924291227213,-0.7745108780771345 l 26.376500503883083 14.04400085601859" fill="#a7ff21" stroke="none" /><line stroke="#e1ed5e" stroke-width="0.3" x1="26.387840678322718" x2="22.05771365940052" y1="57.49999999999999" y2="54.99999999999999" /><path d="M 25.521815274538284 56.99999999999999 a86.0,86.0 0 0,1 29.574782752854787,-30.34633250058573" fill="none" id="id71" stroke="none" /><text fill="#e1ed5e" style="font-size:6.75px; font-family:Arial;" text-anchor="middle"><textPath startOffset="21.40746469413373" xlink:href="#id71">November</textPath></text><path d="M 82.18462484594161 88.88188828441811 l -25.34037454406347 -15.814267881493626 a50.8701464787346,50.8701464787346 0 0,0 0.46868920800165126,-0.7368572821868559 l 25.065167644435927 16.246938838359153" fill="#a7ff21" stroke="none" /><path d="M 82.576782715395 88.27688183743585 l -24.92159944322951 -16.768364321050022 a51.037712309898716,51.037712309898716 0 0,0 0.4953337894392752,-0.722706802021542 l 24.630075916974924 17.1937058581416" fill="#a5ff21" stroke="none" /><path d="M 83.42222388311158 87.10902102172516 l -23.583300420642484 -18.338517049408953 a50.874291059399866,50.874291059399866 0 0,0 0.5420136536809343,-0.6848165452367572 l 23.26502033631999 18.74065353856039" fill="#a7ff21" stroke="none" /><path d="M 84.10781606972428 86.27271002978789 l -22.611208004547436 -19.531022936620325 a50.878547226659116,50.878547226659116 0 0,0 0.5765967296097669,-0.656061233894153 l 22.272600210979075 19.916296448325777" fill="#a7ff21" stroke="none" /><path d="M 85.34317274990677 84.96080404539775 l -20.855268567057173 -21.39934279868343 a50.880998966226805,50.880998966226805 0 0,0 0.6307487608365735,-0.6042430447672321 l 20.4848473203553 21.75419797375623" fill="#a7ff21" stroke="none" /><line stroke="#e1ed5e" stroke-width="0.3" x1="56.869717070023135" x2="54.33264160355391" y1="26.7553504044142" y2="22.446841604673864" /><path d="M 56.362301976729285 25.89364864446614 a86.0,86.0 0 0,1 42.16139366436587,-11.88097634709845" fill="none" id="id72" stroke="none" /><text fill="#e1ed5e" style="font-size:6.75px; font-family:Arial;" text-anchor="middle"><textPath startOffset="22.145653131862474" xlink:href="#id72">December</textPath></text><path d="M 91.26138138417902 80.90454125486306 l -5.39478738675208 -11.788584044164896 a33.96435284596183,33.96435284596183 0 0,0 0.532248252489936,-0.23806787341429006 l 5.191625731406526 11.879455668489031" fill="#ff790b" stroke="none" /><path d="M 91.5904679813234 80.7573450057729 l -1.9690692037958277 -4.505615682805059 a25.917093268433703,25.917093268433703 0 0,0 0.4091999562547212,-0.17466312879166593 l 1.8914341723706753 4.538753461256129" fill="#ff0000" stroke="none" /><path d="M 92.592206182469 80.34994680014964 l -4.577404553054596 -12.142109405353157 a33.97626499628805,33.97626499628805 0 0,0 0.5475207933818109,-0.2010572192830189 l 4.368294608018658 12.218897473644898" fill="#ff790b" stroke="none" /></svg>