<?xml version="1.0" encoding="utf-8" ?>
<svg baseProfile="full" height="200mm" version="1.1" viewBox="0,0,200,200" width="200mm" xmlns="http://www.w3.org/2000/svg" xmlns:ev="http://www.w3.org/2001/xml-events" xmlns:xlink="http://www.w3.org/1999/xlink"><defs /><rect fill="#1a1a1a" height="200" width="200" x="0" y="0" /><text alignment-baseline="middle" fill="#e1ed5e" style="dominant-baseline: central; font-size:9.0px; font-family:Arial;" text-anchor="middle" x="100.0" y="100.0">2025</text><line stroke="#e1ed5e" stroke-width="0.3" x1="100.0" x2="100.0" y1="15.0" y2="10.0" /><path d="M 100.0 14.0 a86.0,86.0 0 0,1 42.46469731375804,11.215312516191453" fill="none" id="id121" stroke="none" /><text fill="#e1ed5e" style="font-size:6.75px; font-family:Arial;" text-anchor="middle"><textPath startOffset="22.20632615414155" xlink:href="#id121">January</textPath></text><path d="M 100.0 79.0 l 0.0 -25.834274262323042 a46.83427426232304,46.83427426232304 0 0,0 0.8061750431774083,0.006939003115172504 l -0.4446945639048799 25.83044663581643" fill="#ff780b" stroke="none" /><path d="M 101.44485096284872 79.0497635885617 l 2.0161232158084754 -29.233643532685484 a50.303082892717036,50.303082892717036 0 0,0 0.8633202180883144,0.06701026452550927 l -2.519033623259131 29.19460800597151" fill="#ffb911" stroke="none" /><path d="M 102.52436894288641 79.15227682838746 l 3.592123616379085 -29.665869152571315 a50.882555858775376,50.882555858775376 0 0,0 0.8686022310117989,0.1127694986362803 l -4.102240575898731 29.599641330770897" fill="#ffc412" stroke="none" /><path d="M 103.95276090670814 79.375362276772 l 5.622301805624953 -29.33593522311864 a50.86984052532833,50.86984052532833 0 0,0 0.8585704870108025,0.17222116268257862 l -6.126438702102881 29.234810104358854" fill="#ffc412" stroke="none" /><path d="M 109.41281617654863 81.2277094730956 l 8.934549429321292 -17.818467339463695 a40.93298652566945,40.93298652566945 0 0,0 0.6271313869669013,0.3212410543196678 l -9.239941303876948 17.662033759831527" fill="#ff0000" stroke="none" /><line stroke="#e1ed5e" stroke-width="0.3" x1="143.23703022742887" x2="145.7803849466894" y1="26.81831364943548" y2="22.513508569990506" /><path d="M 143.74570117128098 25.957352633546492 a86.0,86.0 0 0,1 28.547481713284135,27.462654790039103" fill="none" id="id122" stroke="none" /><text fill="#e1ed5e" style="font-size:6.75px; font-family:Arial;" text-anchor="middle"><textPath startOffset="19.985693538727396" xlink:href="#id122">February</textPath></text><path d="M 111.2981086023043 82.29822771554956 l 16.07542797612104 -25.186832188030202 a50.87969043151969,50.87969043151969 0 0,0 0.7342011389827864,0.4775448439277476 l -16.506596140888107 24.906388419942928" fill="#ffc412" stroke="none" /><path d="M 111.90073688211348 82.69761687909136 l 16.94185492468091 -24.631623032205354 a50.89553982602763,50.89553982602763 0 0,0 0.7175516417412814,0.5026907807442809 l -17.363337706005844 24.336347408697137" fill="#ffc412" stroke="none" /><path d="M 113.06298171725822 83.55741782278167 l 18.67887928260295 -23.511401472511814 a51.028095684803,51.028095684803 0 0,0 0.683039251177337,0.5523035722561095 l -19.08082193234478 23.186391802991576" fill="#ffc712" stroke="none" /><path d="M 113.34407831869373 83.78471172551755 l 18.989839580171864 -23.075833019301918 a50.884913866621176,50.884913866621176 0 0,0 0.6715414457437408,0.5623966483122841 l -19.38423856287472 22.745535213595815" fill="#ffc412" stroke="none" /><path d="M 114.42810811169701 84.74124197986012 l 20.542807429283172 -21.72549063197277 a50.8998976633123,50.8998976633123 0 0,0 0.6314417257002845,0.60744643983305 l -20.913732398595876 21.36866110537742" fill="#ffc412" stroke="none" /><path d="M 114.94478906791727 85.2469230424477 l 21.262868792152837 -20.99010820449704 a50.87798908408665,50.87798908408665 0 0,0 0.6098956211137015,0.6285510488963105 l -21.621028676969647 20.620992960050614" fill="#ffc412" stroke="none" /><path d="M 116.60985879189232 87.15038557335679 l 23.627332904199474 -18.27842858586486 a50.872258229575294,50.872258229575294 0 0,0 0.5298565166638076,0.6972290668468165 l -23.938465361087395 17.86901474313701" fill="#ffc412" stroke="none" /><path d="M 117.04232023915458 87.72973835380427 l 24.24330369241462 -17.45488145391565 a50.87324322019444,50.87324322019444 0 0,0 0.5055525642715358,0.7150682495607937 l -24.54016887649004 17.034986704023066" fill="#ffc412" stroke="none" /><path d="M 117.45458315368197 88.32363383020206 l 24.869754302393027 -16.636797065325077 a50.92135851952925,50.92135851952925 0 0,0 0.48109375535333326,0.7327387953484911 l -25.152444693104286 16.206240205998913" fill="#ffc512" stroke="none" /><line stroke="#e1ed5e" stroke-width="0.3" x1="172.23445277983987" x2="176.4835382374775" y1="55.19839476539836" y2="52.563006222186495" /><path d="M 173.08426987136738 54.67131705675599 a86.0,86.0 0 0,1 12.851231095245387,41.99856678651699" fill="none" id="id123" stroke="none" /><text fill="#e1ed5e" style="font-size:6.75px; font-family:Arial;" text-anchor="middle"><textPath startOffset="22.20632615414155" xlink:href="#id123">March</textPath></text><path d="M 117.84615892207809 88.93136811851018 l 53.538476766234254 -33.20589564446945 a84.0,84.0 0 0,0 0.7515368068551043,1.2353289071716742 l -54.10212937137558 32.279398964090696" fill="#4dd2ff" stroke="none" /><line stroke="#e1ed5e" stroke-width="0.3" x1="184.98032266829074" x2="189.97916517819016" y1="98.17113171792111" y2="98.06355123074" /><path d="M 185.9800911702706 98.14961562048488 a86.0,86.0 0 0,1 -9.607161424134198,41.387399972396054" fill="none" id="id124" stroke="none" /><text fill="#e1ed5e" style="font-size:6.75px; font-family:Arial;" text-anchor="middle"><textPath startOffset="21.466115282336823" xlink:href="#id124">April</textPath></text><line stroke="#e1ed5e" stroke-width="0.3" x1="174.80103733775053" x2="179.2010983576182" y1="140.37084112569926" y2="142.7455964860345" /><path d="M 175.68104954172406 140.8457921977663 a86.0,86.0 0 0,1 -30.038265399797805,32.042727171017184" fill="none" id="id125" stroke="none" /><text fill="#e1ed5e" style="font-size:6.75px; font-family:Arial;" text-anchor="middle"><textPath startOffset="22.206326154141568" xlink:href="#id125">May</textPath></text><line stroke="#e1ed5e" stroke-width="0.3" x1="143.8653032363475" x2="146.44561519142675" y1="172.8068346515853" y2="177.08958963109032" /><path d="M 144.38136562736335 173.6633856474863 a86.0,86.0 0 0,1 -40.68145358897372,12.25698825130547" fill="none" id="id126" stroke="none" /><text fill="#e1ed5e" style="font-size:6.75px; font-family:Arial;" text-anchor="middle"><textPath startOffset="21.466115282336833" xlink:href="#id126">June</textPath></text><line stroke="#e1ed5e" stroke-width="0.3" x1="102.19456741930631" x2="102.32365962044197" y1="184.97166512339345" y2="189.96999836594603" /><path d="M 102.22038585953345 185.97133177190398 a86.0,86.0 0 0,1 -42.740103519485714,-10.115201625700543" fill="none" id="id127" stroke="none" /><text fill="#e1ed5e" style="font-size:6.75px; font-family:Arial;" text-anchor="middle"><textPath startOffset="22.20632615414155" xlink:href="#id127">July</textPath></text><line stroke="#e1ed5e" stroke-width="0.3" x1="58.666819895761336" x2="56.23545636021788" y1="174.27360380694188" y2="178.64263932499728" /><path d="M 58.180547188652646 175.14741091055294 a86.0,86.0 0 0,1 -31.652253787137756,-30.449443065178592" fill="none" id="id128" stroke="none" /><text fill="#e1ed5e" style="font-size:6.75px; font-family:Arial;" text-anchor="middle"><textPath startOffset="22.20632615414155" xlink:href="#id128">August</textPath></text><line stroke="#e1ed5e" stroke-width="0.3" x1="26.63291911575756" x2="22.317208475507996" y1="142.92168965132927" y2="145.44649492493687" /><path d="M 25.769776987707644 143.4266507060508 a86.0,86.0 0 0,1 -11.730757126820373,-40.83630448921669" fill="none" id="id129" stroke="none" /><text fill="#e1ed5e" style="font-size:6.75px; font-family:Arial;" text-anchor="middle"><textPath startOffset="21.46611528233685" xlink:href="#id129">September</textPath></text><line stroke="#e1ed5e" stroke-width="0.3" x1="15.007084014347285" x2="10.007500721073583" y1="101.09737516637583" y2="101.16192664675087" /><path d="M 14.007167355692545 101.11028546245083 a86.0,86.0 0 0,1 10.666146001902534,-42.60595125391555" fill="none" id="id130" stroke="none" /><text fill="#e1ed5e" style="font-size:6.75px; font-family:Arial;" text-anchor="middle"><textPath startOffset="22.20632615414155" xlink:href="#id130">October</textPath></text><line stroke="#e1ed5e" stroke-width="0.3" x1="26.266209847984243" x2="21.928928074336255" y1="57.711370442889674" y2="55.22380399835377" /><path d="M 25.398753493254645 57.213857153982495 a86.0,86.0 0 0,1 29.58750427330803,-30.492523968695096" fill="none" id="id131" stroke="none" /><text fill="#e1ed5e" style="font-size:6.75px; font-family:Arial;" text-anchor="middle"><textPath startOffset="21.46611528233685" xlink:href="#id131">November</textPath></text><line stroke="#e1ed5e" stroke-width="0.3" x1="56.762969772571076" x2="54.21961505331055" y1="26.818313649435495" y2="22.513508569990535" /><path d="M 56.25429882871897 25.957352633546506 a86.0,86.0 0 0,1 42.265352541879196,-11.944610805530505" fill="none" id="id132" stroke="none" /><text fill="#e1ed5e" style="font-size:6.75px; font-family:Arial;" text-anchor="middle"><textPath startOffset="22.20632615414155" xlink:href="#id132">December</textPath></text></svg>