<?xml version="1.0" encoding="utf-8" ?>
<svg baseProfile="full" height="200mm" version="1.1" viewBox="0,0,200,200" width="200mm" xmlns="http://www.w3.org/2000/svg" xmlns:ev="http://www.w3.org/2001/xml-events" xmlns:xlink="http://www.w3.org/1999/xlink"><defs /><rect fill="#1a1a1a" height="200" width="200" x="0" y="0" /><text alignment-baseline="middle" fill="#e1ed5e" style="dominant-baseline: central; font-size:9.0px; font-family:Arial;" text-anchor="middle" x="100.0" y="100.0">2022</text><line stroke="#e1ed5e" stroke-width="0.3" x1="100.0" x2="100.0" y1="15.0" y2="10.0" /><path d="M 100.0 14.0 a86.0,86.0 0 0,1 42.46469731375804,11.215312516191453" fill="none" id="id73" stroke="none" /><text fill="#e1ed5e" style="font-size:6.75px; font-family:Arial;" text-anchor="middle"><textPath startOffset="22.20632615414155" xlink:href="#id73">January</textPath></text><line stroke="#e1ed5e" stroke-width="0.3" x1="143.23703022742887" x2="145.7803849466894" y1="26.81831364943548" y2="22.513508569990506" /><path d="M 143.74570117128098 25.957352633546492 a86.0,86.0 0 0,1 28.547481713284135,27.462654790039103" fill="none" id="id74" stroke="none" /><text fill="#e1ed5e" style="font-size:6.75px; font-family:Arial;" text-anchor="middle"><textPath startOffset="19.985693538727396" xlink:href="#id74">February</textPath></text><line stroke="#e1ed5e" stroke-width="0.3" x1="172.23445277983987" x2="176.4835382374775" y1="55.19839476539836" y2="52.563006222186495" /><path d="M 173.08426987136738 54.67131705675599 a86.0,86.0 0 0,1 12.851231095245387,41.99856678651699" fill="none" id="id75" stroke="none" /><text fill="#e1ed5e" style="font-size:6.75px; font-family:Arial;" text-anchor="middle"><textPath startOffset="22.20632615414155" xlink:href="#id75">March</textPath></text><line stroke="#e1ed5e" stroke-width="0.3" x1="184.98032266829074" x2="189.97916517819016" y1="98.17113171792111" y2="98.06355123074" /><path d="M 185.9800911702706 98.14961562048488 a86.0,86.0 0 0,1 -9.607161424134198,41.387399972396054" fill="none" id="id76" stroke="none" /><text fill="#e1ed5e" style="font-size:6.75px; font-family:Arial;" text-anchor="middle"><textPath startOffset="21.466115282336823" xlink:href="#id76">April</textPath></text><line stroke="#e1ed5e" stroke-width="0.3" x1="174.80103733775053" x2="179.2010983576182" y1="140.37084112569926" y2="142.7455964860345" /><path d="M 175.68104954172406 140.8457921977663 a86.0,86.0 0 0,1 -30.038265399797805,32.042727171017184" fill="none" id="id77" stroke="none" /><text fill="#e1ed5e" style="font-size:6.75px; font-family:Arial;" text-anchor="middle"><textPath startOffset="22.206326154141568" xlink:href="#id77">May</textPath></text><path d="M 115.32070863581623 114.36230785411682 l 3.6129629888644104 3.386950822254584 a25.95226588858828,25.95226588858828 0 0,0 -0.3083295388606644,0.3232822888101548 l -3.5541268986247814 -3.448640227647246" fill="#ff0500" stroke="none" /><path d="M 115.07121518719521 114.62390073753431 l 3.5502132287183388 3.44484271566693 a25.946812640989165,25.946812640989165 0 0,0 -0.3137826819098446,0.3178602001331961 l -3.4903899217529584 -3.5054434097807907" fill="#ff0500" stroke="none" /><path d="M 113.48314897796784 116.09983520530334 l 3.179612163114262 3.796682208775325 a25.95224487502943,25.95224487502943 0 0,0 -0.3449546083782697,0.28387415830514456 l -3.113787426191301 -3.8508514859376484" fill="#ff0500" stroke="none" /><path d="M 112.92097659922987 116.55440617244103 l 3.0141108845402886 3.8616907513344945 a25.898726353170446,25.898726353170446 0 0,0 -0.35379050282538416,0.27127147116553196 l -2.9471916532214104 -3.913001564327398" fill="#ff0500" stroke="none" /><path d="M 112.63410532772338 116.77436683061366 l 2.799757573443869 3.7172525759051136 a25.65366620882176,25.65366620882176 0 0,0 -0.35501623638804825,0.26263252444035456 l -2.7353563666372565 -3.7648950490852373" fill="#ff0100" stroke="none" /><path d="M 111.7513745106137 117.40417183066458 l 2.775214571613943 4.11018398126185 a25.959377811613052,25.959377811613052 0 0,0 -0.3724865399813045,0.2468637676293927 l -2.7040533328926744 -4.157345769982561" fill="#ff0600" stroke="none" /><line stroke="#e1ed5e" stroke-width="0.3" x1="143.8653032363475" x2="146.44561519142675" y1="172.8068346515853" y2="177.08958963109032" /><path d="M 144.38136562736335 173.6633856474863 a86.0,86.0 0 0,1 -40.68145358897372,12.25698825130547" fill="none" id="id78" stroke="none" /><text fill="#e1ed5e" style="font-size:6.75px; font-family:Arial;" text-anchor="middle"><textPath startOffset="21.466115282336833" xlink:href="#id78">June</textPath></text><path d="M 108.92500713936063 119.00905698771935 l 2.06789522446159 4.404336887649713 a25.865631930105586,25.865631930105586 0 0,0 -0.40465180470189616,0.18575579662093972 l -1.9917754239922743 -4.439279754604727" fill="#ff0400" stroke="none" /><path d="M 108.59647513512805 119.15986991738527 l 2.028436719757962 4.520990647363901 a25.955190405989896,25.955190405989896 0 0,0 -0.4092012823211751,0.17938181685242055 l -1.950314762779033 -4.555237017510777" fill="#ff0500" stroke="none" /><path d="M 106.91757812671514 119.82793768551818 l 1.6104376634100697 4.616016913952708 a25.888877337142667,25.888877337142667 0 0,0 -0.4220260139418772,0.14317413745222016 l -1.5307419165309655 -4.643054038303052" fill="#ff0400" stroke="none" /><path d="M 106.57524785965236 119.94407469862006 l 1.5382883400679763 4.665943887924254 a25.912979074090057,25.912979074090057 0 0,0 -0.42482312287211116,0.13601494847159712 l -1.457743872104925 -4.691731683055557" fill="#ff0500" stroke="none" /><path d="M 105.88484417918355 120.15858648285463 l 1.4850133577990436 5.086926567618921 a26.299253398091924,26.299253398091924 0 0,0 -0.43565193139596264,0.12311958742202242 l -1.3972302582984752 -5.111734948379462" fill="#ff0b01" stroke="none" /><path d="M 103.41894727170886 120.7198165907248 l 0.8000983808406149 4.848829299805916 a25.91439752133261,25.91439752133261 0 0,0 -0.44074730527677836,0.06883566465809046 l -0.7165152119553194 -4.861883271811112" fill="#ff0500" stroke="none" /><path d="M 103.06178313531738 120.77559828337769 l 0.7318801734390019 4.96614155965078 a26.01978192541905,26.01978192541905 0 0,0 -0.44366380814505924,0.061487761135078395 l -0.6462877741071121 -4.978003886278461" fill="#ff0601" stroke="none" /><path d="M 101.98527174616119 120.90594882070398 l 0.46456921452273214 4.892156573157776 a25.914165289382634,25.914165289382634 0 0,0 -0.44443494666457434,0.03834771728294629 l -0.3802899501166161 -4.899428542719386" fill="#ff0500" stroke="none" /><path d="M 100.90346689309514 120.98055641714683 l 0.24670438827034116 5.7290370859427995 a26.734346430701567,26.734346430701567 0 0,0 -0.4599321560329465,0.015840993408755225 l -0.14805188056274235 -5.732434877777648" fill="#ff1101" stroke="none" /><line stroke="#e1ed5e" stroke-width="0.3" x1="102.19456741930631" x2="102.32365962044197" y1="184.97166512339345" y2="189.96999836594603" /><path d="M 102.22038585953345 185.97133177190398 a86.0,86.0 0 0,1 -42.740103519485714,-10.115201625700543" fill="none" id="id79" stroke="none" /><text fill="#e1ed5e" style="font-size:6.75px; font-family:Arial;" text-anchor="middle"><textPath startOffset="22.20632615414155" xlink:href="#id79">July</textPath></text><path d="M 100.54218724476979 120.99299961872073 l 0.14891664251081238 5.76591767808555 a26.76784039627278,26.76784039627278 0 0,0 -0.46071316827297165,0.00793159500255406 l -0.04964378434517282 -5.767626750367264" fill="#ff1202" stroke="none" /><path d="M 99.09653310690486 120.98055641714683 l -0.24661844710742192 5.727041336645362 a26.73234883185753,26.73234883185753 0 0,0 -0.45955699464920474,-0.023753847376318474 l 0.3451635101701156 -5.721947682506841" fill="#ff1101" stroke="none" /><path d="M 96.93821686468263 120.77559828337769 l -0.8362628410782595 5.6744256786681895 a26.73571637392377,26.73571637392377 0 0,0 -0.454716145214291,-0.07101731017262702 l 0.9338148499010677 -5.659190061148457" fill="#ff1201" stroke="none" /><path d="M 96.58105272829116 120.7198165907248 l -0.9335190984682499 5.6573977212972 a26.73389979718374,26.73389979718374 0 0,0 -0.4533955194919116,-0.07882862271993342 l 1.0307635894322114 -5.64049052005626" fill="#ff1101" stroke="none" /><path d="M 96.22490169976321 120.6578951692458 l -1.0875226192317726 5.951084309742184 a27.04963717168231,27.04963717168231 0 0,0 -0.4573093909539295,-0.08764443318184205 l 1.189799624757397 -5.931482678211873" fill="#ff1602" stroke="none" /><path d="M 95.86986931433489 120.58985236759428 l -1.279290582447861 6.3776200397914025 a27.504661541255523,27.504661541255523 0 0,0 -0.4633992430376651,-0.097109816924991 l 1.388881286914913 -6.35465424213987" fill="#ff1d03" stroke="none" /><path d="M 94.46302465271185 120.25689768951611 l -1.8151517873997645 6.640691305643592 a27.884297860214282,27.884297860214282 0 0,0 -0.4619084821359884,-0.13053995093075013 l 1.9291914376403667 -6.60846256137432" fill="#ff2303" stroke="none" /><path d="M 93.76903079525671 120.05430185196036 l -2.0379969860623133 6.5592695757132855 a27.868584212345148,27.868584212345148 0 0,0 -0.4568837469926687,-0.14627974787385947 l 2.1506020781459223 -6.523216981179719" fill="#ff2303" stroke="none" /><path d="M 93.42475214034765 119.94407469862007 l -2.1556763937374206 6.538608420614607 a27.884790540942333,27.884790540942333 0 0,0 -0.4545622758509671,-0.15421220401888164 l 2.2679084025256135 -6.500533229697603" fill="#ff2303" stroke="none" /><path d="M 92.06813273071674 119.44442032107085 l -2.5975363813307215 6.367679574450556 a27.877102472350657,27.877102472350657 0 0,0 -0.44275282385918097,-0.18507071628145552 l 2.7067606646873648 -6.3220238151491275" fill="#ff2303" stroke="none" /><path d="M 91.7346041902142 119.30500536409082 l -2.7038105044611234 6.315133297102178 a27.869606961406376,27.869606961406376 0 0,0 -0.43938336525410876,-0.19261275504055994 l 2.8121145443729754 -6.2676559887671655" fill="#ff2303" stroke="none" /><path d="M 91.40352486487194 119.15986991738527 l -2.8068548356178704 6.255933121665585 a27.85675822025131,27.85675822025131 0 0,0 -0.43580174331055127,-0.20005520562816462 l 2.914124574695841 -6.2066908457033465" fill="#ff2303" stroke="none" /><line stroke="#e1ed5e" stroke-width="0.3" x1="58.666819895761336" x2="56.23545636021788" y1="174.27360380694188" y2="178.64263932499728" /><path d="M 58.180547188652646 175.14741091055294 a86.0,86.0 0 0,1 -31.652253787137756,-30.449443065178592" fill="none" id="id80" stroke="none" /><text fill="#e1ed5e" style="font-size:6.75px; font-family:Arial;" text-anchor="middle"><textPath startOffset="22.20632615414155" xlink:href="#id80">August</textPath></text><path d="M 87.65650970185807 116.9893568818739 l -3.3726926471048486 4.642113182781178 a26.737967453165442,26.737967453165442 0 0,0 -0.37002167630234,-0.27373319015954406 l 3.4520992938257526 -4.583370043881865" fill="#ff1201" stroke="none" /><path d="M 87.36589467227662 116.77436683061367 l -4.161127607602737 5.5247505943897295 a27.91649131402356,27.91649131402356 0 0,0 -0.3813542552025939,-0.29240618110967714 l 4.255610591298817 -5.4523050714526855" fill="#ff2403" stroke="none" /><path d="M 87.07902340077011 116.55440617244103 l -4.237929613410481 5.429652132857711 a27.887755054592738,27.887755054592738 0 0,0 -0.37587714824457613,-0.2986195393480906 l 4.330764254372416 -5.35589867950449" fill="#ff2303" stroke="none" /><path d="M 85.70375840098266 115.38237550388516 l -4.660446802431591 5.014516733951337 a27.845812039004052,27.845812039004052 0 0,0 -0.3482903326159623,-0.3293302486748495 l 4.746072969438368 -4.933551848530558" fill="#ff2203" stroke="none" /><path d="M 85.44109423537348 115.13401014063109 l -4.752933896891655 4.940683795624032 a27.855708351189072,27.855708351189072 0 0,0 -0.3426915990064611,-0.3353958566484321 l 4.83727544827391 -4.8581378360530305" fill="#ff2303" stroke="none" /><path d="M 83.95833913139862 113.55231037782056 l -4.003297958690374 3.3820647946285645 a26.24068285828483,26.24068285828483 0 0,0 -0.28852755416681325,-0.3475500258418962 l 4.060921512750724 -3.3126535116729072" fill="#ff0a01" stroke="none" /><path d="M 83.50135304334701 112.99209946851258 l -5.415172436765985 4.264256282497232 a27.892602858334953,27.892602858334953 0 0,0 -0.29379302868131,-0.3797670932694072 l 5.487772282665364 -4.170411195114572" fill="#ff2303" stroke="none" /><line stroke="#e1ed5e" stroke-width="0.3" x1="26.63291911575756" x2="22.317208475507996" y1="142.92168965132927" y2="145.44649492493687" /><path d="M 25.769776987707644 143.4266507060508 a86.0,86.0 0 0,1 -11.730757126820373,-40.83630448921669" fill="none" id="id81" stroke="none" /><text fill="#e1ed5e" style="font-size:6.75px; font-family:Arial;" text-anchor="middle"><textPath startOffset="21.46611528233685" xlink:href="#id81">September</textPath></text><path d="M 81.87401531095188 110.60418214915194 l -5.951676248109964 3.4818885765622682 a27.895360630301443,27.895360630301443 0 0,0 -0.23890118695091805,-0.4165443564899068 l 6.010729431213259 -3.378924374214055" fill="#ff2303" stroke="none" /><path d="M 81.51974371655577 109.97397251340807 l -6.886781046576531 3.716862137131154 a28.825779023836855,28.825779023836855 0 0,0 -0.23190681259718707,-0.4386802930696934 l 6.949740367398604 -3.597766828975334" fill="#ff3104" stroke="none" /><path d="M 80.87730276802145 108.67885076344099 l -7.116736513069642 3.229936309213441 a28.815396801060967,28.815396801060967 0 0,0 -0.201102538009583,-0.45343313369207844 l 7.171280135810505 -3.106954839028667" fill="#ff3104" stroke="none" /><path d="M 80.73074385275274 108.34839909993369 l -6.3216433905909 2.7388499892690543 a27.889446597624566,27.889446597624566 0 0,0 -0.1870571994459516,-0.44214796368678533 l 6.367851571229158 -2.6296274999161104" fill="#ff2303" stroke="none" /><path d="M 80.20201598880116 107.00284435728193 l -6.51635755925578 2.3049335598035237 a27.91199208298002,27.91199208298002 0 0,0 -0.15631934264754602,-0.45433718119609556 l 6.555067732846553 -2.1924236755181314" fill="#ff2303" stroke="none" /><path d="M 79.76711848015287 105.62410040840567 l -7.501257106833538 2.0851119558385682 a28.785663109279877,28.785663109279877 0 0,0 -0.1285923061932961,-0.47853980885733394 l 7.536037489368606 -1.9556812138056954" fill="#ff3104" stroke="none" /><path d="M 79.50377843672027 104.57218783832718 l -6.719503448245933 1.498951006692349 a27.884662715881802,27.884662715881802 0 0,0 -0.10047237186866396,-0.4693734723955028 l 6.744309858839038 -1.3830637148806824" fill="#ff2303" stroke="none" /><path d="M 79.4281124754447 104.21870165774334 l -6.350419321736399 1.3022881098293302 a27.482575096586682,27.482575096586682 0 0,0 -0.09104593292718169,-0.46424125049229525 l 6.371895187639248 -1.19278313226908" fill="#ff1d02" stroke="none" /><path d="M 79.07016306316243 101.71520430193888 l -7.955806262551788 0.6519799063940034 a28.982476500785943,28.982476500785943 0 0,0 -0.03646746512289509,-0.4975695880659379 l 7.965850286339018 -0.5149371818313048" fill="#ff3404" stroke="none" /><path d="M 79.0235259727143 100.99374915477108 l -6.41286996015756 0.3038062590630746 a27.4200622558459,27.4200622558459 0 0,0 -0.018277256603292023,-0.4716547797668692 l 6.417149349612053 -0.19337423228220865" fill="#ff1c02" stroke="none" /><line stroke="#e1ed5e" stroke-width="0.3" x1="15.007084014347285" x2="10.007500721073583" y1="101.09737516637583" y2="101.16192664675087" /><path d="M 14.007167355692545 101.11028546245083 a86.0,86.0 0 0,1 10.666146001902534,-42.60595125391555" fill="none" id="id82" stroke="none" /><text fill="#e1ed5e" style="font-size:6.75px; font-family:Arial;" text-anchor="middle"><textPath startOffset="22.20632615414155" xlink:href="#id82">October</textPath></text><path d="M 79.00175016825051 100.2711162175752 l -11.474444963664748 0.14815082886669562 a32.47540133904977,32.47540133904977 0 0,0 -0.002405812851792247,-0.5590261797903886 l 11.475295073806043 0.0493848291273683" fill="#ff6709" stroke="none" /><path d="M 79.12142395522702 97.74499172005258 l -11.394522868957468 -1.2306750882075659 a32.46079022510793,32.46079022510793 0 0,0 0.0647819171218488,-0.5550119042499105 l 11.371650598832032 1.426630730782338" fill="#ff6709" stroke="none" /><path d="M 79.21141760316559 97.0276538004421 l -5.687433765202476 -0.8131878265932693 a26.745274342873863,26.745274342873863 0 0,0 0.06908445292618791,-0.4551802280695298 l 5.6725934188369855 0.9109671670548911" fill="#ff1202" stroke="none" /><path d="M 79.32604984820605 96.31383870115002 l -9.148951732786143 -1.6312563179667143 a30.29324028440871,30.29324028440871 0 0,0 0.0959491879972411,-0.5125643989402069 l 9.11951682087904 1.7884987943694939" fill="#ff4706" stroke="none" /><path d="M 79.46518482838121 95.60439243477599 l -11.204653876644812 -2.398427301842322 a32.458478171975294,32.458478171975294 0 0,0 0.12165068673839514,-0.5453361753456675 l 11.16170880290438 2.590941646737949" fill="#ff6709" stroke="none" /><path d="M 79.54389044137918 95.25157060432595 l -11.892020424321823 -2.760467194164415 a33.20820744018324,33.20820744018324 0 0,0 0.13404603586010996,-0.5557073583142232 l 11.842741588200898 2.964759784138035" fill="#ff720a" stroke="none" /><path d="M 79.81627453868168 94.20196356495316 l -23.256612189170312 -6.68076292887491 a45.19716106962332,45.19716106962332 0 0,0 0.22123817263093393,-0.7459051347245141 l 23.13816811942767 7.0800974503459635" fill="#eaff1a" stroke="none" /><path d="M 80.38941819471856 92.48833698450439 l -26.82839765503849 -10.276384680034731 a49.72920122156074,49.72920122156074 0 0,0 0.3130724362248389,-0.7967352017491871 l 26.64753166893196 10.73666888667968" fill="#b2ff20" stroke="none" /><path d="M 80.803312248108 91.48605970444005 l -15.415994164628954 -6.837161473411757 a37.864152901861985,37.864152901861985 0 0,0 0.2693722244611222,-0.5935259899586476 l 15.29601962320448 7.101509472212475" fill="#ffb310" stroke="none" /><path d="M 81.26839172434947 90.50648371742162 l -29.882783049211472 -15.145132402497564 a54.50157844423785,54.50157844423785 0 0,0 0.4313165816817333,-0.8331663504984979 l 29.617657034369625 15.657271475256398" fill="#7bff26" stroke="none" /><line stroke="#e1ed5e" stroke-width="0.3" x1="26.266209847984243" x2="21.928928074336255" y1="57.711370442889674" y2="55.22380399835377" /><path d="M 25.398753493254645 57.213857153982495 a86.0,86.0 0 0,1 29.58750427330803,-30.492523968695096" fill="none" id="id83" stroke="none" /><text fill="#e1ed5e" style="font-size:6.75px; font-family:Arial;" text-anchor="middle"><textPath startOffset="21.46611528233685" xlink:href="#id83">November</textPath></text><path d="M 82.15384107792192 88.93136811851018 l -9.947646745085155 -6.1697780676059715 a32.705632711157264,32.705632711157264 0 0,0 0.3008488422433772,-0.47587061942328573 l 9.839970306595815 6.340096334743473" fill="#ff6b09" stroke="none" /><path d="M 82.54541684631803 88.32363383020206 l -52.36374946104589 -35.02909850939381 a84.0,84.0 0 0,0 0.8143021373250385,-1.194887906918337 l 51.75302285805211 35.92526443958256" fill="#4dd2ff" stroke="none" /><path d="M 84.07557802195018 86.31012108654704 l -3.4894354432533476 -2.9997916885332088 a25.601620354530088,25.601620354530088 0 0,0 0.2901616166652026,-0.3317048873555109 l 3.4372819630103013 3.059412132091663" fill="#ff0000" stroke="none" /><path d="M 84.31358615837235 86.03803664274999 l -3.4536928223204266 -3.074018900640693 a25.623590197286504,25.623590197286504 0 0,0 0.29608224341047334,-0.3269414082623831 l 3.400266938293908 3.133013096172632" fill="#ff0000" stroke="none" /><path d="M 85.31137513191541 84.99185889309783 l -5.666439062994928 -5.789699021851328 a29.101181791458643,29.101181791458643 0 0,0 0.3610164517788519,-0.3472975405782984 l 5.565939367603648 5.886379649191935" fill="#ff3505" stroke="none" /><path d="M 85.83668400450813 84.49514656593479 l -3.256918558242152 -3.5654111585383603 a25.829044959870636,25.829044959870636 0 0,0 0.33084425214737406,-0.2970352362072201 l 3.1950633184988066 3.620945403514859" fill="#ff0400" stroke="none" /><path d="M 86.10567301691215 84.25364557470407 l -7.573384328649138 -8.582869395764623 a32.44647532012284,32.44647532012284 0 0,0 0.42196826771333157,-0.3659267236166412 l 7.424522262289033 8.711961112800946" fill="#ff6709" stroke="none" /><path d="M 86.37877921826538 84.01681056812374 l -7.440909614056151 -8.731190090274966 a32.471739897551245,32.471739897551245 0 0,0 0.4285379987824037,-0.35888824988718143 l 7.289514078314637 8.857979497555961" fill="#ff6709" stroke="none" /><line stroke="#e1ed5e" stroke-width="0.3" x1="56.76296977257108" x2="54.21961505331056" y1="26.818313649435495" y2="22.513508569990535" /><path d="M 56.25429882871898 25.957352633546506 a86.0,86.0 0 0,1 42.26535254187918,-11.944610805530505" fill="none" id="id84" stroke="none" /><text fill="#e1ed5e" style="font-size:6.75px; font-family:Arial;" text-anchor="middle"><textPath startOffset="22.20632615414155" xlink:href="#id84">December</textPath></text></svg>