<?xml version="1.0" encoding="utf-8" ?>
<svg baseProfile="full" height="200mm" version="1.1" viewBox="0,0,200,200" width="200mm" xmlns="http://www.w3.org/2000/svg" xmlns:ev="http://www.w3.org/2001/xml-events" xmlns:xlink="http://www.w3.org/1999/xlink"><defs /><rect fill="#1a1a1a" height="200" width="200" x="0" y="0" /><text alignment-baseline="middle" fill="#e1ed5e" style="dominant-baseline: central; font-size:9.0px; font-family:Arial;" text-anchor="middle" x="100.0" y="100.0">2023</text><line stroke="#e1ed5e" stroke-width="0.3" x1="100.0" x2="100.0" y1="15.0" y2="10.0" /><path d="M 100.0 14.0 a86.0,86.0 0 0,1 42.46469731375804,11.215312516191453" fill="none" id="id85" stroke="none" /><text fill="#e1ed5e" style="font-size:6.75px; font-family:Arial;" text-anchor="middle"><textPath startOffset="22.20632615414155" xlink:href="#id85">January</textPath></text><line stroke="#e1ed5e" stroke-width="0.3" x1="143.23703022742887" x2="145.7803849466894" y1="26.81831364943548" y2="22.513508569990506" /><path d="M 143.74570117128098 25.957352633546492 a86.0,86.0 0 0,1 28.547481713284135,27.462654790039103" fill="none" id="id86" stroke="none" /><text fill="#e1ed5e" style="font-size:6.75px; font-family:Arial;" text-anchor="middle"><textPath startOffset="19.985693538727396" xlink:href="#id86">February</textPath></text><line stroke="#e1ed5e" stroke-width="0.3" x1="172.23445277983987" x2="176.4835382374775" y1="55.19839476539836" y2="52.563006222186495" /><path d="M 173.08426987136738 54.67131705675599 a86.0,86.0 0 0,1 12.851231095245387,41.99856678651699" fill="none" id="id87" stroke="none" /><text fill="#e1ed5e" style="font-size:6.75px; font-family:Arial;" text-anchor="middle"><textPath startOffset="22.20632615414155" xlink:href="#id87">March</textPath></text><path d="M 118.73160827565052 90.50648371742162 l 12.083277854953845 -6.124022741391619 a34.54655890833904,34.54655890833904 0 0,0 0.2642647035971384,0.5327415168010373 l -12.186902571504392 5.915121636091632" fill="#ff1f03" stroke="none" /><path d="M 119.196687751892 91.48605970444005 l 12.268126481977086 -5.441047838871905 a34.42057856288916,34.42057856288916 0 0,0 0.2355503291465258,0.5436826358635418 l -12.359967520966293 5.22906605842176" fill="#ff1d02" stroke="none" /><path d="M 119.85752413597 93.16781622104841 l 11.220802009321243 -3.860631413563035 a32.86637571644255,32.86637571644255 0 0,0 0.17945464683624202,0.5365465526217813 l -11.285593949929256 3.66691175801894" fill="#ff0100" stroke="none" /><path d="M 120.53481517161879 95.60439243477599 l 11.57919243708587 -2.478599658690137 a32.84150133062212,32.84150133062212 0 0,0 0.1135701404684926,0.5538083385388094 l -11.620141873469361 2.278915663987916" fill="#ff0100" stroke="none" /><path d="M 120.87857604477298 97.74499172005257 l 14.40723830110389 -1.5560659687947724 a35.49102676707334,35.49102676707334 0 0,0 0.06037340421946757,0.6079519413590548 l -14.431888831005585 1.3078384967312826" fill="#ff2f04" stroke="none" /><path d="M 120.91429891909075 98.10471618934814 l 17.327234927494054 -1.570218919050848 a38.39823720054176,38.39823720054176 0 0,0 0.05398703684607021,0.6587785936719105 l -17.35169644815962 1.2717264081711688" fill="#ff6008" stroke="none" /><path d="M 120.96714384426684 98.82574320788733 l 17.348135376950484 -0.9715756207989369 a38.3753204357195,38.3753204357195 0 0,0 0.0312601555018346,0.6598524756724636 l -17.362289140685814 0.6728120385034735" fill="#ff6008" stroke="none" /><line stroke="#e1ed5e" stroke-width="0.3" x1="184.98032266829074" x2="189.97916517819016" y1="98.17113171792111" y2="98.06355123074" /><path d="M 185.9800911702706 98.14961562048488 a86.0,86.0 0 0,1 -9.607161424134198,41.387399972396054" fill="none" id="id88" stroke="none" /><text fill="#e1ed5e" style="font-size:6.75px; font-family:Arial;" text-anchor="middle"><textPath startOffset="21.466115282336823" xlink:href="#id88">April</textPath></text><path d="M 120.99513854157772 99.54816195383933 l 29.647991223874953 -0.6380567768417118 a50.65485626438678,50.65485626438678 0 0,0 0.011257421601858806,0.8718997091778408 l -29.654581652594526 0.12762080960340835" fill="#e0ff1b" stroke="none" /><path d="M 120.9764740272857 100.99374915477107 l 23.13571973565041 1.0960422567880825 a44.161667390652795,44.161667390652795 0 0,0 -0.04250802137410929,0.7590092769082961 l -23.113425363388775 -1.494123250031802" fill="#ffbd11" stroke="none" /><path d="M 120.95626037817324 101.35467743843564 l 23.097613863039477 1.4931011457820706 a44.14582288875488,44.14582288875488 0 0,0 -0.05554688387216922,0.7578930982310421 l -23.06849042050297 -1.890467380509883" fill="#ffbd11" stroke="none" /><path d="M 120.8583938346157 102.4346265915055 l 31.698670950478117 3.6999218551210706 a52.91387099304451,52.91387099304451 0 0,0 -0.11338306355209452,0.903774575101537 l -31.630286377679177 -4.245014184510002" fill="#c0ff1e" stroke="none" /><path d="M 120.81339534386255 102.79330883721812 l 23.01894290072015 3.0893093397642706 a44.22532162238812,44.22532162238812 0 0,0 -0.10775383570978611,0.7536300759854428 l -22.96235501399376 -3.485084887730123" fill="#ffbe11" stroke="none" /><path d="M 120.49622156327973 104.57218783832717 l 43.30488532609162 9.66022295459738 a65.36927992021592,65.36927992021592 0 0,0 -0.25444037839074884,1.0961224907839584 l -43.132184381770315 -10.404214102729904" fill="#31ff3f" stroke="none" /><path d="M 120.32669344350535 105.2749913415812 l 27.98493397690154 7.262385534231787 a49.91191403797676,49.91191403797676 0 0,0 -0.22296822235078348,0.82974770158192 l -27.85577767820898 -7.743024168989256" fill="#ebff1a" stroke="none" /><line stroke="#e1ed5e" stroke-width="0.3" x1="174.80103733775053" x2="179.2010983576182" y1="140.37084112569926" y2="142.7455964860345" /><path d="M 175.68104954172406 140.8457921977663 a86.0,86.0 0 0,1 -30.038265399797805,32.042727171017184" fill="none" id="id89" stroke="none" /><text fill="#e1ed5e" style="font-size:6.75px; font-family:Arial;" text-anchor="middle"><textPath startOffset="22.206326154141568" xlink:href="#id89">May</textPath></text><path d="M 117.94076556474637 110.91462005526583 l 24.708618192699568 15.03197724147717 a49.92189746162744,49.92189746162744 0 0,0 -0.4529469867290568,0.7302947640675518 l -24.446206566302546 -15.455068336909996" fill="#ebff1a" stroke="none" /><path d="M 117.75023020441432 111.22182372390056 l 9.962068451322098 6.2980916190239435 a32.78595629851251,32.78595629851251 0 0,0 -0.3056824187038721,0.4744259021446259 l -9.852181169241176 -6.468639121090022" fill="#ff0000" stroke="none" /><path d="M 117.35343817320211 111.8261652097733 l 30.8282912252708 21.00912000989274 a58.306389043435765,58.306389043435765 0 0,0 -0.5723441020983528,0.8245043665129179 l -30.462086216010313 -21.536665638592677" fill="#78ff26" stroke="none" /><path d="M 116.93607887273984 112.41649034213515 l 23.387065249867348 17.145956392141265 a49.9989420773028,49.9989420773028 0 0,0 -0.5148432333991153,0.6897166456168761 l -23.08846074977314 -17.545985917267455" fill="#eaff1a" stroke="none" /><path d="M 116.498646956653 112.99209946851258 l 31.951537333106124 25.160702710607037 a61.66892792833889,61.66892792833889 0 0,0 -0.6639161898751231,0.8283375286501569 l -31.513703231176148 -25.706968072835444" fill="#4eff2b" stroke="none" /><path d="M 116.0416608686014 113.55231037782055 l 48.12498260580419 40.656931133461654 a84.0,84.0 0 0,0 -0.942629961716885,1.096491603353888 l -47.41801013451653 -41.47929983597707" fill="#4dd2ff" stroke="none" /><path d="M 115.32070863581623 114.36230785411682 l 21.260495079489186 19.93052558605045 a50.14162832034606,50.14162832034606 0 0,0 -0.5957146556722532,0.6246044348365498 l -20.914273872437967 -20.293537137469507" fill="#e8ff1a" stroke="none" /><line stroke="#e1ed5e" stroke-width="0.3" x1="143.8653032363475" x2="146.44561519142675" y1="172.8068346515853" y2="177.08958963109032" /><path d="M 144.38136562736335 173.6633856474863 a86.0,86.0 0 0,1 -40.68145358897372,12.25698825130547" fill="none" id="id90" stroke="none" /><text fill="#e1ed5e" style="font-size:6.75px; font-family:Arial;" text-anchor="middle"><textPath startOffset="21.466115282336833" xlink:href="#id90">June</textPath></text><line stroke="#e1ed5e" stroke-width="0.3" x1="102.19456741930631" x2="102.32365962044197" y1="184.97166512339345" y2="189.96999836594603" /><path d="M 102.22038585953345 185.97133177190398 a86.0,86.0 0 0,1 -42.740103519485714,-10.115201625700543" fill="none" id="id91" stroke="none" /><text fill="#e1ed5e" style="font-size:6.75px; font-family:Arial;" text-anchor="middle"><textPath startOffset="22.20632615414155" xlink:href="#id91">July</textPath></text><line stroke="#e1ed5e" stroke-width="0.3" x1="58.666819895761336" x2="56.23545636021788" y1="174.27360380694188" y2="178.64263932499728" /><path d="M 58.180547188652646 175.14741091055294 a86.0,86.0 0 0,1 -31.652253787137756,-30.449443065178592" fill="none" id="id92" stroke="none" /><text fill="#e1ed5e" style="font-size:6.75px; font-family:Arial;" text-anchor="middle"><textPath startOffset="22.20632615414155" xlink:href="#id92">August</textPath></text><line stroke="#e1ed5e" stroke-width="0.3" x1="26.63291911575756" x2="22.317208475507996" y1="142.92168965132927" y2="145.44649492493687" /><path d="M 25.769776987707644 143.4266507060508 a86.0,86.0 0 0,1 -11.730757126820373,-40.83630448921669" fill="none" id="id93" stroke="none" /><text fill="#e1ed5e" style="font-size:6.75px; font-family:Arial;" text-anchor="middle"><textPath startOffset="21.46611528233685" xlink:href="#id93">September</textPath></text><line stroke="#e1ed5e" stroke-width="0.3" x1="15.007084014347285" x2="10.007500721073583" y1="101.09737516637583" y2="101.16192664675087" /><path d="M 14.007167355692545 101.11028546245083 a86.0,86.0 0 0,1 10.666146001902534,-42.60595125391555" fill="none" id="id94" stroke="none" /><text fill="#e1ed5e" style="font-size:6.75px; font-family:Arial;" text-anchor="middle"><textPath startOffset="22.20632615414155" xlink:href="#id94">October</textPath></text><line stroke="#e1ed5e" stroke-width="0.3" x1="26.266209847984243" x2="21.928928074336255" y1="57.711370442889674" y2="55.22380399835377" /><path d="M 25.398753493254645 57.213857153982495 a86.0,86.0 0 0,1 29.58750427330803,-30.492523968695096" fill="none" id="id95" stroke="none" /><text fill="#e1ed5e" style="font-size:6.75px; font-family:Arial;" text-anchor="middle"><textPath startOffset="21.46611528233685" xlink:href="#id95">November</textPath></text><line stroke="#e1ed5e" stroke-width="0.3" x1="56.762969772571076" x2="54.21961505331055" y1="26.818313649435495" y2="22.513508569990535" /><path d="M 56.25429882871897 25.957352633546506 a86.0,86.0 0 0,1 42.265352541879196,-11.944610805530505" fill="none" id="id96" stroke="none" /><text fill="#e1ed5e" style="font-size:6.75px; font-family:Arial;" text-anchor="middle"><textPath startOffset="22.20632615414155" xlink:href="#id96">December</textPath></text></svg>