<?xml version="1.0" encoding="utf-8" ?>
<svg baseProfile="full" height="200mm" version="1.1" viewBox="0,0,200,200" width="200mm" xmlns="http://www.w3.org/2000/svg" xmlns:ev="http://www.w3.org/2001/xml-events" xmlns:xlink="http://www.w3.org/1999/xlink"><defs /><rect fill="#1a1a1a" height="200" width="200" x="0" y="0" /><text alignment-baseline="middle" fill="#e1ed5e" style="dominant-baseline: central; font-size:9.0px; font-family:Arial;" text-anchor="middle" x="100.0" y="100.0">2018</text><line stroke="#e1ed5e" stroke-width="0.3" x1="100.0" x2="100.0" y1="15.0" y2="10.0" /><path d="M 100.0 14.0 a86.0,86.0 0 0,1 42.46469731375804,11.215312516191453" fill="none" id="id25" stroke="none" /><text fill="#e1ed5e" style="font-size:6.75px; font-family:Arial;" text-anchor="middle"><textPath startOffset="22.20632615414155" xlink:href="#id25">January</textPath></text><line stroke="#e1ed5e" stroke-width="0.3" x1="143.23703022742887" x2="145.7803849466894" y1="26.81831364943548" y2="22.513508569990506" /><path d="M 143.74570117128098 25.957352633546492 a86.0,86.0 0 0,1 28.547481713284135,27.462654790039103" fill="none" id="id26" stroke="none" /><text fill="#e1ed5e" style="font-size:6.75px; font-family:Arial;" text-anchor="middle"><textPath startOffset="19.985693538727396" xlink:href="#id26">February</textPath></text><line stroke="#e1ed5e" stroke-width="0.3" x1="172.23445277983987" x2="176.4835382374775" y1="55.19839476539836" y2="52.563006222186495" /><path d="M 173.08426987136738 54.67131705675599 a86.0,86.0 0 0,1 12.851231095245387,41.99856678651699" fill="none" id="id27" stroke="none" /><text fill="#e1ed5e" style="font-size:6.75px; font-family:Arial;" text-anchor="middle"><textPath startOffset="22.20632615414155" xlink:href="#id27">March</textPath></text><path d="M 120.78858239683441 97.02765380044208 l 32.54211064829621 -4.652862665892281 a53.873060344811336,53.873060344811336 0 0,0 0.12335391830367409,0.9191299703994947 l -32.61738056565772 4.092014353428121" fill="#73ff27" stroke="none" /><line stroke="#e1ed5e" stroke-width="0.3" x1="184.98032266829074" x2="189.97916517819016" y1="98.17113171792111" y2="98.06355123074" /><path d="M 185.9800911702706 98.14961562048488 a86.0,86.0 0 0,1 -9.607161424134198,41.387399972396054" fill="none" id="id28" stroke="none" /><text fill="#e1ed5e" style="font-size:6.75px; font-family:Arial;" text-anchor="middle"><textPath startOffset="21.466115282336823" xlink:href="#id28">April</textPath></text><path d="M 120.49622156327973 104.57218783832717 l 32.016742367995924 7.142124202056139 a53.80368470120729,53.80368470120729 0 0,0 -0.20942298753941221,0.9021887492109809 l -31.889058814525956 -7.692181608615685" fill="#74ff27" stroke="none" /><path d="M 119.67450827220406 107.3425965602758 l 7.217238956029643 2.6934992834407985 a28.70347171983697,28.70347171983697 0 0,0 -0.17673919470956784,0.4614102667946805 l -7.169805481726568 -2.817333117068623" fill="#ff5407" stroke="none" /><path d="M 118.81262510543309 109.33194174019688 l 13.887248829386639 6.888724794182304 a36.50194211507973,36.50194211507973 0 0,0 -0.28405694932528275,0.5604713095085478 l -13.766613210275088 -7.126750315393546" fill="#ffbd11" stroke="none" /><line stroke="#e1ed5e" stroke-width="0.3" x1="174.80103733775053" x2="179.2010983576182" y1="140.37084112569926" y2="142.7455964860345" /><path d="M 175.68104954172406 140.8457921977663 a86.0,86.0 0 0,1 -30.038265399797805,32.042727171017184" fill="none" id="id29" stroke="none" /><text fill="#e1ed5e" style="font-size:6.75px; font-family:Arial;" text-anchor="middle"><textPath startOffset="22.206326154141568" xlink:href="#id29">May</textPath></text><line stroke="#e1ed5e" stroke-width="0.3" x1="143.8653032363475" x2="146.44561519142675" y1="172.8068346515853" y2="177.08958963109032" /><path d="M 144.38136562736335 173.6633856474863 a86.0,86.0 0 0,1 -40.68145358897372,12.25698825130547" fill="none" id="id30" stroke="none" /><text fill="#e1ed5e" style="font-size:6.75px; font-family:Arial;" text-anchor="middle"><textPath startOffset="21.466115282336833" xlink:href="#id30">June</textPath></text><line stroke="#e1ed5e" stroke-width="0.3" x1="102.19456741930631" x2="102.32365962044197" y1="184.97166512339345" y2="189.96999836594603" /><path d="M 102.22038585953345 185.97133177190398 a86.0,86.0 0 0,1 -42.740103519485714,-10.115201625700543" fill="none" id="id31" stroke="none" /><text fill="#e1ed5e" style="font-size:6.75px; font-family:Arial;" text-anchor="middle"><textPath startOffset="22.20632615414155" xlink:href="#id31">July</textPath></text><line stroke="#e1ed5e" stroke-width="0.3" x1="58.666819895761336" x2="56.23545636021788" y1="174.27360380694188" y2="178.64263932499728" /><path d="M 58.180547188652646 175.14741091055294 a86.0,86.0 0 0,1 -31.652253787137756,-30.449443065178592" fill="none" id="id32" stroke="none" /><text fill="#e1ed5e" style="font-size:6.75px; font-family:Arial;" text-anchor="middle"><textPath startOffset="22.20632615414155" xlink:href="#id32">August</textPath></text><path d="M 84.67929136418377 114.36230785411682 l -11.596387611192748 10.870965098720017 a36.89509634467855,36.89509634467855 0 0,0 -0.4303612560463172,-0.4670721460579194 l 11.781795275234794 -10.669741697860754" fill="#ffc212" stroke="none" /><path d="M 83.28015986056508 112.70617746262583 l -5.9502536495776726 4.521872110538382 a28.47347615761081,28.47347615761081 0 0,0 -0.29319373414806943,-0.39278091992660236 l 6.027208650420826 -4.418778311102472" fill="#ff5007" stroke="none" /><path d="M 83.06392112726016 112.41649034213515 l -6.428456814728333 4.712948761911056 a28.97100640140416,28.97100640140416 0 0,0 -0.29139342796153295,-0.40471998544913973 l 6.508630035065474 -4.6015951710107785" fill="#ff5708" stroke="none" /><line stroke="#e1ed5e" stroke-width="0.3" x1="26.63291911575756" x2="22.317208475507996" y1="142.92168965132927" y2="145.44649492493687" /><path d="M 25.769776987707644 143.4266507060508 a86.0,86.0 0 0,1 -11.730757126820373,-40.83630448921669" fill="none" id="id33" stroke="none" /><text fill="#e1ed5e" style="font-size:6.75px; font-family:Arial;" text-anchor="middle"><textPath startOffset="21.46611528233685" xlink:href="#id33">September</textPath></text><path d="M 81.69416730710424 110.29060199501025 l -6.5396409454054565 3.676251350508468 a28.502114880947833,28.502114880947833 0 0,0 -0.23673529598858484,-0.4297433266342962 l 6.601952650845558 -3.5631375054763494" fill="#ff5107" stroke="none" /><path d="M 80.58989483394504 108.01547362559985 l -34.011758376185604 14.045279502213006 a57.79768449420855,57.79768449420855 0 0,0 -0.37182457510209,-0.922838102291915 l 34.24848556554508 -13.457742032078286" fill="#4aff2c" stroke="none" /><path d="M 80.45479744820244 107.68017299344265 l -4.306316459785264 1.6921418587508381 a25.626846174442612,25.626846174442612 0 0,0 -0.15779513363488704,-0.4119533011849367 l 4.33480587301366 -1.6177649907327436" fill="#ff2803" stroke="none" /><path d="M 79.76711848015287 105.62410040840567 l -3.6442332122000596 1.0129814419639191 a24.782402293075826,24.782402293075826 0 0,0 -0.11070880152311677,-0.4119886351525755 l 3.6611300900649515 -0.9501018736358048" fill="#ff1b02" stroke="none" /><path d="M 79.29508885075956 103.50808413554451 l -7.462315933073367 1.2643585838423685 a28.568669745307727,28.568669745307727 0 0,0 -0.07797647762060521,-0.4855596005778769 l 7.482974165055263 -1.135719753571278" fill="#ff5207" stroke="none" /><path d="M 79.23777060512086 103.15116336523772 l -7.632610300121518 1.1584306049913495 a28.720019524593297,28.720019524593297 0 0,0 -0.0699755739903629,-0.48940900150890543 l 7.65141992512848 -1.0268761315020436" fill="#ff5407" stroke="none" /><path d="M 79.18660465613746 102.79330883721812 l -12.236265338067312 1.64219568881865 a33.34597084493407,33.34597084493407 0 0,0 -0.07145325527241132,-0.5695527480060739 l 12.262720102586572 -1.4313251865251675" fill="#ff940d" stroke="none" /><line stroke="#e1ed5e" stroke-width="0.3" x1="15.007084014347285" x2="10.007500721073583" y1="101.09737516637583" y2="101.16192664675087" /><path d="M 14.007167355692545 101.11028546245083 a86.0,86.0 0 0,1 10.666146001902534,-42.60595125391555" fill="none" id="id34" stroke="none" /><text fill="#e1ed5e" style="font-size:6.75px; font-family:Arial;" text-anchor="middle"><textPath startOffset="22.20632615414155" xlink:href="#id34">October</textPath></text><path d="M 79.00175016825051 100.2711162175752 l -9.903518793192228 0.12786801649704557 a30.904344234564675,30.904344234564675 0 0,0 -0.002289427242468771,-0.5319822630060009 l 9.9042525177242 0.042623724712630776" fill="#ff720a" stroke="none" /><path d="M 79.00019446554 99.90962569577889 l -15.476844552674438 -0.06660581002481912 a36.47698787366513,36.47698787366513 0 0,0 0.008106563941598633,-0.627862311023704 l 15.473404981615124 0.33300437910899516" fill="#ffbd11" stroke="none" /><path d="M 79.00486145842228 99.54816195383935 l -15.429652008221579 -0.33206276788920214 a36.43322476919955,36.43322476919955 0 0,0 0.01889028967872405,-0.6268767492708055 l 15.42165002408721 0.597609664585002" fill="#ffbc11" stroke="none" /><path d="M 79.08570108090925 98.10471618934814 l -7.687920445565225 -0.6966903941857124 a28.719423442375113,28.719423442375113 0 0,0 0.048854302576705796,-0.4919561598230062 l 7.67478901730629 0.828922084713149" fill="#ff5407" stroke="none" /><line stroke="#e1ed5e" stroke-width="0.3" x1="26.266209847984243" x2="21.928928074336255" y1="57.711370442889674" y2="55.22380399835377" /><path d="M 25.398753493254645 57.213857153982495 a86.0,86.0 0 0,1 29.58750427330803,-30.492523968695096" fill="none" id="id35" stroke="none" /><text fill="#e1ed5e" style="font-size:6.75px; font-family:Arial;" text-anchor="middle"><textPath startOffset="21.46611528233685" xlink:href="#id35">November</textPath></text><path d="M 82.15384107792192 88.93136811851018 l -53.53847676623425 -33.20589564446946 a84.0,84.0 0 0,0 0.7726896150161493,-1.222209409143138 l 52.95895955497213 34.12255270132681" fill="#4dd2ff" stroke="none" /><path d="M 83.84228863543731 86.58626213691792 l -10.751158097853855 -8.925349215326008 a34.97316209955961,34.97316209955961 0 0,0 0.3885175014581724,-0.45988217699826595 l 10.595929982908558 9.10909034195339" fill="#ffa90f" stroke="none" /><line stroke="#e1ed5e" stroke-width="0.3" x1="56.762969772571076" x2="54.21961505331055" y1="26.818313649435495" y2="22.513508569990535" /><path d="M 56.25429882871897 25.957352633546506 a86.0,86.0 0 0,1 42.265352541879196,-11.944610805530505" fill="none" id="id36" stroke="none" /><text fill="#e1ed5e" style="font-size:6.75px; font-family:Arial;" text-anchor="middle"><textPath startOffset="22.20632615414155" xlink:href="#id36">December</textPath></text><path d="M 89.3179101791058 81.91981866633112 l -18.49660025456693 -31.30678474588611 a57.36260430858181,57.36260430858181 0 0,0 0.8544385743820616,-0.4949459724759424 l 17.954964947719546 31.620534875752096" fill="#4eff2b" stroke="none" /><path d="M 89.63071344664047 81.73862282372117 l -0.9448102016478515 -1.6639076722879775 a22.91344063378947,22.91344063378947 0 0,0 0.3446573301281835,-0.19180143106376163 l 0.9160287824476223 1.6799245009119237" fill="#ff0000" stroke="none" /></svg>