<?xml version="1.0" encoding="utf-8" ?>
<svg baseProfile="full" height="200mm" version="1.1" viewBox="0,0,200,200" width="200mm" xmlns="http://www.w3.org/2000/svg" xmlns:ev="http://www.w3.org/2001/xml-events" xmlns:xlink="http://www.w3.org/1999/xlink"><defs /><rect fill="#1a1a1a" height="200" width="200" x="0" y="0" /><text alignment-baseline="middle" fill="#e1ed5e" style="dominant-baseline: central; font-size:9.0px; font-family:Arial;" text-anchor="middle" x="100.0" y="100.0">2019</text><line stroke="#e1ed5e" stroke-width="0.3" x1="100.0" x2="100.0" y1="15.0" y2="10.0" /><path d="M 100.0 14.0 a86.0,86.0 0 0,1 42.46469731375804,11.215312516191453" fill="none" id="id37" stroke="none" /><text fill="#e1ed5e" style="font-size:6.75px; font-family:Arial;" text-anchor="middle"><textPath startOffset="22.20632615414155" xlink:href="#id37">January</textPath></text><path d="M 106.74666289553966 80.11325718540242 l 8.815411550261402 -25.984671980688724 a48.439290419842706,48.439290419842706 0 0,0 0.7872953109856086,0.27467187505421586 l -9.261388865310284 25.8290792524623" fill="#a8ff21" stroke="none" /><path d="M 108.76106565485865 80.91482961587045 l 12.091679372910935 -26.340604003382882 a49.98337677566764,49.98337677566764 0 0,0 0.7788404739914332,0.36567604564957007 l -12.543298058201968 26.12856297509331" fill="#97ff23" stroke="none" /><line stroke="#e1ed5e" stroke-width="0.3" x1="143.23703022742887" x2="145.7803849466894" y1="26.81831364943548" y2="22.513508569990506" /><path d="M 143.74570117128098 25.957352633546492 a86.0,86.0 0 0,1 28.547481713284135,27.462654790039103" fill="none" id="id38" stroke="none" /><text fill="#e1ed5e" style="font-size:6.75px; font-family:Arial;" text-anchor="middle"><textPath startOffset="19.985693538727396" xlink:href="#id38">February</textPath></text><path d="M 115.19652480421416 85.50635884689758 l 43.72749274803653 -41.70496850958834 a81.42679885957341,81.42679885957341 0 0,0 0.9586364545440376,1.0226065307137446 l -44.438896524551026 40.94609256199654" fill="#4aeaff" stroke="none" /><line stroke="#e1ed5e" stroke-width="0.3" x1="172.23445277983987" x2="176.4835382374775" y1="55.19839476539836" y2="52.563006222186495" /><path d="M 173.08426987136738 54.67131705675599 a86.0,86.0 0 0,1 12.851231095245387,41.99856678651699" fill="none" id="id39" stroke="none" /><text fill="#e1ed5e" style="font-size:6.75px; font-family:Arial;" text-anchor="middle"><textPath startOffset="22.20632615414155" xlink:href="#id39">March</textPath></text><path d="M 118.21658344932153 89.55222093294921 l 54.649750347964606 -31.34333720115238 a84.0,84.0 0 0,0 0.7085694348302587,1.2604659602608244 l -55.1811774240873 30.397987730956764" fill="#4dd2ff" stroke="none" /><path d="M 120.08093135843002 93.85539295169968 l 13.466181575382326 -4.120545643270167 a35.082504841804216,35.082504841804216 0 0,0 0.1717273624898869,0.5789792960710439 l -13.535114834983915 3.8881369604525933" fill="#ffb510" stroke="none" /><line stroke="#e1ed5e" stroke-width="0.3" x1="184.98032266829074" x2="189.97916517819016" y1="98.17113171792111" y2="98.06355123074" /><path d="M 185.9800911702706 98.14961562048488 a86.0,86.0 0 0,1 -9.607161424134198,41.387399972396054" fill="none" id="id40" stroke="none" /><text fill="#e1ed5e" style="font-size:6.75px; font-family:Arial;" text-anchor="middle"><textPath startOffset="21.466115282336823" xlink:href="#id40">April</textPath></text><path d="M 120.99980553446 99.90962569577887 l 3.554840803455249 -0.015298535203193367 a24.55487372252373,24.55487372252373 0 0,0 -0.0018190516002876858,0.4226835292665588 l -3.5545774545654583 -0.04589447226705011" fill="#ff2703" stroke="none" /><path d="M 120.76222939487914 103.15116336523771 l 4.81214922759993 0.7303583861668473 a25.86725832075254,25.86725832075254 0 0,0 -0.07060313649661429,0.4396457983603739 l -4.798864336742027 -0.8130834142204261" fill="#ff3905" stroke="none" /><line stroke="#e1ed5e" stroke-width="0.3" x1="174.80103733775053" x2="179.2010983576182" y1="140.37084112569926" y2="142.7455964860345" /><path d="M 175.68104954172406 140.8457921977663 a86.0,86.0 0 0,1 -30.038265399797805,32.042727171017184" fill="none" id="id41" stroke="none" /><text fill="#e1ed5e" style="font-size:6.75px; font-family:Arial;" text-anchor="middle"><textPath startOffset="22.206326154141568" xlink:href="#id41">May</textPath></text><line stroke="#e1ed5e" stroke-width="0.3" x1="143.8653032363475" x2="146.44561519142675" y1="172.8068346515853" y2="177.08958963109032" /><path d="M 144.38136562736335 173.6633856474863 a86.0,86.0 0 0,1 -40.68145358897372,12.25698825130547" fill="none" id="id42" stroke="none" /><text fill="#e1ed5e" style="font-size:6.75px; font-family:Arial;" text-anchor="middle"><textPath startOffset="21.466115282336833" xlink:href="#id42">June</textPath></text><path d="M 110.8373102113329 117.98757091392108 l 3.6319424512326877 6.028232201797721 a28.037797201387455,28.037797201387455 0 0,0 -0.4155363483172518,0.2455061990061638 l -3.527638231887054 -6.089856973097634" fill="#ff5708" stroke="none" /><path d="M 108.59647513512805 119.15986991738527 l 2.8851388467905497 6.430412945907799 a28.047995234118602,28.047995234118602 0 0,0 -0.44219577806259636,0.19384563416661016 l -2.7740223940701996 -6.479123133368864" fill="#ff5808" stroke="none" /><path d="M 106.2309692047433 120.05430185196036 l 1.9282816695176408 6.206152106588997 a27.498814827883372,27.498814827883372 0 0,0 -0.45323942786495613,0.13655732163599132 l -1.8211672672124388 -6.238424797330714" fill="#ff5007" stroke="none" /><line stroke="#e1ed5e" stroke-width="0.3" x1="102.19456741930631" x2="102.32365962044197" y1="184.97166512339345" y2="189.96999836594603" /><path d="M 102.22038585953345 185.97133177190398 a86.0,86.0 0 0,1 -42.740103519485714,-10.115201625700543" fill="none" id="id43" stroke="none" /><text fill="#e1ed5e" style="font-size:6.75px; font-family:Arial;" text-anchor="middle"><textPath startOffset="22.20632615414155" xlink:href="#id43">July</textPath></text><path d="M 94.11515582081647 120.15858648285463 l -0.24429702200788578 0.8368416385721631 a21.871771164360272,21.871771164360272 0 0,0 -0.3604936834905378,-0.10861378966092122 l 0.2586656799386694 -0.8325124798055162" fill="#ff0000" stroke="none" /><line stroke="#e1ed5e" stroke-width="0.3" x1="58.666819895761336" x2="56.23545636021788" y1="174.27360380694188" y2="178.64263932499728" /><path d="M 58.180547188652646 175.14741091055294 a86.0,86.0 0 0,1 -31.652253787137756,-30.449443065178592" fill="none" id="id44" stroke="none" /><text fill="#e1ed5e" style="font-size:6.75px; font-family:Arial;" text-anchor="middle"><textPath startOffset="22.20632615414155" xlink:href="#id44">August</textPath></text><path d="M 86.24171649860922 115.8653595955263 l -4.644015517226294 5.355244797837697 a28.088407929077327,28.088407929077327 0 0,0 -0.3625513220883641,-0.31990938862357365 l 4.7355091922212456 -5.274512267441835" fill="#ff5808" stroke="none" /><line stroke="#e1ed5e" stroke-width="0.3" x1="26.63291911575756" x2="22.317208475507996" y1="142.92168965132927" y2="145.44649492493687" /><path d="M 25.769776987707644 143.4266507060508 a86.0,86.0 0 0,1 -11.730757126820373,-40.83630448921669" fill="none" id="id45" stroke="none" /><text fill="#e1ed5e" style="font-size:6.75px; font-family:Arial;" text-anchor="middle"><textPath startOffset="21.46611528233685" xlink:href="#id45">September</textPath></text><path d="M 79.67330655649465 105.27499134158121 l -2.488687373589746 0.6458406225328747 a23.571123286265884,23.571123286265884 0 0,0 -0.0985370444709699,-0.39360651098215743 l 2.499435732355777 -0.6029062721533253" fill="#ff1902" stroke="none" /><line stroke="#e1ed5e" stroke-width="0.3" x1="15.007084014347285" x2="10.007500721073583" y1="101.09737516637583" y2="101.16192664675087" /><path d="M 14.007167355692545 101.11028546245083 a86.0,86.0 0 0,1 10.666146001902534,-42.60595125391555" fill="none" id="id46" stroke="none" /><text fill="#e1ed5e" style="font-size:6.75px; font-family:Arial;" text-anchor="middle"><textPath startOffset="22.20632615414155" xlink:href="#id46">October</textPath></text><path d="M 79.08570108090925 98.10471618934814 l -13.166788684668282 -1.193193304201407 a34.220742586099306,34.220742586099306 0 0,0 0.05821253745066811,-0.586192307889756 l 13.144299021535385 1.4196611427955932" fill="#ffaa0f" stroke="none" /><path d="M 79.3925641242962 95.95851677861259 l -29.502166044402188 -5.785897371327606 a51.0641715286321,51.0641715286321 0 0,0 0.17658648047270242,-0.861098392196967 l 29.39820026801449 6.292871419687976" fill="#8bff24" stroke="none" /><path d="M 79.62865764111835 94.90015583598534 l -3.4419480330435808 -0.8616711790475582 a24.548166214113113,24.548166214113113 0 0,0 0.10614588276661242,-0.40902338593041876 l 3.426605818406661 0.9207909905268408" fill="#ff2703" stroke="none" /><path d="M 80.95270993114464 91.15688171328213 l -27.474354203948405 -12.755565920317856 a51.29099867735614,51.29099867735614 0 0,0 0.3786785273617919,-0.7975935536886705 l 27.25071748274486 13.226601889647059" fill="#89ff24" stroke="none" /><line stroke="#e1ed5e" stroke-width="0.3" x1="26.266209847984243" x2="21.928928074336255" y1="57.711370442889674" y2="55.22380399835377" /><path d="M 25.398753493254645 57.213857153982495 a86.0,86.0 0 0,1 29.58750427330803,-30.492523968695096" fill="none" id="id47" stroke="none" /><text fill="#e1ed5e" style="font-size:6.75px; font-family:Arial;" text-anchor="middle"><textPath startOffset="21.46611528233685" xlink:href="#id47">November</textPath></text><path d="M 82.15384107792192 88.93136811851018 l -25.999532837086555 -16.125557287758788 a51.59426916250056,51.59426916250056 0 0,0 0.4745994759072874,-0.7507023955746647 l 25.718105764933306 16.570707331047668" fill="#86ff25" stroke="none" /><line stroke="#e1ed5e" stroke-width="0.3" x1="56.76296977257108" x2="54.21961505331056" y1="26.818313649435495" y2="22.513508569990535" /><path d="M 56.25429882871898 25.957352633546506 a86.0,86.0 0 0,1 42.26535254187918,-11.944610805530505" fill="none" id="id48" stroke="none" /><text fill="#e1ed5e" style="font-size:6.75px; font-family:Arial;" text-anchor="middle"><textPath startOffset="22.20632615414155" xlink:href="#id48">December</textPath></text></svg>