<?xml version="1.0" encoding="utf-8" ?>
<svg baseProfile="full" height="200mm" version="1.1" viewBox="0,0,200,200" width="200mm" xmlns="http://www.w3.org/2000/svg" xmlns:ev="http://www.w3.org/2001/xml-events" xmlns:xlink="http://www.w3.org/1999/xlink"><defs /><rect fill="#1a1a1a" height="200" width="200" x="0" y="0" /><text alignment-baseline="middle" fill="#e1ed5e" style="dominant-baseline: central; font-size:9.0px; font-family:Arial;" text-anchor="middle" x="100.0" y="100.0">2017</text><line stroke="#e1ed5e" stroke-width="0.3" x1="100.0" x2="100.0" y1="15.0" y2="10.0" /><path d="M 100.0 14.0 a86.0,86.0 0 0,1 42.46469731375804,11.215312516191453" fill="none" id="id25" stroke="none" /><text fill="#e1ed5e" style="font-size:6.75px; font-family:Arial;" text-anchor="middle"><textPath startOffset="22.20632615414155" xlink:href="#id25">January</textPath></text><line stroke="#e1ed5e" stroke-width="0.3" x1="143.23703022742887" x2="145.7803849466894" y1="26.81831364943548" y2="22.513508569990506" /><path d="M 143.74570117128098 25.957352633546492 a86.0,86.0 0 0,1 28.547481713284135,27.462654790039103" fill="none" id="id26" stroke="none" /><text fill="#e1ed5e" style="font-size:6.75px; font-family:Arial;" text-anchor="middle"><textPath startOffset="19.985693538727396" xlink:href="#id26">February</textPath></text><path d="M 111.90073688211348 82.69761687909136 l 1.6547046881978533 -2.405761487777589 a23.919886289090346,23.919886289090346 0 0,0 0.33723492737617294,0.23625461789145025 l -1.695870755157677 2.376922027122203" fill="#ff0801" stroke="none" /><path d="M 112.77801427241765 83.33499621200491 l 2.3562897797618225 -3.0730579312395254 a24.87243935717064,24.87243935717064 0 0,0 0.3375159757411876,0.26343657265569387 l -2.4088383106624405 3.0320429693606075" fill="#ff1602" stroke="none" /><path d="M 114.16331599549186 84.49514656593476 l 3.2477286351592807 -3.555350773631642 a25.815419027581783,25.815419027581783 0 0,0 0.3255104492874361,0.30252648720234954 l -3.3084469682415634 3.498919700354652" fill="#ff2403" stroke="none" /><path d="M 115.19652480421416 85.50635884689758 l 3.467329940832469 -3.3069558053100137 a25.791485533408913,25.791485533408913 0 0,0 0.3036427637516547,0.3239049294908165 l -3.523740026554587 3.2467814589411423" fill="#ff2303" stroke="none" /><path d="M 115.68641384162765 86.03803664274999 l 15.062924799331526 -13.40701617492563 a41.16531145866669,41.16531145866669 0 0,0 0.466556145976891,0.5333543272363689 l -15.291472808886265 13.145746291486315" fill="#fff417" stroke="none" /><path d="M 116.38621287248628 86.86637796730983 l 3.820947189485377 -3.062506058238243 a25.896792907769548,25.896792907769548 0 0,0 0.2757958123583729,0.350232674191884 l -3.873097082437714 2.9962809900933207" fill="#ff2503" stroke="none" /><path d="M 117.2510076193507 88.02491185347247 l 17.09284847039668 -11.865299211776867 a41.807469673579604,41.807469673579604 0 0,0 0.4052846656112949,0.594705237283535 l -17.29455760167671 11.569315951222924" fill="#fffc17" stroke="none" /><line stroke="#e1ed5e" stroke-width="0.3" x1="172.23445277983987" x2="176.4835382374775" y1="55.19839476539836" y2="52.563006222186495" /><path d="M 173.08426987136738 54.67131705675599 a86.0,86.0 0 0,1 12.851231095245387,41.99856678651699" fill="none" id="id27" stroke="none" /><text fill="#e1ed5e" style="font-size:6.75px; font-family:Arial;" text-anchor="middle"><textPath startOffset="22.20632615414155" xlink:href="#id27">March</textPath></text><path d="M 118.56541770881063 90.18545643968196 l 4.252923744128591 -2.2482933591982737 a25.81063232874721,25.81063232874721 0 0,0 0.2042611246290631,0.3945674777731835 l -4.29099430191777 2.1747531591647453" fill="#ff2403" stroke="none" /><path d="M 119.196687751892 91.48605970444005 l 4.445665861709698 -1.9717012752304077 a25.863286015927528,25.863286015927528 0 0,0 0.17699021307069843,0.4085178140611674 l -4.478946784623077 1.8948843165826377" fill="#ff2403" stroke="none" /><path d="M 119.7369772167798 92.82701384747503 l 4.728247099976227 -1.7183812192381573 a26.03082047513763,26.03082047513763 0 0,0 0.14942548629860813,0.4224459716185517 l -4.757125667084645 1.6367376211929912" fill="#ff2703" stroke="none" /><path d="M 120.45610955862082 95.25157060432595 l 2.340688207793145 -0.543338539527354 a23.40292281495632,23.40292281495632 0 0,0 0.08771149457595892,0.3931934316882762 l -2.349694089371141 0.5029669382891139" fill="#ff0000" stroke="none" /><path d="M 120.6074358757038 95.95851677861258 l 4.711310193222197 -0.9239713864211547 a25.80105893107806,25.80105893107806 0 0,0 0.08172089319808176,0.436556279185351 l -4.726516810330138 0.8427370297732409" fill="#ff2403" stroke="none" /><path d="M 120.87857604477298 97.74499172005257 l 4.782816804723429 -0.5165721777670355 a25.81063232874721,25.81063232874721 0 0,0 0.043906189273430575,0.4421293341257878 l -4.791000119679088 0.4341673129368127" fill="#ff2403" stroke="none" /><path d="M 120.98425023603335 99.18683210126433 l 5.754079963692015 -0.2229783318728152 a26.75839869799293,26.75839869799293 0 0,0 0.013873981947686492,0.46040991698518485 l -5.757065640095346 0.12389826746263126" fill="#ff3104" stroke="none" /><line stroke="#e1ed5e" stroke-width="0.3" x1="184.98032266829074" x2="189.97916517819016" y1="98.17113171792111" y2="98.06355123074" /><path d="M 185.9800911702706 98.14961562048488 a86.0,86.0 0 0,1 -9.607161424134198,41.387399972396054" fill="none" id="id28" stroke="none" /><text fill="#e1ed5e" style="font-size:6.75px; font-family:Arial;" text-anchor="middle"><textPath startOffset="21.466115282336823" xlink:href="#id28">April</textPath></text><path d="M 120.99980553446 99.90962569577887 l 30.27893275567682 -0.13030775336763348 a51.27921314917854,51.27921314917854 0 0,0 -0.0037988195661109417,0.8827118818381439 l -30.276689638821207 -0.39091360667419517" fill="#92ff23" stroke="none" /><path d="M 120.8583938346157 102.4346265915055 l 62.575181503847105 7.303879774516526 a84.0,84.0 0 0,0 -0.1799939630126075,1.4347289828504204 l -62.44018603158764 -8.379926511654341" fill="#4dd2ff" stroke="none" /><path d="M 120.02730092923936 106.31721596034902 l 4.569548698841775 1.4413737564491533 a25.791485533408913,25.791485533408913 0 0,0 -0.13719565675638762,0.42224481417108406 l -4.54406079106914 -1.5198174705980325" fill="#ff2303" stroke="none" /><line stroke="#e1ed5e" stroke-width="0.3" x1="174.80103733775053" x2="179.2010983576182" y1="140.37084112569926" y2="142.7455964860345" /><path d="M 175.68104954172406 140.8457921977663 a86.0,86.0 0 0,1 -30.038265399797805,32.042727171017184" fill="none" id="id29" stroke="none" /><text fill="#e1ed5e" style="font-size:6.75px; font-family:Arial;" text-anchor="middle"><textPath startOffset="22.206326154141568" xlink:href="#id29">May</textPath></text><path d="M 118.30583269289576 110.29060199501025 l 2.0904704055483565 1.1751554428985018 a23.398136116121744,23.398136116121744 0 0,0 -0.20038609877330527,0.3493900538057896 l -2.0699323106226717 -1.2109653425626066" fill="#ff0000" stroke="none" /><path d="M 116.93607887273984 112.41649034213515 l 3.976187917736902 2.9150961831289455 a25.930299799611568,25.930299799611568 0 0,0 -0.26700643728021495,0.35769875630522197 l -3.925420213761595 -2.9831078189434823" fill="#ff2503" stroke="none" /><path d="M 113.20401910651253 116.32954008644616 l 3.0337758177043592 3.7519003440444854 a25.824992425250933,25.824992425250933 0 0,0 -0.3480747907904019,0.2765316651196879 l -2.9687435341966064 -3.803565923169299" fill="#ff2403" stroke="none" /><path d="M 111.7513745106137 117.40417183066458 l 5.359492587740573 7.937584649179797 a30.5775472257223,30.5775472257223 0 0,0 -0.4387518395039879,0.29078079481668617 l -5.222066049496621 -8.028663465087801" fill="#ff6809" stroke="none" /><line stroke="#e1ed5e" stroke-width="0.3" x1="143.8653032363475" x2="146.44561519142675" y1="172.8068346515853" y2="177.08958963109032" /><path d="M 144.38136562736335 173.6633856474863 a86.0,86.0 0 0,1 -40.68145358897372,12.25698825130547" fill="none" id="id30" stroke="none" /><text fill="#e1ed5e" style="font-size:6.75px; font-family:Arial;" text-anchor="middle"><textPath startOffset="21.466115282336833" xlink:href="#id30">June</textPath></text><path d="M 109.57404056367764 118.69057910512821 l 2.3219544729550408 4.532952776481858 a26.093047559987095,26.093047559987095 0 0,0 -0.40151744550751006,0.2013291825429036 l -2.24358311976477 -4.572249799934063" fill="#ff2803" stroke="none" /><path d="M 106.91757812671514 119.82793768551818 l 1.5941237691406547 4.569256201886028 a25.839352521754655,25.839352521754655 0 0,0 -0.42121868807149565,0.14290024868395418 l -1.515235348131932 -4.596019437468105" fill="#ff2403" stroke="none" /><path d="M 106.2309692047433 120.05430185196036 l 0.715818552734721 2.303853679271535 a23.412496212625467,23.412496212625467 0 0,0 -0.3858881357148875,0.11626492980224974 l -0.6760554425795876 -2.3158339781795103" fill="#ff0000" stroke="none" /><line stroke="#e1ed5e" stroke-width="0.3" x1="102.19456741930631" x2="102.32365962044197" y1="184.97166512339345" y2="189.96999836594603" /><path d="M 102.22038585953345 185.97133177190398 a86.0,86.0 0 0,1 -42.740103519485714,-10.115201625700543" fill="none" id="id31" stroke="none" /><text fill="#e1ed5e" style="font-size:6.75px; font-family:Arial;" text-anchor="middle"><textPath startOffset="22.20632615414155" xlink:href="#id31">July</textPath></text><path d="M 99.09653310690486 120.98055641714683 l -0.12541409380339472 2.9124005435696576 a23.91509959025577,23.91509959025577 0 0,0 -0.411125537960096,-0.02125049426930281 l 0.1755277001769796 -2.909810242538153" fill="#ff0801" stroke="none" /><path d="M 97.2962882734958 120.8252237178851 l -0.6224415384754965 4.7943292781500935 a25.834565822920084,25.834565822920084 0 0,0 -0.44050568477569235,-0.06105007401296706 l 0.7048758144380199 -4.7829046386445215" fill="#ff2403" stroke="none" /><path d="M 94.11515582081647 120.15858648285463 l -1.3467453657736197 4.613288321611566 a25.805845629912636,25.805845629912636 0 0,0 -0.42533566563069436,-0.12815014697286017 l 1.42595600584456 -4.58942280553298" fill="#ff2403" stroke="none" /><path d="M 93.08242187328487 119.8279376855182 l -3.1139919758646015 8.925672788890742 a30.453284125640874,30.453284125640874 0 0,0 -0.49345985250194513,-0.1769371466465839 l 3.2671713889962732 -8.8707481012042" fill="#ff6609" stroke="none" /><path d="M 92.7421414339146 119.70592522655815 l -4.22658691914718 11.475672201915858 a33.22927182913727,33.22927182913727 0 0,0 -0.5350383975182254,-0.20230574052559794 l 4.423495537425688 -11.401218211283625" fill="#ff8c0c" stroke="none" /><path d="M 92.40401165467489 119.57807347666478 l -1.7504602549603843 4.511676154780745 a25.839352521754655,25.839352521754655 0 0,0 -0.41328066289438353,-0.16445290490650338 l 1.827861993896626 -4.480876405468175" fill="#ff2403" stroke="none" /><path d="M 91.40352486487194 119.15986991738527 l -1.9692610094437408 4.389099506626893 a25.81063232874721,25.81063232874721 0 0,0 -0.40379136997493137,-0.18536081323944856 l 2.0445203751860914 -4.35455162305337" fill="#ff2403" stroke="none" /><path d="M 90.10565033884886 118.52300852407294 l -2.3049152369392854 4.314984414662867 a25.892006208934973,25.892006208934973 0 0,0 -0.3913110536034039,-0.2133739866262087 l 2.37884910241133 -4.274669776276892" fill="#ff2503" stroke="none" /><line stroke="#e1ed5e" stroke-width="0.3" x1="58.666819895761336" x2="56.23545636021788" y1="174.27360380694188" y2="178.64263932499728" /><path d="M 58.180547188652646 175.14741091055294 a86.0,86.0 0 0,1 -31.652253787137756,-30.449443065178592" fill="none" id="id32" stroke="none" /><text fill="#e1ed5e" style="font-size:6.75px; font-family:Arial;" text-anchor="middle"><textPath startOffset="22.20632615414155" xlink:href="#id32">August</textPath></text><path d="M 89.7882731507175 118.34994917583269 l -1.6154376469484684 2.9028585620965734 a24.322081670085158,24.322081670085158 0 0,0 -0.36407982685877965,-0.20673402759021825 l 1.6651662407284553 -2.8746213687117224" fill="#ff0e01" stroke="none" /><path d="M 87.07902340077011 116.55440617244103 l -2.9628531700414538 3.796019165385231 a25.815419027581783,25.815419027581783 0 0,0 -0.34794575848184617,-0.2764291540499901 l 3.027756421240658 -3.7444560973301106" fill="#ff2403" stroke="none" /><path d="M 86.51685102203217 116.09983520530335 l -3.239281965151871 3.867932180210662 a26.045180571641353,26.045180571641353 0 0,0 -0.341234683049669,-0.290807599823283 l 3.3053821247785966 -3.8116001901644276" fill="#ff2703" stroke="none" /><path d="M 86.24171649860922 115.8653595955263 l -3.1768046417464126 3.6633311125584114 a25.848925919423806,25.848925919423806 0 0,0 -0.3336451923624255,-0.2944030899985065 l 3.239392187015426 -3.608104880787616" fill="#ff2403" stroke="none" /><path d="M 85.18274418774928 114.88116024355367 l -3.630722462509388 3.646381182121533 a26.145701247167413,26.145701247167413 0 0,0 -0.31618790220073334,-0.3202966755893052 l 3.692950989765655 -3.5833440125515628" fill="#ff2903" stroke="none" /><path d="M 84.67929136418377 114.36230785411682 l -17.473164091424515 16.38011451244914 a44.95035730019062,44.95035730019062 0 0,0 -0.5243214991693856,-0.5690474325946151 l 17.752531998589628 -16.07691582505318" fill="#dbff1b" stroke="none" /><path d="M 84.43433777217949 114.09645910891817 l -10.506444255542908 9.514767804975437 a35.17449037099492,35.17449037099492 0 0,0 -0.40256559422849364,-0.45228671268428006 l 10.668668699419738 -9.332506922550293" fill="#ffa70f" stroke="none" /><path d="M 83.95833913139862 113.55231037782056 l -3.6967262846475766 3.123067019167035 a25.839352521754655,25.839352521754655 0 0,0 -0.2841147551159137,-0.3422345251140574 l 3.7499370396570266 -3.0589712369392164" fill="#ff2403" stroke="none" /><path d="M 83.72743513129214 113.27417163493432 l -3.757355312732512 3.0650226142625394 a25.848925919423806,25.848925919423806 0 0,0 -0.2782847210953599,-0.3472029777984262 l 3.8095579458827324 -2.9998918028858537" fill="#ff2403" stroke="none" /><path d="M 83.06392112726016 112.41649034213515 l -8.867285094215209 6.500947507424457 a31.995047223017256,31.995047223017256 0 0,0 -0.32180954844752135,-0.4469653165351022 l 8.977874435038338 -6.347348585438217" fill="#ff7c0b" stroke="none" /><path d="M 82.6465618267979 111.8261652097733 l -4.12955106189635 2.8142407638618114 a25.997313583295607,25.997313583295607 0 0,0 -0.2488275856145645,-0.37196347912361555 l 4.177381752921645 -2.742740370532375" fill="#ff2603" stroke="none" /><path d="M 82.05923443525364 110.91462005526583 l -4.224332571124168 2.569956384219457 a25.94465989611529,25.94465989611529 0 0,0 -0.22883081839360364,-0.3835336139517627 l 4.267944265216004 -2.496860676381583" fill="#ff2603" stroke="none" /><line stroke="#e1ed5e" stroke-width="0.3" x1="26.63291911575756" x2="22.317208475507996" y1="142.92168965132927" y2="145.44649492493687" /><path d="M 25.769776987707644 143.4266507060508 a86.0,86.0 0 0,1 -11.730757126820373,-40.83630448921669" fill="none" id="id33" stroke="none" /><text fill="#e1ed5e" style="font-size:6.75px; font-family:Arial;" text-anchor="middle"><textPath startOffset="21.46611528233685" xlink:href="#id33">September</textPath></text><path d="M 81.69416730710424 110.29060199501025 l -8.779141184179123 4.935183736244408 a31.07121434794441,31.07121434794441 0 0,0 -0.25807394139381046,-0.4684791662733227 l 8.86279153502445 -4.783334051573262" fill="#ff6f0a" stroke="none" /><path d="M 81.18737489456691 109.33194174019688 l -4.699771726263653 2.3313065399390087 a26.246221922693476,26.246221922693476 0 0,0 -0.19728003126973975,-0.40645529683076076 l 4.739205014148112 -2.250062287142963" fill="#ff2a04" stroke="none" /><path d="M 80.73074385275274 108.34839909993369 l -4.440510634691306 1.923849820803733 a25.839352521754655,25.839352521754655 0 0,0 -0.17330702139596388,-0.4096466045135478 l 4.4729686372795765 -1.8471286906240263" fill="#ff2403" stroke="none" /><path d="M 80.45479744820244 107.68017299344265 l -13.392016038965885 5.262314352467905 a35.38881669673046,35.38881669673046 0 0,0 -0.21790363987161837,-0.5688776435465456 l 13.480613958431013 -5.031013142088201" fill="#ffaa0f" stroke="none" /><path d="M 80.0844068197444 106.66101706037122 l -2.773647495847398 0.9276807937416566 a23.92467298792492,23.92467298792492 0 0,0 -0.12726530307873513,-0.39168232813904386 l 2.789205049942382 -0.8797995656248093" fill="#ff0801" stroke="none" /><path d="M 79.67330655649465 105.27499134158121 l -23.879453697832705 6.196970099827237 a45.6704427873739,45.6704427873739 0 0,0 -0.1909213403745847,-0.762635849901248 l 23.98258635250235 -5.785006410528596" fill="#d3ff1c" stroke="none" /><line stroke="#e1ed5e" stroke-width="0.3" x1="15.007084014347285" x2="10.007500721073583" y1="101.09737516637583" y2="101.16192664675087" /><path d="M 14.007167355692545 101.11028546245083 a86.0,86.0 0 0,1 10.666146001902534,-42.60595125391555" fill="none" id="id34" stroke="none" /><text fill="#e1ed5e" style="font-size:6.75px; font-family:Arial;" text-anchor="middle"><textPath startOffset="22.20632615414155" xlink:href="#id34">October</textPath></text><path d="M 79.08570108090925 98.10471618934814 l -14.155908218088653 -1.2828287371529719 a35.2139152610326,35.2139152610326 0 0,0 0.05990201281459605,-0.6032050942425768 l 14.131729079591828 1.526309362099979" fill="#ffa70f" stroke="none" /><path d="M 80.52162464483688 92.15188598940014 l -2.7305155579217115 -1.1001634897956711 a23.94381978326322,23.94381978326322 0 0,0 0.15732037443788083,-0.3809637652414917 l 2.711173496597631 1.1470018254904741" fill="#ff0801" stroke="none" /><path d="M 81.26839172434947 90.50648371742162 l -2.8265056993727 -1.432523971509511 a24.16879462848821,24.16879462848821 0 0,0 0.19126788948310702,-0.3694686831348855 l 2.8014283767294788 1.4809653769047322" fill="#ff0b01" stroke="none" /><path d="M 81.6062741919709 89.86733742301443 l -2.515577882536369 -1.3857715470969103 a23.872019300744604,23.872019300744604 0 0,0 0.2013688479069771,-0.3582127110866532 l 2.491351393336961 1.4288677681183481" fill="#ff0701" stroke="none" /><line stroke="#e1ed5e" stroke-width="0.3" x1="26.266209847984243" x2="21.928928074336255" y1="57.711370442889674" y2="55.22380399835377" /><path d="M 25.398753493254645 57.213857153982495 a86.0,86.0 0 0,1 29.58750427330803,-30.492523968695096" fill="none" id="id35" stroke="none" /><text fill="#e1ed5e" style="font-size:6.75px; font-family:Arial;" text-anchor="middle"><textPath startOffset="21.46611528233685" xlink:href="#id35">November</textPath></text><path d="M 81.96595687620814 89.24020034530311 l -4.3243979490424 -2.5801011586521576 a26.035607173972203,26.035607173972203 0 0,0 0.23293710809597193,-0.3828873590211287 l 4.279345042660211 2.6541562908803606" fill="#ff2703" stroke="none" /><path d="M 82.54541684631803 88.32363383020206 l -6.202580447481354 -4.149259817020838 a28.462463483101395,28.462463483101395 0 0,0 0.27591720056934915,-0.4048744454412217 l 6.130238781243265 4.255412285732476" fill="#ff4a06" stroke="none" /><path d="M 83.39014120810768 87.1503855733568 l -3.8087347653297554 -2.946489419387956 a25.815419027581783,25.815419027581783 0 0,0 0.27492919634644863,-0.34913215986297347 l 3.7574514883893357 3.0116139732039775" fill="#ff2403" stroke="none" /><path d="M 84.07557802195018 86.31012108654704 l -22.578712584132287 -19.410427689274382 a50.775207220729854,50.775207220729854 0 0,0 0.5754720212883206,-0.6578640007301233 l 22.24124869926612 19.796207246207448" fill="#98ff23" stroke="none" /><path d="M 84.5562425177563 85.77008943001954 l -6.839016156373373 -6.301483845737389 a30.299507548533164,30.299507548533164 0 0,0 0.3567156378190591,-0.3805193711467892 l 6.7295331965838585 6.4182726337622285" fill="#ff6409" stroke="none" /><path d="M 85.83668400450813 84.49514656593479 l -13.629423712502977 -14.920391320817435 a41.2083959754668,41.2083959754668 0 0,0 0.5278383683902362,-0.4738984988144426 l 13.37057435651677 15.152788828401157" fill="#fff517" stroke="none" /><path d="M 86.65592168130627 83.78471172551755 l -3.1450382379620474 -3.8217477779175058 a25.949446594949865,25.949446594949865 0 0,0 0.3473476784272573,-0.2808643328762893 l 3.0787871609702897 3.8753182080579296" fill="#ff2603" stroke="none" /><path d="M 87.22198572758235 83.33499621200491 l -2.9184207160956084 -3.8061854723139716 a25.79627223224349,25.79627223224349 0 0,0 0.3547034678931405,-0.2671552982430353 l 2.8524710944440783 3.855857360062861" fill="#ff2303" stroke="none" /><path d="M 88.70189139769569 82.29822771554957 l -2.6164730272389085 -4.099465790861964 a25.863286015927528,25.863286015927528 0 0,0 0.3773340710475719,-0.23628656067329637 l 2.5455198038190945 4.143896692858191" fill="#ff2403" stroke="none" /><line stroke="#e1ed5e" stroke-width="0.3" x1="56.762969772571076" x2="54.21961505331055" y1="26.818313649435495" y2="22.513508569990535" /><path d="M 56.25429882871897 25.957352633546506 a86.0,86.0 0 0,1 42.265352541879196,-11.944610805530505" fill="none" id="id36" stroke="none" /><text fill="#e1ed5e" style="font-size:6.75px; font-family:Arial;" text-anchor="middle"><textPath startOffset="22.20632615414155" xlink:href="#id36">December</textPath></text><path d="M 92.23578459929587 80.48803036053334 l -22.667401638563575 -56.96462936063551 a82.3088908335368,82.3088908335368 0 0,0 1.320927708624082,-0.5124994291029069 l 21.683490764939815 57.34637149362897" fill="#4be2ff" stroke="none" /></svg>