<?xml version="1.0" encoding="utf-8" ?>
<svg baseProfile="full" height="200mm" version="1.1" viewBox="0,0,200,200" width="200mm" xmlns="http://www.w3.org/2000/svg" xmlns:ev="http://www.w3.org/2001/xml-events" xmlns:xlink="http://www.w3.org/1999/xlink"><defs /><rect fill="#1a1a1a" height="200" width="200" x="0" y="0" /><text alignment-baseline="middle" fill="#e1ed5e" style="dominant-baseline: central; font-size:9.0px; font-family:Arial;" text-anchor="middle" x="100.0" y="100.0">2023</text><line stroke="#e1ed5e" stroke-width="0.3" x1="100.0" x2="100.0" y1="15.0" y2="10.0" /><path d="M 100.0 14.0 a86.0,86.0 0 0,1 42.46469731375804,11.215312516191453" fill="none" id="id85" stroke="none" /><text fill="#e1ed5e" style="font-size:6.75px; font-family:Arial;" text-anchor="middle"><textPath startOffset="22.20632615414155" xlink:href="#id85">January</textPath></text><line stroke="#e1ed5e" stroke-width="0.3" x1="143.23703022742887" x2="145.7803849466894" y1="26.81831364943548" y2="22.513508569990506" /><path d="M 143.74570117128098 25.957352633546492 a86.0,86.0 0 0,1 28.547481713284135,27.462654790039103" fill="none" id="id86" stroke="none" /><text fill="#e1ed5e" style="font-size:6.75px; font-family:Arial;" text-anchor="middle"><textPath startOffset="19.985693538727396" xlink:href="#id86">February</textPath></text><line stroke="#e1ed5e" stroke-width="0.3" x1="172.23445277983987" x2="176.4835382374775" y1="55.19839476539836" y2="52.563006222186495" /><path d="M 173.08426987136738 54.67131705675599 a86.0,86.0 0 0,1 12.851231095245387,41.99856678651699" fill="none" id="id87" stroke="none" /><text fill="#e1ed5e" style="font-size:6.75px; font-family:Arial;" text-anchor="middle"><textPath startOffset="22.20632615414155" xlink:href="#id87">March</textPath></text><path d="M 118.73160827565052 90.50648371742162 l 9.886454595355366 -5.01063316597243 a32.083701060113725,32.083701060113725 0 0,0 0.24542501536682834,0.49476185494209085 l -9.971239623675602 4.839711722531389" fill="#ff1802" stroke="none" /><path d="M 119.196687751892 91.48605970444005 l 10.037696466934099 -4.451827811597708 a31.980624810383794,31.980624810383794 0 0,0 0.2188529947756099,0.5051428860123438 l -10.11284017155239 4.278385780998761" fill="#ff1702" stroke="none" /><path d="M 119.85752413597 93.16781622104841 l 9.18078280907932 -3.1587419940560135 a30.70898676343208,30.70898676343208 0 0,0 0.16767502513438162,0.501326983071769 l -9.233795127985472 3.00024190806193" fill="#ff0100" stroke="none" /><path d="M 120.53481517161879 95.60439243477599 l 9.474015384013013 -2.0279731444855007 a30.688634711416757,30.688634711416757 0 0,0 0.10612525048335955,0.5175044109724383 l -9.50751993041137 1.8645930773496506" fill="#ff0100" stroke="none" /><path d="M 120.87857604477298 97.74499172005257 l 11.787903003376567 -1.2731624426315302 a32.85645814829799,32.85645814829799 0 0,0 0.05589176785517917,0.5628224747775447 l -11.808071896913974 1.0700644371495505" fill="#ff2503" stroke="none" /><path d="M 120.91429891909075 98.10471618934814 l 14.177024102278402 -1.2847422889104272 a35.2351176723446,35.2351176723446 0 0,0 0.04953976366461033,0.6045105963282075 l -14.197038349762508 1.040517775374451" fill="#ff4c07" stroke="none" /><path d="M 120.96714384426684 98.82574320788733 l 14.194124707084216 -0.7949364715187649 a35.21636733466075,35.21636733466075 0 0,0 0.028686903629514496,0.6055351956966948 l -14.205705218947227 0.5504901691990703" fill="#ff4c07" stroke="none" /><line stroke="#e1ed5e" stroke-width="0.3" x1="184.98032266829074" x2="189.97916517819016" y1="98.17113171792111" y2="98.06355123074" /><path d="M 185.9800911702706 98.14961562048488 a86.0,86.0 0 0,1 -9.607161424134198,41.387399972396054" fill="none" id="id88" stroke="none" /><text fill="#e1ed5e" style="font-size:6.75px; font-family:Arial;" text-anchor="middle"><textPath startOffset="21.466115282336823" xlink:href="#id88">April</textPath></text><path d="M 120.99513854157772 99.54816195383933 l 24.25900295334288 -0.5220799317202608 a45.26462016486975,45.26462016486975 0 0,0 0.010059507625178868,0.7791199515364597 l -24.264395468085773 0.10442372212333836" fill="#ffe615" stroke="none" /><path d="M 120.9764740272857 100.99374915477107 l 18.929486308021698 0.8967742145022981 a39.95071650036951,39.95071650036951 0 0,0 -0.0384547507204887,0.6866354065546881 l -18.911245206413682 -1.2224813373924095" fill="#ff970d" stroke="none" /><path d="M 120.95626037817324 101.35467743843564 l 18.898308347460187 1.2216450588468932 a39.937752639779845,39.937752639779845 0 0,0 -0.05025204114073409,0.6856491759327458 l -18.874479747655116 -1.5467673712764092" fill="#ff960d" stroke="none" /><path d="M 120.8583938346157 102.4346265915055 l 25.93563392864518 3.027250541479452 a47.111709119120846,47.111709119120846 0 0,0 -0.10095027653152097,0.8046730298192991 l -25.879682142866812 -3.473241325586146" fill="#feff18" stroke="none" /><path d="M 120.81339534386255 102.79330883721812 l 18.833940307155334 2.527651593142335 a40.002797953717376,40.002797953717376 0 0,0 -0.09746576758538607,0.6816753514852657 l -18.787640488553347 -2.85147241660801" fill="#ff970e" stroke="none" /><path d="M 120.49622156327973 104.57218783832717 l 35.431758476376444 7.903927789620904 a57.30263879157844,57.30263879157844 0 0,0 -0.22304215550045578,0.9608597683404154 l -35.290455754945434 -8.512656215309883" fill="#78ff26" stroke="none" /><path d="M 120.32669344350535 105.2749913415812 l 22.89707995178745 5.942033751277085 a44.655528643846935,44.655528643846935 0 0,0 -0.1994867163835309,0.7423642825431419 l -22.79140515906214 -6.335288966995776" fill="#ffdd14" stroke="none" /><line stroke="#e1ed5e" stroke-width="0.3" x1="174.80103733775053" x2="179.2010983576182" y1="140.37084112569926" y2="142.7455964860345" /><path d="M 175.68104954172406 140.8457921977663 a86.0,86.0 0 0,1 -30.038265399797805,32.042727171017184" fill="none" id="id89" stroke="none" /><text fill="#e1ed5e" style="font-size:6.75px; font-family:Arial;" text-anchor="middle"><textPath startOffset="22.206326154141568" xlink:href="#id89">May</textPath></text><path d="M 117.94076556474637 110.91462005526583 l 20.216420976440105 12.2990600952245 a44.663697012989985,44.663697012989985 0 0,0 -0.405238743053856,0.653373884627638 l -20.001717593718286 -12.64523031121741" fill="#ffdd14" stroke="none" /><path d="M 117.75023020441432 111.22182372390056 l 8.15089569305505 5.153055121314241 a30.643188149277513,30.643188149277513 0 0,0 -0.28570415286907347,0.44341918990992113 l -8.060986676808925 -5.2925959111456145" fill="#ff0000" stroke="none" /><path d="M 117.35343817320211 111.8261652097733 l 25.22349524096461 17.18951708072587 a51.523830192810514,51.523830192810514 0 0,0 -0.5057655054989569,0.7285929324451116 l -24.92386882830352 -17.621151275358002" fill="#c2ff1e" stroke="none" /><path d="M 116.93607887273984 112.41649034213515 l 19.135135472085846 14.028703253562792 a44.726734383635716,44.726734383635716 0 0,0 -0.4605548756182124,0.6169885186927211 l -18.890819329772544 -14.356004651764827" fill="#ffde14" stroke="none" /><path d="M 116.498646956653 112.99209946851258 l 26.14252745882178 20.586313410771726 a54.27503631525848,54.27503631525848 0 0,0 -0.5843149301643935,0.7290227179078143 l -25.784294616602537 -21.03326396225779" fill="#9eff22" stroke="none" /><path d="M 116.0416608686014 113.55231037782055 l 39.37796807047547 33.267281343887355 a72.5493586514201,72.5493586514201 0 0,0 -0.8141333234306273,0.9470209832141894 l -38.79949223747406 -33.94017942626307" fill="#3cffa8" stroke="none" /><path d="M 115.32070863581623 114.36230785411682 l 17.39519042805998 16.30701856210016 a44.84347928497745,44.84347928497745 0 0,0 -0.5327692521416663,0.5586064308871362 l -17.11191462453935 -16.604032109569804" fill="#ffe014" stroke="none" /><path d="M 114.81725581225074 114.88116024355365 l 12.624158249236753 12.678604204939864 a38.891796334837125,38.891796334837125 0 0,0 -0.47846178263314676,0.4682755571628504 l -12.404046514227812 -12.894029865025287" fill="#ff860c" stroke="none" /><path d="M 114.29624159901734 115.38237550388516 l 42.88872479705202 46.14712651165547 a84.0,84.0 0 0,0 -1.0676018021325442,0.9752289336536681 l -42.088023445452606 -46.878548211895726" fill="#4dd2ff" stroke="none" /><line stroke="#e1ed5e" stroke-width="0.3" x1="143.8653032363475" x2="146.44561519142675" y1="172.8068346515853" y2="177.08958963109032" /><path d="M 144.38136562736335 173.6633856474863 a86.0,86.0 0 0,1 -40.68145358897372,12.25698825130547" fill="none" id="id90" stroke="none" /><text fill="#e1ed5e" style="font-size:6.75px; font-family:Arial;" text-anchor="middle"><textPath startOffset="21.466115282336833" xlink:href="#id90">June</textPath></text><line stroke="#e1ed5e" stroke-width="0.3" x1="102.19456741930631" x2="102.32365962044197" y1="184.97166512339345" y2="189.96999836594603" /><path d="M 102.22038585953345 185.97133177190398 a86.0,86.0 0 0,1 -42.740103519485714,-10.115201625700543" fill="none" id="id91" stroke="none" /><text fill="#e1ed5e" style="font-size:6.75px; font-family:Arial;" text-anchor="middle"><textPath startOffset="22.20632615414155" xlink:href="#id91">July</textPath></text><line stroke="#e1ed5e" stroke-width="0.3" x1="58.666819895761336" x2="56.23545636021788" y1="174.27360380694188" y2="178.64263932499728" /><path d="M 58.180547188652646 175.14741091055294 a86.0,86.0 0 0,1 -31.652253787137756,-30.449443065178592" fill="none" id="id92" stroke="none" /><text fill="#e1ed5e" style="font-size:6.75px; font-family:Arial;" text-anchor="middle"><textPath startOffset="22.20632615414155" xlink:href="#id92">August</textPath></text><line stroke="#e1ed5e" stroke-width="0.3" x1="26.63291911575756" x2="22.317208475507996" y1="142.92168965132927" y2="145.44649492493687" /><path d="M 25.769776987707644 143.4266507060508 a86.0,86.0 0 0,1 -11.730757126820373,-40.83630448921669" fill="none" id="id93" stroke="none" /><text fill="#e1ed5e" style="font-size:6.75px; font-family:Arial;" text-anchor="middle"><textPath startOffset="21.46611528233685" xlink:href="#id93">September</textPath></text><line stroke="#e1ed5e" stroke-width="0.3" x1="15.007084014347285" x2="10.007500721073583" y1="101.09737516637583" y2="101.16192664675087" /><path d="M 14.007167355692545 101.11028546245083 a86.0,86.0 0 0,1 10.666146001902534,-42.60595125391555" fill="none" id="id94" stroke="none" /><text fill="#e1ed5e" style="font-size:6.75px; font-family:Arial;" text-anchor="middle"><textPath startOffset="22.20632615414155" xlink:href="#id94">October</textPath></text><line stroke="#e1ed5e" stroke-width="0.3" x1="26.266209847984243" x2="21.928928074336255" y1="57.711370442889674" y2="55.22380399835377" /><path d="M 25.398753493254645 57.213857153982495 a86.0,86.0 0 0,1 29.58750427330803,-30.492523968695096" fill="none" id="id95" stroke="none" /><text fill="#e1ed5e" style="font-size:6.75px; font-family:Arial;" text-anchor="middle"><textPath startOffset="21.46611528233685" xlink:href="#id95">November</textPath></text><line stroke="#e1ed5e" stroke-width="0.3" x1="56.762969772571076" x2="54.21961505331055" y1="26.818313649435495" y2="22.513508569990535" /><path d="M 56.25429882871897 25.957352633546506 a86.0,86.0 0 0,1 42.265352541879196,-11.944610805530505" fill="none" id="id96" stroke="none" /><text fill="#e1ed5e" style="font-size:6.75px; font-family:Arial;" text-anchor="middle"><textPath startOffset="22.20632615414155" xlink:href="#id96">December</textPath></text></svg>